<?xml version="1.0" encoding="iso-8859-1"?>
<!-- Generator: Adobe Illustrator 16.0.0, SVG Export Plug-In . SVG Version: 6.00 Build 0)  -->
<!DOCTYPE svg PUBLIC "-//W3C//DTD SVG 1.1//EN" "http://www.w3.org/Graphics/SVG/1.1/DTD/svg11.dtd">
<svg version="1.1" id="Capa_1" xmlns="http://www.w3.org/2000/svg" xmlns:xlink="http://www.w3.org/1999/xlink" x="0px" y="0px"
	 width="26.474px" height="26.474px" viewBox="0 0 26.474 26.474" style="enable-background:new 0 0 26.474 26.474;"
	 xml:space="preserve">
<g>
	<path d="M26.356,23.982l-0.813-4.572c-0.218-1.225-1.382-2.428-2.598-2.684l-4.804-1.014c-0.217-0.256-0.441-0.461-0.684-0.623
		c-0.023-0.236-0.005-0.412,0.062-0.557c0.243-0.536,0.431-1.033,0.569-1.521c0.318-0.138,0.496-0.403,0.564-0.511
		c0.113-0.17,0.208-0.354,0.287-0.543c0.217-0.51,0.313-1.012,0.419-1.543c0.04-0.205,0.104-0.405,0.178-0.633l0.112-0.369
		c0.126-0.436,0.057-0.875-0.193-1.209c-0.051-0.064-0.104-0.125-0.166-0.18c0.271-1.414,0.122-2.768-0.438-4.023
		c-0.729-1.629-1.895-2.678-3.469-3.114c-0.576-0.162-1.174-0.281-1.775-0.354l-0.002-0.217l-0.189-0.009
		c-0.346-0.019-0.689-0.024-1.037-0.024l-0.381,0.002c-0.221,0.004-0.447,0.027-0.678,0.069L11.083,0l-0.928,0.603
		C9.973,0.717,9.794,0.832,9.622,0.957c-0.238,0.176-0.43,0.385-0.57,0.623C8.571,1.705,8.124,1.947,7.694,2.32
		C7.632,2.373,7.58,2.429,7.506,2.516l-0.52,0.638l0.186,0.185c-0.182,0.409-0.229,0.8-0.144,1.067
		c-0.251,1.15-0.211,2.325,0.125,3.688C6.959,8.282,6.84,8.533,6.799,8.842c-0.061,0.432-0.096,1,0.172,1.566
		c0.123,0.26,0.203,0.532,0.302,0.871l0.058,0.19c0.067,0.231,0.157,0.457,0.258,0.678c0.084,0.183,0.194,0.356,0.334,0.521
		c0.115,0.135,0.244,0.242,0.383,0.32C8.451,13.508,8.653,14,8.91,14.455c-0.006,0.244-0.016,0.484-0.025,0.729l-0.006,0.154
		c-0.172,0.111-0.322,0.238-0.457,0.355l-0.328,0.068c-0.504-1.371-1.812-2.358-3.354-2.358c-1.978,0-3.584,1.607-3.584,3.584
		c0,0.457,0.095,0.889,0.25,1.291c-0.231,0.354-0.405,0.736-0.476,1.129L0.117,23.98c-0.116,0.654,0.039,1.277,0.438,1.756
		c0.398,0.477,0.984,0.737,1.648,0.737h22.072c0.664,0,1.25-0.264,1.648-0.737C26.317,25.26,26.474,24.637,26.356,23.982z
		 M8.838,16.703l0.192-0.047L9.013,16.57c0.173-0.149,0.371-0.272,0.551-0.375c0.027-0.019,0.057-0.037,0.111-0.082
		c0.164-0.086,0.25-0.215,0.261-0.485l0.012-0.281c0.015-0.31,0.024-0.616,0.031-0.924c0.002-0.122-0.031-0.259-0.095-0.373
		c-0.326-0.604-0.541-1.197-0.686-1.898l-0.193,0.059l0.188-0.073L9.05,11.937l-0.203,0.125c-0.012,0-0.045-0.009-0.11-0.087
		c-0.073-0.085-0.133-0.178-0.174-0.27c-0.08-0.176-0.153-0.354-0.207-0.539L8.3,10.98c-0.1-0.34-0.2-0.691-0.36-1.029
		C7.794,9.644,7.818,9.293,7.86,8.99c0.017-0.121,0.024-0.182,0.353-0.209L8.459,8.76L8.387,8.524
		C7.866,6.818,7.805,5.486,8.188,4.207L8.061,4.16C8.057,3.92,8.229,3.514,8.602,3.131L8.529,3.027
		c0.341-0.263,0.69-0.41,1.063-0.451c0.117-0.013,0.266-0.105,0.301-0.238c0.057-0.204,0.175-0.371,0.363-0.51
		c0.141-0.104,0.289-0.197,0.436-0.291l0.068,0.098c0.436-0.167,0.832-0.256,1.207-0.27l0.113,0.151l0.196,0.004
		c0.955,0.013,1.904,0.149,2.817,0.405c1.27,0.354,2.177,1.178,2.774,2.52c0.55,1.227,0.627,2.508,0.24,3.922l-0.042,0.148
		l-0.034,0.188l0.183,0.06l0.179,0.01c0.063,0,0.151,0.015,0.202,0.083c0.047,0.062,0.055,0.155,0.021,0.266l-0.104,0.344
		c-0.077,0.248-0.155,0.494-0.215,0.793c-0.088,0.453-0.172,0.881-0.345,1.287c-0.055,0.127-0.116,0.254-0.192,0.369
		c-0.062,0.094-0.092,0.112-0.088,0.115c-0.011-0.002-0.047-0.011-0.153-0.082l-0.25-0.173l-0.089,0.443
		c-0.124,0.589-0.334,1.2-0.639,1.875c-0.244,0.534-0.175,1.103-0.046,1.614l0.095,0.127l0.058,0.027
		c0.162,0.08,0.319,0.194,0.496,0.367c0.089,0.082,0.177,0.168,0.254,0.266c0.021,0.025,0.041,0.049,0.073,0.084l-0.006,0.094
		l0.439,0.093c-0.136,0.147-0.271,0.284-0.413,0.41c-0.28,0.253-0.6,0.487-0.944,0.698c-0.429,0.263-0.889,0.474-1.367,0.627
		c-0.652,0.213-1.309,0.318-1.946,0.318c-0.75,0-1.494-0.135-2.211-0.398c-0.468-0.176-0.915-0.403-1.329-0.68
		c-0.214-0.146-0.419-0.301-0.613-0.469c-0.176-0.15-0.347-0.318-0.521-0.509L8.838,16.703z M2.15,16.988
		c0-1.424,1.159-2.582,2.584-2.582c1.062,0,1.977,0.646,2.373,1.564c0.135,0.312,0.211,0.656,0.211,1.018
		c0,0.015-0.004,0.023-0.004,0.037c-0.02,1.406-1.168,2.547-2.58,2.547c-0.879,0-1.654-0.441-2.122-1.115
		c-0.216-0.311-0.358-0.674-0.421-1.061C2.17,17.262,2.15,17.128,2.15,16.988z M25.095,25.048c-0.191,0.229-0.484,0.354-0.825,0.354
		h-4.224v-2.429c0-0.295-0.24-0.536-0.537-0.536s-0.537,0.241-0.537,0.536v2.429H7.495v-2.429c0-0.295-0.241-0.536-0.536-0.536
		c-0.298,0-0.537,0.241-0.537,0.536v2.429H2.197c-0.341,0-0.634-0.125-0.824-0.354c-0.191-0.229-0.265-0.539-0.205-0.875
		l0.813-4.576c0.015-0.084,0.041-0.17,0.069-0.254c0.658,0.748,1.609,1.229,2.683,1.229c1.66,0,3.046-1.141,3.452-2.672h0.001
		c0.348,0.32,0.717,0.604,1.098,0.842c1.199,0.752,2.565,1.148,3.949,1.148c1.276,0,2.553-0.345,3.692-0.998
		c0.543-0.312,1.048-0.689,1.498-1.129c0.258-0.251,0.479-0.497,0.68-0.751l3.62,0.765c0.797,0.168,1.618,1.019,1.762,1.817
		l0.813,4.576C25.358,24.509,25.286,24.818,25.095,25.048z M4.234,17.488H2.65v-0.414v-0.086v-0.5h1.584v-1.584h0.5h0.5v1.461v0.123
		h1.584v0.5v0.143v0.357H5.234v1.584h-0.5h-0.5v-1.396V17.488z"/>
</g>
<g>
</g>
<g>
</g>
<g>
</g>
<g>
</g>
<g>
</g>
<g>
</g>
<g>
</g>
<g>
</g>
<g>
</g>
<g>
</g>
<g>
</g>
<g>
</g>
<g>
</g>
<g>
</g>
<g>
</g>
</svg>
