<?xml version="1.0" encoding="iso-8859-1"?>
<!-- Generator: Adobe Illustrator 16.0.0, SVG Export Plug-In . SVG Version: 6.00 Build 0)  -->
<!DOCTYPE svg PUBLIC "-//W3C//DTD SVG 1.1//EN" "http://www.w3.org/Graphics/SVG/1.1/DTD/svg11.dtd">
<svg version="1.1" id="Capa_1" xmlns="http://www.w3.org/2000/svg" xmlns:xlink="http://www.w3.org/1999/xlink" x="0px" y="0px"
	 width="97.887px" height="97.887px" viewBox="0 0 97.887 97.887" style="enable-background:new 0 0 97.887 97.887;"
	 xml:space="preserve">
<g>
	<g>
		<path d="M53.627,95.906c7.305-26.867,5.48-45.306-9.945-70.106c2.945,9.414,10.205,30.351,10.205,40.005
			c-0.224,2.822-6.534-0.846-15.983-14.589c2.702,9.007,4.604,10.335,10.93,16.81c3.053,3.128,5.084,3.97,4.224,7.837
			c-1.027,4.592-1.705,9.291-3.089,13.771c-1.362,4.373-1.299,4.9-8.193,8.131l16.531,0.123
			C57.565,97.764,55.33,95.485,53.627,95.906z"/>
		<path d="M72.773,43.015c1.349-1.247,1.766-3.17,1.554-4.572c-0.021-0.147-0.059-0.294-0.089-0.431
			c-0.445-1.708-1.205-2.832-2.307-3.434c-1.089-0.596-2.484-0.648-4.134-0.113c-3.929,1.267-9.165,9.413-9.747,10.328
			c-0.085,0.141-0.13,0.298-0.099,0.489c0.027,0.18,0.105,0.337,0.229,0.432c0.083,0.07,8.036,6.892,12.354,6.939l0.086,0.008
			c1.69,0,2.98-0.452,3.829-1.335c0.876-0.896,1.27-2.197,1.197-3.955c-0.007-0.147-0.021-0.288-0.051-0.438
			C75.387,45.528,74.429,43.811,72.773,43.015z M73.433,50.343c-0.575,0.589-1.509,0.89-2.771,0.89h-0.11
			c-2.505-0.03-7.248-3.179-10.957-6.199c2.525-3.834,6.218-8.439,8.645-9.219c1.242-0.397,2.266-0.4,3.011,0.01
			c0.753,0.409,1.276,1.244,1.622,2.558c0.021,0.084,0.041,0.175,0.055,0.264c0.179,1.188-0.26,3.308-2.203,3.966
			c-0.329,0.107-0.534,0.435-0.479,0.789c0.055,0.339,0.343,0.592,0.681,0.599c2.057,0.063,3.104,1.959,3.282,3.14
			c0.007,0.101,0.014,0.2,0.027,0.288C74.286,48.776,74.029,49.724,73.433,50.343z"/>
		<path d="M54.656,30.117c-0.014,0.14,0.027,0.279,0.116,0.396c0.086,0.113,0.219,0.193,0.363,0.217
			c0.103,0.014,2.478,0.407,4.771,0.407c1.759,0,3.038-0.228,3.805-0.681c0.932-0.539,1.492-1.211,1.681-1.983
			c0.178-0.773-0.031-1.602-0.64-2.529c-0.034-0.053-0.072-0.103-0.165-0.219c-0.615-0.742-1.58-1.204-2.519-1.204
			c-0.021,0-0.034,0-0.058,0c0.226-1.044-0.15-2.093-0.702-2.755c-0.058-0.07-0.116-0.141-0.188-0.206
			c-0.753-0.741-1.492-1.099-2.259-1.099l-0.096,0.003c-0.791,0.033-1.554,0.457-2.266,1.27
			C54.765,23.721,54.656,29.877,54.656,30.117z M58.803,21.628l0.052-0.378v0.378c0.458,0,0.938,0.25,1.458,0.758
			c0.034,0.038,0.068,0.073,0.109,0.118c0.421,0.517,0.817,1.655,0.085,2.517c-0.178,0.214-0.178,0.522,0,0.75
			c0.179,0.21,0.511,0.26,0.732,0.13c0.869-0.478,2.006,0.027,2.457,0.571c0.028,0.038,0.056,0.073,0.079,0.121
			c0.424,0.628,0.575,1.153,0.476,1.612c-0.103,0.453-0.489,0.869-1.129,1.246c-0.404,0.231-1.28,0.51-3.176,0.51
			c-1.574,0-3.224-0.192-4.114-0.312c0.124-2.698,0.589-6.055,1.541-7.152C57.866,21.945,58.345,21.65,58.803,21.628z"/>
		<path d="M86.092,30.676c0.188-0.777-0.021-1.602-0.63-2.532c-0.034-0.05-0.072-0.1-0.165-0.214
			c-0.622-0.758-1.615-1.227-2.573-1.207c0.226-1.044-0.15-2.094-0.705-2.755c-0.055-0.068-0.112-0.14-0.185-0.206
			c-0.753-0.739-1.492-1.097-2.259-1.097L79.48,22.67c-0.794,0.027-1.561,0.452-2.272,1.265c-1.728,1.987-1.838,8.145-1.838,8.382
			c-0.014,0.141,0.028,0.277,0.117,0.396c0.085,0.109,0.219,0.193,0.362,0.217c0.096,0.014,2.471,0.407,4.771,0.407
			c1.759,0,3.032-0.228,3.806-0.679C85.353,32.121,85.914,31.451,86.092,30.676z M80.658,32.173c-1.574,0-3.224-0.193-4.114-0.313
			c0.124-2.697,0.589-6.057,1.537-7.151c0.496-0.558,0.972-0.855,1.431-0.873l0.051-0.378v0.378c0.459,0,0.931,0.248,1.458,0.756
			c0.034,0.04,0.068,0.074,0.106,0.12c0.424,0.515,0.821,1.652,0.082,2.515c-0.171,0.214-0.171,0.522,0,0.75
			c0.178,0.21,0.51,0.263,0.739,0.13c0.869-0.476,2.005,0.029,2.457,0.571c0.027,0.04,0.055,0.074,0.078,0.124
			c0.425,0.626,0.575,1.151,0.477,1.612c-0.109,0.452-0.49,0.869-1.13,1.24C83.429,31.893,82.553,32.173,80.658,32.173z"/>
		<path d="M71.931,57.177c-0.753-0.438-2.002-0.66-3.717-0.66c-2.375,0-4.859,0.431-4.846,0.431
			c-0.157,0.011-0.294,0.086-0.366,0.182c-0.116,0.109-0.171,0.271-0.157,0.407c0,0.065,0.137,6.383,1.875,8.374
			c0.712,0.812,1.479,1.239,2.272,1.267l0.093,0.003c0.76,0,1.499-0.359,2.278-1.105l0.172-0.198
			c0.547-0.664,0.924-1.718,0.698-2.758c0.021,0,0.034,0,0.055,0c0.947,0,1.909-0.47,2.505-1.201
			c0.071-0.072,0.123-0.151,0.178-0.229c0.612-0.924,0.808-1.745,0.626-2.525C73.426,58.389,72.865,57.725,71.931,57.177z
			 M71.993,61.072c-0.021,0.034-0.045,0.062-0.082,0.1c-0.445,0.537-1.558,1.071-2.457,0.558l-0.179-0.068h-0.092
			c-0.175,0-0.332,0.075-0.455,0.209c-0.179,0.222-0.179,0.544,0.007,0.749c0.732,0.866,0.339,1.999-0.086,2.516
			c-0.034,0.044-0.072,0.078-0.109,0.112c-0.523,0.514-0.992,0.767-1.492,0.767l0,0c-0.465-0.021-0.948-0.314-1.438-0.876
			c-0.947-1.078-1.43-4.318-1.574-7.111c0.842-0.123,2.588-0.342,4.224-0.342c1.834,0,2.7,0.273,3.087,0.506
			c0.646,0.37,1.02,0.787,1.122,1.239C72.578,59.884,72.427,60.415,71.993,61.072z"/>
		<path d="M89.49,45.569c-0.109-0.854-0.619-1.85-1.529-2.407c0.746-0.76,0.999-1.864,0.896-2.683
			c-0.014-0.099-0.027-0.207-0.048-0.284c-0.253-1.073-0.712-1.792-1.403-2.19c-0.674-0.404-1.55-0.457-2.591-0.151
			c-2.56,0.746-6.054,6.037-6.061,6.059c-0.096,0.122-0.144,0.275-0.116,0.424c0.021,0.147,0.089,0.279,0.188,0.353
			c0.041,0.043,4.729,4.293,7.371,4.397l0.205,0.007c0.979,0,1.746-0.258,2.279-0.78c0.568-0.561,0.842-1.364,0.828-2.501
			L89.49,45.569z M87.865,47.479c-0.309,0.294-0.787,0.447-1.435,0.447l-0.188-0.009c-1.421-0.051-4.113-1.93-6.246-3.749
			c1.558-2.207,3.762-4.786,5.147-5.193c0.698-0.204,1.279-0.197,1.677,0.034c0.403,0.243,0.685,0.715,0.862,1.461l0.021,0.144
			c0.075,0.661-0.191,1.834-1.283,2.169c-0.26,0.091-0.418,0.344-0.397,0.631c0.042,0.277,0.268,0.495,0.548,0.505
			c1.126,0.067,1.677,1.134,1.766,1.793l0.007,0.161C88.35,46.628,88.197,47.154,87.865,47.479z"/>
		<path d="M67.701,23.59c0.089,0.113,0.227,0.187,0.353,0.193c0.021,0.004,1.988,0.284,4.135,0.284c2.094,0,3.586-0.267,4.435-0.795
			c0.914-0.579,1.458-1.261,1.619-2.043c0.157-0.786-0.075-1.602-0.705-2.505l-0.171-0.221c-0.654-0.735-1.66-1.136-2.622-1.122
			c0.198-1.054-0.216-2.11-0.763-2.712c-0.065-0.081-0.134-0.154-0.209-0.224c-0.808-0.743-1.602-1.083-2.396-1.017
			c-0.79,0.057-1.54,0.501-2.228,1.335c-1.677,2.029-1.602,8.198-1.602,8.422C67.543,23.333,67.595,23.483,67.701,23.59z
			 M70.048,15.502c0.483-0.573,0.952-0.88,1.403-0.914h0.082c0.452,0,0.924,0.231,1.451,0.719c0.034,0.031,0.062,0.057,0.1,0.104
			c0.438,0.505,0.869,1.631,0.15,2.531c-0.15,0.221-0.137,0.519,0.037,0.732c0.186,0.204,0.507,0.248,0.739,0.113
			c0.846-0.513,1.988-0.06,2.513,0.539l0.055,0.07c0.438,0.623,0.602,1.146,0.52,1.602c-0.096,0.452-0.465,0.879-1.099,1.274
			c-0.451,0.284-1.478,0.621-3.791,0.621c-1.335,0-2.656-0.109-3.491-0.204C68.772,19.879,69.138,16.615,70.048,15.502z"/>
		<path d="M60.75,12.85l0.15,0.024c0.356,0.053,1.615,0.236,2.834,0.236c1.092,0,1.854-0.137,2.348-0.424
			c0.596-0.351,0.951-0.782,1.071-1.273c0.112-0.51-0.007-1.04-0.397-1.632c-0.027-0.045-0.071-0.087-0.109-0.147
			c-0.366-0.431-0.917-0.719-1.465-0.76c0.072-0.614-0.164-1.206-0.492-1.598l-0.109-0.123c-0.479-0.465-0.952-0.69-1.513-0.69
			c-0.007,0-0.007,0-0.007,0c-0.521,0.018-1.014,0.291-1.465,0.803c-0.986,1.131-1.116,4.435-1.137,5.099
			c0,0.115,0.041,0.228,0.117,0.322L60.75,12.85z M62.352,7.931c0.186-0.21,0.452-0.452,0.739-0.463l0.007-0.225
			c0.007,0,0.014,0,0.014,0v0.225c0.223,0,0.473,0.133,0.805,0.463c0.188,0.224,0.448,0.83,0.071,1.282
			c-0.15,0.166-0.171,0.414-0.027,0.631l-0.034,0.06l0.062-0.014c0.096,0.101,0.233,0.161,0.377,0.161l0.157-0.017l0.086-0.05
			c0.465-0.256,1.047,0.043,1.3,0.365c0.226,0.332,0.309,0.609,0.253,0.833c-0.062,0.27-0.355,0.494-0.592,0.635
			c-0.226,0.13-0.719,0.284-1.811,0.284c-0.862,0-1.759-0.099-2.269-0.164C61.569,10.379,61.842,8.523,62.352,7.931z"/>
		<path d="M27.345,50.973c4.319-0.052,12.273-6.875,12.339-6.935c0.13-0.101,0.222-0.258,0.246-0.455
			c0.021-0.171-0.014-0.333-0.103-0.465c-0.582-0.926-5.816-9.071-9.751-10.338c-1.645-0.532-3.039-0.481-4.129,0.116
			c-1.107,0.606-1.86,1.73-2.312,3.438c-0.036,0.133-0.063,0.281-0.081,0.424c-0.214,1.401,0.206,3.328,1.552,4.575
			c-1.658,0.796-2.621,2.514-2.835,3.912c-0.027,0.157-0.043,0.297-0.043,0.441c-0.08,1.762,0.317,3.059,1.193,3.963
			c0.854,0.883,2.141,1.327,3.826,1.327L27.345,50.973z M24.452,48.662c-0.595-0.618-0.855-1.567-0.802-2.902
			c0.007-0.098,0.014-0.197,0.027-0.294c0.18-1.188,1.227-3.083,3.28-3.144c0.337-0.007,0.625-0.26,0.676-0.603
			c0.056-0.351-0.151-0.674-0.472-0.778c-1.946-0.662-2.391-2.786-2.204-3.975c0.014-0.087,0.034-0.178,0.057-0.275
			c0.335-1.301,0.867-2.131,1.615-2.548c0.375-0.211,0.819-0.312,1.328-0.312s1.076,0.101,1.689,0.305
			c2.414,0.78,6.119,5.383,8.638,9.216c-3.711,3.017-8.444,6.17-10.951,6.201h-0.115C25.958,49.553,25.027,49.251,24.452,48.662z"/>
		<path d="M36.566,20.076c-0.547,0.666-0.926,1.714-0.698,2.758c-0.021,0-0.041,0-0.063,0c-0.938,0-1.903,0.462-2.565,1.264
			c-0.041,0.057-0.073,0.103-0.114,0.161c-0.604,0.922-0.806,1.749-0.632,2.527c0.178,0.772,0.739,1.441,1.679,1.983
			c0.769,0.452,2.047,0.681,3.799,0.681c2.3,0,4.675-0.394,4.769-0.411c0.144-0.024,0.274-0.103,0.365-0.217
			c0.089-0.117,0.137-0.251,0.123-0.372c-0.007-0.26-0.116-6.413-1.846-8.399c-0.712-0.813-1.472-1.241-2.26-1.265l-0.11-0.005
			c-0.767,0-1.506,0.354-2.26,1.097C36.681,19.939,36.623,20.013,36.566,20.076z M37.47,20.812c0.029-0.038,0.063-0.074,0.094-0.104
			c0.527-0.512,1.006-0.765,1.5-0.765l0,0c0.465,0.022,0.95,0.316,1.438,0.873c0.95,1.097,1.415,4.454,1.538,7.152
			c-0.89,0.124-2.541,0.317-4.108,0.317c-1.903,0-2.779-0.284-3.181-0.52c-0.645-0.372-1.02-0.791-1.121-1.239
			c-0.109-0.463,0.048-0.989,0.472-1.624c0.028-0.038,0.05-0.077,0.081-0.118c0.315-0.38,0.957-0.786,1.629-0.786
			c0.288,0,0.568,0.074,0.822,0.221c0.237,0.13,0.559,0.083,0.739-0.144c0.178-0.214,0.171-0.525-0.007-0.735
			C36.643,22.473,37.039,21.337,37.47,20.812z"/>
		<path d="M22.513,30.663c-0.007-0.258-0.115-6.413-1.846-8.403c-0.712-0.812-1.472-1.24-2.26-1.265l-0.108-0.003
			c-0.768,0-1.5,0.355-2.26,1.097c-0.07,0.063-0.123,0.132-0.187,0.198c-0.546,0.666-0.926,1.715-0.698,2.758
			c-0.021,0-0.041,0-0.062,0c-0.933,0-1.903,0.464-2.566,1.265c-0.042,0.056-0.074,0.103-0.115,0.163
			c-0.603,0.92-0.806,1.749-0.631,2.525c0.18,0.771,0.739,1.441,1.678,1.983c0.769,0.45,2.046,0.681,3.799,0.681
			c2.3,0,4.674-0.397,4.777-0.411c0.137-0.024,0.265-0.101,0.357-0.217C22.489,30.919,22.527,30.779,22.513,30.663z M17.226,30.492
			c-1.903,0-2.779-0.284-3.183-0.519c-0.645-0.372-1.02-0.792-1.121-1.241c-0.109-0.46,0.05-0.986,0.473-1.619
			c0.029-0.043,0.056-0.079,0.089-0.12c0.308-0.378,0.95-0.786,1.622-0.786c0.288,0,0.568,0.074,0.819,0.221
			c0.231,0.134,0.562,0.081,0.746-0.144c0.173-0.214,0.166-0.525-0.014-0.739c-0.726-0.862-0.328-1.997,0.101-2.522
			c0.029-0.04,0.07-0.076,0.103-0.106c0.519-0.512,1-0.764,1.492-0.764c0.007,0,0.007,0,0.007,0c0.46,0.021,0.946,0.315,1.431,0.873
			c0.95,1.097,1.415,4.452,1.538,7.152C20.443,30.298,18.792,30.492,17.226,30.492z"/>
		<path d="M34.498,55.2c0,0,0,0-0.007,0c-0.021-0.004-2.26-0.363-4.551-0.363c-1.889,0-3.253,0.246-4.05,0.732
			c-0.919,0.562-1.473,1.239-1.638,2.006c-0.171,0.79,0.05,1.608,0.669,2.519c0.057,0.078,0.117,0.167,0.173,0.216
			c0.603,0.722,1.552,1.166,2.485,1.166c0.034,0,0.07,0,0.101,0c-0.207,1.044,0.186,2.095,0.746,2.756
			c0.063,0.071,0.13,0.14,0.193,0.201c0.76,0.709,1.492,1.055,2.247,1.055l0.128-0.007c0.796-0.042,1.547-0.479,2.247-1.308
			c1.725-2.033,1.746-8.33,1.746-8.367c0.007-0.161-0.05-0.322-0.144-0.414C34.734,55.268,34.597,55.2,34.498,55.2z M32.35,63.426
			c-0.48,0.568-0.957,0.869-1.492,0.896c-0.446,0-0.912-0.243-1.464-0.773c-0.029-0.027-0.057-0.048-0.074-0.075
			c-0.438-0.507-0.855-1.643-0.137-2.512c0.178-0.223,0.178-0.544-0.016-0.76c-0.108-0.123-0.265-0.195-0.438-0.195l-0.205,0.024
			l-0.089,0.055c-0.265,0.15-0.546,0.232-0.847,0.232c-0.662,0-1.301-0.39-1.622-0.77c-0.029-0.038-0.057-0.072-0.082-0.109
			c-0.423-0.627-0.589-1.157-0.493-1.612c0.101-0.455,0.472-0.88,1.107-1.26c0.417-0.256,1.348-0.561,3.401-0.561
			c1.547,0,3.129,0.174,3.908,0.273C33.707,59.087,33.276,62.334,32.35,63.426z"/>
		<path d="M19.236,42.657c0.029-0.151-0.007-0.301-0.087-0.395c-0.035-0.053-3.525-5.341-6.083-6.086
			c-1.034-0.301-1.91-0.253-2.594,0.15c-0.689,0.399-1.148,1.117-1.395,2.18c-0.021,0.09-0.041,0.195-0.048,0.284
			c-0.103,0.827,0.144,1.934,0.896,2.697c-0.912,0.554-1.417,1.547-1.535,2.416l-0.014,0.265c-0.015,1.1,0.258,1.906,0.827,2.467
			c0.532,0.515,1.293,0.779,2.271,0.779l0.214-0.003c2.642-0.109,7.323-4.356,7.353-4.38C19.146,42.934,19.223,42.801,19.236,42.657
			z M11.632,46.237l-0.185,0.003c-0.652,0-1.129-0.151-1.431-0.441c-0.335-0.331-0.495-0.855-0.472-1.673l0.007-0.098
			c0.081-0.662,0.637-1.73,1.752-1.797c0.288-0.015,0.519-0.224,0.553-0.519c0.029-0.273-0.137-0.52-0.409-0.617
			c-1.076-0.337-1.35-1.511-1.266-2.17l0.022-0.154c0.171-0.732,0.452-1.208,0.854-1.443c0.214-0.123,0.474-0.187,0.768-0.187
			c0.274,0,0.582,0.053,0.91,0.147c1.388,0.402,3.594,2.986,5.156,5.189C15.754,44.305,13.063,46.184,11.632,46.237z"/>
		<path d="M20.099,50.853l-0.178-0.144l-0.368-0.007c-1.107,0-3.806,0.093-4.848,0.941c-0.532,0.428-0.82,0.903-0.854,1.406
			c-0.042,0.514,0.165,1.013,0.623,1.526c0.042,0.041,0.081,0.082,0.137,0.13c0.375,0.335,0.896,0.534,1.401,0.534
			c0.05,0,0.087-0.007,0.137-0.007c0.029,0.603,0.33,1.14,0.698,1.472l0.144,0.116c0.458,0.321,0.876,0.479,1.285,0.479
			c0.103,0,0.2-0.007,0.301-0.027c0.501-0.103,0.939-0.444,1.307-1.006c0.803-1.263,0.445-4.49,0.368-5.071
			C20.256,51.051,20.186,50.918,20.099,50.853z M19.022,55.719c-0.135,0.227-0.364,0.51-0.629,0.562
			c-0.247,0.045-0.481-0.041-0.869-0.321c-0.221-0.195-0.555-0.75-0.267-1.226c0.137-0.191,0.116-0.452-0.055-0.644l0.021-0.068
			l-0.063,0.027l-0.178-0.103l-0.344,0.021l-0.103,0.079c-0.396,0.305-0.97,0.161-1.314-0.151c-0.265-0.297-0.389-0.544-0.368-0.779
			c0.022-0.271,0.267-0.531,0.481-0.698c0.603-0.489,2.435-0.682,3.963-0.712C19.476,53.66,19.38,55.179,19.022,55.719z"/>
		<path d="M21.262,21.59c0.842,0.525,2.334,0.796,4.43,0.796c2.141,0,4.12-0.277,4.113-0.277c0.144-0.014,0.281-0.084,0.375-0.197
			c0.103-0.111,0.157-0.255,0.144-0.375c0.007-0.259,0.074-6.424-1.602-8.457c-0.683-0.83-1.429-1.278-2.224-1.334
			c-0.782-0.043-1.581,0.277-2.397,1.023c-0.07,0.066-0.144,0.137-0.187,0.2c-0.56,0.623-0.97,1.678-0.78,2.732
			c-0.985-0.021-1.973,0.388-2.628,1.136l-0.165,0.207c-0.625,0.903-0.855,1.719-0.698,2.508
			C19.805,20.33,20.345,21.012,21.262,21.59z M21.283,17.742l0.117-0.151c0.315-0.357,0.946-0.739,1.595-0.739
			c0.308,0,0.602,0.083,0.869,0.248c0.238,0.14,0.553,0.092,0.746-0.118c0.171-0.207,0.178-0.505,0.014-0.748
			c-0.704-0.88-0.265-2,0.193-2.54c0.014-0.017,0.049-0.046,0.081-0.077c0.525-0.481,0.992-0.715,1.514-0.715h0.007
			c0.465,0.034,0.939,0.34,1.408,0.914c0.919,1.112,1.287,4.38,1.334,7.191c-0.833,0.091-2.161,0.204-3.498,0.204
			c-2.312,0-3.332-0.337-3.783-0.621c-0.638-0.396-0.999-0.823-1.097-1.271C20.694,18.859,20.867,18.334,21.283,17.742z"/>
		<path d="M31.804,11.004c0.486,0.288,1.251,0.424,2.341,0.424c1.218,0,2.478-0.183,2.853-0.239
			c0.115-0.018,0.231-0.084,0.315-0.185l0.116-0.193l-0.008-0.144c-0.014-0.652-0.151-3.953-1.135-5.081
			c-0.452-0.515-0.946-0.792-1.535-0.809c-0.495,0-0.963,0.228-1.465,0.713L33.184,5.6c-0.322,0.389-0.546,0.978-0.479,1.592
			c-0.555,0.041-1.101,0.328-1.472,0.77c-0.043,0.05-0.074,0.094-0.109,0.141c-0.382,0.588-0.508,1.121-0.389,1.622
			C30.843,10.222,31.207,10.657,31.804,11.004z M32.021,8.596c0.128-0.164,0.465-0.403,0.84-0.403c0.144,0,0.281,0.036,0.404,0.103
			c0.074,0.044,0.164,0.07,0.251,0.07l0.281-0.04l0.094-0.124l0.056,0.019l-0.027-0.06c0.144-0.196,0.128-0.458-0.022-0.625
			c-0.382-0.458-0.13-1.067,0.109-1.348c0.28-0.274,0.525-0.407,0.773-0.407c0,0,0,0,0.007,0c0.28,0.012,0.554,0.257,0.732,0.464
			c0.512,0.592,0.789,2.448,0.869,4.009c-0.519,0.067-1.415,0.164-2.277,0.164c-1.09,0-1.58-0.15-1.802-0.28
			c-0.238-0.144-0.539-0.364-0.603-0.642C31.667,9.269,31.748,8.995,32.021,8.596z"/>
		<path d="M50.46,16.348c-0.473-0.501-1.143-0.726-1.703-0.726l-0.207,0.01c-0.76,0.089-1.3,0.357-1.645,0.81
			c-0.335,0.446-0.445,1.056-0.315,1.798c0.26,1.571,2.772,3.869,3.578,4.565l0.18,0.103h0.121l0.247-0.034l0.107-0.096
			c0.539-0.476,3.267-2.939,3.526-4.601c0.116-0.743,0-1.345-0.349-1.787c-0.353-0.457-0.887-0.711-1.64-0.785
			C51.774,15.521,50.979,15.769,50.46,16.348z M53.327,18.019c-0.15,0.953-1.752,2.665-2.843,3.679
			c-1.341-1.23-2.722-2.756-2.873-3.633c-0.057-0.31-0.074-0.732,0.123-0.996c0.165-0.221,0.465-0.354,1.02-0.411v-0.255v0.252
			c0.272,0,1.061,0.164,1.197,0.901c0.05,0.234,0.245,0.409,0.512,0.419v0.003v-0.003c0.007,0,0.014,0,0.021,0
			c0.254-0.017,0.461-0.206,0.488-0.428c0.123-0.732,0.919-0.91,1.272-0.91c0,0,0,0,0.007,0c0.459,0.046,0.76,0.171,0.931,0.381
			C53.348,17.237,53.397,17.575,53.327,18.019z"/>
		<path d="M48.802,14.021c0.123,0.087,0.253,0.133,0.39,0.133l0.014-0.003c0.238,0,0.381-0.101,0.431-0.161
			c0.266-0.228,6.541-5.705,7.082-9.175c0.227-1.401,0.014-2.534-0.63-3.347c-0.646-0.827-1.649-1.308-3.088-1.448
			C52.872,0,52.748,0,52.626,0c-1.185,0.003-2.628,0.561-3.484,1.776c-0.855-1.184-2.298-1.716-3.525-1.716l0,0l-0.33,0.014
			c-1.444,0.176-2.448,0.659-3.08,1.494c-0.623,0.83-0.812,1.961-0.575,3.371C42.151,8.015,47.209,12.626,48.802,14.021z
			 M43.251,2.351c0.404-0.539,1.123-0.862,2.177-0.98c0.08-0.007,0.15-0.014,0.23-0.014l0.016-0.385v0.385
			c0.944,0,2.555,0.592,2.853,2.165c0.055,0.313,0.314,0.534,0.659,0.534c0.308-0.022,0.566-0.25,0.616-0.541
			c0.281-1.591,1.89-2.204,2.836-2.218c0.073,0,0.144,0.007,0.224,0.014c1.062,0.11,1.781,0.417,2.199,0.95
			c0.41,0.532,0.537,1.324,0.372,2.354c-0.387,2.521-4.969,6.874-6.226,8.025c-2.866-2.585-5.955-5.959-6.29-7.929
			C42.74,3.672,42.849,2.875,43.251,2.351z"/>
	</g>
</g>
<g>
</g>
<g>
</g>
<g>
</g>
<g>
</g>
<g>
</g>
<g>
</g>
<g>
</g>
<g>
</g>
<g>
</g>
<g>
</g>
<g>
</g>
<g>
</g>
<g>
</g>
<g>
</g>
<g>
</g>
</svg>
