<?xml version="1.0" encoding="iso-8859-1"?>
<!-- Generator: Adobe Illustrator 16.0.0, SVG Export Plug-In . SVG Version: 6.00 Build 0)  -->
<!DOCTYPE svg PUBLIC "-//W3C//DTD SVG 1.1//EN" "http://www.w3.org/Graphics/SVG/1.1/DTD/svg11.dtd">
<svg version="1.1" id="Capa_1" xmlns="http://www.w3.org/2000/svg" xmlns:xlink="http://www.w3.org/1999/xlink" x="0px" y="0px"
	 width="135.031px" height="135.031px" viewBox="0 0 135.031 135.031" style="enable-background:new 0 0 135.031 135.031;"
	 xml:space="preserve">
<g>
	<g>
		<path d="M135.031,74.505c0-12.463-6.739-23.965-17.581-30.014c-4.324-2.402-9.134-3.768-14.06-4.118
			c-0.928-0.854-1.909-1.659-2.942-2.371c-5.928-4.095-12.931-5.083-19.459-3.446l-2.479-5.936l3.406-8.169L71.592,26.91
			c-0.453-1.063-1.297-1.912-2.365-2.36l6.447-10.331l-8.153,3.407l-8.166-3.407l6.45,10.331c-1.061,0.448-1.912,1.297-2.365,2.36
			l-10.326-6.458l3.396,8.169l-2.468,5.93c-6.539-1.637-13.542-0.648-19.462,3.457c-0.988,0.68-1.911,1.453-2.803,2.257
			c-5.276,0.113-10.465,1.556-15.082,4.267C6.394,50.596,0,62.076,0,74.505c0,3.57,0.53,7.099,1.505,10.241
			c1.184,5.632,4.424,11.496,8.662,17.266v18.8h114.645v-19.412c4.155-5.463,7.319-11.011,8.479-16.326
			C134.462,81.646,135.031,78.086,135.031,74.505z M96.926,43.104c7.098,4.936,11.527,14.412,11.527,24.746
			c0,3.026-0.38,5.995-1.181,9.075c-1.309,7.414-6.233,15.562-12.245,23.192h-2.057c6.212-7.768,11.496-16.236,12.846-23.83
			c0.718-2.7,1.076-5.537,1.076-8.438c0-9.83-4.166-18.827-10.843-23.478c-2.942-2.025-6.096-3.051-9.376-3.051
			c-5.516,0-10.758,3.096-14.586,8.393c-0.454-0.267-0.886-0.633-1.351-0.817C77.361,39.719,88.372,37.18,96.926,43.104z
			 M88.994,100.124h-8.469c1.729-5.295,2.795-11.75,2.795-18.964c0-13.41-3.502-24.366-8.775-29.579
			c5.137-7.132,13.236-9.147,19.755-4.654c5.863,4.082,9.502,12.095,9.502,20.923c0,2.637-0.316,5.21-0.991,7.772
			C101.419,83.375,95.607,92.171,88.994,100.124z M71.603,30.335l7.488,4.686c-2.226,0.746-4.335,1.906-6.339,3.282l-3.504-5.61
			C70.306,32.244,71.149,31.393,71.603,30.335z M67.531,54.466c3.902,0,9.566,10.399,9.566,26.694
			c0,7.868-1.329,14.312-3.133,18.937l0.232,0.021H57.726l3.267-0.301c-1.75-4.604-3.035-10.932-3.035-18.668
			C57.963,64.87,63.626,54.466,67.531,54.466z M54.517,100.124H46.04c-6.582-7.868-12.321-16.549-13.661-24.11
			c-0.768-2.933-1.107-5.526-1.107-8.153c0-8.833,3.66-16.851,9.547-20.933c6.473-4.503,14.573-2.483,19.741,4.648
			c-5.287,5.2-8.796,16.163-8.796,29.584C51.753,88.354,52.779,94.829,54.517,100.124z M63.46,30.335
			c0.443,1.058,1.294,1.909,2.355,2.362l-3.494,5.605c-2.004-1.381-4.116-2.531-6.341-3.277L63.46,30.335z M38.14,43.104
			c3.144-2.175,6.685-3.327,10.239-3.327c6.054,0,11.794,3.359,15.947,9.115c-0.478,0.185-0.896,0.541-1.339,0.807
			c-3.852-5.287-9.099-8.377-14.607-8.377c-3.288,0-6.431,1.025-9.342,3.051C32.334,49.029,28.16,58.025,28.16,67.851
			c0,2.9,0.377,5.731,1.173,8.816c1.316,7.415,6.561,15.758,12.728,23.451h-1.982c-6.033-7.684-11-15.92-12.33-23.436
			c-0.759-2.884-1.139-5.858-1.139-8.832C26.609,57.527,31.029,48.046,38.14,43.104z M6.23,74.505
			c0-10.24,5.234-19.678,13.629-24.629c1.951-1.14,4.019-2.004,6.167-2.587c-3.576,5.848-5.632,13.036-5.632,20.562
			c0,3.512,0.454,7.003,1.279,10.156c1.276,7.225,5.434,14.84,10.66,22.111H16.598c-4.458-5.711-7.915-11.49-9.054-16.922
			C6.673,80.385,6.23,77.453,6.23,74.505z M43.421,114.346H26.789v-6.196h16.632V114.346z M75.843,114.346H59.221v-6.196h16.622
			V114.346z M108.264,114.346H91.642v-6.196h16.622V114.346z M127.374,83.454c-1.181,5.311-4.746,11.032-9.407,16.67h-15.188
			c5.168-7.199,9.302-14.734,10.567-21.859c0.865-3.354,1.309-6.865,1.309-10.404c0-7.351-1.951-14.344-5.358-20.112
			c1.751,0.556,3.486,1.242,5.126,2.167c8.891,4.952,14.407,14.381,14.407,24.59C128.83,77.438,128.355,80.349,127.374,83.454z"/>
	</g>
</g>
<g>
</g>
<g>
</g>
<g>
</g>
<g>
</g>
<g>
</g>
<g>
</g>
<g>
</g>
<g>
</g>
<g>
</g>
<g>
</g>
<g>
</g>
<g>
</g>
<g>
</g>
<g>
</g>
<g>
</g>
</svg>
