<?xml version="1.0" encoding="iso-8859-1"?>
<!-- Generator: Adobe Illustrator 17.1.0, SVG Export Plug-In . SVG Version: 6.00 Build 0)  -->
<!DOCTYPE svg PUBLIC "-//W3C//DTD SVG 1.1//EN" "http://www.w3.org/Graphics/SVG/1.1/DTD/svg11.dtd">
<svg version="1.1" id="Capa_1" xmlns="http://www.w3.org/2000/svg" xmlns:xlink="http://www.w3.org/1999/xlink" x="0px" y="0px"
	 viewBox="0 0 379.27 379.27" style="enable-background:new 0 0 379.27 379.27;" xml:space="preserve">
<path d="M345.478,229.449c-18.919-13.812-46.731-16.358-67.34,2.713c-20.606-19.071-48.419-16.525-67.337-2.714
	c-21.225,15.495-32.359,45.962-12.574,74.216l-0.001,0c37.331,53.317,56.685,75.606,79.912,75.606
	c23.229,0,42.582-22.289,79.911-75.605C377.834,275.412,366.701,244.944,345.478,229.449z M343.304,293.339
	c-31.543,45.054-50.283,67.93-65.166,67.93s-33.622-22.876-65.166-67.93c-0.001,0-0.001,0-0.001,0
	c-13.824-19.742-5.721-39.012,8.443-49.352c6.448-4.708,14.277-7.653,22.271-7.653c9.555,0,19.346,4.211,27.289,14.654
	c1.702,2.237,4.352,3.551,7.163,3.551s5.461-1.313,7.163-3.551c14.587-19.178,35.403-17.337,49.563-7
	C349.027,254.327,357.13,273.597,343.304,293.339z M184.654,335.354c-15.147-2.807-30.945-27.831-41.02-67.027
	c5.011-0.746,10.058-1.362,15.13-1.845c4.948-0.471,8.578-4.863,8.107-9.812s-4.854-8.58-9.813-8.107
	c-5.822,0.554-11.616,1.274-17.366,2.156c-3.373-17.481-5.654-37.114-6.417-58.349c16.392,1.212,33.006,1.828,49.684,1.828
	c19.839,0,39.535-0.864,58.866-2.563c0.132,4.718,3.919,8.576,8.699,8.734c4.992,0.171,9.128-3.731,9.292-8.699
	c0.021-0.625,0.04-1.25,0.058-1.875c30.119-3.5,59.159-9.056,86.252-16.545c0.023,1.126,0.035,2.25,0.035,3.382
	c0,8.16-0.625,16.353-1.857,24.351c-0.758,4.913,2.611,9.509,7.523,10.266c4.916,0.76,9.509-2.611,10.266-7.524
	c1.373-8.903,2.068-18.018,2.068-27.093C364.162,79.237,284.926,0,187.531,0S10.9,79.237,10.9,176.632
	c0,46.211,17.728,89.913,49.918,123.055c32.121,33.07,75.146,52.068,121.15,53.492c0.029,0.001,0.082,0.002,0.111,0.003l0.635,0.017
	c0.102,0.003,0.203,0.005,0.304,0.005c4.575,0,8.445-3.447,8.943-8.027C192.471,340.494,189.284,336.211,184.654,335.354z
	 M182.96,176.198c-16.783,0-33.493-0.64-49.958-1.897c0.137-26.533,2.59-50.74,6.626-71.756c15.542,2.373,31.493,3.583,47.646,3.583
	c16.326,0,32.45-1.236,48.147-3.659c4.006,20.834,6.457,44.809,6.636,71.077C222.678,175.303,202.896,176.198,182.96,176.198z
	 M312.613,79.173c16.805,21.521,28.189,47.478,32.074,75.786c-26.494,7.535-55.005,13.141-84.647,16.695
	c-0.275-25.522-2.668-50.134-6.958-72.451C274.051,94.67,294.084,87.952,312.613,79.173z M300.203,65.072
	c-15.99,7.151-33.127,12.7-51.014,16.56c-2.402-9.501-5.18-18.451-8.316-26.724c-4.993-13.174-10.75-24.146-17.093-32.73
	C253.253,29.093,279.582,44.248,300.203,65.072z M187.531,18c16.059,0,33.259,25.246,43.955,66.863
	c-14.414,2.163-29.214,3.264-44.213,3.264c-14.824,0-29.457-1.077-43.716-3.191C154.253,43.275,171.463,18,187.531,18z
	 M151.283,22.178c-6.343,8.585-12.1,19.556-17.093,32.73c-3.147,8.303-5.935,17.289-8.343,26.829
	c-17.934-3.836-35.113-9.366-51.146-16.505C95.346,44.325,121.735,29.11,151.283,22.178z M62.311,79.351
	c18.569,8.761,38.638,15.455,59.651,19.958c-4.335,22.584-6.727,47.518-6.949,73.361c-29.634-3.111-58.278-8.25-84.95-15.29
	C33.606,128.206,45.103,101.452,62.311,79.351z M61.98,274.068c-20.791-26.845-33.08-60.626-33.08-97.437
	c0-0.32,0.001-0.634,0.003-0.954c27.197,6.975,56.286,12.052,86.313,15.107c0.69,22.131,2.992,43.542,6.75,63.196
	C100.766,258.542,80.459,265.323,61.98,274.068z M74.335,288.198c16.005-7.146,33.393-12.752,51.501-16.641
	c2.011,8.013,4.287,15.635,6.815,22.784c5.307,15.003,11.46,27.313,18.313,36.751C121.234,324.188,94.882,309.051,74.335,288.198z"
	/>
<g>
</g>
<g>
</g>
<g>
</g>
<g>
</g>
<g>
</g>
<g>
</g>
<g>
</g>
<g>
</g>
<g>
</g>
<g>
</g>
<g>
</g>
<g>
</g>
<g>
</g>
<g>
</g>
<g>
</g>
</svg>
