<?xml version="1.0" encoding="iso-8859-1"?>
<!-- Generator: Adobe Illustrator 19.0.0, SVG Export Plug-In . SVG Version: 6.00 Build 0)  -->
<svg version="1.1" id="Capa_1" xmlns="http://www.w3.org/2000/svg" xmlns:xlink="http://www.w3.org/1999/xlink" x="0px" y="0px"
	 viewBox="0 0 456 456" style="enable-background:new 0 0 456 456;" xml:space="preserve">
<g>
	<g>
		<rect x="276" y="32" width="16" height="16"/>
	</g>
</g>
<g>
	<g>
		<rect x="244" y="112" width="16" height="16"/>
	</g>
</g>
<g>
	<g>
		<rect x="212" y="112" width="16" height="16"/>
	</g>
</g>
<g>
	<g>
		<rect x="244" y="144" width="16" height="16"/>
	</g>
</g>
<g>
	<g>
		<rect x="212" y="144" width="16" height="16"/>
	</g>
</g>
<g>
	<g>
		<path d="M188,112h-88c-4.418,0-8,3.582-8,8v32c0,4.418,3.582,8,8,8h88c4.418,0,8-3.582,8-8v-32C196,115.582,192.418,112,188,112z
			 M180,144h-72v-16h72V144z"/>
	</g>
</g>
<g>
	<g>
		<path d="M186.504,203.344c-2.837-3.592-8.049-4.204-11.641-1.367c-0.507,0.401-0.966,0.86-1.367,1.367
			C172.456,204.8,148,239.328,148,272c0,17.673,14.327,32,32,32s32-14.327,32-32C212,239.328,187.544,204.8,186.504,203.344z
			 M180,288c-8.837,0-16-7.163-16-16c1.327-17.36,6.815-34.145,16-48.936c9.185,14.791,14.673,31.576,16,48.936
			C196,280.837,188.837,288,180,288z"/>
	</g>
</g>
<g>
	<g>
		<rect x="140" y="320" width="80" height="16"/>
	</g>
</g>
<g>
	<g>
		<rect x="124" y="352" width="112" height="16"/>
	</g>
</g>
<g>
	<g>
		<path d="M420,40v32h-24c-4.418,0-8,3.582-8,8v64c0,4.418,3.582,8,8,8h8v208h-32V216c0-4.418-3.582-8-8-8h-40v-32
			c0-2.518-1.186-4.889-3.2-6.4L292,148V96h24c4.418,0,8-3.582,8-8V8c0-4.418-3.582-8-8-8H36c-4.418,0-8,3.582-8,8v80
			c0,4.418,3.582,8,8,8h24v312H28c-4.418,0-8,3.582-8,8v32c0,4.418,3.582,8,8,8h304c4.418,0,8-3.582,8-8v-32c0-4.418-3.582-8-8-8
			h-40V284l28.8-21.6c2.014-1.511,3.2-3.882,3.2-6.4v-32h32v144c0,4.418,3.582,8,8,8h48c4.418,0,8-3.582,8-8V152h8
			c4.418,0,8-3.582,8-8V40H420z M324,424v16H36v-16H324z M76,408V96h200v312H76z M44,80V48h216V32H44V16h264v64H44z M308,252l-16,12
			v-96l16,12V252z M420,136h-16V88h16V136z"/>
	</g>
</g>
<g>
</g>
<g>
</g>
<g>
</g>
<g>
</g>
<g>
</g>
<g>
</g>
<g>
</g>
<g>
</g>
<g>
</g>
<g>
</g>
<g>
</g>
<g>
</g>
<g>
</g>
<g>
</g>
<g>
</g>
</svg>
