<?xml version="1.0" encoding="iso-8859-1"?>
<!-- Generator: Adobe Illustrator 19.0.0, SVG Export Plug-In . SVG Version: 6.00 Build 0)  -->
<svg version="1.1" id="Capa_1" xmlns="http://www.w3.org/2000/svg" xmlns:xlink="http://www.w3.org/1999/xlink" x="0px" y="0px"
	 viewBox="0 0 511.999 511.999" style="enable-background:new 0 0 511.999 511.999;" xml:space="preserve">
<g>
	<g>
		<path d="M293.03,170.219c-3.906-3.903-10.237-3.903-14.141,0c-12.621,12.62-33.158,12.62-45.78,0
			c-3.905-3.904-10.237-3.904-14.141,0c-3.905,3.905-3.905,10.236,0,14.142c10.209,10.209,23.62,15.313,37.031,15.313
			c13.411,0,26.822-5.104,37.031-15.313C296.935,180.456,296.936,174.124,293.03,170.219z"/>
	</g>
</g>
<g>
	<g>
		<path d="M322.99,200.179c-3.905-3.904-10.236-3.904-14.142,0c-29.141,29.141-76.558,29.141-105.698,0
			c-3.905-3.904-10.236-3.904-14.142,0c-3.905,3.905-3.905,10.236,0,14.142c17.894,17.894,41.686,27.749,66.991,27.749
			c25.306,0,49.097-9.854,66.992-27.749C326.895,210.416,326.895,204.084,322.99,200.179z"/>
	</g>
</g>
<g>
	<g>
		<path d="M263.069,140.056c-1.86-1.86-4.44-2.93-7.07-2.93s-5.21,1.069-7.07,2.93c-1.86,1.86-2.93,4.44-2.93,7.07
			c0,2.64,1.07,5.21,2.93,7.069c1.86,1.87,4.44,2.931,7.07,2.931c2.63-0.001,5.21-1.061,7.07-2.931c1.86-1.859,2.93-4.43,2.93-7.069
			C265.998,144.496,264.928,141.926,263.069,140.056z"/>
	</g>
</g>
<g>
	<g>
		<path d="M92.038,308.996c-5.523,0-9.999,4.478-9.999,10v23.499c0,5.522,4.477,10,9.999,10s9.999-4.478,9.999-10v-23.499
			C102.037,313.474,97.56,308.996,92.038,308.996z"/>
	</g>
</g>
<g>
	<g>
		<path d="M99.107,275.928c-1.86-1.86-4.44-2.93-7.07-2.93s-5.21,1.069-7.07,2.93c-1.86,1.861-2.93,4.44-2.93,7.07
			c0,2.63,1.07,5.21,2.93,7.069c1.86,1.86,4.44,2.931,7.07,2.931s5.21-1.07,7.07-2.931c1.86-1.859,2.93-4.439,2.93-7.069
			C102.037,280.368,100.967,277.788,99.107,275.928z"/>
	</g>
</g>
<g>
	<g>
		<path d="M255.969,308.996c-5.523,0-10,4.478-10,10v23.499c0,5.523,4.478,10,10,10c5.523,0,9.999-4.478,9.999-10v-23.499
			C265.968,313.474,261.492,308.996,255.969,308.996z"/>
	</g>
</g>
<g>
	<g>
		<path d="M263.039,275.928c-1.86-1.86-4.44-2.93-7.07-2.93c-2.63,0-5.21,1.069-7.07,2.93c-1.86,1.861-2.93,4.44-2.93,7.07
			c0,2.63,1.07,5.21,2.93,7.069c1.86,1.861,4.44,2.931,7.07,2.931c2.63,0,5.21-1.07,7.07-2.931c1.86-1.859,2.93-4.439,2.93-7.069
			C265.968,280.368,264.898,277.788,263.039,275.928z"/>
	</g>
</g>
<g>
	<g>
		<path d="M419.9,308.996c-5.523,0-9.999,4.478-9.999,10v23.499c0,5.523,4.477,10,9.999,10s9.999-4.478,9.999-10v-23.499
			C429.9,313.474,425.423,308.996,419.9,308.996z"/>
	</g>
</g>
<g>
	<g>
		<path d="M426.97,275.928c-1.86-1.86-4.44-2.93-7.07-2.93s-5.21,1.069-7.07,2.93s-2.93,4.44-2.93,7.07c0,2.63,1.07,5.21,2.93,7.069
			c1.86,1.861,4.44,2.931,7.07,2.931s5.21-1.07,7.07-2.931c1.86-1.859,2.93-4.439,2.93-7.069
			C429.9,280.368,428.83,277.788,426.97,275.928z"/>
	</g>
</g>
<g>
	<g>
		<path d="M501.986,491.987H430.02V457.65c2.373,0.208,5.047,0.351,7.972,0.351c14.945,0,36.097-3.68,53.292-20.874
			c29.445-29.446,19.011-70.205,18.552-71.926c-0.922-3.462-3.626-6.165-7.087-7.088c-1.722-0.459-42.48-10.892-71.927,18.553
			c-4.467,4.467-8.017,9.201-10.831,14.023c-2.815-4.823-6.365-9.557-10.831-14.023c-27.616-27.615-65.179-20.156-71.164-18.742
			c-5.986-1.413-43.549-8.872-71.164,18.742c-4.467,4.467-8.017,9.201-10.831,14.023c-2.815-4.823-6.365-9.557-10.831-14.023
			c-27.616-27.615-65.179-20.156-71.164-18.742c-5.986-1.413-43.549-8.872-71.164,18.742c-4.467,4.467-8.017,9.201-10.831,14.023
			c-2.815-4.823-6.365-9.557-10.831-14.023C51.73,347.221,10.971,357.655,9.25,358.114c-3.461,0.923-6.165,3.626-7.087,7.088
			c-0.458,1.721-10.893,42.479,18.553,71.926c17.197,17.196,38.346,20.874,53.291,20.874c2.949,0,5.644-0.146,8.032-0.356v34.342
			H10.013c-5.523,0-10,4.478-10,9.999s4.477,10,10,10h491.974c5.523,0,10-4.478,10-9.999
			C511.986,496.465,507.509,491.987,501.986,491.987z M82.023,433.191c-0.078,1.628-0.204,3.117-0.352,4.429
			c-10.251,1.155-31.086,1.095-46.815-14.634c-15.735-15.734-15.644-36.463-14.428-46.584c10.115-1.194,30.928-1.271,46.606,14.406
			c11.258,11.258,14.487,25.13,14.992,35.86C81.942,428.97,81.951,431.155,82.023,433.191z M183.984,382.039
			c0.076-2.109,0.241-4.012,0.437-5.638c10.115-1.194,30.928-1.271,46.606,14.407c11.257,11.258,14.486,25.13,14.992,35.86
			c-0.084,2.302-0.075,4.487-0.003,6.523c-0.078,1.628-0.204,3.117-0.352,4.429c-10.251,1.154-31.087,1.094-46.815-14.635
			c-11.383-11.382-14.482-25.377-14.866-36.079C184.03,385.214,184.026,383.588,183.984,382.039z M102.007,427.187
			c0.436-10.818,3.58-24.985,14.973-36.378c15.744-15.743,36.487-15.642,46.602-14.426c0.198,1.642,0.364,3.565,0.44,5.697
			c-0.04,1.525-0.044,3.126,0.002,4.789c-0.377,10.713-3.471,24.724-14.864,36.118c-15.72,15.719-36.538,15.787-46.796,14.637
			c-0.156-1.421-0.286-3.053-0.358-4.843C102.06,431.017,102.067,429.146,102.007,427.187z M246.03,491.988H102.038v-34.337
			c2.373,0.208,5.046,0.351,7.971,0.351c14.945,0,36.097-3.68,53.292-20.874c4.408-4.408,7.916-9.07,10.703-13.814
			c2.788,4.746,6.296,9.407,10.703,13.814c17.197,17.196,38.346,20.874,53.291,20.874c2.949,0,5.644-0.146,8.032-0.356V491.988z
			 M347.975,382.039c0.076-2.109,0.241-4.012,0.437-5.638c10.113-1.194,30.928-1.271,46.605,14.407
			c11.257,11.258,14.486,25.13,14.992,35.86c-0.084,2.302-0.075,4.487-0.003,6.523c-0.078,1.628-0.204,3.117-0.352,4.429
			c-10.251,1.154-31.087,1.094-46.815-14.635c-11.383-11.382-14.482-25.377-14.866-36.079
			C348.021,385.214,348.017,383.588,347.975,382.039z M265.998,427.187c0.436-10.818,3.58-24.985,14.973-36.378
			c15.744-15.743,36.487-15.642,46.602-14.426c0.198,1.642,0.364,3.565,0.44,5.697c-0.04,1.525-0.044,3.126,0.002,4.789
			c-0.377,10.713-3.471,24.724-14.864,36.118c-15.72,15.719-36.539,15.787-46.796,14.637c-0.156-1.421-0.286-3.053-0.358-4.843
			C266.051,431.017,266.058,429.146,265.998,427.187z M410.022,491.988H266.029v-34.336c2.372,0.207,5.047,0.35,7.971,0.35
			c14.945,0,36.097-3.68,53.292-20.874c4.408-4.408,7.916-9.07,10.703-13.814c2.788,4.746,6.296,9.407,10.703,13.814
			c17.197,17.196,38.346,20.874,53.291,20.874c2.949,0,5.644-0.146,8.032-0.356V491.988z M429.99,427.186
			c0.436-10.817,3.58-24.984,14.973-36.377c15.745-15.743,36.488-15.642,46.602-14.426c1.221,10.136,1.313,30.866-14.422,46.603
			c-15.72,15.719-36.539,15.787-46.796,14.637c-0.156-1.421-0.286-3.053-0.358-4.843C430.043,431.016,430.05,429.145,429.99,427.186
			z"/>
	</g>
</g>
<g>
	<g>
		<path d="M447.987,0.013h-42.144h-42.144c-5.523,0-10,4.478-10,9.999c0,5.522,4.477,10,10,10h32.144V47.01h-58.046V32.363
			c0-17.838-14.512-32.35-32.35-32.35h-98.899c-17.838,0-32.35,14.512-32.35,32.35V47.01h-58.045V20.012h32.144
			c5.523,0,10-4.478,10-10c0-5.522-4.477-9.999-10-9.999h-42.144H64.009c-5.523,0-10,4.478-10,9.999c0,5.522,4.477,10,10,10h32.145
			V47.01H85.081c-5.523,0-10,4.478-10,10c0,5.522,4.477,9.999,10,9.999h91.68c2.943,6.921,8.233,12.606,14.86,16.069l-36.412,25.884
			c-2.639,1.876-4.206,4.913-4.206,8.15v46.894c0,5.522,4.477,9.999,10,9.999c5.523,0,9.999-4.478,9.999-9.999v-41.733
			l32.825-23.334l6.377,16.236c1.503,3.827,5.196,6.345,9.307,6.345h72.972c4.112,0,7.805-2.518,9.308-6.345l6.377-16.236
			l32.825,23.334v41.733c0,5.522,4.477,9.999,9.999,9.999s9.999-4.478,9.999-9.999v-46.894c0-3.237-1.567-6.274-4.206-8.15
			l-36.412-25.884c6.628-3.463,11.917-9.148,14.86-16.069h91.68c5.523,0,9.999-4.478,9.999-9.999s-4.477-9.999-9.999-9.999h-11.072
			V20.012h32.144c5.523,0,9.999-4.478,9.999-10C457.986,4.49,453.51,0.013,447.987,0.013z M285.669,101.519h-59.34l-5.704-14.521
			l0.36-0.256h70.026l0.36,0.256L285.669,101.519z M317.802,54.392c0,6.811-5.541,12.351-12.351,12.351h-98.902
			c-6.811,0-12.351-5.541-12.351-12.351V32.363h0.001c0-6.811,5.541-12.351,12.351-12.351h98.901
			c6.811,0,12.351,5.541,12.351,12.351V54.392z"/>
	</g>
</g>
<g>
</g>
<g>
</g>
<g>
</g>
<g>
</g>
<g>
</g>
<g>
</g>
<g>
</g>
<g>
</g>
<g>
</g>
<g>
</g>
<g>
</g>
<g>
</g>
<g>
</g>
<g>
</g>
<g>
</g>
</svg>
