<?xml version="1.0" encoding="iso-8859-1"?>
<!-- Generator: Adobe Illustrator 19.0.0, SVG Export Plug-In . SVG Version: 6.00 Build 0)  -->
<svg version="1.1" id="Capa_1" xmlns="http://www.w3.org/2000/svg" xmlns:xlink="http://www.w3.org/1999/xlink" x="0px" y="0px"
	 viewBox="0 0 511.996 511.996" style="enable-background:new 0 0 511.996 511.996;" xml:space="preserve">
<g>
	<g>
		<path d="M509.832,419.191c-0.922-3.461-3.625-6.165-7.087-7.087c-1.167-0.311-20.325-5.216-41.722,0.875
			c1.065-4.735,1.687-9.799,1.687-15.205c0-41.644-36.2-63.086-37.741-63.978c-3.102-1.795-6.924-1.795-10.022,0
			c-1.541,0.893-37.74,22.334-37.74,63.978c0,5.399,0.619,10.457,1.682,15.187c-19.411-5.506-36.965-1.973-40.895-1.046
			c-3.933-0.929-21.522-4.469-40.96,1.064c1.065-4.735,1.687-9.799,1.687-15.205c0-41.644-36.2-63.086-37.741-63.978
			c-3.102-1.795-6.924-1.795-10.022,0c-1.541,0.893-37.74,22.334-37.74,63.978c0,5.399,0.619,10.456,1.682,15.187
			c-19.411-5.506-36.965-1.973-40.895-1.046c-3.933-0.929-21.523-4.469-40.96,1.064c1.065-4.735,1.687-9.799,1.687-15.205
			c0-41.644-36.2-63.086-37.741-63.978c-3.102-1.795-6.924-1.795-10.023,0c-1.541,0.893-37.74,22.334-37.74,63.978
			c0,5.399,0.619,10.457,1.682,15.187c-21.37-6.062-40.491-1.167-41.658-0.857c-3.462,0.922-6.165,3.626-7.087,7.087
			c-0.459,1.721-10.895,42.48,18.552,71.926c17.196,17.197,38.346,20.874,53.291,20.874c8.983,0,15.707-1.326,18.001-1.846
			c2.293,0.52,9.017,1.846,18.001,1.846c14.945,0,36.096-3.679,53.291-20.874c4.408-4.408,7.916-9.07,10.703-13.815
			c2.788,4.746,6.296,9.408,10.703,13.814c17.196,17.197,38.346,20.874,53.291,20.874c8.983,0,15.707-1.326,18.001-1.846
			c2.293,0.52,9.017,1.846,18.001,1.846c14.945,0,36.096-3.679,53.291-20.874c4.408-4.408,7.916-9.07,10.703-13.815
			c2.788,4.746,6.296,9.408,10.703,13.814c17.196,17.197,38.346,20.874,53.291,20.874c8.983,0,15.707-1.326,18.001-1.846
			c2.293,0.52,9.017,1.846,18.001,1.846c14.945,0,36.096-3.679,53.291-20.874C520.726,461.672,510.291,420.912,509.832,419.191z
			 M82.02,487.188c-0.077,1.619-0.203,3.1-0.35,4.406c-10.232,1.123-31.149,1.049-46.817-14.618
			c-15.745-15.744-15.645-36.485-14.426-46.601c10.135-1.221,30.867-1.313,46.603,14.423c0.473,0.473,0.93,0.951,1.375,1.433
			c0.298,0.336,0.595,0.679,0.893,1.005c9.424,10.775,12.255,23.451,12.725,33.419C81.939,482.961,81.947,485.148,82.02,487.188z
			 M99.513,434.226c-2.71,2.918-5.356,5.257-7.525,6.988c-2.113-1.695-4.69-3.977-7.341-6.815c-0.571-0.66-1.16-1.316-1.767-1.967
			c-6.872-7.96-13.658-19.622-13.658-34.657c-0.001-22.267,14.736-36.863,22.75-43.153c8.031,6.304,22.756,20.897,22.756,43.152
			c0,15.16-6.824,26.847-13.722,34.791C100.494,433.115,99.997,433.669,99.513,434.226z M164.006,440.144
			c-0.277,10.811-3.245,25.226-14.852,36.832c-15.721,15.721-36.538,15.788-46.796,14.637c-0.156-1.419-0.286-3.049-0.357-4.837
			c0.055-1.768,0.061-3.643,0.001-5.607c0.438-10.817,3.583-24.98,14.975-36.371c15.735-15.736,36.461-15.645,46.585-14.428
			c0.211,1.792,0.385,3.925,0.445,6.301C163.985,437.792,163.983,438.951,164.006,440.144z M246.012,487.188
			c-0.077,1.619-0.203,3.1-0.35,4.406c-10.23,1.123-31.15,1.049-46.817-14.618c-11.384-11.383-14.483-25.378-14.866-36.08
			c0.046-1.687,0.042-3.31,0.001-4.856c0.077-2.12,0.243-4.032,0.439-5.665c10.136-1.221,30.867-1.313,46.603,14.423
			c0.473,0.473,0.93,0.951,1.375,1.433c0.298,0.336,0.595,0.679,0.893,1.005c9.425,10.775,12.255,23.451,12.725,33.419
			C245.931,482.961,245.939,485.148,246.012,487.188z M263.504,434.226c-2.71,2.918-5.356,5.257-7.525,6.988
			c-2.113-1.695-4.69-3.977-7.341-6.815c-0.571-0.66-1.16-1.316-1.767-1.967c-6.872-7.96-13.658-19.622-13.658-34.657
			c-0.001-22.267,14.736-36.863,22.75-43.153c8.031,6.304,22.756,20.897,22.756,43.152c0,15.16-6.824,26.847-13.722,34.791
			C264.486,433.115,263.989,433.669,263.504,434.226z M327.998,440.144c-0.277,10.811-3.245,25.226-14.852,36.832
			c-15.721,15.721-36.54,15.788-46.796,14.637c-0.156-1.419-0.286-3.049-0.357-4.837c0.055-1.768,0.061-3.643,0.001-5.607
			c0.438-10.817,3.583-24.98,14.975-36.371c15.735-15.736,36.461-15.645,46.585-14.428c0.211,1.792,0.385,3.925,0.445,6.301
			C327.977,437.792,327.975,438.951,327.998,440.144z M410.004,487.188c-0.077,1.619-0.203,3.1-0.35,4.406
			c-10.232,1.123-31.15,1.049-46.817-14.618c-11.384-11.383-14.483-25.378-14.866-36.08c0.046-1.687,0.042-3.31,0.001-4.856
			c0.077-2.12,0.243-4.032,0.439-5.665c10.135-1.221,30.867-1.313,46.603,14.423c0.473,0.473,0.93,0.951,1.375,1.433
			c0.298,0.336,0.595,0.679,0.893,1.005c9.424,10.775,12.255,23.451,12.725,33.419C409.923,482.961,409.931,485.148,410.004,487.188
			z M427.496,434.226c-2.71,2.918-5.356,5.257-7.525,6.988c-2.113-1.695-4.69-3.977-7.341-6.815c-0.571-0.66-1.16-1.316-1.767-1.967
			c-6.872-7.96-13.658-19.622-13.658-34.657c-0.001-22.267,14.736-36.863,22.75-43.153c8.031,6.304,22.756,20.897,22.756,43.152
			c0,15.16-6.824,26.847-13.722,34.791C428.478,433.115,427.981,433.669,427.496,434.226z M477.137,476.976
			c-15.721,15.721-36.539,15.788-46.796,14.637c-0.156-1.419-0.286-3.049-0.357-4.837c0.055-1.768,0.061-3.643,0.001-5.607
			c0.438-10.817,3.583-24.98,14.975-36.371c15.735-15.736,36.461-15.645,46.585-14.428
			C492.737,440.485,492.818,461.298,477.137,476.976z"/>
	</g>
</g>
<g>
	<g>
		<path d="M372.134,151.87L265.995,45.733V10.005c0-5.523-4.478-9.999-10-9.999c-5.522,0-10,4.477-10,9.999v35.982L140.111,151.87
			c-2.859,2.86-3.715,7.162-2.168,10.897c1.548,3.737,5.195,6.173,9.24,6.173h56.622c4.693,24.535,26.3,43.139,52.181,43.139
			c25.882,0,47.489-18.604,52.181-43.139h56.895c4.045,0,7.691-2.437,9.239-6.173C375.848,159.032,374.992,154.73,372.134,151.87z
			 M255.986,192.08c-14.789,0-27.343-9.74-31.593-23.14h63.187C283.328,182.342,270.775,192.08,255.986,192.08z M171.324,148.943
			l84.799-84.799l84.799,84.799H171.324z"/>
	</g>
</g>
<g>
	<g>
		<path d="M256.012,226.454c-5.522,0-9.999,4.477-9.999,10v52.537c0,5.523,4.478,10,9.999,10c5.522,0,10-4.477,10-10v-52.537
			C266.011,230.93,261.533,226.454,256.012,226.454z"/>
	</g>
</g>
<g>
	<g>
		<path d="M205.893,209.07c-3.906-3.905-10.235-3.905-14.141,0l-34.836,34.836c-3.905,3.905-3.905,10.236,0,14.141
			c1.953,1.953,4.512,2.929,7.071,2.929c2.559,0,5.118-0.977,7.071-2.929l34.836-34.836
			C209.798,219.307,209.798,212.975,205.893,209.07z"/>
	</g>
</g>
<g>
	<g>
		<path d="M143.03,271.93c-1.859-1.86-4.439-2.93-7.069-2.93c-2.63,0-5.21,1.07-7.07,2.93c-1.86,1.86-2.93,4.44-2.93,7.07
			c0,2.64,1.069,5.21,2.93,7.07c1.86,1.87,4.44,2.93,7.07,2.93c2.63,0,5.21-1.06,7.069-2.93c1.86-1.86,2.931-4.44,2.931-7.07
			S144.891,273.79,143.03,271.93z"/>
	</g>
</g>
<g>
	<g>
		<path d="M353.317,242.095l-33.061-33.06c-3.906-3.906-10.235-3.906-14.141,0c-3.905,3.905-3.905,10.237,0,14.141l33.061,33.06
			c1.953,1.953,4.512,2.929,7.071,2.929s5.118-0.977,7.071-2.929C357.221,252.331,357.221,246,353.317,242.095z"/>
	</g>
</g>
<g>
	<g>
		<path d="M379.928,268.71c-1.859-1.86-4.43-2.93-7.069-2.93c-2.63,0.001-5.21,1.071-7.07,2.93c-1.86,1.86-2.93,4.44-2.93,7.07
			c0,2.63,1.069,5.21,2.93,7.07c1.86,1.87,4.44,2.93,7.07,2.93c2.64,0,5.21-1.06,7.069-2.93c1.87-1.86,2.931-4.43,2.931-7.07
			C382.859,273.15,381.789,270.57,379.928,268.71z"/>
	</g>
</g>
<g>
</g>
<g>
</g>
<g>
</g>
<g>
</g>
<g>
</g>
<g>
</g>
<g>
</g>
<g>
</g>
<g>
</g>
<g>
</g>
<g>
</g>
<g>
</g>
<g>
</g>
<g>
</g>
<g>
</g>
</svg>
