<?xml version="1.0"?>
<svg xmlns="http://www.w3.org/2000/svg" viewBox="0 0 64 64" width="512" height="512"><g id="Open_Box" data-name="Open Box"><path d="M61.53,27.152,54.887,23l6.643-4.152a1,1,0,0,0-.015-1.7l-20-12a1,1,0,0,0-1-.017L32,9.856l-8.515-4.73a1,1,0,0,0-1,.017l-20,12a1,1,0,0,0-.015,1.7L9.113,23,2.47,27.152A1,1,0,0,0,2.5,28.868L10,33.152V49a1,1,0,0,0,.5.868l21,12a1,1,0,0,0,.992,0l21-12A1,1,0,0,0,54,49V33.152l7.5-4.284a1,1,0,0,0,.034-1.716ZM32,33.848,13.016,23,32,12.152,50.984,23ZM40.98,7.154,59.085,18.018l-6.108,3.817L34.037,11.013Zm-17.96,0,6.943,3.859L11.023,21.835,4.915,18.018Zm-12,17.011L30.052,35.038l-6.075,3.8L4.948,27.962ZM12,34.294l11.5,6.574a1,1,0,0,0,1.026-.02L31,36.8V59.277L12,48.42ZM52,48.42,33,59.277V36.8l6.47,4.044a1,1,0,0,0,1.026.02L52,34.294ZM40.023,38.835l-6.075-3.8L52.977,24.165l6.075,3.8Z"/><path d="M38.538,52.112l-3.052,1.744a1,1,0,1,0,.993,1.737l3.051-1.744a1,1,0,0,0-.992-1.737Z"/><path d="M41.972,52.3a.988.988,0,0,0,.495-.132l1.139-.651a1,1,0,1,0-.992-1.737l-1.139.652a1,1,0,0,0,.5,1.868Z"/><path d="M38.538,48.112l-3.052,1.744a1,1,0,1,0,.993,1.737l3.051-1.744a1,1,0,0,0-.992-1.737Z"/><path d="M41.972,48.3a.988.988,0,0,0,.495-.132l1.139-.651a1,1,0,1,0-.992-1.737l-1.139.652a1,1,0,0,0,.5,1.868Z"/></g></svg>
