<?xml version="1.0" encoding="iso-8859-1"?>
<!-- Generator: Adobe Illustrator 19.1.0, SVG Export Plug-In . SVG Version: 6.00 Build 0)  -->
<svg version="1.1" id="Capa_1" xmlns="http://www.w3.org/2000/svg" xmlns:xlink="http://www.w3.org/1999/xlink" x="0px" y="0px"
	 viewBox="0 0 483.989 483.989" style="enable-background:new 0 0 483.989 483.989;" xml:space="preserve">
<g>
	<path d="M483.989,89.884c0-3.823-3.09-6.914-6.914-6.914H359.534V69.147h-27.656v-6.906H318.05v4.87
		c-2.086-1.155-4.4-2.788-7.316-4.892c-11.449-8.255-28.749-20.735-68.733-20.735c-41.063,0-59.047,12.888-70.946,21.42
		c-1.958,1.403-3.625,2.578-5.116,3.529v-4.206h-13.828v6.915l-27.651,0.006V82.97H6.914C3.091,82.97,0,86.06,0,89.884v96.798
		c0,10.109,2.504,19.653,6.914,28.1v220.809c0,3.823,3.09,6.914,6.914,6.914h456.333c3.824,0,6.914-3.091,6.914-6.915V214.782
		c4.411-8.448,6.914-17.991,6.914-28.1V89.884z M179.11,74.14c11.09-7.944,26.274-18.827,62.891-18.827
		c35.525,0,50.038,10.475,60.644,18.122c4.943,3.567,9.695,6.979,15.405,8.583v0.952H165.939v-1.148
		C170.53,80.281,174.61,77.361,179.11,74.14z M13.828,96.798h456.333v89.884c0,26.682-22.464,48.399-50.079,48.399l-136.727-0.007
		l0.125-22.762c0.014-2.074-0.913-4.044-2.503-5.365c-10.413-8.608-24.172-13.351-38.733-13.351c-14.865,0-28.832,4.916-39.3,13.849
		c-1.542,1.314-2.434,3.236-2.434,5.262v22.374H63.9c-27.608,0-50.072-21.717-50.072-48.399
		C13.828,186.682,13.828,96.798,13.828,96.798z M214.339,262.736v-46.684c7.667-5.587,17.458-8.629,27.905-8.629
		c10.192,0,19.788,2.911,27.394,8.249l-0.145,26.274c0,0.007,0,0.007,0,0.007l-0.118,20.784h-6.638v-0.001L214.339,262.736
		L214.339,262.736z M255.822,276.565v34.571c0,14.036-8.877,22.63-13.821,26.336c-4.937-3.706-13.835-12.328-13.835-26.336v-34.571
		H255.822z M20.742,428.676V232.525c11.379,10.167,26.535,16.384,43.158,16.384h136.611v20.742c0,3.823,3.09,6.914,6.914,6.914
		h6.914v34.571c0,27.567,23.452,40.178,24.448,40.697c1.009,0.525,2.109,0.788,3.208,0.788s2.198-0.263,3.208-0.787
		c0.995-0.519,24.448-13.13,24.448-40.697v-34.571h6.603c3.803,0,6.893-3.07,6.914-6.88l0.118-20.784l136.796,0.007
		c16.627,0,31.785-6.218,43.165-16.385v196.152H20.742z"/>
</g>
<g>
</g>
<g>
</g>
<g>
</g>
<g>
</g>
<g>
</g>
<g>
</g>
<g>
</g>
<g>
</g>
<g>
</g>
<g>
</g>
<g>
</g>
<g>
</g>
<g>
</g>
<g>
</g>
<g>
</g>
</svg>
