<svg height="496pt" viewBox="0 0 496 496" width="496pt" xmlns="http://www.w3.org/2000/svg"><path d="m312 64c-66.167969 0-120 53.832031-120 120s53.832031 120 120 120 120-53.832031 120-120-53.832031-120-120-120zm-72 194.871094v-30.382813c0-3.679687 2.496094-6.871093 6.0625-7.761719l47.488281-11.871093 18.449219 18.457031 18.457031-18.457031 47.488281 11.871093c3.566407.890626 6.0625 4.082032 6.0625 7.761719v30.382813c-18.710937 17.992187-44.0625 29.128906-72.007812 29.128906s-53.296875-11.136719-72-29.128906zm72-82.871094c-13.230469 0-24-10.769531-24-24v-16c0-13.230469 10.769531-24 24-24s24 10.769531 24 24v16c0 13.230469-10.769531 24-24 24zm0 16c2.734375 0 5.414062-.28125 8-.808594v5.496094l-8 8-8-8v-5.496094c2.585938.527344 5.265625.808594 8 .808594zm88 47.175781v-10.679687c0-11.03125-7.480469-20.609375-18.175781-23.289063l-45.824219-11.453125v-9.960937c9.65625-7.3125 16-18.785157 16-31.792969v-16c0-22.054688-17.945312-40-40-40s-40 17.945312-40 40v16c0 13.015625 6.34375 24.488281 16 31.792969v9.960937l-45.824219 11.453125c-10.695312 2.671875-18.175781 12.25-18.175781 23.289063v10.679687c-10.078125-16.015625-16-34.894531-16-55.175781 0-57.34375 46.65625-104 104-104s104 46.65625 104 104c0 20.28125-5.921875 39.160156-16 55.175781zm0 0"/><path d="m496 222.558594v-77.117188l-30.511719-6.105468c-3.265625-11.246094-7.753906-22.070313-13.367187-32.304688l17.253906-25.878906-54.527344-54.527344-25.886718 17.253906c-10.226563-5.621094-21.050782-10.101562-32.304688-13.367187l-6.097656-30.511719h-77.117188l-6.105468 30.511719c-11.246094 3.265625-22.070313 7.753906-32.304688 13.367187l-25.878906-17.253906-53.367188 53.375h-155.785156v416h320v-128h30.558594l6.105468-30.511719c11.246094-3.265625 22.070313-7.753906 32.304688-13.367187l25.878906 17.253906 54.527344-54.527344-17.253906-25.878906c5.621094-10.226562 10.101562-21.046875 13.367187-32.304688zm-192 257.441406h-288v-384h148.519531l7.359375 11.039062c-5.621094 10.226563-10.101562 21.050782-13.367187 32.304688l-30.511719 6.097656v77.117188l30.511719 6.105468c3.265625 11.246094 7.753906 22.070313 13.367187 32.304688l-17.253906 25.878906 54.527344 54.527344 25.878906-17.253906c10.226562 5.621094 21.046875 10.101562 32.304688 13.367187l6.105468 30.511719h30.558594zm147.328125-260.199219c-3.375 13.175781-8.59375 25.765625-15.488281 37.40625l-2.566406 4.328125 15.511718 23.273438-35.984375 35.984375-23.273437-15.511719-4.328125 2.566406c-11.648438 6.894532-24.230469 12.113282-37.40625 15.488282l-4.871094 1.25-5.480469 27.414062h-50.882812l-5.488282-27.425781-4.871093-1.246094c-13.175781-3.375-25.765625-8.59375-37.40625-15.488281l-4.328125-2.566406-23.273438 15.511718-35.984375-35.984375 15.511719-23.273437-2.566406-4.328125c-6.894532-11.648438-12.113282-24.230469-15.488282-37.40625l-1.25-4.871094-27.414062-5.480469v-50.882812l27.425781-5.488282 1.246094-4.871093c3.375-13.175781 8.59375-25.765625 15.488281-37.40625l2.566406-4.328125-15.511718-23.273438 35.984375-35.984375 23.273437 15.511719 4.328125-2.566406c11.648438-6.894532 24.230469-12.113282 37.40625-15.488282l4.871094-1.25 5.480469-27.414062h50.882812l5.488282 27.425781 4.871093 1.246094c13.175781 3.375 25.765625 8.59375 37.40625 15.488281l4.328125 2.566406 23.273438-15.511718 35.984375 35.984375-15.511719 23.273437 2.566406 4.328125c6.894532 11.648438 12.113282 24.230469 15.488282 37.40625l1.25 4.871094 27.414062 5.480469v50.882812l-27.425781 5.488282zm0 0"/><path d="m304 32h16v16h-16zm0 0"/><path d="m198.859375 82.175781 11.316406-11.3125 11.3125 11.3125-11.3125 11.316407zm0 0"/><path d="m160 176h16v16h-16zm0 0"/><path d="m198.859375 285.824219 11.3125-11.3125 11.3125 11.3125-11.3125 11.3125zm0 0"/><path d="m402.503906 285.824219 11.316406-11.3125 11.3125 11.3125-11.3125 11.3125zm0 0"/><path d="m448 176h16v16h-16zm0 0"/><path d="m402.507812 82.179688 11.3125-11.316407 11.3125 11.316407-11.3125 11.3125zm0 0"/><path d="m304 320h16v16h-16zm0 0"/><path d="m32 112h80v16h-80zm0 0"/><path d="m32 144h80v16h-80zm0 0"/><path d="m128 112h16v16h-16zm0 0"/><path d="m32 192h80v16h-80zm0 0"/><path d="m32 224h80v16h-80zm0 0"/><path d="m32 256h80v16h-80zm0 0"/><path d="m128 256h16v16h-16zm0 0"/><path d="m32 288h80v16h-80zm0 0"/><path d="m128 288h16v16h-16zm0 0"/><path d="m32 320h80v16h-80zm0 0"/><path d="m32 384h112v16h-112zm0 0"/><path d="m160 384h112v16h-112zm0 0"/><path d="m32 416h112v16h-112zm0 0"/><path d="m160 416h112v16h-112zm0 0"/><path d="m128 320h16v16h-16zm0 0"/><path d="m32 448h16v16h-16zm0 0"/><path d="m64 448h16v16h-16zm0 0"/><path d="m96 448h16v16h-16zm0 0"/><path d="m160 448h16v16h-16zm0 0"/><path d="m192 448h16v16h-16zm0 0"/><path d="m224 448h16v16h-16zm0 0"/></svg>