<svg height="512pt" viewBox="0 0 512 512" width="512pt" xmlns="http://www.w3.org/2000/svg"><path d="m473.21875 96.808594c-21.3125 0-38.652344 17.339844-38.652344 38.65625v92.929687c0 15.871094-3.394531 31.324219-9.816406 45.464844-2.695312-4.867187-6.464844-9.132813-11.109375-12.402344-14.71875-10.367187-34.714844-8.730469-47.550781 3.894531l-52.449219 51.585938c-18.882813 18.574219-29.710937 44.414062-29.710937 70.902344v113.410156c0 5.519531 4.476562 9.996094 9.996093 9.996094s10-4.476563 10-9.996094v-113.414062c0-21.160157 8.648438-41.804688 23.738281-56.644532l52.445313-51.585937c5.941406-5.847657 15.199219-6.601563 22.015625-1.804688 4.070312 2.871094 6.625 7.171875 7.195312 12.121094.570313 4.945313-.9375 9.71875-4.25 13.4375l-51.863281 58.25c-3.671875 4.125-3.304687 10.441406.820313 14.113281s10.441406 3.304688 14.113281-.816406l51.863281-58.25c.003906-.007812.007813-.011719.011719-.015625 22.277344-24.097656 34.542969-55.425781 34.542969-88.246094v-92.929687c0-10.289063 8.371094-18.660156 18.65625-18.660156 10.289062 0 18.660156 8.371093 18.660156 18.660156v129.726562c0 41.554688-11.042969 82.507813-31.9375 118.429688l-45.816406 78.777344c-2.777344 4.773437-1.15625 10.890624 3.617187 13.667968 1.578125.917969 3.308594 1.355469 5.015625 1.355469 3.445313 0 6.796875-1.78125 8.652344-4.972656l45.816406-78.777344c22.667969-38.96875 34.648438-83.394531 34.648438-128.480469v-129.726562c0-21.316406-17.339844-38.65625-38.652344-38.65625zm0 0"/><path d="m402.648438 492c-2.628907 0-5.199219 1.070312-7.066407 2.929688-1.859375 1.859374-2.929687 4.441406-2.929687 7.070312 0 2.636719 1.066406 5.207031 2.929687 7.066406 1.859375 1.871094 4.4375 2.929688 7.066407 2.929688 2.640624 0 5.210937-1.058594 7.066406-2.929688 1.871094-1.859375 2.933594-4.4375 2.933594-7.066406s-1.0625-5.210938-2.933594-7.070312c-1.855469-1.859376-4.4375-2.929688-7.066406-2.929688zm0 0"/><path d="m145.785156 265.351562c-12.835937-12.625-32.835937-14.265624-47.554687-3.894531-4.640625 3.269531-8.410157 7.53125-11.109375 12.398438-6.417969-14.136719-9.8125-29.59375-9.8125-45.460938v-92.933593c0-21.3125-17.339844-38.652344-38.652344-38.652344-21.316406 0-38.65625 17.339844-38.65625 38.65625v28.992187c0 5.523438 4.476562 10 9.996094 10 5.523437 0 10-4.476562 10-10v-28.992187c0-10.289063 8.367187-18.660156 18.65625-18.660156 10.289062 0 18.660156 8.371093 18.660156 18.660156v92.929687c0 32.820313 12.265625 64.148438 34.539062 88.246094.003907.003906.011719.007813.015626.015625l51.863281 58.25c3.667969 4.121094 9.988281 4.488281 14.113281.816406s4.492188-9.988281.820312-14.113281l-51.863281-58.25c-3.3125-3.71875-4.824219-8.492187-4.25-13.4375.570313-4.949219 3.125-9.25 7.195313-12.117187 6.8125-4.800782 16.070312-4.042969 22.015625 1.800781l52.445312 51.585937c15.085938 14.839844 23.738281 35.484375 23.738281 56.648438v113.410156c0 5.519531 4.476563 9.996094 10 9.996094 5.519532 0 9.996094-4.476563 9.996094-9.996094v-113.414062c0-26.484376-10.828125-52.328126-29.714844-70.902344zm0 0"/><path d="m9.996094 214.449219c2.628906 0 5.210937-1.070313 7.070312-2.929688s2.929688-4.4375 2.929688-7.066406c0-2.640625-1.070313-5.210937-2.929688-7.070313-1.859375-1.867187-4.441406-2.929687-7.070312-2.929687s-5.207032 1.0625-7.066406 2.929687c-1.859376 1.859376-2.929688 4.429688-2.929688 7.070313 0 2.628906 1.070312 5.207031 2.929688 7.066406 1.859374 1.859375 4.4375 2.929688 7.066406 2.929688zm0 0"/><path d="m51.933594 383.617188c-20.894532-35.917969-31.9375-76.871094-31.9375-118.425782v-20.753906c0-5.519531-4.476563-9.996094-9.996094-9.996094-5.523438 0-10 4.476563-10 9.996094v20.753906c0 45.082032 11.980469 89.511719 34.648438 128.480469l65.929687 113.355469c1.855469 3.191406 5.207031 4.972656 8.652344 4.972656 1.703125 0 3.433593-.4375 5.015625-1.355469 4.773437-2.777343 6.390625-8.894531 3.617187-13.667969zm0 0"/><path d="m388.964844 133.03125c0-73.355469-59.675782-133.03125-133.027344-133.03125-73.355469 0-133.03125 59.675781-133.03125 133.03125 0 73.351562 59.675781 133.027344 133.03125 133.027344 73.351562 0 133.027344-59.675782 133.027344-133.027344zm-133.027344 113.035156c-62.328125 0-113.035156-50.707031-113.035156-113.035156s50.707031-113.035156 113.035156-113.035156 113.035156 50.707031 113.035156 113.035156c0 62.324219-50.707031 113.035156-113.035156 113.035156zm0 0"/><path d="m226.320312 119.386719c5.519532 0 9.996094-4.476563 9.996094-10 0-11.257813-9.15625-20.417969-20.417968-20.417969-11.257813 0-20.417969 9.160156-20.417969 20.417969 0 5.523437 4.476562 10 9.996093 10 5.519532 0 9.996094-4.476563 9.996094-10 0-.234375.191406-.425781.425782-.425781.234374 0 .425781.191406.425781.425781 0 5.523437 4.476562 10 9.996093 10zm0 0"/><path d="m299.445312 88.96875c-11.257812 0-20.417968 9.160156-20.417968 20.417969 0 5.523437 4.476562 10 9.996094 10 5.523437 0 10-4.476563 10-10 0-.234375.1875-.425781.421874-.425781.234376 0 .425782.191406.425782.425781 0 5.523437 4.476562 10 9.996094 10 5.523437 0 10-4.476563 10-10 0-11.257813-9.160157-20.417969-20.421876-20.417969zm0 0"/><path d="m287.84375 151.402344c-5.519531 0-9.996094 4.476562-9.996094 10 0 11.125-9.050781 20.175781-20.175781 20.175781s-20.175781-9.050781-20.175781-20.175781c0-5.523438-4.476563-10-9.996094-10-5.523438 0-10 4.476562-10 10 0 22.148437 18.023438 40.167968 40.171875 40.167968 22.152344 0 40.171875-18.019531 40.171875-40.167968 0-5.523438-4.476562-10-10-10zm0 0"/></svg>