<?xml version="1.0" encoding="UTF-8" standalone="no"?>
<!DOCTYPE svg PUBLIC "-//W3C//DTD SVG 1.1//EN" 
  "http://www.w3.org/Graphics/SVG/1.1/DTD/svg11.dtd">
<svg width="275" height="183"
	 xmlns="http://www.w3.org/2000/svg" version="1.1">
 <path d="  M 201,64  L 201,65  L 203,65  L 203,64  L 207,64  L 207,63  L 209,63  L 209,62  L 210,62  L 210,60  L 211,60  L 211,55  L 212,55  L 212,52  L 211,52  L 211,49  L 212,49  L 212,48  L 211,48  L 211,43  L 212,43  L 212,35  L 211,35  L 211,19  L 210,19  L 210,18  L 209,18  L 209,17  L 208,17  L 208,16  L 207,16  L 207,15  L 166,15  L 166,16  L 165,16  L 165,17  L 164,17  L 164,18  L 163,18  L 163,19  L 162,19  L 162,50  L 161,50  L 161,49  L 159,49  L 159,47  L 158,47  L 158,45  L 159,45  L 159,44  L 158,44  L 158,42  L 159,42  L 159,41  L 158,41  L 158,40  L 159,40  L 159,37  L 158,37  L 158,36  L 159,36  L 159,19  L 160,19  L 160,17  L 161,17  L 161,16  L 162,16  L 162,15  L 163,15  L 163,14  L 164,14  L 164,13  L 166,13  L 166,12  L 208,12  L 208,13  L 209,13  L 209,14  L 211,14  L 211,15  L 212,15  L 212,16  L 213,16  L 213,18  L 214,18  L 214,22  L 215,22  L 215,57  L 214,57  L 214,61  L 213,61  L 213,63  L 212,63  L 212,64  L 211,64  L 211,65  L 209,65  L 209,66  L 208,66  L 208,67  L 202,67  L 202,68  L 200,68  L 200,67  L 199,67  L 199,68  L 196,68  L 196,67  L 192,67  L 192,68  L 186,68  L 186,67  L 182,67  L 182,68  L 180,68  L 180,67  L 179,67  L 179,66  L 178,66  L 178,65  L 177,65  L 177,64  Z  M 68,63  L 68,64  L 97,64  L 97,66  L 96,66  L 96,67  L 94,67  L 94,68  L 93,68  L 93,67  L 89,67  L 89,68  L 88,68  L 88,67  L 78,67  L 78,68  L 76,68  L 76,67  L 72,67  L 72,68  L 71,68  L 71,67  L 67,67  L 67,66  L 65,66  L 65,65  L 64,65  L 64,64  L 63,64  L 63,63  L 62,63  L 62,61  L 61,61  L 61,58  L 60,58  L 60,21  L 61,21  L 61,18  L 62,18  L 62,16  L 63,16  L 63,15  L 64,15  L 64,14  L 66,14  L 66,13  L 67,13  L 67,12  L 109,12  L 109,13  L 111,13  L 111,14  L 112,14  L 112,15  L 113,15  L 113,16  L 114,16  L 114,17  L 115,17  L 115,19  L 116,19  L 116,49  L 114,49  L 114,50  L 113,50  L 113,20  L 112,20  L 112,18  L 111,18  L 111,17  L 110,17  L 110,16  L 108,16  L 108,15  L 68,15  L 68,16  L 67,16  L 67,17  L 66,17  L 66,18  L 65,18  L 65,19  L 64,19  L 64,21  L 63,21  L 63,58  L 64,58  L 64,60  L 65,60  L 65,62  L 66,62  L 66,63  Z  M 275,183  L 275,0  L 0,0  L 0,183  Z  M 180,87  L 179,87  L 179,80  L 180,80  L 180,85  L 181,85  L 181,94  L 180,94  Z  M 196,24  L 196,25  L 198,25  L 198,26  L 201,26  L 201,28  L 202,28  L 202,30  L 197,30  L 197,29  L 198,29  L 198,27  L 196,27  L 196,26  L 195,26  L 195,25  L 193,25  L 193,24  L 190,24  L 190,23  L 184,23  L 184,24  L 181,24  L 181,23  L 182,23  L 182,22  L 192,22  L 192,23  L 194,23  L 194,24  Z  M 96,102  L 95,102  L 95,97  L 94,97  L 94,86  L 95,86  L 95,90  L 96,90  L 96,91  L 95,91  L 95,96  L 96,96  Z  M 194,30  L 194,29  L 193,29  L 193,28  L 195,28  L 195,30  Z  M 36,61  L 36,62  L 35,62  L 35,63  L 33,63  L 33,65  L 32,65  L 32,68  L 31,68  L 31,115  L 32,115  L 32,118  L 33,118  L 33,120  L 35,120  L 35,121  L 36,121  L 36,122  L 58,122  L 58,124  L 57,124  L 57,125  L 36,125  L 36,124  L 34,124  L 34,123  L 32,123  L 32,122  L 31,122  L 31,121  L 30,121  L 30,119  L 29,119  L 29,116  L 28,116  L 28,67  L 29,67  L 29,64  L 30,64  L 30,62  L 31,62  L 31,61  L 32,61  L 32,60  L 33,60  L 33,59  L 36,59  L 36,58  L 57,58  L 57,59  L 58,59  L 58,61  Z  M 176,48  L 176,46  L 175,46  L 175,45  L 174,45  L 174,44  L 175,44  L 175,43  L 176,43  L 176,36  L 175,36  L 175,35  L 174,35  L 174,34  L 175,34  L 175,32  L 176,32  L 176,31  L 180,31  L 180,30  L 182,30  L 182,29  L 184,29  L 184,32  L 182,32  L 182,33  L 181,33  L 181,34  L 180,34  L 180,36  L 179,36  L 179,39  L 178,39  L 178,41  L 179,41  L 179,44  L 180,44  L 180,45  L 181,45  L 181,46  L 182,46  L 182,47  L 184,47  L 184,48  L 185,48  L 185,53  L 184,53  L 184,50  L 182,50  L 182,49  L 180,49  L 180,48  Z  M 193,51  L 193,50  L 194,50  L 194,49  L 195,49  L 195,51  Z  M 245,64  L 246,64  L 246,68  L 247,68  L 247,90  L 246,90  L 246,91  L 247,91  L 247,96  L 246,96  L 246,97  L 247,97  L 247,115  L 246,115  L 246,119  L 245,119  L 245,121  L 244,121  L 244,122  L 243,122  L 243,123  L 241,123  L 241,124  L 239,124  L 239,125  L 235,125  L 235,126  L 234,126  L 234,125  L 217,125  L 217,122  L 239,122  L 239,121  L 240,121  L 240,120  L 241,120  L 241,119  L 242,119  L 242,118  L 243,118  L 243,113  L 244,113  L 244,112  L 243,112  L 243,105  L 244,105  L 244,104  L 243,104  L 243,92  L 244,92  L 244,89  L 243,89  L 243,88  L 244,88  L 244,84  L 243,84  L 243,65  L 242,65  L 242,64  L 241,64  L 241,63  L 240,63  L 240,62  L 239,62  L 239,61  L 217,61  L 217,58  L 232,58  L 232,57  L 233,57  L 233,58  L 235,58  L 235,57  L 236,57  L 236,58  L 240,58  L 240,59  L 241,59  L 241,60  L 243,60  L 243,61  L 244,61  L 244,63  L 245,63  Z  M 68,88  L 68,90  L 66,90  L 66,89  L 65,89  L 65,88  Z  M 52,88  L 53,88  L 53,87  L 55,87  L 55,86  L 56,86  L 56,73  L 45,73  L 45,79  L 47,79  L 47,80  L 48,80  L 48,81  L 49,81  L 49,95  L 48,95  L 48,94  L 47,94  L 47,93  L 44,93  L 44,90  L 43,90  L 43,89  L 41,89  L 41,90  L 40,90  L 40,80  L 42,80  L 42,79  L 43,79  L 43,78  L 44,78  L 44,72  L 57,72  L 57,86  L 59,86  L 59,87  L 61,87  L 61,88  L 62,88  L 62,90  L 52,90  Z  M 73,144  L 74,144  L 74,147  L 75,147  L 75,149  L 76,149  L 76,150  L 77,150  L 77,152  L 78,152  L 78,153  L 76,153  L 76,151  L 75,151  L 75,150  L 74,150  L 74,148  L 73,148  L 73,145  L 72,145  L 72,137  L 73,137  L 73,134  L 74,134  L 74,132  L 75,132  L 75,131  L 76,131  L 76,130  L 77,130  L 77,129  L 78,129  L 78,128  L 79,128  L 79,127  L 81,127  L 81,126  L 83,126  L 83,125  L 88,125  L 88,124  L 89,124  L 89,125  L 94,125  L 94,126  L 96,126  L 96,127  L 98,127  L 98,128  L 99,128  L 99,129  L 100,129  L 100,130  L 101,130  L 101,131  L 102,131  L 102,132  L 103,132  L 103,134  L 104,134  L 104,136  L 105,136  L 105,145  L 104,145  L 104,148  L 103,148  L 103,150  L 102,150  L 102,151  L 101,151  L 101,149  L 102,149  L 102,147  L 103,147  L 103,144  L 104,144  L 104,142  L 103,142  L 103,141  L 100,141  L 100,142  L 102,142  L 102,143  L 101,143  L 101,144  L 100,144  L 100,145  L 101,145  L 101,146  L 100,146  L 100,147  L 99,147  L 99,150  L 98,150  L 98,148  L 97,148  L 97,146  L 96,146  L 96,145  L 95,145  L 95,144  L 94,144  L 94,143  L 93,143  L 93,142  L 91,142  L 91,141  L 92,141  L 92,140  L 94,140  L 94,141  L 98,141  L 98,143  L 99,143  L 99,140  L 97,140  L 97,139  L 96,139  L 96,138  L 93,138  L 93,139  L 92,139  L 92,137  L 93,137  L 93,136  L 96,136  L 96,133  L 95,133  L 95,135  L 94,135  L 94,132  L 95,132  L 95,131  L 96,131  L 96,132  L 97,132  L 97,133  L 98,133  L 98,132  L 100,132  L 100,131  L 99,131  L 99,130  L 98,130  L 98,129  L 97,129  L 97,128  L 95,128  L 95,127  L 92,127  L 92,130  L 91,130  L 91,131  L 90,131  L 90,132  L 89,132  L 89,133  L 88,133  L 88,134  L 87,134  L 87,128  L 86,128  L 86,127  L 82,127  L 82,128  L 80,128  L 80,130  L 78,130  L 78,131  L 82,131  L 82,132  L 80,132  L 80,135  L 81,135  L 81,136  L 82,136  L 82,135  L 83,135  L 83,134  L 84,134  L 84,135  L 85,135  L 85,136  L 83,136  L 83,137  L 84,137  L 84,138  L 82,138  L 82,139  L 81,139  L 81,140  L 80,140  L 80,141  L 77,141  L 77,143  L 76,143  L 76,141  L 75,141  L 75,140  L 73,140  Z  M 129,129  L 129,130  L 124,130  L 124,129  L 123,129  L 123,128  L 125,128  L 125,129  Z  M 204,109  L 204,105  L 206,105  L 206,104  L 207,104  L 207,74  L 209,74  L 209,73  L 210,73  L 210,74  L 212,74  L 212,73  L 213,73  L 213,74  L 214,74  L 214,73  L 216,73  L 216,74  L 226,74  L 226,76  L 227,76  L 227,78  L 226,78  L 226,79  L 227,79  L 227,81  L 226,81  L 226,82  L 227,82  L 227,84  L 226,84  L 226,94  L 227,94  L 227,96  L 226,96  L 226,102  L 227,102  L 227,105  L 229,105  L 229,109  Z  M 172,148  L 173,148  L 173,146  L 170,146  L 170,145  L 169,145  L 169,143  L 173,143  L 173,144  L 174,144  L 174,143  L 175,143  L 175,140  L 176,140  L 176,145  L 175,145  L 175,146  L 198,146  L 198,144  L 197,144  L 197,140  L 196,140  L 196,139  L 195,139  L 195,138  L 197,138  L 197,139  L 198,139  L 198,143  L 199,143  L 199,144  L 201,144  L 201,143  L 202,143  L 202,142  L 204,142  L 204,145  L 203,145  L 203,146  L 200,146  L 200,147  L 201,147  L 201,149  L 197,149  L 197,150  L 193,150  L 193,151  L 192,151  L 192,152  L 193,152  L 193,154  L 201,154  L 201,150  L 203,150  L 203,160  L 201,160  L 201,161  L 198,161  L 198,160  L 197,160  L 197,158  L 196,158  L 196,157  L 177,157  L 177,158  L 176,158  L 176,160  L 175,160  L 175,161  L 172,161  L 172,160  L 171,160  L 171,159  L 170,159  L 170,151  L 171,151  L 171,149  L 172,149  Z  M 166,64  L 167,64  L 167,65  L 168,65  L 168,66  L 169,66  L 169,68  L 168,68  L 168,67  L 167,67  L 167,66  L 166,66  Z  M 185,144  L 185,143  L 183,143  L 183,142  L 182,142  L 182,141  L 181,141  L 181,140  L 180,140  L 180,138  L 179,138  L 179,136  L 178,136  L 178,128  L 179,128  L 179,127  L 180,127  L 180,126  L 181,126  L 181,125  L 182,125  L 182,124  L 184,124  L 184,123  L 189,123  L 189,124  L 191,124  L 191,125  L 192,125  L 192,126  L 193,126  L 193,127  L 194,127  L 194,128  L 195,128  L 195,131  L 196,131  L 196,134  L 195,134  L 195,137  L 194,137  L 194,138  L 193,138  L 193,140  L 192,140  L 192,141  L 191,141  L 191,142  L 190,142  L 190,143  L 189,143  L 189,144  L 187,144  L 187,145  L 186,145  L 186,144  Z  M 79,26  L 79,27  L 74,27  L 74,26  Z  M 181,28  L 181,29  L 179,29  L 179,28  Z  M 193,119  L 193,118  L 191,118  L 191,119  L 179,119  L 179,118  L 178,118  L 178,117  L 179,117  L 179,115  L 180,115  L 180,116  L 182,116  L 182,115  L 183,115  L 183,116  L 192,116  L 192,115  L 194,115  L 194,116  L 197,116  L 197,115  L 200,115  L 200,116  L 208,116  L 208,117  L 210,117  L 210,118  L 211,118  L 211,119  L 212,119  L 212,120  L 213,120  L 213,122  L 214,122  L 214,125  L 215,125  L 215,161  L 214,161  L 214,165  L 213,165  L 213,167  L 212,167  L 212,168  L 211,168  L 211,169  L 209,169  L 209,170  L 208,170  L 208,171  L 166,171  L 166,170  L 164,170  L 164,169  L 163,169  L 163,168  L 162,168  L 162,167  L 161,167  L 161,166  L 160,166  L 160,164  L 159,164  L 159,145  L 158,145  L 158,144  L 159,144  L 159,138  L 158,138  L 158,137  L 159,137  L 159,134  L 161,134  L 161,133  L 162,133  L 162,164  L 163,164  L 163,165  L 164,165  L 164,166  L 165,166  L 165,167  L 166,167  L 166,168  L 207,168  L 207,167  L 208,167  L 208,166  L 209,166  L 209,165  L 210,165  L 210,164  L 211,164  L 211,161  L 212,161  L 212,160  L 211,160  L 211,159  L 212,159  L 212,149  L 211,149  L 211,145  L 212,145  L 212,144  L 211,144  L 211,129  L 212,129  L 212,127  L 211,127  L 211,123  L 210,123  L 210,121  L 208,121  L 208,120  L 207,120  L 207,119  Z  M 72,97  L 71,97  L 71,96  L 70,96  L 70,99  L 69,99  L 69,96  L 67,96  L 67,101  L 64,101  L 64,102  L 63,102  L 63,103  L 64,103  L 64,104  L 61,104  L 61,105  L 62,105  L 62,106  L 63,106  L 63,108  L 65,108  L 65,102  L 66,102  L 66,108  L 75,108  L 75,102  L 76,102  L 76,108  L 81,108  L 81,109  L 40,109  L 40,93  L 43,93  L 43,94  L 44,94  L 44,96  L 45,96  L 45,98  L 47,98  L 47,97  L 48,97  L 48,96  L 49,96  L 49,108  L 51,108  L 51,92  L 63,92  L 63,94  L 61,94  L 61,95  L 60,95  L 60,96  L 59,96  L 59,98  L 58,98  L 58,102  L 59,102  L 59,103  L 60,103  L 60,100  L 59,100  L 59,99  L 60,99  L 60,97  L 61,97  L 61,96  L 62,96  L 62,95  L 79,95  L 79,96  L 81,96  L 81,102  L 80,102  L 80,104  L 77,104  L 77,101  L 74,101  L 74,100  L 73,100  L 73,99  L 72,99  Z  M 143,135  L 132,135  L 132,134  L 127,134  L 127,133  L 123,133  L 123,132  L 120,132  L 120,131  L 118,131  L 118,130  L 117,130  L 117,129  L 115,129  L 115,128  L 113,128  L 113,127  L 116,127  L 116,128  L 118,128  L 118,129  L 119,129  L 119,130  L 121,130  L 121,131  L 125,131  L 125,132  L 128,132  L 128,133  L 130,133  L 130,132  L 131,132  L 131,133  L 134,133  L 134,134  L 137,134  L 137,133  L 148,133  L 148,134  L 143,134  Z  M 104,120  L 104,119  L 103,119  L 103,117  L 105,117  L 105,118  L 106,118  L 106,119  L 107,119  L 107,121  L 108,121  L 108,122  L 109,122  L 109,123  L 111,123  L 111,124  L 112,124  L 112,126  L 111,126  L 111,125  L 109,125  L 109,124  L 108,124  L 108,123  L 107,123  L 107,122  L 106,122  L 106,121  L 105,121  L 105,120  Z  M 78,86  L 78,82  L 79,82  L 79,86  Z  M 170,120  L 170,121  L 169,121  L 169,122  L 168,122  L 168,123  L 167,123  L 167,124  L 166,124  L 166,125  L 164,125  L 164,124  L 165,124  L 165,123  L 166,123  L 166,122  L 167,122  L 167,121  L 168,121  L 168,120  L 169,120  L 169,119  L 170,119  L 170,118  L 171,118  L 171,116  L 172,116  L 172,115  L 173,115  L 173,117  L 172,117  L 172,119  L 171,119  L 171,120  Z  M 176,83  L 175,83  L 175,79  L 174,79  L 174,77  L 175,77  L 175,78  L 176,78  Z  M 106,43  L 105,43  L 105,42  L 101,42  L 101,43  L 100,43  L 100,44  L 99,44  L 99,40  L 100,40  L 100,41  L 108,41  L 108,43  L 109,43  L 109,46  L 108,46  L 108,45  L 107,45  L 107,44  L 106,44  Z  M 114,58  L 116,58  L 116,57  L 118,57  L 118,58  L 117,58  L 117,59  L 115,59  L 115,60  L 114,60  L 114,61  L 113,61  L 113,62  L 112,62  L 112,63  L 111,63  L 111,64  L 110,64  L 110,65  L 109,65  L 109,66  L 108,66  L 108,67  L 107,67  L 107,68  L 106,68  L 106,66  L 107,66  L 107,65  L 108,65  L 108,63  L 110,63  L 110,62  L 111,62  L 111,61  L 112,61  L 112,60  L 113,60  L 113,59  L 114,59  Z  M 69,100  L 70,100  L 70,103  L 74,103  L 74,104  L 67,104  L 67,103  L 69,103  Z  M 172,34  L 171,34  L 171,39  L 170,39  L 170,41  L 171,41  L 171,45  L 170,45  L 170,44  L 169,44  L 169,35  L 170,35  L 170,32  L 171,32  L 171,30  L 172,30  L 172,29  L 173,29  L 173,28  L 174,28  L 174,27  L 173,27  L 173,25  L 176,25  L 176,24  L 178,24  L 178,25  L 177,25  L 177,29  L 176,29  L 176,28  L 175,28  L 175,29  L 174,29  L 174,30  L 173,30  L 173,32  L 172,32  Z  M 197,54  L 197,55  L 196,55  L 196,51  L 197,51  L 197,50  L 198,50  L 198,51  L 199,51  L 199,50  L 200,50  L 200,48  L 201,48  L 201,47  L 202,47  L 202,43  L 203,43  L 203,36  L 202,36  L 202,34  L 204,34  L 204,40  L 205,40  L 205,41  L 204,41  L 204,46  L 203,46  L 203,48  L 202,48  L 202,50  L 201,50  L 201,51  L 200,51  L 200,54  Z  M 78,91  L 79,91  L 79,94  L 78,94  Z  M 102,96  L 102,87  L 104,87  L 104,91  L 107,91  L 107,87  L 109,87  L 109,94  L 108,94  L 108,95  L 109,95  L 109,96  L 107,96  L 107,92  L 104,92  L 104,96  Z  M 73,89  L 73,90  L 72,90  L 72,88  L 75,88  L 75,89  Z  M 204,85  L 206,85  L 206,86  L 205,86  L 205,102  L 204,102  Z  M 100,82  L 99,82  L 99,89  L 98,89  L 98,92  L 97,92  L 97,88  L 98,88  L 98,81  L 99,81  L 99,79  L 100,79  Z  M 97,30  L 97,39  L 96,39  L 96,40  L 93,40  L 93,41  L 86,41  L 86,40  L 85,40  L 85,41  L 81,41  L 81,40  L 80,40  L 80,41  L 73,41  L 73,40  L 70,40  L 70,39  L 69,39  L 69,37  L 68,37  L 68,31  L 69,31  L 69,30  L 70,30  L 70,29  L 72,29  L 72,28  L 93,28  L 93,29  L 96,29  L 96,30  Z  M 172,111  L 172,114  L 171,114  L 171,115  L 169,115  L 169,114  L 170,114  L 170,112  L 171,112  L 171,110  L 172,110  L 172,109  L 173,109  L 173,111  Z  M 75,86  L 76,86  L 76,87  L 74,87  L 74,86  L 72,86  L 72,84  L 73,84  L 73,85  L 75,85  Z  M 171,95  L 170,95  L 170,93  L 169,93  L 169,91  L 168,91  L 168,96  L 166,96  L 166,87  L 168,87  L 168,88  L 169,88  L 169,90  L 170,90  L 170,92  L 171,92  L 171,87  L 173,87  L 173,96  L 171,96  Z  M 137,49  L 137,50  L 134,50  L 134,49  L 132,49  L 132,50  L 128,50  L 128,51  L 124,51  L 124,52  L 122,52  L 122,53  L 120,53  L 120,54  L 117,54  L 117,55  L 115,55  L 115,54  L 116,54  L 116,53  L 117,53  L 117,52  L 118,52  L 118,51  L 119,51  L 119,52  L 120,52  L 120,51  L 122,51  L 122,50  L 123,50  L 123,49  L 124,49  L 124,50  L 125,50  L 125,49  L 131,49  L 131,48  L 135,48  L 135,47  L 136,47  L 136,48  L 137,48  L 137,47  L 138,47  L 138,48  L 144,48  L 144,49  L 149,49  L 149,50  L 151,50  L 151,51  L 154,51  L 154,52  L 150,52  L 150,51  L 148,51  L 148,50  L 145,50  L 145,51  L 143,51  L 143,50  L 141,50  L 141,49  Z  M 194,37  L 194,35  L 193,35  L 193,34  L 192,34  L 192,33  L 191,33  L 191,32  L 189,32  L 189,31  L 188,31  L 188,26  L 189,26  L 189,28  L 190,28  L 190,29  L 191,29  L 191,30  L 193,30  L 193,31  L 194,31  L 194,32  L 195,32  L 195,31  L 197,31  L 197,32  L 198,32  L 198,34  L 199,34  L 199,36  L 198,36  L 198,43  L 199,43  L 199,46  L 198,46  L 198,47  L 197,47  L 197,48  L 193,48  L 193,49  L 192,49  L 192,50  L 190,50  L 190,51  L 189,51  L 189,47  L 191,47  L 191,46  L 192,46  L 192,45  L 193,45  L 193,44  L 194,44  L 194,43  L 195,43  L 195,37  Z  M 162,124  L 161,124  L 161,125  L 158,125  L 158,124  L 160,124  L 160,123  L 161,123  L 161,122  L 162,122  L 162,121  L 163,121  L 163,120  L 165,120  L 165,121  L 164,121  L 164,122  L 163,122  L 163,123  L 162,123  Z  M 166,120  L 165,120  L 165,119  L 166,119  Z  M 176,138  L 178,138  L 178,139  L 177,139  L 177,140  L 176,140  Z  M 169,63  L 168,63  L 168,62  L 167,62  L 167,61  L 166,61  L 166,60  L 165,60  L 165,59  L 167,59  L 167,60  L 168,60  L 168,61  L 169,61  L 169,62  L 170,62  L 170,63  L 171,63  L 171,65  L 172,65  L 172,66  L 170,66  L 170,65  L 169,65  Z  M 202,104  L 202,103  L 203,103  L 203,102  L 204,102  L 204,104  Z  M 182,27  L 182,28  L 181,28  L 181,27  Z  M 113,133  L 114,133  L 114,134  L 116,134  L 116,164  L 115,164  L 115,166  L 114,166  L 114,167  L 113,167  L 113,168  L 112,168  L 112,169  L 111,169  L 111,170  L 109,170  L 109,171  L 67,171  L 67,170  L 66,170  L 66,169  L 64,169  L 64,168  L 63,168  L 63,167  L 62,167  L 62,165  L 61,165  L 61,162  L 60,162  L 60,125  L 61,125  L 61,122  L 62,122  L 62,120  L 63,120  L 63,119  L 64,119  L 64,118  L 65,118  L 65,117  L 67,117  L 67,116  L 82,116  L 82,115  L 86,115  L 86,116  L 87,116  L 87,115  L 96,115  L 96,117  L 97,117  L 97,119  L 68,119  L 68,120  L 66,120  L 66,121  L 65,121  L 65,123  L 64,123  L 64,125  L 63,125  L 63,161  L 64,161  L 64,164  L 65,164  L 65,166  L 67,166  L 67,167  L 68,167  L 68,168  L 108,168  L 108,167  L 110,167  L 110,166  L 111,166  L 111,165  L 112,165  L 112,163  L 113,163  Z  M 177,91  L 178,91  L 178,94  L 177,94  L 177,100  L 176,100  L 176,93  L 177,93  L 177,92  L 176,92  L 176,83  L 177,83  Z  M 171,71  L 170,71  L 170,69  L 171,69  L 171,70  L 172,70  L 172,72  L 171,72  Z  M 201,85  L 199,85  L 199,82  L 198,82  L 198,81  L 197,81  L 197,79  L 198,79  L 198,78  L 200,78  L 200,79  L 202,79  L 202,80  L 201,80  L 201,81  L 200,81  L 200,84  L 201,84  Z  M 179,106  L 178,106  L 178,101  L 179,101  Z  M 162,125  L 164,125  L 164,126  L 163,126  L 163,127  L 161,127  L 161,128  L 160,128  L 160,126  L 162,126  Z  M 172,53  L 172,50  L 171,50  L 171,49  L 176,49  L 176,52  L 177,52  L 177,53  L 178,53  L 178,54  L 180,54  L 180,55  L 183,55  L 183,56  L 190,56  L 190,55  L 193,55  L 193,56  L 192,56  L 192,57  L 181,57  L 181,56  L 178,56  L 178,55  L 177,55  L 177,54  L 176,54  L 176,53  Z  M 69,81  L 69,76  L 70,76  L 70,79  L 71,79  L 71,81  Z  M 64,85  L 63,85  L 63,80  L 64,80  L 64,79  L 65,79  L 65,78  L 66,78  L 66,77  L 68,77  L 68,78  L 67,78  L 67,79  L 66,79  L 66,80  L 65,80  L 65,82  L 64,82  Z  M 118,127  L 118,126  L 121,126  L 121,127  L 123,127  L 123,128  L 120,128  L 120,127  Z  M 139,53  L 139,52  L 146,52  L 146,53  Z  M 152,56  L 152,55  L 155,55  L 155,56  Z  M 106,115  L 107,115  L 107,116  L 108,116  L 108,118  L 107,118  L 107,117  L 106,117  Z  M 75,79  L 76,79  L 76,81  L 77,81  L 77,85  L 75,85  L 75,81  L 74,81  L 74,80  L 73,80  L 73,79  L 72,79  L 72,77  L 74,77  L 74,78  L 75,78  Z  M 93,147  L 93,148  L 91,148  L 91,149  L 89,149  L 89,150  L 85,150  L 85,149  L 84,149  L 84,148  L 83,148  L 83,147  L 84,147  L 84,146  L 87,146  L 87,145  L 84,145  L 84,144  L 85,144  L 85,143  L 87,143  L 87,142  L 89,142  L 89,143  L 92,143  L 92,144  L 93,144  L 93,145  L 94,145  L 94,146  L 95,146  L 95,147  Z  M 86,44  L 86,45  L 87,45  L 87,50  L 85,50  L 85,51  L 83,51  L 83,50  L 81,50  L 81,48  L 80,48  L 80,49  L 79,49  L 79,50  L 78,50  L 78,51  L 76,51  L 76,50  L 74,50  L 74,48  L 73,48  L 73,46  L 74,46  L 74,45  L 75,45  L 75,44  L 79,44  L 79,45  L 80,45  L 80,46  L 81,46  L 81,45  L 82,45  L 82,44  Z  M 103,67  L 103,68  L 102,68  L 102,69  L 101,69  L 101,71  L 100,71  L 100,74  L 99,74  L 99,75  L 98,75  L 98,72  L 99,72  L 99,70  L 100,70  L 100,68  L 101,68  L 101,67  L 102,67  L 102,65  L 103,65  L 103,64  L 104,64  L 104,63  L 105,63  L 105,62  L 106,62  L 106,61  L 107,61  L 107,60  L 108,60  L 108,59  L 109,59  L 109,58  L 110,58  L 110,57  L 112,57  L 112,56  L 113,56  L 113,55  L 115,55  L 115,57  L 113,57  L 113,58  L 111,58  L 111,59  L 110,59  L 110,60  L 109,60  L 109,61  L 108,61  L 108,63  L 106,63  L 106,64  L 105,64  L 105,65  L 104,65  L 104,67  Z  M 116,51  L 116,50  L 117,50  L 117,51  Z  M 174,42  L 173,42  L 173,38  L 174,38  Z  M 104,113  L 103,113  L 103,112  L 102,112  L 102,109  L 103,109  L 103,111  L 104,111  L 104,112  L 105,112  L 105,114  L 104,114  Z  M 85,154  L 85,155  L 86,155  L 86,156  L 87,156  L 87,159  L 86,159  L 86,161  L 85,161  L 85,159  L 84,159  L 84,158  L 83,158  L 83,160  L 84,160  L 84,161  L 81,161  L 81,160  L 80,160  L 80,158  L 79,158  L 79,152  L 80,152  L 80,150  L 81,150  L 81,152  L 82,152  L 82,153  L 83,153  L 83,154  Z  M 83,91  L 81,91  L 81,90  L 80,90  L 80,89  L 82,89  L 82,90  L 83,90  Z  M 84,133  L 84,130  L 85,130  L 85,133  Z  M 177,111  L 176,111  L 176,113  L 175,113  L 175,114  L 174,114  L 174,115  L 173,115  L 173,113  L 174,113  L 174,112  L 175,112  L 175,110  L 176,110  L 176,107  L 177,107  L 177,106  L 178,106  L 178,108  L 177,108  Z  M 92,26  L 92,27  L 87,27  L 87,26  Z  M 105,44  L 105,45  L 106,45  L 106,47  L 107,47  L 107,48  L 106,48  L 106,50  L 104,50  L 104,51  L 103,51  L 103,50  L 101,50  L 101,49  L 100,49  L 100,48  L 99,48  L 99,46  L 100,46  L 100,45  L 101,45  L 101,44  Z  M 103,70  L 104,70  L 104,68  L 106,68  L 106,70  L 105,70  L 105,71  L 104,71  L 104,73  L 103,73  L 103,74  L 102,74  L 102,72  L 103,72  Z  M 97,42  L 97,46  L 89,46  L 89,45  L 88,45  L 88,44  L 87,44  L 87,43  L 86,43  L 86,42  Z  M 100,76  L 101,76  L 101,79  L 100,79  Z  M 109,119  L 108,119  L 108,118  L 109,118  Z  M 84,129  L 84,130  L 83,130  L 83,129  Z  M 101,116  L 101,114  L 100,114  L 100,112  L 99,112  L 99,111  L 98,111  L 98,109  L 97,109  L 97,106  L 96,106  L 96,103  L 97,103  L 97,104  L 98,104  L 98,105  L 99,105  L 99,106  L 98,106  L 98,108  L 99,108  L 99,110  L 100,110  L 100,111  L 101,111  L 101,113  L 102,113  L 102,116  Z  M 128,53  L 128,52  L 135,52  L 135,51  L 137,51  L 137,53  Z  M 160,59  L 158,59  L 158,58  L 160,58  Z  M 95,80  L 96,80  L 96,77  L 97,77  L 97,81  L 96,81  L 96,85  L 95,85  Z  M 154,94  L 154,93  L 153,93  L 153,92  L 152,92  L 152,91  L 155,91  L 155,93  L 156,93  L 156,94  L 155,94  L 155,95  L 154,95  L 154,96  L 151,96  L 151,95  L 149,95  L 149,94  L 148,94  L 148,89  L 149,89  L 149,88  L 150,88  L 150,87  L 154,87  L 154,88  L 155,88  L 155,89  L 150,89  L 150,91  L 149,91  L 149,92  L 150,92  L 150,94  Z  M 149,129  L 149,128  L 152,128  L 152,127  L 155,127  L 155,128  L 154,128  L 154,129  Z  M 180,51  L 178,51  L 178,50  L 180,50  Z  M 175,100  L 176,100  L 176,103  L 175,103  Z  M 100,32  L 100,33  L 99,33  L 99,32  Z  M 127,94  L 126,94  L 126,95  L 125,95  L 125,96  L 120,96  L 120,87  L 125,87  L 125,88  L 126,88  L 126,89  L 127,89  Z  M 120,55  L 121,55  L 121,54  L 125,54  L 125,55  L 122,55  L 122,56  L 120,56  Z  M 177,75  L 176,75  L 176,73  L 175,73  L 175,72  L 174,72  L 174,70  L 173,70  L 173,68  L 172,68  L 172,66  L 173,66  L 173,67  L 174,67  L 174,69  L 175,69  L 175,70  L 176,70  L 176,72  L 177,72  L 177,74  L 178,74  L 178,77  L 179,77  L 179,80  L 178,80  L 178,78  L 177,78  Z  M 142,138  L 141,138  L 141,137  L 142,137  Z  M 71,94  L 69,94  L 69,87  L 70,87  L 70,91  L 71,91  Z  M 100,104  L 101,104  L 101,107  L 100,107  L 100,105  L 99,105  L 99,101  L 100,101  Z  M 98,158  L 97,158  L 97,160  L 96,160  L 96,161  L 94,161  L 94,162  L 91,162  L 91,154  L 92,154  L 92,153  L 93,153  L 93,152  L 96,152  L 96,153  L 95,153  L 95,156  L 96,156  L 96,154  L 98,154  Z  M 199,38  L 200,38  L 200,42  L 199,42  Z  M 158,129  L 158,128  L 160,128  L 160,129  Z  M 73,91  L 74,91  L 74,92  L 73,92  Z  M 202,104  L 202,105  L 199,105  L 199,104  Z  M 200,86  L 201,86  L 201,92  L 200,92  L 200,93  L 199,93  L 199,91  L 200,91  Z  M 146,130  L 146,129  L 149,129  L 149,130  Z  M 186,28  L 187,28  L 187,38  L 189,38  L 189,37  L 190,37  L 190,41  L 189,41  L 189,44  L 188,44  L 188,48  L 187,48  L 187,43  L 186,43  L 186,41  L 185,41  L 185,42  L 183,42  L 183,40  L 184,40  L 184,36  L 185,36  L 185,32  L 186,32  Z  M 117,125  L 118,125  L 118,126  L 116,126  L 116,125  L 115,125  L 115,124  L 117,124  Z  M 74,91  L 74,90  L 76,90  L 76,91  Z  M 137,95  L 137,96  L 134,96  L 134,94  L 133,94  L 133,93  L 131,93  L 131,96  L 129,96  L 129,87  L 135,87  L 135,88  L 136,88  L 136,91  L 135,91  L 135,94  L 136,94  L 136,95  Z  M 198,97  L 197,97  L 197,95  L 198,95  Z  M 113,121  L 113,122  L 114,122  L 114,123  L 115,123  L 115,124  L 113,124  L 113,123  L 112,123  L 112,122  L 111,122  L 111,121  L 110,121  L 110,120  L 112,120  L 112,121  Z  M 79,144  L 78,144  L 78,143  L 79,143  Z  M 191,52  L 191,51  L 193,51  L 193,52  Z  M 166,64  L 164,64  L 164,62  L 165,62  L 165,63  L 166,63  Z  M 82,85  L 81,85  L 81,84  L 80,84  L 80,83  L 82,83  L 82,84  L 83,84  L 83,85  L 84,85  L 84,87  L 85,87  L 85,90  L 84,90  L 84,89  L 83,89  L 83,86  L 82,86  Z  M 112,90  L 112,89  L 111,89  L 111,87  L 113,87  L 113,89  L 114,89  L 114,90  L 115,90  L 115,89  L 116,89  L 116,87  L 118,87  L 118,89  L 117,89  L 117,90  L 116,90  L 116,92  L 115,92  L 115,96  L 114,96  L 114,92  L 113,92  L 113,90  Z  M 98,77  L 97,77  L 97,75  L 98,75  Z  M 157,130  L 157,131  L 154,131  L 154,132  L 152,132  L 152,131  L 153,131  L 153,130  L 155,130  L 155,129  L 158,129  L 158,130  Z  M 163,59  L 163,57  L 164,57  L 164,58  L 165,58  L 165,59  Z  M 185,26  L 185,29  L 184,29  L 184,26  Z  M 179,97  L 180,97  L 180,101  L 179,101  Z  M 200,74  L 201,74  L 201,76  L 200,76  Z  M 69,82  L 70,82  L 70,83  L 71,83  L 71,84  L 70,84  L 70,85  L 69,85  L 69,84  L 68,84  L 68,83  L 69,83  Z  M 152,132  L 152,133  L 148,133  L 148,132  Z  M 146,130  L 146,131  L 141,131  L 141,132  L 138,132  L 138,131  L 134,131  L 134,132  L 133,132  L 133,131  L 130,131  L 130,130  Z  M 194,151  L 196,151  L 196,153  L 195,153  L 195,152  L 194,152  Z  M 197,152  L 197,151  L 198,151  L 198,152  Z  M 174,75  L 174,77  L 173,77  L 173,75  Z  M 154,53  L 154,52  L 156,52  L 156,53  Z  M 118,57  L 118,56  L 120,56  L 120,57  Z  M 159,89  L 159,90  L 161,90  L 161,91  L 162,91  L 162,92  L 160,92  L 160,93  L 159,93  L 159,94  L 164,94  L 164,96  L 158,96  L 158,87  L 164,87  L 164,89  Z  M 182,51  L 182,52  L 180,52  L 180,51  Z  M 169,69  L 169,68  L 170,68  L 170,69  Z  M 199,103  L 199,104  L 198,104  L 198,103  Z  M 101,107  L 102,107  L 102,109  L 101,109  Z  M 201,82  L 201,81  L 202,81  L 202,82  Z  M 200,153  L 199,153  L 199,152  L 200,152  Z  M 198,101  L 198,103  L 197,103  L 197,102  L 196,102  L 196,97  L 197,97  L 197,101  Z  M 199,77  L 199,76  L 200,76  L 200,77  Z  M 125,53  L 128,53  L 128,54  L 125,54  Z  M 68,86  L 66,86  L 66,87  L 63,87  L 63,86  L 65,86  L 65,85  L 66,85  L 66,84  L 68,84  Z  M 82,145  L 82,146  L 81,146  L 81,145  Z  M 145,94  L 145,95  L 144,95  L 144,96  L 140,96  L 140,95  L 139,95  L 139,94  L 138,94  L 138,89  L 139,89  L 139,88  L 140,88  L 140,87  L 144,87  L 144,88  L 145,88  L 145,89  L 146,89  L 146,94  Z  M 150,55  L 150,54  L 152,54  L 152,55  Z  M 199,95  L 198,95  L 198,93  L 199,93  Z  M 99,154  L 99,152  L 100,152  L 100,151  L 101,151  L 101,153  L 100,153  L 100,154  Z  M 180,95  L 181,95  L 181,96  L 180,96  Z  M 71,46  L 69,46  L 69,44  L 68,44  L 68,41  L 70,41  L 70,42  L 75,42  L 75,43  L 74,43  L 74,44  L 73,44  L 73,45  L 72,45  L 72,47  L 71,47  Z  M 158,54  L 160,54  L 160,55  L 161,55  L 161,56  L 159,56  L 159,55  L 158,55  Z  M 98,100  L 98,98  L 97,98  L 97,95  L 98,95  L 98,93  L 99,93  L 99,100  Z  M 109,119  L 110,119  L 110,120  L 109,120  Z  M 174,104  L 175,104  L 175,107  L 174,107  L 174,109  L 173,109  L 173,106  L 174,106  Z  M 168,118  L 167,118  L 167,119  L 166,119  L 166,117  L 167,117  L 167,116  L 168,116  Z  M 80,94  L 80,93  L 81,93  L 81,92  L 82,92  L 82,94  Z  M 155,126  L 156,126  L 156,127  L 155,127  Z  M 191,28  L 191,27  L 193,27  L 193,28  Z  M 136,45  L 136,46  L 134,46  L 134,47  L 133,47  L 133,45  Z  M 103,117  L 102,117  L 102,116  L 103,116  Z  M 78,88  L 80,88  L 80,89  L 78,89  Z  M 180,94  L 180,95  L 179,95  L 179,94  Z  M 158,125  L 158,126  L 156,126  L 156,125  Z  M 132,47  L 131,47  L 131,46  L 132,46  Z  M 156,55  L 156,53  L 158,53  L 158,54  L 157,54  L 157,55  Z  M 178,69  L 177,69  L 177,68  L 178,68  Z  M 115,53  L 114,53  L 114,52  L 115,52  Z  M 163,57  L 161,57  L 161,56  L 163,56  Z  M 84,92  L 83,92  L 83,91  L 84,91  Z  M 71,100  L 71,99  L 72,99  L 72,100  Z  M 102,76  L 101,76  L 101,74  L 102,74  Z  M 81,26  L 85,26  L 85,27  L 81,27  Z  M 122,48  L 122,49  L 121,49  L 121,48  Z  M 75,92  L 76,92  L 76,93  L 75,93  Z  M 137,45  L 138,45  L 138,46  L 137,46  Z  M 168,115  L 169,115  L 169,116  L 168,116  Z  M 117,50  L 117,49  L 118,49  L 118,50  Z  M 155,56  L 157,56  L 157,57  L 155,57  Z  M 82,43  L 81,43  L 81,44  L 80,44  L 80,43  L 79,43  L 79,42  L 82,42  Z  M 106,34  L 107,34  L 107,36  L 106,36  Z  M 150,53  L 150,54  L 146,54  L 146,53  Z  M 103,33  L 103,32  L 104,32  L 104,33  Z  M 158,57  L 158,58  L 157,58  L 157,57  Z  M 102,33  L 101,33  L 101,32  L 102,32  Z  M 163,60  L 163,61  L 164,61  L 164,62  L 162,62  L 162,61  L 161,61  L 161,60  Z  M 188,51  L 189,51  L 189,53  L 188,53  Z  M 105,115  L 105,114  L 106,114  L 106,115  Z  M 76,93  L 77,93  L 77,94  L 76,94  Z  M 122,48  L 122,47  L 123,47  L 123,48  Z  M 76,90  L 76,89  L 77,89  L 77,90  Z  M 200,151  L 199,151  L 199,150  L 200,150  Z  M 160,59  L 161,59  L 161,60  L 160,60  Z  M 172,74  L 172,72  L 173,72  L 173,74  Z  M 113,126  L 113,127  L 112,127  L 112,126  Z  " style="fill:rgb(0, 0, 0); fill-opacity:1.000; stroke:none;" />
 <path d="  M 61,104  L 61,103  L 60,103  L 60,104  Z  " style="fill:rgb(0, 0, 0); fill-opacity:1.000; stroke:none;" />
 <path d="  M 75,49  L 78,49  L 78,48  L 76,48  L 76,46  L 75,46  Z  " style="fill:rgb(0, 0, 0); fill-opacity:1.000; stroke:none;" />
 <path d="  M 78,46  L 78,45  L 76,45  L 76,46  Z  " style="fill:rgb(0, 0, 0); fill-opacity:1.000; stroke:none;" />
 <path d="  M 79,34  L 81,34  L 81,35  L 82,35  L 82,34  L 83,34  L 83,30  L 81,30  L 81,29  L 80,29  L 80,30  L 79,30  L 79,31  L 78,31  L 78,33  L 79,33  Z  " style="fill:rgb(0, 0, 0); fill-opacity:1.000; stroke:none;" />
 <path d="  M 79,48  L 79,46  L 78,46  L 78,48  Z  " style="fill:rgb(0, 0, 0); fill-opacity:1.000; stroke:none;" />
 <path d="  M 80,137  L 80,138  L 81,138  L 81,137  Z  " style="fill:rgb(0, 0, 0); fill-opacity:1.000; stroke:none;" />
 <path d="  M 83,46  L 82,46  L 82,48  L 83,48  Z  " style="fill:rgb(0, 0, 0); fill-opacity:1.000; stroke:none;" />
 <path d="  M 82,158  L 83,158  L 83,157  L 82,157  Z  " style="fill:rgb(0, 0, 0); fill-opacity:1.000; stroke:none;" />
 <path d="  M 83,38  L 84,38  L 84,39  L 87,39  L 87,38  L 88,38  L 88,35  L 86,35  L 86,34  L 83,34  Z  " style="fill:rgb(0, 0, 0); fill-opacity:1.000; stroke:none;" />
 <path d="  M 85,46  L 85,45  L 83,45  L 83,46  Z  " style="fill:rgb(0, 0, 0); fill-opacity:1.000; stroke:none;" />
 <path d="  M 86,49  L 86,46  L 85,46  L 85,48  L 83,48  L 83,49  Z  " style="fill:rgb(0, 0, 0); fill-opacity:1.000; stroke:none;" />
 <path d="  M 86,33  L 86,34  L 87,34  L 87,33  Z  " style="fill:rgb(0, 0, 0); fill-opacity:1.000; stroke:none;" />
 <path d="  M 86,126  L 86,127  L 87,127  L 87,126  Z  " style="fill:rgb(0, 0, 0); fill-opacity:1.000; stroke:none;" />
 <path d="  M 99,139  L 99,137  L 98,137  L 98,138  L 97,138  L 97,139  Z  " style="fill:rgb(0, 0, 0); fill-opacity:1.000; stroke:none;" />
 <path d="  M 99,143  L 99,144  L 100,144  L 100,143  Z  " style="fill:rgb(0, 0, 0); fill-opacity:1.000; stroke:none;" />
 <path d="  M 102,139  L 101,139  L 101,137  L 100,137  L 100,140  L 102,140  Z  " style="fill:rgb(0, 0, 0); fill-opacity:1.000; stroke:none;" />
 <path d="  M 102,46  L 101,46  L 101,48  L 102,48  Z  " style="fill:rgb(0, 0, 0); fill-opacity:1.000; stroke:none;" />
 <path d="  M 102,46  L 104,46  L 104,45  L 102,45  Z  " style="fill:rgb(0, 0, 0); fill-opacity:1.000; stroke:none;" />
 <path d="  M 102,49  L 104,49  L 104,48  L 102,48  Z  " style="fill:rgb(0, 0, 0); fill-opacity:1.000; stroke:none;" />
 <path d="  M 105,46  L 104,46  L 104,48  L 105,48  Z  " style="fill:rgb(0, 0, 0); fill-opacity:1.000; stroke:none;" />
 <path d="  M 122,89  L 122,94  L 125,94  L 125,93  L 126,93  L 126,92  L 125,92  L 125,89  Z  " style="fill:rgb(0, 0, 0); fill-opacity:1.000; stroke:none;" />
 <path d="  M 134,89  L 131,89  L 131,91  L 134,91  Z  " style="fill:rgb(0, 0, 0); fill-opacity:1.000; stroke:none;" />
 <path d="  M 140,89  L 140,94  L 143,94  L 143,93  L 144,93  L 144,89  Z  " style="fill:rgb(0, 0, 0); fill-opacity:1.000; stroke:none;" />
 <path d="  M 181,150  L 176,150  L 176,149  L 172,149  L 172,154  L 180,154  L 180,153  L 181,153  Z  M 178,152  L 177,152  L 177,151  L 179,151  L 179,153  L 178,153  Z  M 175,152  L 176,152  L 176,153  L 175,153  Z  M 174,151  L 173,151  L 173,150  L 174,150  Z  M 175,151  L 175,150  L 176,150  L 176,151  Z  " style="fill:rgb(0, 0, 0); fill-opacity:1.000; stroke:none;" />
 <path d="  M 186,129  L 186,130  L 187,130  L 187,132  L 186,132  L 186,133  L 185,133  L 185,134  L 186,134  L 186,135  L 185,135  L 185,136  L 186,136  L 186,138  L 185,138  L 185,137  L 183,137  L 183,136  L 182,136  L 182,128  L 184,128  L 184,129  Z  M 192,138  L 192,137  L 193,137  L 193,136  L 194,136  L 194,128  L 193,128  L 193,127  L 192,127  L 192,126  L 191,126  L 191,125  L 188,125  L 188,124  L 185,124  L 185,125  L 183,125  L 183,126  L 181,126  L 181,127  L 180,127  L 180,129  L 179,129  L 179,136  L 180,136  L 180,137  L 181,137  L 181,138  L 182,138  L 182,139  L 184,139  L 184,140  L 187,140  L 187,139  L 188,139  L 188,140  L 189,140  L 189,139  L 191,139  L 191,138  Z  M 187,133  L 188,133  L 188,132  L 189,132  L 189,130  L 190,130  L 190,131  L 191,131  L 191,132  L 192,132  L 192,136  L 191,136  L 191,137  L 190,137  L 190,138  L 189,138  L 189,137  L 188,137  L 188,138  L 187,138  Z  " style="fill:rgb(0, 0, 0); fill-opacity:1.000; stroke:none;" />
 <path d="  M 192,156  L 192,154  L 191,154  L 191,153  L 182,153  L 182,156  Z  " style="fill:rgb(0, 0, 0); fill-opacity:1.000; stroke:none;" />
 <path d="  M 190,136  L 189,136  L 189,137  L 190,137  Z  " style="fill:rgb(0, 0, 0); fill-opacity:1.000; stroke:none;" />
 <path d="  M 196,45  L 196,44  L 195,44  L 195,45  Z  " style="fill:rgb(0, 0, 0); fill-opacity:1.000; stroke:none;" />
 <path d="  M 212,74  L 212,75  L 208,75  L 208,87  L 209,87  L 209,88  L 224,88  L 224,87  L 225,87  L 225,75  L 213,75  L 213,74  Z  M 215,86  L 215,83  L 214,83  L 214,81  L 217,81  L 217,82  L 218,82  L 218,83  L 219,83  L 219,85  L 218,85  L 218,86  Z  M 211,79  L 211,78  L 212,78  L 212,79  Z  M 214,80  L 214,81  L 213,81  L 213,80  Z  M 212,79  L 213,79  L 213,80  L 212,80  Z  " style="fill:rgb(0, 0, 0); fill-opacity:1.000; stroke:none;" />
 <path d="  M 210,102  L 211,102  L 211,103  L 212,103  L 212,102  L 214,102  L 214,101  L 213,101  L 213,99  L 214,99  L 214,98  L 216,98  L 216,103  L 217,103  L 217,102  L 219,102  L 219,90  L 216,90  L 216,94  L 213,94  L 213,90  L 210,90  Z  " style="fill:rgb(0, 0, 0); fill-opacity:1.000; stroke:none;" />
 <path d="  M 220,97  L 220,100  L 221,100  L 221,101  L 220,101  L 220,102  L 219,102  L 219,104  L 224,104  L 224,102  L 223,102  L 223,101  L 224,101  L 224,98  L 223,98  L 223,97  Z  M 222,99  L 222,100  L 221,100  L 221,99  Z  " style="fill:rgb(0, 0, 0); fill-opacity:1.000; stroke:none;" />
 <path d="  M 36,58  L 36,59  L 33,59  L 33,60  L 32,60  L 32,61  L 31,61  L 31,62  L 30,62  L 30,64  L 29,64  L 29,67  L 28,67  L 28,116  L 29,116  L 29,119  L 30,119  L 30,121  L 31,121  L 31,122  L 32,122  L 32,123  L 34,123  L 34,124  L 36,124  L 36,125  L 57,125  L 57,124  L 58,124  L 58,122  L 36,122  L 36,121  L 35,121  L 35,120  L 33,120  L 33,118  L 32,118  L 32,115  L 31,115  L 31,68  L 32,68  L 32,65  L 33,65  L 33,63  L 35,63  L 35,62  L 36,62  L 36,61  L 58,61  L 58,59  L 57,59  L 57,58  Z  " style="fill:rgb(255, 255, 255); fill-opacity:1.000; stroke:none;" />
 <path d="  M 44,78  L 43,78  L 43,79  L 42,79  L 42,80  L 40,80  L 40,90  L 41,90  L 41,89  L 43,89  L 43,90  L 44,90  L 44,93  L 47,93  L 47,94  L 48,94  L 48,95  L 49,95  L 49,81  L 48,81  L 48,80  L 47,80  L 47,79  L 45,79  L 45,73  L 56,73  L 56,86  L 55,86  L 55,87  L 53,87  L 53,88  L 52,88  L 52,90  L 62,90  L 62,88  L 61,88  L 61,87  L 59,87  L 59,86  L 57,86  L 57,72  L 44,72  Z  " style="fill:rgb(255, 255, 255); fill-opacity:1.000; stroke:none;" />
 <path d="  M 51,108  L 49,108  L 49,96  L 48,96  L 48,97  L 47,97  L 47,98  L 45,98  L 45,96  L 44,96  L 44,94  L 43,94  L 43,93  L 40,93  L 40,109  L 81,109  L 81,108  L 76,108  L 76,102  L 75,102  L 75,108  L 66,108  L 66,102  L 65,102  L 65,108  L 63,108  L 63,106  L 62,106  L 62,105  L 61,105  L 61,104  L 60,104  L 60,103  L 59,103  L 59,102  L 58,102  L 58,98  L 59,98  L 59,96  L 60,96  L 60,95  L 61,95  L 61,94  L 63,94  L 63,92  L 51,92  Z  " style="fill:rgb(255, 255, 255); fill-opacity:1.000; stroke:none;" />
 <path d="  M 70,96  L 71,96  L 71,97  L 72,97  L 72,99  L 73,99  L 73,100  L 74,100  L 74,101  L 77,101  L 77,104  L 80,104  L 80,102  L 81,102  L 81,96  L 79,96  L 79,95  L 62,95  L 62,96  L 61,96  L 61,97  L 60,97  L 60,99  L 59,99  L 59,100  L 60,100  L 60,103  L 61,103  L 61,104  L 64,104  L 64,103  L 63,103  L 63,102  L 64,102  L 64,101  L 67,101  L 67,96  L 69,96  L 69,99  L 70,99  Z  " style="fill:rgb(255, 255, 255); fill-opacity:1.000; stroke:none;" />
 <path d="  M 67,12  L 67,13  L 66,13  L 66,14  L 64,14  L 64,15  L 63,15  L 63,16  L 62,16  L 62,18  L 61,18  L 61,21  L 60,21  L 60,58  L 61,58  L 61,61  L 62,61  L 62,63  L 63,63  L 63,64  L 64,64  L 64,65  L 65,65  L 65,66  L 67,66  L 67,67  L 71,67  L 71,68  L 72,68  L 72,67  L 76,67  L 76,68  L 78,68  L 78,67  L 88,67  L 88,68  L 89,68  L 89,67  L 93,67  L 93,68  L 94,68  L 94,67  L 96,67  L 96,66  L 97,66  L 97,64  L 68,64  L 68,63  L 66,63  L 66,62  L 65,62  L 65,60  L 64,60  L 64,58  L 63,58  L 63,21  L 64,21  L 64,19  L 65,19  L 65,18  L 66,18  L 66,17  L 67,17  L 67,16  L 68,16  L 68,15  L 108,15  L 108,16  L 110,16  L 110,17  L 111,17  L 111,18  L 112,18  L 112,20  L 113,20  L 113,50  L 114,50  L 114,49  L 116,49  L 116,19  L 115,19  L 115,17  L 114,17  L 114,16  L 113,16  L 113,15  L 112,15  L 112,14  L 111,14  L 111,13  L 109,13  L 109,12  Z  " style="fill:rgb(255, 255, 255); fill-opacity:1.000; stroke:none;" />
 <path d="  M 61,122  L 61,125  L 60,125  L 60,162  L 61,162  L 61,165  L 62,165  L 62,167  L 63,167  L 63,168  L 64,168  L 64,169  L 66,169  L 66,170  L 67,170  L 67,171  L 109,171  L 109,170  L 111,170  L 111,169  L 112,169  L 112,168  L 113,168  L 113,167  L 114,167  L 114,166  L 115,166  L 115,164  L 116,164  L 116,134  L 114,134  L 114,133  L 113,133  L 113,163  L 112,163  L 112,165  L 111,165  L 111,166  L 110,166  L 110,167  L 108,167  L 108,168  L 68,168  L 68,167  L 67,167  L 67,166  L 65,166  L 65,164  L 64,164  L 64,161  L 63,161  L 63,125  L 64,125  L 64,123  L 65,123  L 65,121  L 66,121  L 66,120  L 68,120  L 68,119  L 97,119  L 97,117  L 96,117  L 96,115  L 87,115  L 87,116  L 86,116  L 86,115  L 82,115  L 82,116  L 67,116  L 67,117  L 65,117  L 65,118  L 64,118  L 64,119  L 63,119  L 63,120  L 62,120  L 62,122  Z  " style="fill:rgb(255, 255, 255); fill-opacity:1.000; stroke:none;" />
 <path d="  M 63,80  L 63,85  L 64,85  L 64,82  L 65,82  L 65,80  L 66,80  L 66,79  L 67,79  L 67,78  L 68,78  L 68,77  L 66,77  L 66,78  L 65,78  L 65,79  L 64,79  L 64,80  Z  " style="fill:rgb(255, 255, 255); fill-opacity:1.000; stroke:none;" />
 <path d="  M 68,84  L 66,84  L 66,85  L 65,85  L 65,86  L 63,86  L 63,87  L 66,87  L 66,86  L 68,86  Z  " style="fill:rgb(255, 255, 255); fill-opacity:1.000; stroke:none;" />
 <path d="  M 65,88  L 65,89  L 66,89  L 66,90  L 68,90  L 68,88  Z  " style="fill:rgb(255, 255, 255); fill-opacity:1.000; stroke:none;" />
 <path d="  M 70,100  L 69,100  L 69,103  L 67,103  L 67,104  L 74,104  L 74,103  L 70,103  Z  " style="fill:rgb(255, 255, 255); fill-opacity:1.000; stroke:none;" />
 <path d="  M 84,39  L 84,38  L 83,38  L 83,34  L 86,34  L 86,35  L 88,35  L 88,38  L 87,38  L 87,39  Z  M 93,41  L 93,40  L 96,40  L 96,39  L 97,39  L 97,30  L 96,30  L 96,29  L 93,29  L 93,28  L 72,28  L 72,29  L 70,29  L 70,30  L 69,30  L 69,31  L 68,31  L 68,37  L 69,37  L 69,39  L 70,39  L 70,40  L 73,40  L 73,41  L 80,41  L 80,40  L 81,40  L 81,41  L 85,41  L 85,40  L 86,40  L 86,41  Z  M 82,35  L 81,35  L 81,34  L 79,34  L 79,33  L 78,33  L 78,31  L 79,31  L 79,30  L 80,30  L 80,29  L 81,29  L 81,30  L 83,30  L 83,34  L 82,34  Z  M 86,34  L 86,33  L 87,33  L 87,34  Z  " style="fill:rgb(255, 255, 255); fill-opacity:1.000; stroke:none;" />
 <path d="  M 75,42  L 70,42  L 70,41  L 68,41  L 68,44  L 69,44  L 69,46  L 71,46  L 71,47  L 72,47  L 72,45  L 73,45  L 73,44  L 74,44  L 74,43  L 75,43  Z  " style="fill:rgb(255, 255, 255); fill-opacity:1.000; stroke:none;" />
 <path d="  M 70,82  L 69,82  L 69,83  L 68,83  L 68,84  L 69,84  L 69,85  L 70,85  L 70,84  L 71,84  L 71,83  L 70,83  Z  " style="fill:rgb(255, 255, 255); fill-opacity:1.000; stroke:none;" />
 <path d="  M 69,81  L 71,81  L 71,79  L 70,79  L 70,76  L 69,76  Z  " style="fill:rgb(255, 255, 255); fill-opacity:1.000; stroke:none;" />
 <path d="  M 69,94  L 71,94  L 71,91  L 70,91  L 70,87  L 69,87  Z  " style="fill:rgb(255, 255, 255); fill-opacity:1.000; stroke:none;" />
 <path d="  M 71,100  L 72,100  L 72,99  L 71,99  Z  " style="fill:rgb(255, 255, 255); fill-opacity:1.000; stroke:none;" />
 <path d="  M 75,85  L 77,85  L 77,81  L 76,81  L 76,79  L 75,79  L 75,78  L 74,78  L 74,77  L 72,77  L 72,79  L 73,79  L 73,80  L 74,80  L 74,81  L 75,81  Z  " style="fill:rgb(255, 255, 255); fill-opacity:1.000; stroke:none;" />
 <path d="  M 74,87  L 76,87  L 76,86  L 75,86  L 75,85  L 73,85  L 73,84  L 72,84  L 72,86  L 74,86  Z  " style="fill:rgb(255, 255, 255); fill-opacity:1.000; stroke:none;" />
 <path d="  M 73,89  L 75,89  L 75,88  L 72,88  L 72,90  L 73,90  Z  " style="fill:rgb(255, 255, 255); fill-opacity:1.000; stroke:none;" />
 <path d="  M 73,145  L 73,148  L 74,148  L 74,150  L 75,150  L 75,151  L 76,151  L 76,153  L 78,153  L 78,152  L 77,152  L 77,150  L 76,150  L 76,149  L 75,149  L 75,147  L 74,147  L 74,144  L 73,144  L 73,140  L 75,140  L 75,141  L 76,141  L 76,143  L 77,143  L 77,141  L 80,141  L 80,140  L 81,140  L 81,139  L 82,139  L 82,138  L 84,138  L 84,137  L 83,137  L 83,136  L 85,136  L 85,135  L 84,135  L 84,134  L 83,134  L 83,135  L 82,135  L 82,136  L 81,136  L 81,135  L 80,135  L 80,132  L 82,132  L 82,131  L 78,131  L 78,130  L 80,130  L 80,128  L 82,128  L 82,127  L 86,127  L 86,128  L 87,128  L 87,134  L 88,134  L 88,133  L 89,133  L 89,132  L 90,132  L 90,131  L 91,131  L 91,130  L 92,130  L 92,127  L 95,127  L 95,128  L 97,128  L 97,129  L 98,129  L 98,130  L 99,130  L 99,131  L 100,131  L 100,132  L 98,132  L 98,133  L 97,133  L 97,132  L 96,132  L 96,131  L 95,131  L 95,132  L 94,132  L 94,135  L 95,135  L 95,133  L 96,133  L 96,136  L 93,136  L 93,137  L 92,137  L 92,139  L 93,139  L 93,138  L 96,138  L 96,139  L 97,139  L 97,140  L 99,140  L 99,143  L 100,143  L 100,144  L 101,144  L 101,143  L 102,143  L 102,142  L 100,142  L 100,141  L 103,141  L 103,142  L 104,142  L 104,144  L 103,144  L 103,147  L 102,147  L 102,149  L 101,149  L 101,151  L 102,151  L 102,150  L 103,150  L 103,148  L 104,148  L 104,145  L 105,145  L 105,136  L 104,136  L 104,134  L 103,134  L 103,132  L 102,132  L 102,131  L 101,131  L 101,130  L 100,130  L 100,129  L 99,129  L 99,128  L 98,128  L 98,127  L 96,127  L 96,126  L 94,126  L 94,125  L 89,125  L 89,124  L 88,124  L 88,125  L 83,125  L 83,126  L 81,126  L 81,127  L 79,127  L 79,128  L 78,128  L 78,129  L 77,129  L 77,130  L 76,130  L 76,131  L 75,131  L 75,132  L 74,132  L 74,134  L 73,134  L 73,137  L 72,137  L 72,145  Z  M 86,127  L 86,126  L 87,126  L 87,127  Z  M 100,137  L 101,137  L 101,139  L 102,139  L 102,140  L 100,140  Z  M 81,137  L 81,138  L 80,138  L 80,137  Z  M 97,138  L 98,138  L 98,137  L 99,137  L 99,139  L 97,139  Z  " style="fill:rgb(255, 255, 255); fill-opacity:1.000; stroke:none;" />
 <path d="  M 75,49  L 75,46  L 76,46  L 76,45  L 78,45  L 78,46  L 79,46  L 79,48  L 78,48  L 78,49  Z  M 86,49  L 83,49  L 83,48  L 82,48  L 82,46  L 83,46  L 83,45  L 85,45  L 85,46  L 86,46  Z  M 82,45  L 81,45  L 81,46  L 80,46  L 80,45  L 79,45  L 79,44  L 75,44  L 75,45  L 74,45  L 74,46  L 73,46  L 73,48  L 74,48  L 74,50  L 76,50  L 76,51  L 78,51  L 78,50  L 79,50  L 79,49  L 80,49  L 80,48  L 81,48  L 81,50  L 83,50  L 83,51  L 85,51  L 85,50  L 87,50  L 87,45  L 86,45  L 86,44  L 82,44  Z  " style="fill:rgb(255, 255, 255); fill-opacity:1.000; stroke:none;" />
 <path d="  M 73,92  L 74,92  L 74,91  L 73,91  Z  " style="fill:rgb(255, 255, 255); fill-opacity:1.000; stroke:none;" />
 <path d="  M 74,26  L 74,27  L 79,27  L 79,26  Z  " style="fill:rgb(255, 255, 255); fill-opacity:1.000; stroke:none;" />
 <path d="  M 74,91  L 76,91  L 76,90  L 74,90  Z  " style="fill:rgb(255, 255, 255); fill-opacity:1.000; stroke:none;" />
 <path d="  M 76,92  L 75,92  L 75,93  L 76,93  Z  " style="fill:rgb(255, 255, 255); fill-opacity:1.000; stroke:none;" />
 <path d="  M 76,46  L 76,48  L 78,48  L 78,46  Z  " style="fill:rgb(255, 255, 255); fill-opacity:1.000; stroke:none;" />
 <path d="  M 76,89  L 76,90  L 77,90  L 77,89  Z  " style="fill:rgb(255, 255, 255); fill-opacity:1.000; stroke:none;" />
 <path d="  M 77,93  L 76,93  L 76,94  L 77,94  Z  " style="fill:rgb(255, 255, 255); fill-opacity:1.000; stroke:none;" />
 <path d="  M 79,82  L 78,82  L 78,86  L 79,86  Z  " style="fill:rgb(255, 255, 255); fill-opacity:1.000; stroke:none;" />
 <path d="  M 78,89  L 80,89  L 80,88  L 78,88  Z  " style="fill:rgb(255, 255, 255); fill-opacity:1.000; stroke:none;" />
 <path d="  M 78,94  L 79,94  L 79,91  L 78,91  Z  " style="fill:rgb(255, 255, 255); fill-opacity:1.000; stroke:none;" />
 <path d="  M 79,144  L 79,143  L 78,143  L 78,144  Z  " style="fill:rgb(255, 255, 255); fill-opacity:1.000; stroke:none;" />
 <path d="  M 79,42  L 79,43  L 80,43  L 80,44  L 81,44  L 81,43  L 82,43  L 82,42  Z  " style="fill:rgb(255, 255, 255); fill-opacity:1.000; stroke:none;" />
 <path d="  M 80,150  L 80,152  L 79,152  L 79,158  L 80,158  L 80,160  L 81,160  L 81,161  L 84,161  L 84,160  L 83,160  L 83,158  L 84,158  L 84,159  L 85,159  L 85,161  L 86,161  L 86,159  L 87,159  L 87,156  L 86,156  L 86,155  L 85,155  L 85,154  L 83,154  L 83,153  L 82,153  L 82,152  L 81,152  L 81,150  Z  M 83,158  L 82,158  L 82,157  L 83,157  Z  " style="fill:rgb(255, 255, 255); fill-opacity:1.000; stroke:none;" />
 <path d="  M 83,86  L 83,89  L 84,89  L 84,90  L 85,90  L 85,87  L 84,87  L 84,85  L 83,85  L 83,84  L 82,84  L 82,83  L 80,83  L 80,84  L 81,84  L 81,85  L 82,85  L 82,86  Z  " style="fill:rgb(255, 255, 255); fill-opacity:1.000; stroke:none;" />
 <path d="  M 80,89  L 80,90  L 81,90  L 81,91  L 83,91  L 83,90  L 82,90  L 82,89  Z  " style="fill:rgb(255, 255, 255); fill-opacity:1.000; stroke:none;" />
 <path d="  M 81,92  L 81,93  L 80,93  L 80,94  L 82,94  L 82,92  Z  " style="fill:rgb(255, 255, 255); fill-opacity:1.000; stroke:none;" />
 <path d="  M 85,27  L 85,26  L 81,26  L 81,27  Z  " style="fill:rgb(255, 255, 255); fill-opacity:1.000; stroke:none;" />
 <path d="  M 82,146  L 82,145  L 81,145  L 81,146  Z  " style="fill:rgb(255, 255, 255); fill-opacity:1.000; stroke:none;" />
 <path d="  M 85,48  L 85,46  L 83,46  L 83,48  Z  " style="fill:rgb(255, 255, 255); fill-opacity:1.000; stroke:none;" />
 <path d="  M 84,91  L 83,91  L 83,92  L 84,92  Z  " style="fill:rgb(255, 255, 255); fill-opacity:1.000; stroke:none;" />
 <path d="  M 84,129  L 83,129  L 83,130  L 84,130  Z  " style="fill:rgb(255, 255, 255); fill-opacity:1.000; stroke:none;" />
 <path d="  M 91,148  L 93,148  L 93,147  L 95,147  L 95,146  L 94,146  L 94,145  L 93,145  L 93,144  L 92,144  L 92,143  L 89,143  L 89,142  L 87,142  L 87,143  L 85,143  L 85,144  L 84,144  L 84,145  L 87,145  L 87,146  L 84,146  L 84,147  L 83,147  L 83,148  L 84,148  L 84,149  L 85,149  L 85,150  L 89,150  L 89,149  L 91,149  Z  " style="fill:rgb(255, 255, 255); fill-opacity:1.000; stroke:none;" />
 <path d="  M 85,130  L 84,130  L 84,133  L 85,133  Z  " style="fill:rgb(255, 255, 255); fill-opacity:1.000; stroke:none;" />
 <path d="  M 97,46  L 97,42  L 86,42  L 86,43  L 87,43  L 87,44  L 88,44  L 88,45  L 89,45  L 89,46  Z  " style="fill:rgb(255, 255, 255); fill-opacity:1.000; stroke:none;" />
 <path d="  M 87,26  L 87,27  L 92,27  L 92,26  Z  " style="fill:rgb(255, 255, 255); fill-opacity:1.000; stroke:none;" />
 <path d="  M 101,146  L 101,145  L 100,145  L 100,144  L 99,144  L 99,143  L 98,143  L 98,141  L 94,141  L 94,140  L 92,140  L 92,141  L 91,141  L 91,142  L 93,142  L 93,143  L 94,143  L 94,144  L 95,144  L 95,145  L 96,145  L 96,146  L 97,146  L 97,148  L 98,148  L 98,150  L 99,150  L 99,147  L 100,147  L 100,146  Z  " style="fill:rgb(255, 255, 255); fill-opacity:1.000; stroke:none;" />
 <path d="  M 97,160  L 97,158  L 98,158  L 98,154  L 96,154  L 96,156  L 95,156  L 95,153  L 96,153  L 96,152  L 93,152  L 93,153  L 92,153  L 92,154  L 91,154  L 91,162  L 94,162  L 94,161  L 96,161  L 96,160  Z  " style="fill:rgb(255, 255, 255); fill-opacity:1.000; stroke:none;" />
 <path d="  M 94,97  L 95,97  L 95,102  L 96,102  L 96,96  L 95,96  L 95,91  L 96,91  L 96,90  L 95,90  L 95,86  L 94,86  Z  " style="fill:rgb(255, 255, 255); fill-opacity:1.000; stroke:none;" />
 <path d="  M 96,81  L 97,81  L 97,77  L 96,77  L 96,80  L 95,80  L 95,85  L 96,85  Z  " style="fill:rgb(255, 255, 255); fill-opacity:1.000; stroke:none;" />
 <path d="  M 98,105  L 98,104  L 97,104  L 97,103  L 96,103  L 96,106  L 97,106  L 97,109  L 98,109  L 98,111  L 99,111  L 99,112  L 100,112  L 100,114  L 101,114  L 101,116  L 102,116  L 102,113  L 101,113  L 101,111  L 100,111  L 100,110  L 99,110  L 99,108  L 98,108  L 98,106  L 99,106  L 99,105  Z  " style="fill:rgb(255, 255, 255); fill-opacity:1.000; stroke:none;" />
 <path d="  M 98,75  L 97,75  L 97,77  L 98,77  Z  " style="fill:rgb(255, 255, 255); fill-opacity:1.000; stroke:none;" />
 <path d="  M 99,79  L 99,81  L 98,81  L 98,88  L 97,88  L 97,92  L 98,92  L 98,89  L 99,89  L 99,82  L 100,82  L 100,79  Z  " style="fill:rgb(255, 255, 255); fill-opacity:1.000; stroke:none;" />
 <path d="  M 97,98  L 98,98  L 98,100  L 99,100  L 99,93  L 98,93  L 98,95  L 97,95  Z  " style="fill:rgb(255, 255, 255); fill-opacity:1.000; stroke:none;" />
 <path d="  M 98,72  L 98,75  L 99,75  L 99,74  L 100,74  L 100,71  L 101,71  L 101,69  L 102,69  L 102,68  L 103,68  L 103,67  L 104,67  L 104,65  L 105,65  L 105,64  L 106,64  L 106,63  L 108,63  L 108,61  L 109,61  L 109,60  L 110,60  L 110,59  L 111,59  L 111,58  L 113,58  L 113,57  L 115,57  L 115,55  L 113,55  L 113,56  L 112,56  L 112,57  L 110,57  L 110,58  L 109,58  L 109,59  L 108,59  L 108,60  L 107,60  L 107,61  L 106,61  L 106,62  L 105,62  L 105,63  L 104,63  L 104,64  L 103,64  L 103,65  L 102,65  L 102,67  L 101,67  L 101,68  L 100,68  L 100,70  L 99,70  L 99,72  Z  " style="fill:rgb(255, 255, 255); fill-opacity:1.000; stroke:none;" />
 <path d="  M 99,33  L 100,33  L 100,32  L 99,32  Z  " style="fill:rgb(255, 255, 255); fill-opacity:1.000; stroke:none;" />
 <path d="  M 100,41  L 100,40  L 99,40  L 99,44  L 100,44  L 100,43  L 101,43  L 101,42  L 105,42  L 105,43  L 106,43  L 106,44  L 107,44  L 107,45  L 108,45  L 108,46  L 109,46  L 109,43  L 108,43  L 108,41  Z  " style="fill:rgb(255, 255, 255); fill-opacity:1.000; stroke:none;" />
 <path d="  M 99,48  L 100,48  L 100,49  L 101,49  L 101,50  L 103,50  L 103,51  L 104,51  L 104,50  L 106,50  L 106,48  L 107,48  L 107,47  L 106,47  L 106,45  L 105,45  L 105,44  L 101,44  L 101,45  L 100,45  L 100,46  L 99,46  Z  M 102,49  L 102,48  L 101,48  L 101,46  L 102,46  L 102,45  L 104,45  L 104,46  L 105,46  L 105,48  L 104,48  L 104,49  Z  " style="fill:rgb(255, 255, 255); fill-opacity:1.000; stroke:none;" />
 <path d="  M 100,101  L 99,101  L 99,105  L 100,105  L 100,107  L 101,107  L 101,104  L 100,104  Z  " style="fill:rgb(255, 255, 255); fill-opacity:1.000; stroke:none;" />
 <path d="  M 99,154  L 100,154  L 100,153  L 101,153  L 101,151  L 100,151  L 100,152  L 99,152  Z  " style="fill:rgb(255, 255, 255); fill-opacity:1.000; stroke:none;" />
 <path d="  M 101,76  L 100,76  L 100,79  L 101,79  Z  " style="fill:rgb(255, 255, 255); fill-opacity:1.000; stroke:none;" />
 <path d="  M 102,32  L 101,32  L 101,33  L 102,33  Z  " style="fill:rgb(255, 255, 255); fill-opacity:1.000; stroke:none;" />
 <path d="  M 102,74  L 101,74  L 101,76  L 102,76  Z  " style="fill:rgb(255, 255, 255); fill-opacity:1.000; stroke:none;" />
 <path d="  M 102,107  L 101,107  L 101,109  L 102,109  Z  " style="fill:rgb(255, 255, 255); fill-opacity:1.000; stroke:none;" />
 <path d="  M 102,48  L 104,48  L 104,46  L 102,46  Z  " style="fill:rgb(255, 255, 255); fill-opacity:1.000; stroke:none;" />
 <path d="  M 103,74  L 103,73  L 104,73  L 104,71  L 105,71  L 105,70  L 106,70  L 106,68  L 104,68  L 104,70  L 103,70  L 103,72  L 102,72  L 102,74  Z  " style="fill:rgb(255, 255, 255); fill-opacity:1.000; stroke:none;" />
 <path d="  M 109,87  L 107,87  L 107,91  L 104,91  L 104,87  L 102,87  L 102,96  L 104,96  L 104,92  L 107,92  L 107,96  L 109,96  L 109,95  L 108,95  L 108,94  L 109,94  Z  " style="fill:rgb(255, 255, 255); fill-opacity:1.000; stroke:none;" />
 <path d="  M 103,109  L 102,109  L 102,112  L 103,112  L 103,113  L 104,113  L 104,114  L 105,114  L 105,112  L 104,112  L 104,111  L 103,111  Z  " style="fill:rgb(255, 255, 255); fill-opacity:1.000; stroke:none;" />
 <path d="  M 103,116  L 102,116  L 102,117  L 103,117  Z  " style="fill:rgb(255, 255, 255); fill-opacity:1.000; stroke:none;" />
 <path d="  M 103,32  L 103,33  L 104,33  L 104,32  Z  " style="fill:rgb(255, 255, 255); fill-opacity:1.000; stroke:none;" />
 <path d="  M 106,121  L 106,122  L 107,122  L 107,123  L 108,123  L 108,124  L 109,124  L 109,125  L 111,125  L 111,126  L 112,126  L 112,124  L 111,124  L 111,123  L 109,123  L 109,122  L 108,122  L 108,121  L 107,121  L 107,119  L 106,119  L 106,118  L 105,118  L 105,117  L 103,117  L 103,119  L 104,119  L 104,120  L 105,120  L 105,121  Z  " style="fill:rgb(255, 255, 255); fill-opacity:1.000; stroke:none;" />
 <path d="  M 106,114  L 105,114  L 105,115  L 106,115  Z  " style="fill:rgb(255, 255, 255); fill-opacity:1.000; stroke:none;" />
 <path d="  M 107,34  L 106,34  L 106,36  L 107,36  Z  " style="fill:rgb(255, 255, 255); fill-opacity:1.000; stroke:none;" />
 <path d="  M 107,65  L 107,66  L 106,66  L 106,68  L 107,68  L 107,67  L 108,67  L 108,66  L 109,66  L 109,65  L 110,65  L 110,64  L 111,64  L 111,63  L 112,63  L 112,62  L 113,62  L 113,61  L 114,61  L 114,60  L 115,60  L 115,59  L 117,59  L 117,58  L 118,58  L 118,57  L 116,57  L 116,58  L 114,58  L 114,59  L 113,59  L 113,60  L 112,60  L 112,61  L 111,61  L 111,62  L 110,62  L 110,63  L 108,63  L 108,65  Z  " style="fill:rgb(255, 255, 255); fill-opacity:1.000; stroke:none;" />
 <path d="  M 106,117  L 107,117  L 107,118  L 108,118  L 108,116  L 107,116  L 107,115  L 106,115  Z  " style="fill:rgb(255, 255, 255); fill-opacity:1.000; stroke:none;" />
 <path d="  M 109,118  L 108,118  L 108,119  L 109,119  Z  " style="fill:rgb(255, 255, 255); fill-opacity:1.000; stroke:none;" />
 <path d="  M 109,120  L 110,120  L 110,119  L 109,119  Z  " style="fill:rgb(255, 255, 255); fill-opacity:1.000; stroke:none;" />
 <path d="  M 113,123  L 113,124  L 115,124  L 115,123  L 114,123  L 114,122  L 113,122  L 113,121  L 112,121  L 112,120  L 110,120  L 110,121  L 111,121  L 111,122  L 112,122  L 112,123  Z  " style="fill:rgb(255, 255, 255); fill-opacity:1.000; stroke:none;" />
 <path d="  M 118,89  L 118,87  L 116,87  L 116,89  L 115,89  L 115,90  L 114,90  L 114,89  L 113,89  L 113,87  L 111,87  L 111,89  L 112,89  L 112,90  L 113,90  L 113,92  L 114,92  L 114,96  L 115,96  L 115,92  L 116,92  L 116,90  L 117,90  L 117,89  Z  " style="fill:rgb(255, 255, 255); fill-opacity:1.000; stroke:none;" />
 <path d="  M 112,127  L 113,127  L 113,126  L 112,126  Z  " style="fill:rgb(255, 255, 255); fill-opacity:1.000; stroke:none;" />
 <path d="  M 121,130  L 119,130  L 119,129  L 118,129  L 118,128  L 116,128  L 116,127  L 113,127  L 113,128  L 115,128  L 115,129  L 117,129  L 117,130  L 118,130  L 118,131  L 120,131  L 120,132  L 123,132  L 123,133  L 127,133  L 127,134  L 132,134  L 132,135  L 143,135  L 143,134  L 148,134  L 148,133  L 137,133  L 137,134  L 134,134  L 134,133  L 131,133  L 131,132  L 130,132  L 130,133  L 128,133  L 128,132  L 125,132  L 125,131  L 121,131  Z  " style="fill:rgb(255, 255, 255); fill-opacity:1.000; stroke:none;" />
 <path d="  M 114,53  L 115,53  L 115,52  L 114,52  Z  " style="fill:rgb(255, 255, 255); fill-opacity:1.000; stroke:none;" />
 <path d="  M 154,52  L 154,51  L 151,51  L 151,50  L 149,50  L 149,49  L 144,49  L 144,48  L 138,48  L 138,47  L 137,47  L 137,48  L 136,48  L 136,47  L 135,47  L 135,48  L 131,48  L 131,49  L 125,49  L 125,50  L 124,50  L 124,49  L 123,49  L 123,50  L 122,50  L 122,51  L 120,51  L 120,52  L 119,52  L 119,51  L 118,51  L 118,52  L 117,52  L 117,53  L 116,53  L 116,54  L 115,54  L 115,55  L 117,55  L 117,54  L 120,54  L 120,53  L 122,53  L 122,52  L 124,52  L 124,51  L 128,51  L 128,50  L 132,50  L 132,49  L 134,49  L 134,50  L 137,50  L 137,49  L 141,49  L 141,50  L 143,50  L 143,51  L 145,51  L 145,50  L 148,50  L 148,51  L 150,51  L 150,52  Z  " style="fill:rgb(255, 255, 255); fill-opacity:1.000; stroke:none;" />
 <path d="  M 116,125  L 116,126  L 118,126  L 118,125  L 117,125  L 117,124  L 115,124  L 115,125  Z  " style="fill:rgb(255, 255, 255); fill-opacity:1.000; stroke:none;" />
 <path d="  M 116,51  L 117,51  L 117,50  L 116,50  Z  " style="fill:rgb(255, 255, 255); fill-opacity:1.000; stroke:none;" />
 <path d="  M 117,49  L 117,50  L 118,50  L 118,49  Z  " style="fill:rgb(255, 255, 255); fill-opacity:1.000; stroke:none;" />
 <path d="  M 120,57  L 120,56  L 118,56  L 118,57  Z  " style="fill:rgb(255, 255, 255); fill-opacity:1.000; stroke:none;" />
 <path d="  M 123,127  L 121,127  L 121,126  L 118,126  L 118,127  L 120,127  L 120,128  L 123,128  Z  " style="fill:rgb(255, 255, 255); fill-opacity:1.000; stroke:none;" />
 <path d="  M 122,56  L 122,55  L 125,55  L 125,54  L 121,54  L 121,55  L 120,55  L 120,56  Z  " style="fill:rgb(255, 255, 255); fill-opacity:1.000; stroke:none;" />
 <path d="  M 125,88  L 125,87  L 120,87  L 120,96  L 125,96  L 125,95  L 126,95  L 126,94  L 127,94  L 127,89  L 126,89  L 126,88  Z  M 125,93  L 125,94  L 122,94  L 122,89  L 125,89  L 125,92  L 126,92  L 126,93  Z  " style="fill:rgb(255, 255, 255); fill-opacity:1.000; stroke:none;" />
 <path d="  M 122,49  L 122,48  L 121,48  L 121,49  Z  " style="fill:rgb(255, 255, 255); fill-opacity:1.000; stroke:none;" />
 <path d="  M 122,47  L 122,48  L 123,48  L 123,47  Z  " style="fill:rgb(255, 255, 255); fill-opacity:1.000; stroke:none;" />
 <path d="  M 123,129  L 124,129  L 124,130  L 129,130  L 129,129  L 125,129  L 125,128  L 123,128  Z  " style="fill:rgb(255, 255, 255); fill-opacity:1.000; stroke:none;" />
 <path d="  M 128,54  L 128,53  L 125,53  L 125,54  Z  " style="fill:rgb(255, 255, 255); fill-opacity:1.000; stroke:none;" />
 <path d="  M 128,53  L 137,53  L 137,51  L 135,51  L 135,52  L 128,52  Z  " style="fill:rgb(255, 255, 255); fill-opacity:1.000; stroke:none;" />
 <path d="  M 135,87  L 129,87  L 129,96  L 131,96  L 131,93  L 133,93  L 133,94  L 134,94  L 134,96  L 137,96  L 137,95  L 136,95  L 136,94  L 135,94  L 135,91  L 136,91  L 136,88  L 135,88  Z  M 134,91  L 131,91  L 131,89  L 134,89  Z  " style="fill:rgb(255, 255, 255); fill-opacity:1.000; stroke:none;" />
 <path d="  M 130,130  L 130,131  L 133,131  L 133,132  L 134,132  L 134,131  L 138,131  L 138,132  L 141,132  L 141,131  L 146,131  L 146,130  Z  " style="fill:rgb(255, 255, 255); fill-opacity:1.000; stroke:none;" />
 <path d="  M 131,46  L 131,47  L 132,47  L 132,46  Z  " style="fill:rgb(255, 255, 255); fill-opacity:1.000; stroke:none;" />
 <path d="  M 133,45  L 133,47  L 134,47  L 134,46  L 136,46  L 136,45  Z  " style="fill:rgb(255, 255, 255); fill-opacity:1.000; stroke:none;" />
 <path d="  M 137,45  L 137,46  L 138,46  L 138,45  Z  " style="fill:rgb(255, 255, 255); fill-opacity:1.000; stroke:none;" />
 <path d="  M 140,88  L 139,88  L 139,89  L 138,89  L 138,94  L 139,94  L 139,95  L 140,95  L 140,96  L 144,96  L 144,95  L 145,95  L 145,94  L 146,94  L 146,89  L 145,89  L 145,88  L 144,88  L 144,87  L 140,87  Z  M 140,89  L 144,89  L 144,93  L 143,93  L 143,94  L 140,94  Z  " style="fill:rgb(255, 255, 255); fill-opacity:1.000; stroke:none;" />
 <path d="  M 139,52  L 139,53  L 146,53  L 146,52  Z  " style="fill:rgb(255, 255, 255); fill-opacity:1.000; stroke:none;" />
 <path d="  M 142,137  L 141,137  L 141,138  L 142,138  Z  " style="fill:rgb(255, 255, 255); fill-opacity:1.000; stroke:none;" />
 <path d="  M 146,53  L 146,54  L 150,54  L 150,53  Z  " style="fill:rgb(255, 255, 255); fill-opacity:1.000; stroke:none;" />
 <path d="  M 146,130  L 149,130  L 149,129  L 146,129  Z  " style="fill:rgb(255, 255, 255); fill-opacity:1.000; stroke:none;" />
 <path d="  M 154,94  L 150,94  L 150,92  L 149,92  L 149,91  L 150,91  L 150,89  L 155,89  L 155,88  L 154,88  L 154,87  L 150,87  L 150,88  L 149,88  L 149,89  L 148,89  L 148,94  L 149,94  L 149,95  L 151,95  L 151,96  L 154,96  L 154,95  L 155,95  L 155,94  L 156,94  L 156,93  L 155,93  L 155,91  L 152,91  L 152,92  L 153,92  L 153,93  L 154,93  Z  " style="fill:rgb(255, 255, 255); fill-opacity:1.000; stroke:none;" />
 <path d="  M 148,132  L 148,133  L 152,133  L 152,132  Z  " style="fill:rgb(255, 255, 255); fill-opacity:1.000; stroke:none;" />
 <path d="  M 152,127  L 152,128  L 149,128  L 149,129  L 154,129  L 154,128  L 155,128  L 155,127  Z  " style="fill:rgb(255, 255, 255); fill-opacity:1.000; stroke:none;" />
 <path d="  M 152,55  L 152,54  L 150,54  L 150,55  Z  " style="fill:rgb(255, 255, 255); fill-opacity:1.000; stroke:none;" />
 <path d="  M 152,55  L 152,56  L 155,56  L 155,55  Z  " style="fill:rgb(255, 255, 255); fill-opacity:1.000; stroke:none;" />
 <path d="  M 157,130  L 158,130  L 158,129  L 155,129  L 155,130  L 153,130  L 153,131  L 152,131  L 152,132  L 154,132  L 154,131  L 157,131  Z  " style="fill:rgb(255, 255, 255); fill-opacity:1.000; stroke:none;" />
 <path d="  M 154,52  L 154,53  L 156,53  L 156,52  Z  " style="fill:rgb(255, 255, 255); fill-opacity:1.000; stroke:none;" />
 <path d="  M 155,56  L 155,57  L 157,57  L 157,56  Z  " style="fill:rgb(255, 255, 255); fill-opacity:1.000; stroke:none;" />
 <path d="  M 156,127  L 156,126  L 155,126  L 155,127  Z  " style="fill:rgb(255, 255, 255); fill-opacity:1.000; stroke:none;" />
 <path d="  M 158,54  L 158,53  L 156,53  L 156,55  L 157,55  L 157,54  Z  " style="fill:rgb(255, 255, 255); fill-opacity:1.000; stroke:none;" />
 <path d="  M 156,125  L 156,126  L 158,126  L 158,125  Z  " style="fill:rgb(255, 255, 255); fill-opacity:1.000; stroke:none;" />
 <path d="  M 158,57  L 157,57  L 157,58  L 158,58  Z  " style="fill:rgb(255, 255, 255); fill-opacity:1.000; stroke:none;" />
 <path d="  M 159,36  L 158,36  L 158,37  L 159,37  L 159,40  L 158,40  L 158,41  L 159,41  L 159,42  L 158,42  L 158,44  L 159,44  L 159,45  L 158,45  L 158,47  L 159,47  L 159,49  L 161,49  L 161,50  L 162,50  L 162,19  L 163,19  L 163,18  L 164,18  L 164,17  L 165,17  L 165,16  L 166,16  L 166,15  L 207,15  L 207,16  L 208,16  L 208,17  L 209,17  L 209,18  L 210,18  L 210,19  L 211,19  L 211,35  L 212,35  L 212,43  L 211,43  L 211,48  L 212,48  L 212,49  L 211,49  L 211,52  L 212,52  L 212,55  L 211,55  L 211,60  L 210,60  L 210,62  L 209,62  L 209,63  L 207,63  L 207,64  L 203,64  L 203,65  L 201,65  L 201,64  L 177,64  L 177,65  L 178,65  L 178,66  L 179,66  L 179,67  L 180,67  L 180,68  L 182,68  L 182,67  L 186,67  L 186,68  L 192,68  L 192,67  L 196,67  L 196,68  L 199,68  L 199,67  L 200,67  L 200,68  L 202,68  L 202,67  L 208,67  L 208,66  L 209,66  L 209,65  L 211,65  L 211,64  L 212,64  L 212,63  L 213,63  L 213,61  L 214,61  L 214,57  L 215,57  L 215,22  L 214,22  L 214,18  L 213,18  L 213,16  L 212,16  L 212,15  L 211,15  L 211,14  L 209,14  L 209,13  L 208,13  L 208,12  L 166,12  L 166,13  L 164,13  L 164,14  L 163,14  L 163,15  L 162,15  L 162,16  L 161,16  L 161,17  L 160,17  L 160,19  L 159,19  Z  " style="fill:rgb(255, 255, 255); fill-opacity:1.000; stroke:none;" />
 <path d="  M 158,54  L 158,55  L 159,55  L 159,56  L 161,56  L 161,55  L 160,55  L 160,54  Z  " style="fill:rgb(255, 255, 255); fill-opacity:1.000; stroke:none;" />
 <path d="  M 160,59  L 160,58  L 158,58  L 158,59  Z  " style="fill:rgb(255, 255, 255); fill-opacity:1.000; stroke:none;" />
 <path d="  M 164,89  L 164,87  L 158,87  L 158,96  L 164,96  L 164,94  L 159,94  L 159,93  L 160,93  L 160,92  L 162,92  L 162,91  L 161,91  L 161,90  L 159,90  L 159,89  Z  " style="fill:rgb(255, 255, 255); fill-opacity:1.000; stroke:none;" />
 <path d="  M 163,120  L 163,121  L 162,121  L 162,122  L 161,122  L 161,123  L 160,123  L 160,124  L 158,124  L 158,125  L 161,125  L 161,124  L 162,124  L 162,123  L 163,123  L 163,122  L 164,122  L 164,121  L 165,121  L 165,120  Z  " style="fill:rgb(255, 255, 255); fill-opacity:1.000; stroke:none;" />
 <path d="  M 158,128  L 158,129  L 160,129  L 160,128  Z  " style="fill:rgb(255, 255, 255); fill-opacity:1.000; stroke:none;" />
 <path d="  M 159,137  L 158,137  L 158,138  L 159,138  L 159,144  L 158,144  L 158,145  L 159,145  L 159,164  L 160,164  L 160,166  L 161,166  L 161,167  L 162,167  L 162,168  L 163,168  L 163,169  L 164,169  L 164,170  L 166,170  L 166,171  L 208,171  L 208,170  L 209,170  L 209,169  L 211,169  L 211,168  L 212,168  L 212,167  L 213,167  L 213,165  L 214,165  L 214,161  L 215,161  L 215,125  L 214,125  L 214,122  L 213,122  L 213,120  L 212,120  L 212,119  L 211,119  L 211,118  L 210,118  L 210,117  L 208,117  L 208,116  L 200,116  L 200,115  L 197,115  L 197,116  L 194,116  L 194,115  L 192,115  L 192,116  L 183,116  L 183,115  L 182,115  L 182,116  L 180,116  L 180,115  L 179,115  L 179,117  L 178,117  L 178,118  L 179,118  L 179,119  L 191,119  L 191,118  L 193,118  L 193,119  L 207,119  L 207,120  L 208,120  L 208,121  L 210,121  L 210,123  L 211,123  L 211,127  L 212,127  L 212,129  L 211,129  L 211,144  L 212,144  L 212,145  L 211,145  L 211,149  L 212,149  L 212,159  L 211,159  L 211,160  L 212,160  L 212,161  L 211,161  L 211,164  L 210,164  L 210,165  L 209,165  L 209,166  L 208,166  L 208,167  L 207,167  L 207,168  L 166,168  L 166,167  L 165,167  L 165,166  L 164,166  L 164,165  L 163,165  L 163,164  L 162,164  L 162,133  L 161,133  L 161,134  L 159,134  Z  " style="fill:rgb(255, 255, 255); fill-opacity:1.000; stroke:none;" />
 <path d="  M 161,60  L 161,59  L 160,59  L 160,60  Z  " style="fill:rgb(255, 255, 255); fill-opacity:1.000; stroke:none;" />
 <path d="  M 163,126  L 164,126  L 164,125  L 162,125  L 162,126  L 160,126  L 160,128  L 161,128  L 161,127  L 163,127  Z  " style="fill:rgb(255, 255, 255); fill-opacity:1.000; stroke:none;" />
 <path d="  M 163,57  L 163,56  L 161,56  L 161,57  Z  " style="fill:rgb(255, 255, 255); fill-opacity:1.000; stroke:none;" />
 <path d="  M 161,60  L 161,61  L 162,61  L 162,62  L 164,62  L 164,61  L 163,61  L 163,60  Z  " style="fill:rgb(255, 255, 255); fill-opacity:1.000; stroke:none;" />
 <path d="  M 164,58  L 164,57  L 163,57  L 163,59  L 165,59  L 165,58  Z  " style="fill:rgb(255, 255, 255); fill-opacity:1.000; stroke:none;" />
 <path d="  M 165,62  L 164,62  L 164,64  L 166,64  L 166,63  L 165,63  Z  " style="fill:rgb(255, 255, 255); fill-opacity:1.000; stroke:none;" />
 <path d="  M 172,115  L 172,116  L 171,116  L 171,118  L 170,118  L 170,119  L 169,119  L 169,120  L 168,120  L 168,121  L 167,121  L 167,122  L 166,122  L 166,123  L 165,123  L 165,124  L 164,124  L 164,125  L 166,125  L 166,124  L 167,124  L 167,123  L 168,123  L 168,122  L 169,122  L 169,121  L 170,121  L 170,120  L 171,120  L 171,119  L 172,119  L 172,117  L 173,117  L 173,115  Z  " style="fill:rgb(255, 255, 255); fill-opacity:1.000; stroke:none;" />
 <path d="  M 171,63  L 170,63  L 170,62  L 169,62  L 169,61  L 168,61  L 168,60  L 167,60  L 167,59  L 165,59  L 165,60  L 166,60  L 166,61  L 167,61  L 167,62  L 168,62  L 168,63  L 169,63  L 169,65  L 170,65  L 170,66  L 172,66  L 172,65  L 171,65  Z  " style="fill:rgb(255, 255, 255); fill-opacity:1.000; stroke:none;" />
 <path d="  M 165,119  L 165,120  L 166,120  L 166,119  Z  " style="fill:rgb(255, 255, 255); fill-opacity:1.000; stroke:none;" />
 <path d="  M 169,66  L 168,66  L 168,65  L 167,65  L 167,64  L 166,64  L 166,66  L 167,66  L 167,67  L 168,67  L 168,68  L 169,68  Z  " style="fill:rgb(255, 255, 255); fill-opacity:1.000; stroke:none;" />
 <path d="  M 173,87  L 171,87  L 171,92  L 170,92  L 170,90  L 169,90  L 169,88  L 168,88  L 168,87  L 166,87  L 166,96  L 168,96  L 168,91  L 169,91  L 169,93  L 170,93  L 170,95  L 171,95  L 171,96  L 173,96  Z  " style="fill:rgb(255, 255, 255); fill-opacity:1.000; stroke:none;" />
 <path d="  M 168,116  L 167,116  L 167,117  L 166,117  L 166,119  L 167,119  L 167,118  L 168,118  Z  " style="fill:rgb(255, 255, 255); fill-opacity:1.000; stroke:none;" />
 <path d="  M 169,116  L 169,115  L 168,115  L 168,116  Z  " style="fill:rgb(255, 255, 255); fill-opacity:1.000; stroke:none;" />
 <path d="  M 173,28  L 173,29  L 172,29  L 172,30  L 171,30  L 171,32  L 170,32  L 170,35  L 169,35  L 169,44  L 170,44  L 170,45  L 171,45  L 171,41  L 170,41  L 170,39  L 171,39  L 171,34  L 172,34  L 172,32  L 173,32  L 173,30  L 174,30  L 174,29  L 175,29  L 175,28  L 176,28  L 176,29  L 177,29  L 177,25  L 178,25  L 178,24  L 176,24  L 176,25  L 173,25  L 173,27  L 174,27  L 174,28  Z  " style="fill:rgb(255, 255, 255); fill-opacity:1.000; stroke:none;" />
 <path d="  M 169,68  L 169,69  L 170,69  L 170,68  Z  " style="fill:rgb(255, 255, 255); fill-opacity:1.000; stroke:none;" />
 <path d="  M 172,110  L 171,110  L 171,112  L 170,112  L 170,114  L 169,114  L 169,115  L 171,115  L 171,114  L 172,114  L 172,111  L 173,111  L 173,109  L 172,109  Z  " style="fill:rgb(255, 255, 255); fill-opacity:1.000; stroke:none;" />
 <path d="  M 197,144  L 198,144  L 198,146  L 175,146  L 175,145  L 176,145  L 176,140  L 175,140  L 175,143  L 174,143  L 174,144  L 173,144  L 173,143  L 169,143  L 169,145  L 170,145  L 170,146  L 173,146  L 173,148  L 172,148  L 172,149  L 171,149  L 171,151  L 170,151  L 170,159  L 171,159  L 171,160  L 172,160  L 172,161  L 175,161  L 175,160  L 176,160  L 176,158  L 177,158  L 177,157  L 196,157  L 196,158  L 197,158  L 197,160  L 198,160  L 198,161  L 201,161  L 201,160  L 203,160  L 203,150  L 201,150  L 201,154  L 193,154  L 193,152  L 192,152  L 192,151  L 193,151  L 193,150  L 197,150  L 197,149  L 201,149  L 201,147  L 200,147  L 200,146  L 203,146  L 203,145  L 204,145  L 204,142  L 202,142  L 202,143  L 201,143  L 201,144  L 199,144  L 199,143  L 198,143  L 198,139  L 197,139  L 197,138  L 195,138  L 195,139  L 196,139  L 196,140  L 197,140  Z  M 181,150  L 181,153  L 180,153  L 180,154  L 172,154  L 172,149  L 176,149  L 176,150  Z  M 182,153  L 191,153  L 191,154  L 192,154  L 192,156  L 182,156  Z  " style="fill:rgb(255, 255, 255); fill-opacity:1.000; stroke:none;" />
 <path d="  M 171,69  L 170,69  L 170,71  L 171,71  L 171,72  L 172,72  L 172,70  L 171,70  Z  " style="fill:rgb(255, 255, 255); fill-opacity:1.000; stroke:none;" />
 <path d="  M 180,55  L 180,54  L 178,54  L 178,53  L 177,53  L 177,52  L 176,52  L 176,49  L 171,49  L 171,50  L 172,50  L 172,53  L 176,53  L 176,54  L 177,54  L 177,55  L 178,55  L 178,56  L 181,56  L 181,57  L 192,57  L 192,56  L 193,56  L 193,55  L 190,55  L 190,56  L 183,56  L 183,55  Z  " style="fill:rgb(255, 255, 255); fill-opacity:1.000; stroke:none;" />
 <path d="  M 177,74  L 177,72  L 176,72  L 176,70  L 175,70  L 175,69  L 174,69  L 174,67  L 173,67  L 173,66  L 172,66  L 172,68  L 173,68  L 173,70  L 174,70  L 174,72  L 175,72  L 175,73  L 176,73  L 176,75  L 177,75  L 177,78  L 178,78  L 178,80  L 179,80  L 179,77  L 178,77  L 178,74  Z  " style="fill:rgb(255, 255, 255); fill-opacity:1.000; stroke:none;" />
 <path d="  M 173,74  L 173,72  L 172,72  L 172,74  Z  " style="fill:rgb(255, 255, 255); fill-opacity:1.000; stroke:none;" />
 <path d="  M 174,38  L 173,38  L 173,42  L 174,42  Z  " style="fill:rgb(255, 255, 255); fill-opacity:1.000; stroke:none;" />
 <path d="  M 174,75  L 173,75  L 173,77  L 174,77  Z  " style="fill:rgb(255, 255, 255); fill-opacity:1.000; stroke:none;" />
 <path d="  M 174,107  L 175,107  L 175,104  L 174,104  L 174,106  L 173,106  L 173,109  L 174,109  Z  " style="fill:rgb(255, 255, 255); fill-opacity:1.000; stroke:none;" />
 <path d="  M 177,108  L 178,108  L 178,106  L 177,106  L 177,107  L 176,107  L 176,110  L 175,110  L 175,112  L 174,112  L 174,113  L 173,113  L 173,115  L 174,115  L 174,114  L 175,114  L 175,113  L 176,113  L 176,111  L 177,111  Z  " style="fill:rgb(255, 255, 255); fill-opacity:1.000; stroke:none;" />
 <path d="  M 173,150  L 173,151  L 174,151  L 174,150  Z  " style="fill:rgb(255, 255, 255); fill-opacity:1.000; stroke:none;" />
 <path d="  M 176,43  L 175,43  L 175,44  L 174,44  L 174,45  L 175,45  L 175,46  L 176,46  L 176,48  L 180,48  L 180,49  L 182,49  L 182,50  L 184,50  L 184,53  L 185,53  L 185,48  L 184,48  L 184,47  L 182,47  L 182,46  L 181,46  L 181,45  L 180,45  L 180,44  L 179,44  L 179,41  L 178,41  L 178,39  L 179,39  L 179,36  L 180,36  L 180,34  L 181,34  L 181,33  L 182,33  L 182,32  L 184,32  L 184,29  L 182,29  L 182,30  L 180,30  L 180,31  L 176,31  L 176,32  L 175,32  L 175,34  L 174,34  L 174,35  L 175,35  L 175,36  L 176,36  Z  " style="fill:rgb(255, 255, 255); fill-opacity:1.000; stroke:none;" />
 <path d="  M 176,78  L 175,78  L 175,77  L 174,77  L 174,79  L 175,79  L 175,83  L 176,83  Z  " style="fill:rgb(255, 255, 255); fill-opacity:1.000; stroke:none;" />
 <path d="  M 175,100  L 175,103  L 176,103  L 176,100  Z  " style="fill:rgb(255, 255, 255); fill-opacity:1.000; stroke:none;" />
 <path d="  M 176,151  L 176,150  L 175,150  L 175,151  Z  " style="fill:rgb(255, 255, 255); fill-opacity:1.000; stroke:none;" />
 <path d="  M 176,153  L 176,152  L 175,152  L 175,153  Z  " style="fill:rgb(255, 255, 255); fill-opacity:1.000; stroke:none;" />
 <path d="  M 177,94  L 178,94  L 178,91  L 177,91  L 177,83  L 176,83  L 176,92  L 177,92  L 177,93  L 176,93  L 176,100  L 177,100  Z  " style="fill:rgb(255, 255, 255); fill-opacity:1.000; stroke:none;" />
 <path d="  M 176,138  L 176,140  L 177,140  L 177,139  L 178,139  L 178,138  Z  " style="fill:rgb(255, 255, 255); fill-opacity:1.000; stroke:none;" />
 <path d="  M 177,68  L 177,69  L 178,69  L 178,68  Z  " style="fill:rgb(255, 255, 255); fill-opacity:1.000; stroke:none;" />
 <path d="  M 177,152  L 178,152  L 178,153  L 179,153  L 179,151  L 177,151  Z  " style="fill:rgb(255, 255, 255); fill-opacity:1.000; stroke:none;" />
 <path d="  M 178,50  L 178,51  L 180,51  L 180,50  Z  " style="fill:rgb(255, 255, 255); fill-opacity:1.000; stroke:none;" />
 <path d="  M 178,106  L 179,106  L 179,101  L 178,101  Z  " style="fill:rgb(255, 255, 255); fill-opacity:1.000; stroke:none;" />
 <path d="  M 179,129  L 180,129  L 180,127  L 179,127  L 179,128  L 178,128  L 178,136  L 179,136  Z  " style="fill:rgb(255, 255, 255); fill-opacity:1.000; stroke:none;" />
 <path d="  M 179,29  L 181,29  L 181,28  L 179,28  Z  " style="fill:rgb(255, 255, 255); fill-opacity:1.000; stroke:none;" />
 <path d="  M 179,87  L 180,87  L 180,94  L 181,94  L 181,85  L 180,85  L 180,80  L 179,80  Z  " style="fill:rgb(255, 255, 255); fill-opacity:1.000; stroke:none;" />
 <path d="  M 180,94  L 179,94  L 179,95  L 180,95  Z  " style="fill:rgb(255, 255, 255); fill-opacity:1.000; stroke:none;" />
 <path d="  M 180,97  L 179,97  L 179,101  L 180,101  Z  " style="fill:rgb(255, 255, 255); fill-opacity:1.000; stroke:none;" />
 <path d="  M 191,141  L 192,141  L 192,140  L 193,140  L 193,138  L 194,138  L 194,137  L 195,137  L 195,134  L 196,134  L 196,131  L 195,131  L 195,128  L 194,128  L 194,136  L 193,136  L 193,137  L 192,137  L 192,138  L 191,138  L 191,139  L 189,139  L 189,140  L 188,140  L 188,139  L 187,139  L 187,140  L 184,140  L 184,139  L 182,139  L 182,138  L 181,138  L 181,137  L 180,137  L 180,136  L 179,136  L 179,138  L 180,138  L 180,140  L 181,140  L 181,141  L 182,141  L 182,142  L 183,142  L 183,143  L 185,143  L 185,144  L 186,144  L 186,145  L 187,145  L 187,144  L 189,144  L 189,143  L 190,143  L 190,142  L 191,142  Z  " style="fill:rgb(255, 255, 255); fill-opacity:1.000; stroke:none;" />
 <path d="  M 180,51  L 180,52  L 182,52  L 182,51  Z  " style="fill:rgb(255, 255, 255); fill-opacity:1.000; stroke:none;" />
 <path d="  M 180,95  L 180,96  L 181,96  L 181,95  Z  " style="fill:rgb(255, 255, 255); fill-opacity:1.000; stroke:none;" />
 <path d="  M 181,126  L 180,126  L 180,127  L 181,127  Z  " style="fill:rgb(255, 255, 255); fill-opacity:1.000; stroke:none;" />
 <path d="  M 194,24  L 194,23  L 192,23  L 192,22  L 182,22  L 182,23  L 181,23  L 181,24  L 184,24  L 184,23  L 190,23  L 190,24  L 193,24  L 193,25  L 195,25  L 195,26  L 196,26  L 196,27  L 198,27  L 198,29  L 197,29  L 197,30  L 202,30  L 202,28  L 201,28  L 201,26  L 198,26  L 198,25  L 196,25  L 196,24  Z  " style="fill:rgb(255, 255, 255); fill-opacity:1.000; stroke:none;" />
 <path d="  M 181,28  L 182,28  L 182,27  L 181,27  Z  " style="fill:rgb(255, 255, 255); fill-opacity:1.000; stroke:none;" />
 <path d="  M 182,124  L 182,125  L 181,125  L 181,126  L 183,126  L 183,125  L 185,125  L 185,124  L 188,124  L 188,125  L 191,125  L 191,124  L 189,124  L 189,123  L 184,123  L 184,124  Z  " style="fill:rgb(255, 255, 255); fill-opacity:1.000; stroke:none;" />
 <path d="  M 182,136  L 183,136  L 183,137  L 185,137  L 185,138  L 186,138  L 186,136  L 185,136  L 185,135  L 186,135  L 186,134  L 185,134  L 185,133  L 186,133  L 186,132  L 187,132  L 187,130  L 186,130  L 186,129  L 184,129  L 184,128  L 182,128  Z  " style="fill:rgb(255, 255, 255); fill-opacity:1.000; stroke:none;" />
 <path d="  M 186,28  L 186,32  L 185,32  L 185,36  L 184,36  L 184,40  L 183,40  L 183,42  L 185,42  L 185,41  L 186,41  L 186,43  L 187,43  L 187,48  L 188,48  L 188,44  L 189,44  L 189,41  L 190,41  L 190,37  L 189,37  L 189,38  L 187,38  L 187,28  Z  " style="fill:rgb(255, 255, 255); fill-opacity:1.000; stroke:none;" />
 <path d="  M 185,26  L 184,26  L 184,29  L 185,29  Z  " style="fill:rgb(255, 255, 255); fill-opacity:1.000; stroke:none;" />
 <path d="  M 187,138  L 188,138  L 188,137  L 189,137  L 189,136  L 190,136  L 190,137  L 191,137  L 191,136  L 192,136  L 192,132  L 191,132  L 191,131  L 190,131  L 190,130  L 189,130  L 189,132  L 188,132  L 188,133  L 187,133  Z  " style="fill:rgb(255, 255, 255); fill-opacity:1.000; stroke:none;" />
 <path d="  M 193,45  L 192,45  L 192,46  L 191,46  L 191,47  L 189,47  L 189,51  L 190,51  L 190,50  L 192,50  L 192,49  L 193,49  L 193,48  L 197,48  L 197,47  L 198,47  L 198,46  L 199,46  L 199,43  L 198,43  L 198,36  L 199,36  L 199,34  L 198,34  L 198,32  L 197,32  L 197,31  L 195,31  L 195,32  L 194,32  L 194,31  L 193,31  L 193,30  L 191,30  L 191,29  L 190,29  L 190,28  L 189,28  L 189,26  L 188,26  L 188,31  L 189,31  L 189,32  L 191,32  L 191,33  L 192,33  L 192,34  L 193,34  L 193,35  L 194,35  L 194,37  L 195,37  L 195,43  L 194,43  L 194,44  L 193,44  Z  M 195,44  L 196,44  L 196,45  L 195,45  Z  " style="fill:rgb(255, 255, 255); fill-opacity:1.000; stroke:none;" />
 <path d="  M 189,53  L 189,51  L 188,51  L 188,53  Z  " style="fill:rgb(255, 255, 255); fill-opacity:1.000; stroke:none;" />
 <path d="  M 189,137  L 189,138  L 190,138  L 190,137  Z  " style="fill:rgb(255, 255, 255); fill-opacity:1.000; stroke:none;" />
 <path d="  M 191,28  L 193,28  L 193,27  L 191,27  Z  " style="fill:rgb(255, 255, 255); fill-opacity:1.000; stroke:none;" />
 <path d="  M 193,51  L 191,51  L 191,52  L 193,52  Z  " style="fill:rgb(255, 255, 255); fill-opacity:1.000; stroke:none;" />
 <path d="  M 191,126  L 192,126  L 192,125  L 191,125  Z  " style="fill:rgb(255, 255, 255); fill-opacity:1.000; stroke:none;" />
 <path d="  M 192,127  L 193,127  L 193,126  L 192,126  Z  " style="fill:rgb(255, 255, 255); fill-opacity:1.000; stroke:none;" />
 <path d="  M 193,28  L 193,29  L 194,29  L 194,30  L 195,30  L 195,28  Z  " style="fill:rgb(255, 255, 255); fill-opacity:1.000; stroke:none;" />
 <path d="  M 194,49  L 194,50  L 193,50  L 193,51  L 195,51  L 195,49  Z  " style="fill:rgb(255, 255, 255); fill-opacity:1.000; stroke:none;" />
 <path d="  M 194,127  L 193,127  L 193,128  L 194,128  Z  " style="fill:rgb(255, 255, 255); fill-opacity:1.000; stroke:none;" />
 <path d="  M 194,152  L 195,152  L 195,153  L 196,153  L 196,151  L 194,151  Z  " style="fill:rgb(255, 255, 255); fill-opacity:1.000; stroke:none;" />
 <path d="  M 202,34  L 202,36  L 203,36  L 203,43  L 202,43  L 202,47  L 201,47  L 201,48  L 200,48  L 200,50  L 199,50  L 199,51  L 198,51  L 198,50  L 197,50  L 197,51  L 196,51  L 196,55  L 197,55  L 197,54  L 200,54  L 200,51  L 201,51  L 201,50  L 202,50  L 202,48  L 203,48  L 203,46  L 204,46  L 204,41  L 205,41  L 205,40  L 204,40  L 204,34  Z  " style="fill:rgb(255, 255, 255); fill-opacity:1.000; stroke:none;" />
 <path d="  M 196,102  L 197,102  L 197,103  L 198,103  L 198,101  L 197,101  L 197,97  L 196,97  Z  " style="fill:rgb(255, 255, 255); fill-opacity:1.000; stroke:none;" />
 <path d="  M 201,84  L 200,84  L 200,81  L 201,81  L 201,80  L 202,80  L 202,79  L 200,79  L 200,78  L 198,78  L 198,79  L 197,79  L 197,81  L 198,81  L 198,82  L 199,82  L 199,85  L 201,85  Z  " style="fill:rgb(255, 255, 255); fill-opacity:1.000; stroke:none;" />
 <path d="  M 198,97  L 198,95  L 197,95  L 197,97  Z  " style="fill:rgb(255, 255, 255); fill-opacity:1.000; stroke:none;" />
 <path d="  M 197,151  L 197,152  L 198,152  L 198,151  Z  " style="fill:rgb(255, 255, 255); fill-opacity:1.000; stroke:none;" />
 <path d="  M 199,93  L 198,93  L 198,95  L 199,95  Z  " style="fill:rgb(255, 255, 255); fill-opacity:1.000; stroke:none;" />
 <path d="  M 198,103  L 198,104  L 199,104  L 199,103  Z  " style="fill:rgb(255, 255, 255); fill-opacity:1.000; stroke:none;" />
 <path d="  M 200,38  L 199,38  L 199,42  L 200,42  Z  " style="fill:rgb(255, 255, 255); fill-opacity:1.000; stroke:none;" />
 <path d="  M 200,77  L 200,76  L 199,76  L 199,77  Z  " style="fill:rgb(255, 255, 255); fill-opacity:1.000; stroke:none;" />
 <path d="  M 200,91  L 199,91  L 199,93  L 200,93  L 200,92  L 201,92  L 201,86  L 200,86  Z  " style="fill:rgb(255, 255, 255); fill-opacity:1.000; stroke:none;" />
 <path d="  M 199,104  L 199,105  L 202,105  L 202,104  Z  " style="fill:rgb(255, 255, 255); fill-opacity:1.000; stroke:none;" />
 <path d="  M 200,151  L 200,150  L 199,150  L 199,151  Z  " style="fill:rgb(255, 255, 255); fill-opacity:1.000; stroke:none;" />
 <path d="  M 200,152  L 199,152  L 199,153  L 200,153  Z  " style="fill:rgb(255, 255, 255); fill-opacity:1.000; stroke:none;" />
 <path d="  M 201,74  L 200,74  L 200,76  L 201,76  Z  " style="fill:rgb(255, 255, 255); fill-opacity:1.000; stroke:none;" />
 <path d="  M 201,81  L 201,82  L 202,82  L 202,81  Z  " style="fill:rgb(255, 255, 255); fill-opacity:1.000; stroke:none;" />
 <path d="  M 204,104  L 204,102  L 203,102  L 203,103  L 202,103  L 202,104  Z  " style="fill:rgb(255, 255, 255); fill-opacity:1.000; stroke:none;" />
 <path d="  M 204,102  L 205,102  L 205,86  L 206,86  L 206,85  L 204,85  Z  " style="fill:rgb(255, 255, 255); fill-opacity:1.000; stroke:none;" />
 <path d="  M 204,109  L 229,109  L 229,105  L 227,105  L 227,102  L 226,102  L 226,96  L 227,96  L 227,94  L 226,94  L 226,84  L 227,84  L 227,82  L 226,82  L 226,81  L 227,81  L 227,79  L 226,79  L 226,78  L 227,78  L 227,76  L 226,76  L 226,74  L 216,74  L 216,73  L 214,73  L 214,74  L 213,74  L 213,75  L 225,75  L 225,87  L 224,87  L 224,88  L 209,88  L 209,87  L 208,87  L 208,75  L 212,75  L 212,74  L 210,74  L 210,73  L 209,73  L 209,74  L 207,74  L 207,104  L 206,104  L 206,105  L 204,105  Z  M 216,90  L 219,90  L 219,102  L 217,102  L 217,103  L 216,103  L 216,98  L 214,98  L 214,99  L 213,99  L 213,101  L 214,101  L 214,102  L 212,102  L 212,103  L 211,103  L 211,102  L 210,102  L 210,90  L 213,90  L 213,94  L 216,94  Z  M 223,97  L 223,98  L 224,98  L 224,101  L 223,101  L 223,102  L 224,102  L 224,104  L 219,104  L 219,102  L 220,102  L 220,101  L 221,101  L 221,100  L 220,100  L 220,97  Z  " style="fill:rgb(255, 255, 255); fill-opacity:1.000; stroke:none;" />
 <path d="  M 212,79  L 212,78  L 211,78  L 211,79  Z  " style="fill:rgb(255, 255, 255); fill-opacity:1.000; stroke:none;" />
 <path d="  M 212,73  L 212,74  L 213,74  L 213,73  Z  " style="fill:rgb(255, 255, 255); fill-opacity:1.000; stroke:none;" />
 <path d="  M 212,79  L 212,80  L 213,80  L 213,79  Z  " style="fill:rgb(255, 255, 255); fill-opacity:1.000; stroke:none;" />
 <path d="  M 214,80  L 213,80  L 213,81  L 214,81  Z  " style="fill:rgb(255, 255, 255); fill-opacity:1.000; stroke:none;" />
 <path d="  M 215,83  L 215,86  L 218,86  L 218,85  L 219,85  L 219,83  L 218,83  L 218,82  L 217,82  L 217,81  L 214,81  L 214,83  Z  " style="fill:rgb(255, 255, 255); fill-opacity:1.000; stroke:none;" />
 <path d="  M 243,112  L 244,112  L 244,113  L 243,113  L 243,118  L 242,118  L 242,119  L 241,119  L 241,120  L 240,120  L 240,121  L 239,121  L 239,122  L 217,122  L 217,125  L 234,125  L 234,126  L 235,126  L 235,125  L 239,125  L 239,124  L 241,124  L 241,123  L 243,123  L 243,122  L 244,122  L 244,121  L 245,121  L 245,119  L 246,119  L 246,115  L 247,115  L 247,97  L 246,97  L 246,96  L 247,96  L 247,91  L 246,91  L 246,90  L 247,90  L 247,68  L 246,68  L 246,64  L 245,64  L 245,63  L 244,63  L 244,61  L 243,61  L 243,60  L 241,60  L 241,59  L 240,59  L 240,58  L 236,58  L 236,57  L 235,57  L 235,58  L 233,58  L 233,57  L 232,57  L 232,58  L 217,58  L 217,61  L 239,61  L 239,62  L 240,62  L 240,63  L 241,63  L 241,64  L 242,64  L 242,65  L 243,65  L 243,84  L 244,84  L 244,88  L 243,88  L 243,89  L 244,89  L 244,92  L 243,92  L 243,104  L 244,104  L 244,105  L 243,105  Z  " style="fill:rgb(255, 255, 255); fill-opacity:1.000; stroke:none;" />
 <path d="  M 221,100  L 222,100  L 222,99  L 221,99  Z  " style="fill:rgb(255, 255, 255); fill-opacity:1.000; stroke:none;" />
</svg>
