<?xml version="1.0" encoding="UTF-8" standalone="no"?>
<!DOCTYPE svg PUBLIC "-//W3C//DTD SVG 1.1//EN" 
  "http://www.w3.org/Graphics/SVG/1.1/DTD/svg11.dtd">
<svg width="361" height="140"
	 xmlns="http://www.w3.org/2000/svg" version="1.1">
 <path d="  M 31,113  L 37,113  L 37,118  L 40,118  L 40,122  L 28,122  L 28,118  L 31,118  Z  M 105,113  L 106,113  L 106,114  L 108,114  L 108,116  L 109,116  L 109,120  L 108,120  L 108,121  L 107,121  L 107,122  L 102,122  L 102,121  L 101,121  L 101,119  L 100,119  L 100,116  L 101,116  L 101,115  L 102,115  L 102,114  L 103,114  L 103,113  L 104,113  L 104,71  L 105,71  L 105,69  L 106,69  L 106,68  L 137,68  L 137,64  L 126,64  L 126,58  L 123,58  L 123,50  L 131,50  L 131,58  L 128,58  L 128,62  L 137,62  L 137,58  L 134,58  L 134,57  L 133,57  L 133,50  L 142,50  L 142,58  L 139,58  L 139,62  L 148,62  L 148,58  L 144,58  L 144,50  L 152,50  L 152,58  L 150,58  L 150,63  L 149,63  L 149,64  L 139,64  L 139,68  L 152,68  L 152,69  L 154,69  L 154,71  L 155,71  L 155,82  L 156,82  L 156,83  L 157,83  L 157,84  L 174,84  L 174,85  L 176,85  L 176,86  L 177,86  L 177,88  L 178,88  L 178,89  L 187,89  L 187,90  L 188,90  L 188,126  L 193,126  L 193,97  L 195,97  L 195,126  L 196,126  L 196,95  L 195,95  L 195,94  L 194,94  L 194,91  L 195,91  L 195,90  L 198,90  L 198,91  L 199,91  L 199,94  L 198,94  L 198,95  L 197,95  L 197,118  L 198,118  L 198,97  L 200,97  L 200,126  L 203,126  L 203,86  L 204,86  L 204,85  L 205,85  L 205,84  L 209,84  L 209,83  L 211,83  L 211,84  L 210,84  L 210,85  L 211,85  L 211,86  L 212,86  L 212,88  L 213,88  L 213,89  L 214,89  L 214,92  L 210,92  L 210,88  L 211,88  L 211,87  L 210,87  L 210,86  L 209,86  L 209,85  L 208,85  L 208,86  L 207,86  L 207,85  L 206,85  L 206,86  L 205,86  L 205,87  L 204,87  L 204,89  L 206,89  L 206,90  L 204,90  L 204,126  L 207,126  L 207,107  L 215,107  L 215,108  L 216,108  L 216,126  L 226,126  L 226,125  L 225,125  L 225,124  L 221,124  L 221,123  L 220,123  L 220,118  L 221,118  L 221,117  L 224,117  L 224,116  L 226,116  L 226,115  L 229,115  L 229,114  L 233,114  L 233,118  L 240,118  L 240,117  L 243,117  L 243,118  L 249,118  L 249,119  L 250,119  L 250,121  L 251,121  L 251,123  L 250,123  L 250,124  L 247,124  L 247,125  L 246,125  L 246,126  L 252,126  L 252,122  L 253,122  L 253,126  L 256,126  L 256,115  L 257,115  L 257,126  L 260,126  L 260,122  L 262,122  L 262,126  L 264,126  L 264,94  L 265,94  L 265,93  L 266,93  L 266,126  L 269,126  L 269,122  L 270,122  L 270,126  L 274,126  L 274,115  L 275,115  L 275,126  L 277,126  L 277,122  L 278,122  L 278,123  L 279,123  L 279,125  L 278,125  L 278,126  L 300,126  L 300,125  L 299,125  L 299,124  L 300,124  L 300,120  L 301,120  L 301,116  L 300,116  L 300,115  L 299,115  L 299,114  L 298,114  L 298,113  L 297,113  L 297,112  L 296,112  L 296,104  L 297,104  L 297,103  L 298,103  L 298,102  L 299,102  L 299,101  L 300,101  L 300,100  L 310,100  L 310,101  L 311,101  L 311,102  L 313,102  L 313,103  L 314,103  L 314,112  L 313,112  L 313,114  L 312,114  L 312,115  L 311,115  L 311,116  L 310,116  L 310,120  L 311,120  L 311,126  L 323,126  L 323,119  L 319,119  L 319,115  L 320,115  L 320,111  L 321,111  L 321,108  L 322,108  L 322,104  L 323,104  L 323,100  L 325,100  L 325,104  L 326,104  L 326,108  L 327,108  L 327,112  L 328,112  L 328,115  L 329,115  L 329,119  L 325,119  L 325,126  L 337,126  L 337,127  L 336,127  L 336,128  L 45,128  L 45,129  L 43,129  L 43,128  L 13,128  L 13,127  L 12,127  L 12,126  L 11,126  L 11,123  L 10,123  L 10,120  L 13,120  L 13,118  L 14,118  L 14,109  L 15,109  L 15,108  L 16,108  L 16,113  L 17,113  L 17,110  L 18,110  L 18,109  L 22,109  L 22,110  L 24,110  L 24,120  L 25,120  L 25,121  L 26,121  L 26,122  L 21,122  L 21,121  L 20,121  L 20,123  L 49,123  L 49,122  L 55,122  L 55,124  L 54,124  L 54,126  L 61,126  L 61,101  L 57,101  L 57,100  L 58,100  L 58,99  L 59,99  L 59,98  L 60,98  L 60,97  L 61,97  L 61,95  L 62,95  L 62,94  L 63,94  L 63,93  L 64,93  L 64,92  L 65,92  L 65,91  L 66,91  L 66,90  L 67,90  L 67,89  L 68,89  L 68,88  L 69,88  L 69,87  L 70,87  L 70,86  L 71,86  L 71,85  L 72,85  L 72,84  L 73,84  L 73,82  L 74,82  L 74,81  L 75,81  L 75,80  L 77,80  L 77,82  L 78,82  L 78,83  L 79,83  L 79,84  L 80,84  L 80,85  L 81,85  L 81,86  L 82,86  L 82,87  L 83,87  L 83,88  L 84,88  L 84,82  L 89,82  L 89,94  L 90,94  L 90,95  L 91,95  L 91,97  L 92,97  L 92,98  L 93,98  L 93,99  L 94,99  L 94,100  L 95,100  L 95,101  L 91,101  L 91,126  L 117,126  L 117,123  L 121,123  L 121,83  L 116,83  L 116,81  L 117,81  L 117,80  L 119,80  L 119,79  L 120,79  L 120,78  L 121,78  L 121,77  L 122,77  L 122,76  L 123,76  L 123,75  L 124,75  L 124,74  L 125,74  L 125,73  L 126,73  L 126,72  L 130,72  L 130,73  L 132,73  L 132,74  L 134,74  L 134,75  L 137,75  L 137,76  L 139,76  L 139,77  L 142,77  L 142,78  L 144,78  L 144,79  L 146,79  L 146,80  L 149,80  L 149,81  L 151,81  L 151,82  L 152,82  L 152,83  L 150,83  L 150,97  L 151,97  L 151,103  L 152,103  L 152,104  L 153,104  L 153,105  L 154,105  L 154,106  L 155,106  L 155,107  L 157,107  L 157,108  L 158,108  L 158,110  L 157,110  L 157,109  L 155,109  L 155,108  L 154,108  L 154,107  L 150,107  L 150,106  L 148,106  L 148,107  L 144,107  L 144,108  L 142,108  L 142,109  L 141,109  L 141,110  L 140,110  L 140,109  L 139,109  L 139,108  L 141,108  L 141,107  L 142,107  L 142,106  L 143,106  L 143,105  L 144,105  L 144,104  L 145,104  L 145,103  L 146,103  L 146,102  L 147,102  L 147,101  L 148,101  L 148,99  L 147,99  L 147,97  L 148,97  L 148,83  L 131,83  L 131,91  L 128,91  L 128,123  L 135,123  L 135,126  L 165,126  L 165,90  L 166,90  L 166,89  L 176,89  L 176,87  L 174,87  L 174,86  L 157,86  L 157,85  L 155,85  L 155,84  L 154,84  L 154,73  L 153,73  L 153,71  L 152,71  L 152,70  L 150,70  L 150,69  L 109,69  L 109,70  L 106,70  L 106,72  L 105,72  Z  M 114,58  L 114,59  L 105,59  L 105,60  L 101,60  L 101,59  L 100,59  L 100,58  Z  M 253,114  L 255,114  L 255,115  L 254,115  L 254,116  L 253,116  L 253,117  L 251,117  L 251,115  L 253,115  Z  M 260,74  L 258,74  L 258,72  L 260,72  Z  M 244,40  L 244,43  L 245,43  L 245,44  L 246,44  L 246,50  L 245,50  L 245,51  L 244,51  L 244,53  L 243,53  L 243,55  L 242,55  L 242,58  L 241,58  L 241,60  L 240,60  L 240,62  L 239,62  L 239,64  L 238,64  L 238,66  L 237,66  L 237,64  L 236,64  L 236,62  L 235,62  L 235,60  L 234,60  L 234,58  L 233,58  L 233,55  L 232,55  L 232,52  L 231,52  L 231,51  L 230,51  L 230,50  L 229,50  L 229,45  L 230,45  L 230,43  L 231,43  L 231,41  L 232,41  L 232,40  L 220,40  L 220,41  L 216,41  L 216,38  L 218,38  L 218,37  L 214,37  L 214,38  L 212,38  L 212,37  L 210,37  L 210,36  L 211,36  L 211,35  L 226,35  L 226,37  L 225,37  L 225,38  L 232,38  L 232,37  L 233,37  L 233,36  L 234,36  L 234,35  L 242,35  L 242,36  L 243,36  L 243,38  L 250,38  L 250,37  L 249,37  L 249,35  L 264,35  L 264,36  L 265,36  L 265,37  L 263,37  L 263,38  L 261,38  L 261,37  L 258,37  L 258,38  L 259,38  L 259,41  L 255,41  L 255,40  Z  M 271,53  L 281,53  L 281,37  L 283,37  L 283,38  L 286,38  L 286,39  L 289,39  L 289,40  L 292,40  L 292,41  L 295,41  L 295,42  L 298,42  L 298,43  L 301,43  L 301,44  L 302,44  L 302,53  L 310,53  L 310,54  L 311,54  L 311,65  L 336,65  L 336,114  L 335,114  L 335,66  L 309,66  L 309,55  L 300,55  L 300,45  L 299,45  L 299,44  L 296,44  L 296,43  L 293,43  L 293,42  L 290,42  L 290,41  L 287,41  L 287,40  L 284,40  L 284,39  L 282,39  L 282,55  L 269,55  L 269,24  L 254,24  L 254,12  L 218,12  L 218,24  L 204,24  L 204,52  L 159,52  L 159,40  L 151,40  L 151,34  L 124,34  L 124,40  L 108,40  L 108,18  L 106,18  L 106,19  L 104,19  L 104,20  L 103,20  L 103,21  L 101,21  L 101,22  L 99,22  L 99,23  L 97,23  L 97,24  L 95,24  L 95,25  L 94,25  L 94,26  L 92,26  L 92,27  L 90,27  L 90,28  L 88,28  L 88,29  L 86,29  L 86,30  L 84,30  L 84,31  L 83,31  L 83,32  L 81,32  L 81,33  L 79,33  L 79,34  L 77,34  L 77,35  L 76,35  L 76,36  L 77,36  L 77,62  L 32,62  L 32,108  L 31,108  L 31,107  L 30,107  L 30,61  L 75,61  L 75,34  L 76,34  L 76,33  L 78,33  L 78,32  L 80,32  L 80,31  L 81,31  L 81,30  L 83,30  L 83,29  L 85,29  L 85,28  L 87,28  L 87,27  L 89,27  L 89,26  L 90,26  L 90,25  L 92,25  L 92,24  L 94,24  L 94,23  L 96,23  L 96,22  L 98,22  L 98,21  L 100,21  L 100,20  L 101,20  L 101,19  L 103,19  L 103,18  L 105,18  L 105,17  L 107,17  L 107,16  L 109,16  L 109,15  L 110,15  L 110,38  L 123,38  L 123,33  L 138,33  L 138,12  L 139,12  L 139,33  L 153,33  L 153,38  L 160,38  L 160,50  L 170,50  L 170,51  L 202,51  L 202,23  L 203,23  L 203,22  L 217,22  L 217,11  L 255,11  L 255,22  L 270,22  L 270,23  L 271,23  Z  M 316,98  L 316,99  L 314,99  L 314,98  L 315,98  L 315,97  L 316,97  L 316,96  L 317,96  L 317,94  L 318,94  L 318,95  L 319,95  L 319,96  L 318,96  L 318,97  L 317,97  L 317,98  Z  M 222,55  L 222,58  L 225,58  L 225,64  L 219,64  L 219,62  L 222,62  L 222,61  L 215,61  L 215,56  L 216,56  L 216,55  Z  M 0,140  L 361,140  L 361,0  L 0,0  Z  M 218,89  L 218,87  L 219,87  L 219,89  Z  M 180,63  L 180,62  L 181,62  L 181,61  L 182,61  L 182,60  L 183,60  L 183,59  L 184,59  L 184,58  L 185,58  L 185,57  L 195,57  L 195,59  L 196,59  L 196,60  L 197,60  L 197,61  L 198,61  L 198,63  L 199,63  L 199,64  L 201,64  L 201,65  L 202,65  L 202,66  L 203,66  L 203,64  L 205,64  L 205,66  L 204,66  L 204,68  L 205,68  L 205,73  L 204,73  L 204,74  L 203,74  L 203,75  L 205,75  L 205,76  L 204,76  L 204,77  L 203,77  L 203,76  L 200,76  L 200,77  L 195,77  L 195,76  L 194,76  L 194,77  L 188,77  L 188,76  L 187,76  L 187,77  L 180,77  L 180,76  L 176,76  L 176,75  L 175,75  L 175,74  L 174,74  L 174,73  L 173,73  L 173,66  L 174,66  L 174,65  L 175,65  L 175,64  L 176,64  L 176,63  Z  M 271,97  L 271,96  L 270,96  L 270,94  L 269,94  L 269,91  L 271,91  L 271,90  L 274,90  L 274,91  L 275,91  L 275,92  L 277,92  L 277,93  L 278,93  L 278,94  L 279,94  L 279,95  L 281,95  L 281,96  L 282,96  L 282,97  L 283,97  L 283,98  L 285,98  L 285,99  L 286,99  L 286,100  L 287,100  L 287,101  L 289,101  L 289,102  L 290,102  L 290,103  L 291,103  L 291,104  L 288,104  L 288,103  L 285,103  L 285,102  L 283,102  L 283,101  L 280,101  L 280,100  L 278,100  L 278,99  L 276,99  L 276,98  L 273,98  L 273,97  Z  M 105,60  L 117,60  L 117,62  L 105,62  Z  M 264,61  L 265,61  L 265,60  L 266,60  L 266,62  L 267,62  L 267,70  L 268,70  L 268,79  L 269,79  L 269,81  L 268,81  L 268,83  L 267,83  L 267,84  L 266,84  L 266,85  L 265,85  L 265,84  L 264,84  L 264,83  L 263,83  L 263,82  L 262,82  L 262,77  L 263,77  L 263,69  L 264,69  Z  M 49,101  L 49,102  L 47,102  L 47,103  L 46,103  L 46,104  L 42,104  L 42,103  L 41,103  L 41,98  L 42,98  L 42,96  L 43,96  L 43,94  L 45,94  L 45,96  L 46,96  L 46,97  L 47,97  L 47,96  L 48,96  L 48,97  L 49,97  L 49,100  L 50,100  L 50,101  Z  M 218,85  L 218,86  L 216,86  L 216,85  Z  M 278,115  L 279,115  L 279,116  L 280,116  L 280,117  L 278,117  L 278,116  L 276,116  L 276,114  L 278,114  Z  M 63,84  L 51,84  L 51,83  L 50,83  L 50,75  L 51,75  L 51,74  L 67,74  L 67,84  L 65,84  L 65,86  L 63,86  Z  M 279,77  L 279,78  L 280,78  L 280,79  L 278,79  L 278,77  Z  M 295,96  L 295,97  L 296,97  L 296,98  L 297,98  L 297,99  L 295,99  L 295,98  L 294,98  L 294,97  L 293,97  L 293,96  L 292,96  L 292,94  L 293,94  L 293,95  L 294,95  L 294,96  Z  M 94,79  L 90,79  L 90,77  L 88,77  L 88,74  L 89,74  L 89,73  L 88,73  L 88,72  L 89,72  L 89,71  L 90,71  L 90,70  L 91,70  L 91,69  L 96,69  L 96,70  L 97,70  L 97,72  L 98,72  L 98,73  L 99,73  L 99,74  L 98,74  L 98,78  L 96,78  L 96,79  L 95,79  L 95,80  L 94,80  Z  M 208,71  L 210,71  L 210,73  L 208,73  Z  M 52,96  L 52,95  L 54,95  L 54,96  Z  M 44,117  L 38,117  L 38,113  L 44,113  Z  M 47,122  L 41,122  L 41,118  L 47,118  Z  M 269,117  L 269,116  L 270,116  L 270,115  L 271,115  L 271,114  L 273,114  L 273,115  L 272,115  L 272,116  L 271,116  L 271,117  Z  M 210,70  L 209,70  L 209,69  L 208,69  L 208,68  L 210,68  Z  M 314,78  L 314,80  L 302,80  L 302,78  Z  M 208,97  L 208,96  L 210,96  L 210,97  Z  M 252,79  L 252,80  L 251,80  L 251,81  L 250,81  L 250,79  Z  M 297,62  L 296,62  L 296,63  L 295,63  L 295,64  L 294,64  L 294,65  L 289,65  L 289,64  L 287,64  L 287,63  L 286,63  L 286,62  L 285,62  L 285,56  L 286,56  L 286,54  L 287,54  L 287,53  L 289,53  L 289,52  L 293,52  L 293,53  L 295,53  L 295,54  L 296,54  L 296,55  L 297,55  L 297,58  L 298,58  L 298,60  L 297,60  Z  M 147,113  L 147,114  L 146,114  L 146,115  L 145,115  L 145,114  L 144,114  L 144,113  L 145,113  L 145,112  L 152,112  L 152,113  L 153,113  L 153,115  L 152,115  L 152,114  L 150,114  L 150,113  Z  M 258,116  L 258,114  L 260,114  L 260,115  L 261,115  L 261,116  L 262,116  L 262,117  L 260,117  L 260,116  Z  M 254,98  L 254,99  L 252,99  L 252,100  L 250,100  L 250,101  L 247,101  L 247,102  L 245,102  L 245,103  L 242,103  L 242,104  L 240,104  L 240,102  L 242,102  L 242,101  L 243,101  L 243,100  L 244,100  L 244,99  L 246,99  L 246,98  L 247,98  L 247,97  L 248,97  L 248,96  L 250,96  L 250,95  L 251,95  L 251,94  L 252,94  L 252,93  L 254,93  L 254,92  L 255,92  L 255,91  L 256,91  L 256,90  L 261,90  L 261,91  L 262,91  L 262,93  L 261,93  L 261,95  L 260,95  L 260,96  L 259,96  L 259,97  L 257,97  L 257,98  Z  M 305,90  L 306,90  L 306,96  L 305,96  Z  M 216,96  L 216,95  L 217,95  L 217,96  Z  M 85,44  L 86,44  L 86,43  L 88,43  L 88,42  L 90,42  L 90,41  L 97,41  L 97,42  L 99,42  L 99,43  L 100,43  L 100,44  L 101,44  L 101,45  L 102,45  L 102,46  L 103,46  L 103,47  L 104,47  L 104,49  L 103,49  L 103,50  L 102,50  L 102,51  L 101,51  L 101,52  L 100,52  L 100,53  L 99,53  L 99,54  L 97,54  L 97,55  L 90,55  L 90,54  L 88,54  L 88,53  L 86,53  L 86,52  L 85,52  L 85,51  L 84,51  L 84,50  L 83,50  L 83,49  L 82,49  L 82,47  L 83,47  L 83,46  L 84,46  L 84,45  L 85,45  Z  M 154,112  L 154,111  L 152,111  L 152,110  L 145,110  L 145,111  L 144,111  L 144,112  L 142,112  L 142,110  L 144,110  L 144,109  L 146,109  L 146,108  L 151,108  L 151,109  L 154,109  L 154,110  L 155,110  L 155,111  L 156,111  L 156,112  Z  M 236,115  L 238,115  L 238,116  L 235,116  L 235,115  L 234,115  L 234,114  L 236,114  Z  M 44,91  L 44,90  L 46,90  L 46,91  Z  M 213,96  L 215,96  L 215,97  L 213,97  Z  M 40,106  L 38,106  L 38,105  L 40,105  Z  M 206,91  L 206,93  L 205,93  L 205,91  Z  M 151,116  L 151,120  L 150,120  L 150,121  L 148,121  L 148,120  L 147,120  L 147,119  L 146,119  L 146,117  L 147,117  L 147,116  Z  M 277,75  L 277,77  L 276,77  L 276,76  L 275,76  L 275,75  Z  M 274,111  L 274,107  L 275,107  L 275,111  Z  M 273,74  L 272,74  L 272,73  L 274,73  L 274,75  L 273,75  Z  M 208,67  L 207,67  L 207,66  L 206,66  L 206,65  L 208,65  Z  M 39,92  L 39,91  L 41,91  L 41,92  Z  M 282,86  L 281,86  L 281,83  L 282,83  L 282,84  L 283,84  L 283,85  L 282,85  Z  M 52,102  L 53,102  L 53,104  L 52,104  Z  M 51,104  L 52,104  L 52,106  L 51,106  Z  M 311,76  L 311,77  L 297,77  L 297,76  Z  M 264,91  L 264,90  L 263,90  L 263,88  L 264,88  L 264,87  L 267,87  L 267,91  Z  M 214,85  L 214,83  L 215,83  L 215,84  L 216,84  L 216,85  Z  M 213,83  L 213,84  L 212,84  L 212,83  Z  M 250,84  L 248,84  L 248,83  L 249,83  L 249,82  L 250,82  Z  M 47,90  L 48,90  L 48,91  L 47,91  Z  M 36,95  L 38,95  L 38,96  L 36,96  Z  M 257,74  L 257,75  L 256,75  L 256,76  L 255,76  L 255,74  Z  M 275,112  L 275,113  L 276,113  L 276,114  L 273,114  L 273,112  Z  M 257,111  L 256,111  L 256,110  L 255,110  L 255,107  L 257,107  Z  M 42,91  L 42,90  L 43,90  L 43,91  Z  M 211,96  L 212,96  L 212,98  L 211,98  Z  M 49,92  L 49,91  L 51,91  L 51,92  Z  M 252,78  L 252,76  L 254,76  L 254,78  Z  M 249,85  L 249,88  L 248,88  L 248,85  Z  M 42,106  L 42,108  L 41,108  L 41,106  Z  M 281,82  L 280,82  L 280,80  L 281,80  Z  M 37,102  L 36,102  L 36,100  L 37,100  Z  M 206,88  L 205,88  L 205,87  L 206,87  Z  M 196,58  L 196,57  L 198,57  L 198,59  L 197,59  L 197,58  Z  M 255,112  L 257,112  L 257,113  L 258,113  L 258,114  L 255,114  Z  M 50,107  L 48,107  L 48,106  L 50,106  Z  M 281,87  L 283,87  L 283,89  L 282,89  L 282,88  L 281,88  Z  M 206,76  L 206,74  L 208,74  L 208,75  L 207,75  L 207,76  Z  M 53,97  L 54,97  L 54,99  L 53,99  Z  M 218,91  L 218,90  L 220,90  L 220,91  Z  M 46,107  L 47,107  L 47,108  L 46,108  Z  M 37,93  L 39,93  L 39,94  L 37,94  Z  M 201,62  L 201,61  L 203,61  L 203,63  L 202,63  L 202,62  Z  M 37,103  L 38,103  L 38,104  L 37,104  Z  M 201,60  L 199,60  L 199,58  L 201,58  Z  M 37,99  L 36,99  L 36,98  L 37,98  Z  M 53,100  L 54,100  L 54,101  L 53,101  Z  M 45,107  L 45,108  L 43,108  L 43,107  Z  M 51,92  L 52,92  L 52,94  L 51,94  Z  M 217,94  L 217,93  L 219,93  L 219,94  Z  M 207,94  L 207,95  L 206,95  L 206,94  Z  " style="fill:rgb(255, 255, 255); fill-opacity:1.000; stroke:none;" />
 <path d="  M 18,112  L 19,112  L 19,111  L 18,111  Z  " style="fill:rgb(255, 255, 255); fill-opacity:1.000; stroke:none;" />
 <path d="  M 20,121  L 20,120  L 19,120  L 19,121  Z  " style="fill:rgb(255, 255, 255); fill-opacity:1.000; stroke:none;" />
 <path d="  M 20,111  L 20,112  L 21,112  L 21,111  Z  " style="fill:rgb(255, 255, 255); fill-opacity:1.000; stroke:none;" />
 <path d="  M 22,112  L 23,112  L 23,111  L 22,111  Z  " style="fill:rgb(255, 255, 255); fill-opacity:1.000; stroke:none;" />
 <path d="  M 32,117  L 32,118  L 36,118  L 36,117  Z  " style="fill:rgb(255, 255, 255); fill-opacity:1.000; stroke:none;" />
 <path d="  M 73,85  L 73,86  L 72,86  L 72,87  L 71,87  L 71,88  L 70,88  L 70,89  L 69,89  L 69,90  L 68,90  L 68,91  L 67,91  L 67,92  L 66,92  L 66,93  L 65,93  L 65,94  L 64,94  L 64,96  L 63,96  L 63,97  L 62,97  L 62,98  L 61,98  L 61,99  L 62,99  L 62,100  L 63,100  L 63,125  L 90,125  L 90,124  L 89,124  L 89,100  L 90,100  L 90,99  L 91,99  L 91,98  L 90,98  L 90,97  L 89,97  L 89,96  L 88,96  L 88,84  L 85,84  L 85,91  L 84,91  L 84,90  L 83,90  L 83,89  L 82,89  L 82,88  L 81,88  L 81,87  L 80,87  L 80,86  L 79,86  L 79,85  L 78,85  L 78,84  L 77,84  L 77,83  L 76,83  L 76,82  L 75,82  L 75,84  L 74,84  L 74,85  Z  M 74,102  L 74,100  L 78,100  L 78,102  L 77,102  L 77,104  L 78,104  L 78,103  L 79,103  L 79,105  L 81,105  L 81,108  L 84,108  L 84,110  L 82,110  L 82,111  L 84,111  L 84,112  L 81,112  L 81,113  L 84,113  L 84,115  L 82,115  L 82,116  L 84,116  L 84,117  L 81,117  L 81,120  L 79,120  L 79,118  L 78,118  L 78,121  L 77,121  L 77,120  L 74,120  L 74,118  L 73,118  L 73,121  L 72,121  L 72,120  L 71,120  L 71,119  L 72,119  L 72,118  L 71,118  L 71,117  L 68,117  L 68,116  L 71,116  L 71,115  L 68,115  L 68,113  L 71,113  L 71,112  L 68,112  L 68,111  L 71,111  L 71,110  L 68,110  L 68,108  L 71,108  L 71,106  L 72,106  L 72,105  L 73,105  L 73,103  L 74,103  L 74,104  L 75,104  L 75,102  Z  M 72,97  L 72,96  L 71,96  L 71,95  L 70,95  L 70,91  L 71,91  L 71,89  L 72,89  L 72,88  L 75,88  L 75,87  L 76,87  L 76,88  L 79,88  L 79,89  L 80,89  L 80,91  L 81,91  L 81,95  L 80,95  L 80,96  L 79,96  L 79,97  L 78,97  L 78,98  L 73,98  L 73,97  Z  " style="fill:rgb(255, 255, 255); fill-opacity:1.000; stroke:none;" />
 <path d="  M 72,91  L 72,92  L 73,92  L 73,91  Z  " style="fill:rgb(255, 255, 255); fill-opacity:1.000; stroke:none;" />
 <path d="  M 73,95  L 73,93  L 72,93  L 72,95  Z  " style="fill:rgb(255, 255, 255); fill-opacity:1.000; stroke:none;" />
 <path d="  M 73,96  L 74,96  L 74,95  L 73,95  Z  " style="fill:rgb(255, 255, 255); fill-opacity:1.000; stroke:none;" />
 <path d="  M 74,106  L 73,106  L 73,107  L 74,107  Z  " style="fill:rgb(255, 255, 255); fill-opacity:1.000; stroke:none;" />
 <path d="  M 77,89  L 74,89  L 74,90  L 77,90  Z  " style="fill:rgb(255, 255, 255); fill-opacity:1.000; stroke:none;" />
 <path d="  M 77,92  L 76,92  L 76,91  L 75,91  L 75,92  L 74,92  L 74,94  L 77,94  Z  " style="fill:rgb(255, 255, 255); fill-opacity:1.000; stroke:none;" />
 <path d="  M 77,96  L 75,96  L 75,97  L 77,97  Z  " style="fill:rgb(255, 255, 255); fill-opacity:1.000; stroke:none;" />
 <path d="  M 77,119  L 77,118  L 76,118  L 76,119  Z  " style="fill:rgb(255, 255, 255); fill-opacity:1.000; stroke:none;" />
 <path d="  M 78,96  L 78,95  L 77,95  L 77,96  Z  " style="fill:rgb(255, 255, 255); fill-opacity:1.000; stroke:none;" />
 <path d="  M 78,95  L 79,95  L 79,91  L 78,91  Z  " style="fill:rgb(255, 255, 255); fill-opacity:1.000; stroke:none;" />
 <path d="  M 78,106  L 78,107  L 79,107  L 79,106  Z  " style="fill:rgb(255, 255, 255); fill-opacity:1.000; stroke:none;" />
 <path d="  M 89,49  L 88,49  L 88,47  L 89,47  L 89,45  L 90,45  L 90,44  L 91,44  L 91,43  L 89,43  L 89,44  L 88,44  L 88,45  L 86,45  L 86,46  L 85,46  L 85,47  L 84,47  L 84,49  L 85,49  L 85,50  L 86,50  L 86,51  L 88,51  L 88,52  L 89,52  L 89,53  L 91,53  L 91,52  L 90,52  L 90,51  L 89,51  Z  " style="fill:rgb(255, 255, 255); fill-opacity:1.000; stroke:none;" />
 <path d="  M 91,46  L 90,46  L 90,50  L 91,50  Z  " style="fill:rgb(255, 255, 255); fill-opacity:1.000; stroke:none;" />
 <path d="  M 92,46  L 92,45  L 91,45  L 91,46  Z  " style="fill:rgb(255, 255, 255); fill-opacity:1.000; stroke:none;" />
 <path d="  M 91,50  L 91,51  L 92,51  L 92,50  Z  " style="fill:rgb(255, 255, 255); fill-opacity:1.000; stroke:none;" />
 <path d="  M 95,77  L 95,76  L 96,76  L 96,73  L 95,73  L 95,72  L 91,72  L 91,76  L 92,76  L 92,77  Z  " style="fill:rgb(255, 255, 255); fill-opacity:1.000; stroke:none;" />
 <path d="  M 94,53  L 92,53  L 92,54  L 94,54  Z  " style="fill:rgb(255, 255, 255); fill-opacity:1.000; stroke:none;" />
 <path d="  M 93,42  L 93,43  L 94,43  L 94,42  Z  " style="fill:rgb(255, 255, 255); fill-opacity:1.000; stroke:none;" />
 <path d="  M 94,52  L 94,51  L 93,51  L 93,52  Z  " style="fill:rgb(255, 255, 255); fill-opacity:1.000; stroke:none;" />
 <path d="  M 94,46  L 96,46  L 96,45  L 94,45  Z  " style="fill:rgb(255, 255, 255); fill-opacity:1.000; stroke:none;" />
 <path d="  M 95,43  L 95,44  L 97,44  L 97,43  Z  " style="fill:rgb(255, 255, 255); fill-opacity:1.000; stroke:none;" />
 <path d="  M 96,50  L 95,50  L 95,51  L 96,51  Z  " style="fill:rgb(255, 255, 255); fill-opacity:1.000; stroke:none;" />
 <path d="  M 95,52  L 95,53  L 97,53  L 97,52  Z  " style="fill:rgb(255, 255, 255); fill-opacity:1.000; stroke:none;" />
 <path d="  M 96,49  L 97,49  L 97,47  L 96,47  Z  " style="fill:rgb(255, 255, 255); fill-opacity:1.000; stroke:none;" />
 <path d="  M 97,51  L 97,52  L 99,52  L 99,51  L 100,51  L 100,50  L 101,50  L 101,49  L 102,49  L 102,47  L 101,47  L 101,46  L 100,46  L 100,45  L 99,45  L 99,44  L 97,44  L 97,45  L 98,45  L 98,51  Z  " style="fill:rgb(255, 255, 255); fill-opacity:1.000; stroke:none;" />
 <path d="  M 105,117  L 105,116  L 104,116  L 104,117  L 103,117  L 103,118  L 104,118  L 104,119  L 106,119  L 106,117  Z  " style="fill:rgb(255, 255, 255); fill-opacity:1.000; stroke:none;" />
 <path d="  M 127,74  L 126,74  L 126,75  L 125,75  L 125,76  L 124,76  L 124,77  L 123,77  L 123,78  L 122,78  L 122,79  L 121,79  L 121,80  L 120,80  L 120,81  L 127,81  Z  " style="fill:rgb(255, 255, 255); fill-opacity:1.000; stroke:none;" />
 <path d="  M 123,89  L 127,89  L 127,83  L 123,83  Z  " style="fill:rgb(255, 255, 255); fill-opacity:1.000; stroke:none;" />
 <path d="  M 125,91  L 123,91  L 123,93  L 124,93  L 124,92  L 125,92  Z  " style="fill:rgb(255, 255, 255); fill-opacity:1.000; stroke:none;" />
 <path d="  M 123,97  L 123,99  L 124,99  L 124,98  L 125,98  L 125,97  Z  " style="fill:rgb(255, 255, 255); fill-opacity:1.000; stroke:none;" />
 <path d="  M 126,103  L 126,102  L 123,102  L 123,105  L 124,105  L 124,104  L 125,104  L 125,103  Z  " style="fill:rgb(255, 255, 255); fill-opacity:1.000; stroke:none;" />
 <path d="  M 123,108  L 123,110  L 124,110  L 124,109  L 125,109  L 125,108  Z  " style="fill:rgb(255, 255, 255); fill-opacity:1.000; stroke:none;" />
 <path d="  M 123,114  L 123,116  L 124,116  L 124,115  L 125,115  L 125,114  Z  " style="fill:rgb(255, 255, 255); fill-opacity:1.000; stroke:none;" />
 <path d="  M 127,120  L 123,120  L 123,123  L 127,123  Z  " style="fill:rgb(255, 255, 255); fill-opacity:1.000; stroke:none;" />
 <path d="  M 125,93  L 125,94  L 124,94  L 124,95  L 127,95  L 127,92  L 126,92  L 126,93  Z  " style="fill:rgb(255, 255, 255); fill-opacity:1.000; stroke:none;" />
 <path d="  M 127,98  L 126,98  L 126,99  L 125,99  L 125,100  L 124,100  L 124,101  L 127,101  Z  " style="fill:rgb(255, 255, 255); fill-opacity:1.000; stroke:none;" />
 <path d="  M 124,117  L 124,118  L 127,118  L 127,115  L 126,115  L 126,116  L 125,116  L 125,117  Z  " style="fill:rgb(255, 255, 255); fill-opacity:1.000; stroke:none;" />
 <path d="  M 127,106  L 127,104  L 126,104  L 126,105  L 125,105  L 125,106  Z  " style="fill:rgb(255, 255, 255); fill-opacity:1.000; stroke:none;" />
 <path d="  M 127,112  L 127,110  L 126,110  L 126,111  L 125,111  L 125,112  Z  " style="fill:rgb(255, 255, 255); fill-opacity:1.000; stroke:none;" />
 <path d="  M 131,74  L 128,74  L 128,81  L 145,81  L 145,80  L 143,80  L 143,79  L 140,79  L 140,78  L 138,78  L 138,77  L 135,77  L 135,76  L 133,76  L 133,75  L 131,75  Z  " style="fill:rgb(255, 255, 255); fill-opacity:1.000; stroke:none;" />
 <path d="  M 129,89  L 129,83  L 128,83  L 128,89  Z  " style="fill:rgb(255, 255, 255); fill-opacity:1.000; stroke:none;" />
 <path d="  M 149,102  L 148,102  L 148,103  L 147,103  L 147,104  L 146,104  L 146,105  L 151,105  L 151,104  L 150,104  L 150,103  L 149,103  Z  " style="fill:rgb(255, 255, 255); fill-opacity:1.000; stroke:none;" />
 <path d="  M 167,99  L 168,99  L 168,97  L 169,97  L 169,95  L 171,95  L 171,98  L 172,98  L 172,101  L 173,101  L 173,104  L 174,104  L 174,102  L 175,102  L 175,99  L 176,99  L 176,98  L 177,98  L 177,99  L 178,99  L 178,100  L 179,100  L 179,98  L 180,98  L 180,95  L 181,95  L 181,94  L 180,94  L 180,93  L 181,93  L 181,92  L 167,92  Z  " style="fill:rgb(255, 255, 255); fill-opacity:1.000; stroke:none;" />
 <path d="  M 186,105  L 185,105  L 185,107  L 184,107  L 184,105  L 183,105  L 183,101  L 182,101  L 182,98  L 181,98  L 181,100  L 180,100  L 180,103  L 179,103  L 179,104  L 178,104  L 178,102  L 177,102  L 177,101  L 176,101  L 176,104  L 175,104  L 175,108  L 174,108  L 174,111  L 172,111  L 172,110  L 173,110  L 173,108  L 172,108  L 172,103  L 171,103  L 171,100  L 170,100  L 170,99  L 169,99  L 169,100  L 168,100  L 168,102  L 167,102  L 167,109  L 169,109  L 169,111  L 167,111  L 167,122  L 186,122  Z  M 172,116  L 172,113  L 173,113  L 173,112  L 175,112  L 175,113  L 178,113  L 178,112  L 179,112  L 179,113  L 181,113  L 181,116  L 180,116  L 180,117  L 179,117  L 179,118  L 178,118  L 178,119  L 177,119  L 177,120  L 176,120  L 176,119  L 175,119  L 175,118  L 174,118  L 174,117  L 173,117  L 173,116  Z  M 171,111  L 170,111  L 170,109  L 171,109  Z  M 185,111  L 183,111  L 183,109  L 184,109  L 184,110  L 185,110  Z  M 177,111  L 175,111  L 175,109  L 176,109  L 176,110  L 177,110  Z  M 180,111  L 180,110  L 181,110  L 181,109  L 182,109  L 182,111  Z  M 179,111  L 178,111  L 178,109  L 179,109  Z  " style="fill:rgb(255, 255, 255); fill-opacity:1.000; stroke:none;" />
 <path d="  M 176,73  L 176,74  L 178,74  L 178,75  L 200,75  L 200,74  L 202,74  L 202,73  L 203,73  L 203,68  L 202,68  L 202,67  L 201,67  L 201,66  L 198,66  L 198,65  L 197,65  L 197,62  L 196,62  L 196,61  L 195,61  L 195,60  L 194,60  L 194,59  L 191,59  L 191,58  L 189,58  L 189,59  L 185,59  L 185,60  L 184,60  L 184,61  L 183,61  L 183,62  L 182,62  L 182,64  L 178,64  L 178,65  L 176,65  L 176,66  L 175,66  L 175,69  L 174,69  L 174,70  L 175,70  L 175,73  Z  " style="fill:rgb(255, 255, 255); fill-opacity:1.000; stroke:none;" />
 <path d="  M 177,125  L 177,124  L 176,124  L 176,125  Z  " style="fill:rgb(255, 255, 255); fill-opacity:1.000; stroke:none;" />
 <path d="  M 185,99  L 186,99  L 186,92  L 182,92  L 182,93  L 183,93  L 183,97  L 184,97  L 184,102  L 185,102  Z  " style="fill:rgb(255, 255, 255); fill-opacity:1.000; stroke:none;" />
 <path d="  M 196,93  L 197,93  L 197,92  L 196,92  Z  " style="fill:rgb(255, 255, 255); fill-opacity:1.000; stroke:none;" />
 <path d="  M 197,126  L 198,126  L 198,119  L 197,119  Z  " style="fill:rgb(255, 255, 255); fill-opacity:1.000; stroke:none;" />
 <path d="  M 211,119  L 214,119  L 214,109  L 208,109  L 208,125  L 214,125  L 214,123  L 211,123  Z  " style="fill:rgb(255, 255, 255); fill-opacity:1.000; stroke:none;" />
 <path d="  M 213,91  L 213,90  L 211,90  L 211,91  Z  " style="fill:rgb(255, 255, 255); fill-opacity:1.000; stroke:none;" />
 <path d="  M 219,37  L 219,38  L 223,38  L 223,37  Z  " style="fill:rgb(255, 255, 255); fill-opacity:1.000; stroke:none;" />
 <path d="  M 225,38  L 224,38  L 224,39  L 225,39  Z  " style="fill:rgb(255, 255, 255); fill-opacity:1.000; stroke:none;" />
 <path d="  M 232,118  L 232,115  L 230,115  L 230,116  L 227,116  L 227,117  L 228,117  L 228,118  Z  " style="fill:rgb(255, 255, 255); fill-opacity:1.000; stroke:none;" />
 <path d="  M 229,124  L 229,125  L 228,125  L 228,126  L 245,126  L 245,125  L 243,125  L 243,124  Z  " style="fill:rgb(255, 255, 255); fill-opacity:1.000; stroke:none;" />
 <path d="  M 232,47  L 233,47  L 233,46  L 234,46  L 234,45  L 235,45  L 235,44  L 240,44  L 240,45  L 241,45  L 241,46  L 242,46  L 242,47  L 243,47  L 243,48  L 244,48  L 244,44  L 243,44  L 243,43  L 232,43  L 232,44  L 231,44  L 231,49  L 232,49  Z  " style="fill:rgb(255, 255, 255); fill-opacity:1.000; stroke:none;" />
 <path d="  M 233,50  L 234,50  L 234,48  L 233,48  Z  " style="fill:rgb(255, 255, 255); fill-opacity:1.000; stroke:none;" />
 <path d="  M 233,52  L 233,53  L 234,53  L 234,52  Z  " style="fill:rgb(255, 255, 255); fill-opacity:1.000; stroke:none;" />
 <path d="  M 234,48  L 235,48  L 235,47  L 234,47  Z  " style="fill:rgb(255, 255, 255); fill-opacity:1.000; stroke:none;" />
 <path d="  M 241,53  L 240,53  L 240,54  L 239,54  L 239,55  L 236,55  L 236,54  L 235,54  L 235,53  L 234,53  L 234,56  L 235,56  L 235,58  L 236,58  L 236,60  L 237,60  L 237,62  L 238,62  L 238,60  L 239,60  L 239,58  L 240,58  L 240,56  L 241,56  Z  " style="fill:rgb(255, 255, 255); fill-opacity:1.000; stroke:none;" />
 <path d="  M 237,47  L 237,46  L 235,46  L 235,47  Z  " style="fill:rgb(255, 255, 255); fill-opacity:1.000; stroke:none;" />
 <path d="  M 238,46  L 238,47  L 240,47  L 240,46  Z  " style="fill:rgb(255, 255, 255); fill-opacity:1.000; stroke:none;" />
 <path d="  M 240,47  L 240,48  L 241,48  L 241,47  Z  " style="fill:rgb(255, 255, 255); fill-opacity:1.000; stroke:none;" />
 <path d="  M 242,49  L 242,48  L 241,48  L 241,49  Z  " style="fill:rgb(255, 255, 255); fill-opacity:1.000; stroke:none;" />
 <path d="  M 242,52  L 241,52  L 241,53  L 242,53  Z  " style="fill:rgb(255, 255, 255); fill-opacity:1.000; stroke:none;" />
 <path d="  M 247,100  L 248,100  L 248,99  L 247,99  Z  " style="fill:rgb(255, 255, 255); fill-opacity:1.000; stroke:none;" />
 <path d="  M 248,99  L 250,99  L 250,98  L 248,98  Z  " style="fill:rgb(255, 255, 255); fill-opacity:1.000; stroke:none;" />
 <path d="  M 250,39  L 251,39  L 251,38  L 250,38  Z  " style="fill:rgb(255, 255, 255); fill-opacity:1.000; stroke:none;" />
 <path d="  M 251,96  L 251,97  L 250,97  L 250,98  L 252,98  L 252,97  L 255,97  L 255,96  L 257,96  L 257,95  L 259,95  L 259,93  L 260,93  L 260,92  L 256,92  L 256,93  L 255,93  L 255,94  L 254,94  L 254,95  L 252,95  L 252,96  Z  " style="fill:rgb(255, 255, 255); fill-opacity:1.000; stroke:none;" />
 <path d="  M 256,38  L 256,37  L 252,37  L 252,38  Z  " style="fill:rgb(255, 255, 255); fill-opacity:1.000; stroke:none;" />
 <path d="  M 266,76  L 266,68  L 265,68  L 265,74  L 264,74  L 264,82  L 265,82  L 265,83  L 266,83  L 266,81  L 267,81  L 267,76  Z  " style="fill:rgb(255, 255, 255); fill-opacity:1.000; stroke:none;" />
 <path d="  M 278,97  L 278,98  L 280,98  L 280,99  L 282,99  L 282,98  L 281,98  L 281,97  L 279,97  L 279,96  L 278,96  L 278,95  L 277,95  L 277,94  L 275,94  L 275,93  L 274,93  L 274,92  L 271,92  L 271,95  L 273,95  L 273,96  L 275,96  L 275,97  Z  " style="fill:rgb(255, 255, 255); fill-opacity:1.000; stroke:none;" />
 <path d="  M 283,100  L 283,99  L 282,99  L 282,100  Z  " style="fill:rgb(255, 255, 255); fill-opacity:1.000; stroke:none;" />
 <path d="  M 290,55  L 290,56  L 291,56  L 291,57  L 293,57  L 293,56  L 295,56  L 295,55  L 294,55  L 294,54  L 288,54  L 288,55  L 287,55  L 287,56  L 286,56  L 286,61  L 287,61  L 287,62  L 288,62  L 288,61  L 289,61  L 289,60  L 290,60  L 290,59  L 288,59  L 288,58  L 287,58  L 287,57  L 288,57  L 288,56  L 289,56  L 289,55  Z  " style="fill:rgb(255, 255, 255); fill-opacity:1.000; stroke:none;" />
 <path d="  M 291,60  L 290,60  L 290,61  L 289,61  L 289,62  L 288,62  L 288,63  L 290,63  L 290,64  L 293,64  L 293,63  L 292,63  L 292,62  L 291,62  Z  " style="fill:rgb(255, 255, 255); fill-opacity:1.000; stroke:none;" />
 <path d="  M 289,57  L 289,58  L 290,58  L 290,57  Z  " style="fill:rgb(255, 255, 255); fill-opacity:1.000; stroke:none;" />
 <path d="  M 292,61  L 294,61  L 294,60  L 292,60  Z  " style="fill:rgb(255, 255, 255); fill-opacity:1.000; stroke:none;" />
 <path d="  M 295,61  L 296,61  L 296,56  L 295,56  L 295,57  L 294,57  L 294,58  L 293,58  L 293,59  L 295,59  Z  " style="fill:rgb(255, 255, 255); fill-opacity:1.000; stroke:none;" />
 <path d="  M 301,110  L 303,110  L 303,111  L 304,111  L 304,112  L 306,112  L 306,111  L 307,111  L 307,110  L 308,110  L 308,109  L 309,109  L 309,111  L 308,111  L 308,112  L 307,112  L 307,113  L 306,113  L 306,119  L 308,119  L 308,115  L 309,115  L 309,114  L 310,114  L 310,113  L 311,113  L 311,112  L 312,112  L 312,111  L 313,111  L 313,105  L 312,105  L 312,104  L 311,104  L 311,103  L 310,103  L 310,102  L 309,102  L 309,101  L 301,101  L 301,102  L 300,102  L 300,103  L 299,103  L 299,104  L 298,104  L 298,112  L 299,112  L 299,113  L 300,113  L 300,114  L 301,114  L 301,115  L 302,115  L 302,119  L 304,119  L 304,113  L 303,113  L 303,112  L 302,112  L 302,111  L 301,111  Z  " style="fill:rgb(255, 255, 255); fill-opacity:1.000; stroke:none;" />
 <path d="  M 302,121  L 302,124  L 301,124  L 301,125  L 309,125  L 309,121  Z  " style="fill:rgb(255, 255, 255); fill-opacity:1.000; stroke:none;" />
 <path d="  M 300,102  L 301,102  L 301,101  L 309,101  L 309,102  L 310,102  L 310,103  L 311,103  L 311,104  L 312,104  L 312,105  L 313,105  L 313,111  L 312,111  L 312,112  L 311,112  L 311,113  L 310,113  L 310,114  L 309,114  L 309,115  L 308,115  L 308,119  L 306,119  L 306,113  L 307,113  L 307,112  L 308,112  L 308,111  L 309,111  L 309,109  L 308,109  L 308,110  L 307,110  L 307,111  L 306,111  L 306,112  L 304,112  L 304,111  L 303,111  L 303,110  L 301,110  L 301,111  L 302,111  L 302,112  L 303,112  L 303,113  L 304,113  L 304,119  L 302,119  L 302,115  L 301,115  L 301,114  L 300,114  L 300,113  L 299,113  L 299,112  L 298,112  L 298,104  L 299,104  L 299,103  L 300,103  Z  M 64,94  L 65,94  L 65,93  L 66,93  L 66,92  L 67,92  L 67,91  L 68,91  L 68,90  L 69,90  L 69,89  L 70,89  L 70,88  L 71,88  L 71,87  L 72,87  L 72,86  L 73,86  L 73,85  L 74,85  L 74,84  L 75,84  L 75,82  L 76,82  L 76,83  L 77,83  L 77,84  L 78,84  L 78,85  L 79,85  L 79,86  L 80,86  L 80,87  L 81,87  L 81,88  L 82,88  L 82,89  L 83,89  L 83,90  L 84,90  L 84,91  L 85,91  L 85,84  L 88,84  L 88,96  L 89,96  L 89,97  L 90,97  L 90,98  L 91,98  L 91,99  L 90,99  L 90,100  L 89,100  L 89,124  L 90,124  L 90,125  L 63,125  L 63,100  L 62,100  L 62,99  L 61,99  L 61,98  L 62,98  L 62,97  L 63,97  L 63,96  L 64,96  Z  M 319,119  L 323,119  L 323,126  L 311,126  L 311,120  L 310,120  L 310,116  L 311,116  L 311,115  L 312,115  L 312,114  L 313,114  L 313,112  L 314,112  L 314,103  L 313,103  L 313,102  L 311,102  L 311,101  L 310,101  L 310,100  L 300,100  L 300,101  L 299,101  L 299,102  L 298,102  L 298,103  L 297,103  L 297,104  L 296,104  L 296,112  L 297,112  L 297,113  L 298,113  L 298,114  L 299,114  L 299,115  L 300,115  L 300,116  L 301,116  L 301,120  L 300,120  L 300,124  L 299,124  L 299,125  L 300,125  L 300,126  L 278,126  L 278,125  L 279,125  L 279,123  L 278,123  L 278,122  L 277,122  L 277,126  L 275,126  L 275,115  L 274,115  L 274,126  L 270,126  L 270,122  L 269,122  L 269,126  L 266,126  L 266,93  L 265,93  L 265,94  L 264,94  L 264,126  L 262,126  L 262,122  L 260,122  L 260,126  L 257,126  L 257,115  L 256,115  L 256,126  L 253,126  L 253,122  L 252,122  L 252,126  L 246,126  L 246,125  L 247,125  L 247,124  L 250,124  L 250,123  L 251,123  L 251,121  L 250,121  L 250,119  L 249,119  L 249,118  L 243,118  L 243,117  L 240,117  L 240,118  L 233,118  L 233,114  L 229,114  L 229,115  L 226,115  L 226,116  L 224,116  L 224,117  L 221,117  L 221,118  L 220,118  L 220,123  L 221,123  L 221,124  L 225,124  L 225,125  L 226,125  L 226,126  L 216,126  L 216,108  L 215,108  L 215,107  L 207,107  L 207,126  L 204,126  L 204,90  L 206,90  L 206,89  L 204,89  L 204,87  L 205,87  L 205,86  L 206,86  L 206,85  L 207,85  L 207,86  L 208,86  L 208,85  L 209,85  L 209,86  L 210,86  L 210,87  L 211,87  L 211,88  L 210,88  L 210,92  L 214,92  L 214,89  L 213,89  L 213,88  L 212,88  L 212,86  L 211,86  L 211,85  L 210,85  L 210,84  L 211,84  L 211,83  L 209,83  L 209,84  L 205,84  L 205,85  L 204,85  L 204,86  L 203,86  L 203,126  L 200,126  L 200,97  L 198,97  L 198,118  L 197,118  L 197,95  L 198,95  L 198,94  L 199,94  L 199,91  L 198,91  L 198,90  L 195,90  L 195,91  L 194,91  L 194,94  L 195,94  L 195,95  L 196,95  L 196,126  L 195,126  L 195,97  L 193,97  L 193,126  L 188,126  L 188,90  L 187,90  L 187,89  L 178,89  L 178,88  L 177,88  L 177,86  L 176,86  L 176,85  L 174,85  L 174,84  L 157,84  L 157,83  L 156,83  L 156,82  L 155,82  L 155,71  L 154,71  L 154,69  L 152,69  L 152,68  L 139,68  L 139,64  L 149,64  L 149,63  L 150,63  L 150,58  L 152,58  L 152,50  L 144,50  L 144,58  L 148,58  L 148,62  L 139,62  L 139,58  L 142,58  L 142,50  L 133,50  L 133,57  L 134,57  L 134,58  L 137,58  L 137,62  L 128,62  L 128,58  L 131,58  L 131,50  L 123,50  L 123,58  L 126,58  L 126,64  L 137,64  L 137,68  L 106,68  L 106,69  L 105,69  L 105,71  L 104,71  L 104,113  L 103,113  L 103,114  L 102,114  L 102,115  L 101,115  L 101,116  L 100,116  L 100,119  L 101,119  L 101,121  L 102,121  L 102,122  L 107,122  L 107,121  L 108,121  L 108,120  L 109,120  L 109,116  L 108,116  L 108,114  L 106,114  L 106,113  L 105,113  L 105,72  L 106,72  L 106,70  L 109,70  L 109,69  L 150,69  L 150,70  L 152,70  L 152,71  L 153,71  L 153,73  L 154,73  L 154,84  L 155,84  L 155,85  L 157,85  L 157,86  L 174,86  L 174,87  L 176,87  L 176,89  L 166,89  L 166,90  L 165,90  L 165,126  L 135,126  L 135,123  L 128,123  L 128,91  L 131,91  L 131,83  L 148,83  L 148,97  L 147,97  L 147,99  L 148,99  L 148,101  L 147,101  L 147,102  L 146,102  L 146,103  L 145,103  L 145,104  L 144,104  L 144,105  L 143,105  L 143,106  L 142,106  L 142,107  L 141,107  L 141,108  L 139,108  L 139,109  L 140,109  L 140,110  L 141,110  L 141,109  L 142,109  L 142,108  L 144,108  L 144,107  L 148,107  L 148,106  L 150,106  L 150,107  L 154,107  L 154,108  L 155,108  L 155,109  L 157,109  L 157,110  L 158,110  L 158,108  L 157,108  L 157,107  L 155,107  L 155,106  L 154,106  L 154,105  L 153,105  L 153,104  L 152,104  L 152,103  L 151,103  L 151,97  L 150,97  L 150,83  L 152,83  L 152,82  L 151,82  L 151,81  L 149,81  L 149,80  L 146,80  L 146,79  L 144,79  L 144,78  L 142,78  L 142,77  L 139,77  L 139,76  L 137,76  L 137,75  L 134,75  L 134,74  L 132,74  L 132,73  L 130,73  L 130,72  L 126,72  L 126,73  L 125,73  L 125,74  L 124,74  L 124,75  L 123,75  L 123,76  L 122,76  L 122,77  L 121,77  L 121,78  L 120,78  L 120,79  L 119,79  L 119,80  L 117,80  L 117,81  L 116,81  L 116,83  L 121,83  L 121,123  L 117,123  L 117,126  L 91,126  L 91,101  L 95,101  L 95,100  L 94,100  L 94,99  L 93,99  L 93,98  L 92,98  L 92,97  L 91,97  L 91,95  L 90,95  L 90,94  L 89,94  L 89,82  L 84,82  L 84,88  L 83,88  L 83,87  L 82,87  L 82,86  L 81,86  L 81,85  L 80,85  L 80,84  L 79,84  L 79,83  L 78,83  L 78,82  L 77,82  L 77,80  L 75,80  L 75,81  L 74,81  L 74,82  L 73,82  L 73,84  L 72,84  L 72,85  L 71,85  L 71,86  L 70,86  L 70,87  L 69,87  L 69,88  L 68,88  L 68,89  L 67,89  L 67,90  L 66,90  L 66,91  L 65,91  L 65,92  L 64,92  L 64,93  L 63,93  L 63,94  L 62,94  L 62,95  L 61,95  L 61,97  L 60,97  L 60,98  L 59,98  L 59,99  L 58,99  L 58,100  L 57,100  L 57,101  L 61,101  L 61,126  L 54,126  L 54,124  L 55,124  L 55,122  L 49,122  L 49,123  L 20,123  L 20,121  L 21,121  L 21,122  L 26,122  L 26,121  L 25,121  L 25,120  L 24,120  L 24,110  L 22,110  L 22,109  L 18,109  L 18,110  L 17,110  L 17,113  L 16,113  L 16,108  L 15,108  L 15,109  L 14,109  L 14,118  L 13,118  L 13,120  L 10,120  L 10,123  L 11,123  L 11,126  L 12,126  L 12,127  L 13,127  L 13,128  L 43,128  L 43,129  L 45,129  L 45,128  L 336,128  L 336,127  L 337,127  L 337,126  L 325,126  L 325,119  L 329,119  L 329,115  L 328,115  L 328,112  L 327,112  L 327,108  L 326,108  L 326,104  L 325,104  L 325,100  L 323,100  L 323,104  L 322,104  L 322,108  L 321,108  L 321,111  L 320,111  L 320,115  L 319,115  Z  M 21,112  L 20,112  L 20,111  L 21,111  Z  M 172,108  L 173,108  L 173,110  L 172,110  L 172,111  L 174,111  L 174,108  L 175,108  L 175,104  L 176,104  L 176,101  L 177,101  L 177,102  L 178,102  L 178,104  L 179,104  L 179,103  L 180,103  L 180,100  L 181,100  L 181,98  L 182,98  L 182,101  L 183,101  L 183,105  L 184,105  L 184,107  L 185,107  L 185,105  L 186,105  L 186,122  L 167,122  L 167,111  L 169,111  L 169,109  L 167,109  L 167,102  L 168,102  L 168,100  L 169,100  L 169,99  L 170,99  L 170,100  L 171,100  L 171,103  L 172,103  Z  M 124,92  L 124,93  L 123,93  L 123,91  L 125,91  L 125,92  Z  M 214,125  L 208,125  L 208,109  L 214,109  L 214,119  L 211,119  L 211,123  L 214,123  Z  M 124,95  L 124,94  L 125,94  L 125,93  L 126,93  L 126,92  L 127,92  L 127,95  Z  M 127,118  L 124,118  L 124,117  L 125,117  L 125,116  L 126,116  L 126,115  L 127,115  Z  M 127,104  L 127,106  L 125,106  L 125,105  L 126,105  L 126,104  Z  M 127,74  L 127,81  L 120,81  L 120,80  L 121,80  L 121,79  L 122,79  L 122,78  L 123,78  L 123,77  L 124,77  L 124,76  L 125,76  L 125,75  L 126,75  L 126,74  Z  M 124,116  L 123,116  L 123,114  L 125,114  L 125,115  L 124,115  Z  M 167,99  L 167,92  L 181,92  L 181,93  L 180,93  L 180,94  L 181,94  L 181,95  L 180,95  L 180,98  L 179,98  L 179,100  L 178,100  L 178,99  L 177,99  L 177,98  L 176,98  L 176,99  L 175,99  L 175,102  L 174,102  L 174,104  L 173,104  L 173,101  L 172,101  L 172,98  L 171,98  L 171,95  L 169,95  L 169,97  L 168,97  L 168,99  Z  M 104,116  L 105,116  L 105,117  L 106,117  L 106,119  L 104,119  L 104,118  L 103,118  L 103,117  L 104,117  Z  M 126,111  L 126,110  L 127,110  L 127,112  L 125,112  L 125,111  Z  M 309,121  L 309,125  L 301,125  L 301,124  L 302,124  L 302,121  Z  M 20,121  L 19,121  L 19,120  L 20,120  Z  M 213,90  L 213,91  L 211,91  L 211,90  Z  M 127,101  L 124,101  L 124,100  L 125,100  L 125,99  L 126,99  L 126,98  L 127,98  Z  M 229,125  L 229,124  L 243,124  L 243,125  L 245,125  L 245,126  L 228,126  L 228,125  Z  M 146,105  L 146,104  L 147,104  L 147,103  L 148,103  L 148,102  L 149,102  L 149,103  L 150,103  L 150,104  L 151,104  L 151,105  Z  M 145,81  L 128,81  L 128,74  L 131,74  L 131,75  L 133,75  L 133,76  L 135,76  L 135,77  L 138,77  L 138,78  L 140,78  L 140,79  L 143,79  L 143,80  L 145,80  Z  M 125,109  L 124,109  L 124,110  L 123,110  L 123,108  L 125,108  Z  M 228,118  L 228,117  L 227,117  L 227,116  L 230,116  L 230,115  L 232,115  L 232,118  Z  M 123,83  L 127,83  L 127,89  L 123,89  Z  M 126,102  L 126,103  L 125,103  L 125,104  L 124,104  L 124,105  L 123,105  L 123,102  Z  M 186,99  L 185,99  L 185,102  L 184,102  L 184,97  L 183,97  L 183,93  L 182,93  L 182,92  L 186,92  Z  M 124,98  L 124,99  L 123,99  L 123,97  L 125,97  L 125,98  Z  M 129,89  L 128,89  L 128,83  L 129,83  Z  M 198,126  L 197,126  L 197,119  L 198,119  Z  M 22,111  L 23,111  L 23,112  L 22,112  Z  M 176,125  L 176,124  L 177,124  L 177,125  Z  M 127,120  L 127,123  L 123,123  L 123,120  Z  M 19,111  L 19,112  L 18,112  L 18,111  Z  M 196,93  L 196,92  L 197,92  L 197,93  Z  " style="fill:rgb(0, 0, 0); fill-opacity:1.000; stroke:none;" />
 <path d="  M 28,118  L 28,122  L 40,122  L 40,118  L 37,118  L 37,113  L 31,113  L 31,118  Z  M 32,118  L 32,117  L 36,117  L 36,118  Z  " style="fill:rgb(0, 0, 0); fill-opacity:1.000; stroke:none;" />
 <path d="  M 217,11  L 217,22  L 203,22  L 203,23  L 202,23  L 202,51  L 170,51  L 170,50  L 160,50  L 160,38  L 153,38  L 153,33  L 139,33  L 139,12  L 138,12  L 138,33  L 123,33  L 123,38  L 110,38  L 110,15  L 109,15  L 109,16  L 107,16  L 107,17  L 105,17  L 105,18  L 103,18  L 103,19  L 101,19  L 101,20  L 100,20  L 100,21  L 98,21  L 98,22  L 96,22  L 96,23  L 94,23  L 94,24  L 92,24  L 92,25  L 90,25  L 90,26  L 89,26  L 89,27  L 87,27  L 87,28  L 85,28  L 85,29  L 83,29  L 83,30  L 81,30  L 81,31  L 80,31  L 80,32  L 78,32  L 78,33  L 76,33  L 76,34  L 75,34  L 75,61  L 30,61  L 30,107  L 31,107  L 31,108  L 32,108  L 32,62  L 77,62  L 77,36  L 76,36  L 76,35  L 77,35  L 77,34  L 79,34  L 79,33  L 81,33  L 81,32  L 83,32  L 83,31  L 84,31  L 84,30  L 86,30  L 86,29  L 88,29  L 88,28  L 90,28  L 90,27  L 92,27  L 92,26  L 94,26  L 94,25  L 95,25  L 95,24  L 97,24  L 97,23  L 99,23  L 99,22  L 101,22  L 101,21  L 103,21  L 103,20  L 104,20  L 104,19  L 106,19  L 106,18  L 108,18  L 108,40  L 124,40  L 124,34  L 151,34  L 151,40  L 159,40  L 159,52  L 204,52  L 204,24  L 218,24  L 218,12  L 254,12  L 254,24  L 269,24  L 269,55  L 282,55  L 282,39  L 284,39  L 284,40  L 287,40  L 287,41  L 290,41  L 290,42  L 293,42  L 293,43  L 296,43  L 296,44  L 299,44  L 299,45  L 300,45  L 300,55  L 309,55  L 309,66  L 335,66  L 335,114  L 336,114  L 336,65  L 311,65  L 311,54  L 310,54  L 310,53  L 302,53  L 302,44  L 301,44  L 301,43  L 298,43  L 298,42  L 295,42  L 295,41  L 292,41  L 292,40  L 289,40  L 289,39  L 286,39  L 286,38  L 283,38  L 283,37  L 281,37  L 281,53  L 271,53  L 271,23  L 270,23  L 270,22  L 255,22  L 255,11  Z  " style="fill:rgb(0, 0, 0); fill-opacity:1.000; stroke:none;" />
 <path d="  M 38,96  L 38,95  L 36,95  L 36,96  Z  " style="fill:rgb(0, 0, 0); fill-opacity:1.000; stroke:none;" />
 <path d="  M 36,99  L 37,99  L 37,98  L 36,98  Z  " style="fill:rgb(0, 0, 0); fill-opacity:1.000; stroke:none;" />
 <path d="  M 36,102  L 37,102  L 37,100  L 36,100  Z  " style="fill:rgb(0, 0, 0); fill-opacity:1.000; stroke:none;" />
 <path d="  M 37,93  L 37,94  L 39,94  L 39,93  Z  " style="fill:rgb(0, 0, 0); fill-opacity:1.000; stroke:none;" />
 <path d="  M 37,103  L 37,104  L 38,104  L 38,103  Z  " style="fill:rgb(0, 0, 0); fill-opacity:1.000; stroke:none;" />
 <path d="  M 40,105  L 38,105  L 38,106  L 40,106  Z  " style="fill:rgb(0, 0, 0); fill-opacity:1.000; stroke:none;" />
 <path d="  M 38,113  L 38,117  L 44,117  L 44,113  Z  " style="fill:rgb(0, 0, 0); fill-opacity:1.000; stroke:none;" />
 <path d="  M 39,91  L 39,92  L 41,92  L 41,91  Z  " style="fill:rgb(0, 0, 0); fill-opacity:1.000; stroke:none;" />
 <path d="  M 45,94  L 43,94  L 43,96  L 42,96  L 42,98  L 41,98  L 41,103  L 42,103  L 42,104  L 46,104  L 46,103  L 47,103  L 47,102  L 49,102  L 49,101  L 50,101  L 50,100  L 49,100  L 49,97  L 48,97  L 48,96  L 47,96  L 47,97  L 46,97  L 46,96  L 45,96  Z  " style="fill:rgb(0, 0, 0); fill-opacity:1.000; stroke:none;" />
 <path d="  M 41,108  L 42,108  L 42,106  L 41,106  Z  " style="fill:rgb(0, 0, 0); fill-opacity:1.000; stroke:none;" />
 <path d="  M 47,122  L 47,118  L 41,118  L 41,122  Z  " style="fill:rgb(0, 0, 0); fill-opacity:1.000; stroke:none;" />
 <path d="  M 43,91  L 43,90  L 42,90  L 42,91  Z  " style="fill:rgb(0, 0, 0); fill-opacity:1.000; stroke:none;" />
 <path d="  M 43,107  L 43,108  L 45,108  L 45,107  Z  " style="fill:rgb(0, 0, 0); fill-opacity:1.000; stroke:none;" />
 <path d="  M 46,91  L 46,90  L 44,90  L 44,91  Z  " style="fill:rgb(0, 0, 0); fill-opacity:1.000; stroke:none;" />
 <path d="  M 47,108  L 47,107  L 46,107  L 46,108  Z  " style="fill:rgb(0, 0, 0); fill-opacity:1.000; stroke:none;" />
 <path d="  M 47,90  L 47,91  L 48,91  L 48,90  Z  " style="fill:rgb(0, 0, 0); fill-opacity:1.000; stroke:none;" />
 <path d="  M 48,106  L 48,107  L 50,107  L 50,106  Z  " style="fill:rgb(0, 0, 0); fill-opacity:1.000; stroke:none;" />
 <path d="  M 49,91  L 49,92  L 51,92  L 51,91  Z  " style="fill:rgb(0, 0, 0); fill-opacity:1.000; stroke:none;" />
 <path d="  M 65,84  L 67,84  L 67,74  L 51,74  L 51,75  L 50,75  L 50,83  L 51,83  L 51,84  L 63,84  L 63,86  L 65,86  Z  " style="fill:rgb(0, 0, 0); fill-opacity:1.000; stroke:none;" />
 <path d="  M 51,94  L 52,94  L 52,92  L 51,92  Z  " style="fill:rgb(0, 0, 0); fill-opacity:1.000; stroke:none;" />
 <path d="  M 52,106  L 52,104  L 51,104  L 51,106  Z  " style="fill:rgb(0, 0, 0); fill-opacity:1.000; stroke:none;" />
 <path d="  M 54,96  L 54,95  L 52,95  L 52,96  Z  " style="fill:rgb(0, 0, 0); fill-opacity:1.000; stroke:none;" />
 <path d="  M 53,102  L 52,102  L 52,104  L 53,104  Z  " style="fill:rgb(0, 0, 0); fill-opacity:1.000; stroke:none;" />
 <path d="  M 53,99  L 54,99  L 54,97  L 53,97  Z  " style="fill:rgb(0, 0, 0); fill-opacity:1.000; stroke:none;" />
 <path d="  M 53,101  L 54,101  L 54,100  L 53,100  Z  " style="fill:rgb(0, 0, 0); fill-opacity:1.000; stroke:none;" />
 <path d="  M 68,113  L 68,115  L 71,115  L 71,116  L 68,116  L 68,117  L 71,117  L 71,118  L 72,118  L 72,119  L 71,119  L 71,120  L 72,120  L 72,121  L 73,121  L 73,118  L 74,118  L 74,120  L 77,120  L 77,121  L 78,121  L 78,118  L 79,118  L 79,120  L 81,120  L 81,117  L 84,117  L 84,116  L 82,116  L 82,115  L 84,115  L 84,113  L 81,113  L 81,112  L 84,112  L 84,111  L 82,111  L 82,110  L 84,110  L 84,108  L 81,108  L 81,105  L 79,105  L 79,103  L 78,103  L 78,104  L 77,104  L 77,102  L 78,102  L 78,100  L 74,100  L 74,102  L 75,102  L 75,104  L 74,104  L 74,103  L 73,103  L 73,105  L 72,105  L 72,106  L 71,106  L 71,108  L 68,108  L 68,110  L 71,110  L 71,111  L 68,111  L 68,112  L 71,112  L 71,113  Z  M 74,106  L 74,107  L 73,107  L 73,106  Z  M 78,107  L 78,106  L 79,106  L 79,107  Z  M 76,119  L 76,118  L 77,118  L 77,119  Z  " style="fill:rgb(0, 0, 0); fill-opacity:1.000; stroke:none;" />
 <path d="  M 78,97  L 79,97  L 79,96  L 80,96  L 80,95  L 81,95  L 81,91  L 80,91  L 80,89  L 79,89  L 79,88  L 76,88  L 76,87  L 75,87  L 75,88  L 72,88  L 72,89  L 71,89  L 71,91  L 70,91  L 70,95  L 71,95  L 71,96  L 72,96  L 72,97  L 73,97  L 73,98  L 78,98  Z  M 77,95  L 78,95  L 78,96  L 77,96  Z  M 77,96  L 77,97  L 75,97  L 75,96  Z  M 79,91  L 79,95  L 78,95  L 78,91  Z  M 74,94  L 74,92  L 75,92  L 75,91  L 76,91  L 76,92  L 77,92  L 77,94  Z  M 72,93  L 73,93  L 73,95  L 72,95  Z  M 72,92  L 72,91  L 73,91  L 73,92  Z  M 77,89  L 77,90  L 74,90  L 74,89  Z  M 73,95  L 74,95  L 74,96  L 73,96  Z  " style="fill:rgb(0, 0, 0); fill-opacity:1.000; stroke:none;" />
 <path d="  M 89,53  L 89,52  L 88,52  L 88,51  L 86,51  L 86,50  L 85,50  L 85,49  L 84,49  L 84,47  L 85,47  L 85,46  L 86,46  L 86,45  L 88,45  L 88,44  L 89,44  L 89,43  L 91,43  L 91,44  L 90,44  L 90,45  L 89,45  L 89,47  L 88,47  L 88,49  L 89,49  L 89,51  L 90,51  L 90,52  L 91,52  L 91,53  Z  M 85,44  L 85,45  L 84,45  L 84,46  L 83,46  L 83,47  L 82,47  L 82,49  L 83,49  L 83,50  L 84,50  L 84,51  L 85,51  L 85,52  L 86,52  L 86,53  L 88,53  L 88,54  L 90,54  L 90,55  L 97,55  L 97,54  L 99,54  L 99,53  L 100,53  L 100,52  L 101,52  L 101,51  L 102,51  L 102,50  L 103,50  L 103,49  L 104,49  L 104,47  L 103,47  L 103,46  L 102,46  L 102,45  L 101,45  L 101,44  L 100,44  L 100,43  L 99,43  L 99,42  L 97,42  L 97,41  L 90,41  L 90,42  L 88,42  L 88,43  L 86,43  L 86,44  Z  M 92,46  L 91,46  L 91,45  L 92,45  Z  M 98,45  L 97,45  L 97,44  L 99,44  L 99,45  L 100,45  L 100,46  L 101,46  L 101,47  L 102,47  L 102,49  L 101,49  L 101,50  L 100,50  L 100,51  L 99,51  L 99,52  L 97,52  L 97,51  L 98,51  Z  M 97,44  L 95,44  L 95,43  L 97,43  Z  M 90,46  L 91,46  L 91,50  L 90,50  Z  M 92,50  L 92,51  L 91,51  L 91,50  Z  M 97,47  L 97,49  L 96,49  L 96,47  Z  M 94,52  L 93,52  L 93,51  L 94,51  Z  M 96,45  L 96,46  L 94,46  L 94,45  Z  M 97,52  L 97,53  L 95,53  L 95,52  Z  M 92,54  L 92,53  L 94,53  L 94,54  Z  M 95,51  L 95,50  L 96,50  L 96,51  Z  M 94,42  L 94,43  L 93,43  L 93,42  Z  " style="fill:rgb(0, 0, 0); fill-opacity:1.000; stroke:none;" />
 <path d="  M 91,72  L 95,72  L 95,73  L 96,73  L 96,76  L 95,76  L 95,77  L 92,77  L 92,76  L 91,76  Z  M 98,74  L 99,74  L 99,73  L 98,73  L 98,72  L 97,72  L 97,70  L 96,70  L 96,69  L 91,69  L 91,70  L 90,70  L 90,71  L 89,71  L 89,72  L 88,72  L 88,73  L 89,73  L 89,74  L 88,74  L 88,77  L 90,77  L 90,79  L 94,79  L 94,80  L 95,80  L 95,79  L 96,79  L 96,78  L 98,78  Z  " style="fill:rgb(0, 0, 0); fill-opacity:1.000; stroke:none;" />
 <path d="  M 114,59  L 114,58  L 100,58  L 100,59  L 101,59  L 101,60  L 105,60  L 105,59  Z  " style="fill:rgb(0, 0, 0); fill-opacity:1.000; stroke:none;" />
 <path d="  M 117,62  L 117,60  L 105,60  L 105,62  Z  " style="fill:rgb(0, 0, 0); fill-opacity:1.000; stroke:none;" />
 <path d="  M 151,109  L 151,108  L 146,108  L 146,109  L 144,109  L 144,110  L 142,110  L 142,112  L 144,112  L 144,111  L 145,111  L 145,110  L 152,110  L 152,111  L 154,111  L 154,112  L 156,112  L 156,111  L 155,111  L 155,110  L 154,110  L 154,109  Z  " style="fill:rgb(0, 0, 0); fill-opacity:1.000; stroke:none;" />
 <path d="  M 147,113  L 150,113  L 150,114  L 152,114  L 152,115  L 153,115  L 153,113  L 152,113  L 152,112  L 145,112  L 145,113  L 144,113  L 144,114  L 145,114  L 145,115  L 146,115  L 146,114  L 147,114  Z  " style="fill:rgb(0, 0, 0); fill-opacity:1.000; stroke:none;" />
 <path d="  M 146,119  L 147,119  L 147,120  L 148,120  L 148,121  L 150,121  L 150,120  L 151,120  L 151,116  L 147,116  L 147,117  L 146,117  Z  " style="fill:rgb(0, 0, 0); fill-opacity:1.000; stroke:none;" />
 <path d="  M 171,109  L 170,109  L 170,111  L 171,111  Z  " style="fill:rgb(0, 0, 0); fill-opacity:1.000; stroke:none;" />
 <path d="  M 172,116  L 173,116  L 173,117  L 174,117  L 174,118  L 175,118  L 175,119  L 176,119  L 176,120  L 177,120  L 177,119  L 178,119  L 178,118  L 179,118  L 179,117  L 180,117  L 180,116  L 181,116  L 181,113  L 179,113  L 179,112  L 178,112  L 178,113  L 175,113  L 175,112  L 173,112  L 173,113  L 172,113  Z  " style="fill:rgb(0, 0, 0); fill-opacity:1.000; stroke:none;" />
 <path d="  M 195,60  L 195,61  L 196,61  L 196,62  L 197,62  L 197,65  L 198,65  L 198,66  L 201,66  L 201,67  L 202,67  L 202,68  L 203,68  L 203,73  L 202,73  L 202,74  L 200,74  L 200,75  L 178,75  L 178,74  L 176,74  L 176,73  L 175,73  L 175,70  L 174,70  L 174,69  L 175,69  L 175,66  L 176,66  L 176,65  L 178,65  L 178,64  L 182,64  L 182,62  L 183,62  L 183,61  L 184,61  L 184,60  L 185,60  L 185,59  L 189,59  L 189,58  L 191,58  L 191,59  L 194,59  L 194,60  Z  M 180,77  L 187,77  L 187,76  L 188,76  L 188,77  L 194,77  L 194,76  L 195,76  L 195,77  L 200,77  L 200,76  L 203,76  L 203,77  L 204,77  L 204,76  L 205,76  L 205,75  L 203,75  L 203,74  L 204,74  L 204,73  L 205,73  L 205,68  L 204,68  L 204,66  L 205,66  L 205,64  L 203,64  L 203,66  L 202,66  L 202,65  L 201,65  L 201,64  L 199,64  L 199,63  L 198,63  L 198,61  L 197,61  L 197,60  L 196,60  L 196,59  L 195,59  L 195,57  L 185,57  L 185,58  L 184,58  L 184,59  L 183,59  L 183,60  L 182,60  L 182,61  L 181,61  L 181,62  L 180,62  L 180,63  L 176,63  L 176,64  L 175,64  L 175,65  L 174,65  L 174,66  L 173,66  L 173,73  L 174,73  L 174,74  L 175,74  L 175,75  L 176,75  L 176,76  L 180,76  Z  " style="fill:rgb(0, 0, 0); fill-opacity:1.000; stroke:none;" />
 <path d="  M 177,111  L 177,110  L 176,110  L 176,109  L 175,109  L 175,111  Z  " style="fill:rgb(0, 0, 0); fill-opacity:1.000; stroke:none;" />
 <path d="  M 178,111  L 179,111  L 179,109  L 178,109  Z  " style="fill:rgb(0, 0, 0); fill-opacity:1.000; stroke:none;" />
 <path d="  M 182,111  L 182,109  L 181,109  L 181,110  L 180,110  L 180,111  Z  " style="fill:rgb(0, 0, 0); fill-opacity:1.000; stroke:none;" />
 <path d="  M 184,109  L 183,109  L 183,111  L 185,111  L 185,110  L 184,110  Z  " style="fill:rgb(0, 0, 0); fill-opacity:1.000; stroke:none;" />
 <path d="  M 196,57  L 196,58  L 197,58  L 197,59  L 198,59  L 198,57  Z  " style="fill:rgb(0, 0, 0); fill-opacity:1.000; stroke:none;" />
 <path d="  M 199,58  L 199,60  L 201,60  L 201,58  Z  " style="fill:rgb(0, 0, 0); fill-opacity:1.000; stroke:none;" />
 <path d="  M 201,61  L 201,62  L 202,62  L 202,63  L 203,63  L 203,61  Z  " style="fill:rgb(0, 0, 0); fill-opacity:1.000; stroke:none;" />
 <path d="  M 206,88  L 206,87  L 205,87  L 205,88  Z  " style="fill:rgb(0, 0, 0); fill-opacity:1.000; stroke:none;" />
 <path d="  M 205,91  L 205,93  L 206,93  L 206,91  Z  " style="fill:rgb(0, 0, 0); fill-opacity:1.000; stroke:none;" />
 <path d="  M 207,67  L 208,67  L 208,65  L 206,65  L 206,66  L 207,66  Z  " style="fill:rgb(0, 0, 0); fill-opacity:1.000; stroke:none;" />
 <path d="  M 206,74  L 206,76  L 207,76  L 207,75  L 208,75  L 208,74  Z  " style="fill:rgb(0, 0, 0); fill-opacity:1.000; stroke:none;" />
 <path d="  M 207,94  L 206,94  L 206,95  L 207,95  Z  " style="fill:rgb(0, 0, 0); fill-opacity:1.000; stroke:none;" />
 <path d="  M 209,69  L 209,70  L 210,70  L 210,68  L 208,68  L 208,69  Z  " style="fill:rgb(0, 0, 0); fill-opacity:1.000; stroke:none;" />
 <path d="  M 208,73  L 210,73  L 210,71  L 208,71  Z  " style="fill:rgb(0, 0, 0); fill-opacity:1.000; stroke:none;" />
 <path d="  M 210,96  L 208,96  L 208,97  L 210,97  Z  " style="fill:rgb(0, 0, 0); fill-opacity:1.000; stroke:none;" />
 <path d="  M 220,41  L 220,40  L 232,40  L 232,41  L 231,41  L 231,43  L 230,43  L 230,45  L 229,45  L 229,50  L 230,50  L 230,51  L 231,51  L 231,52  L 232,52  L 232,55  L 233,55  L 233,58  L 234,58  L 234,60  L 235,60  L 235,62  L 236,62  L 236,64  L 237,64  L 237,66  L 238,66  L 238,64  L 239,64  L 239,62  L 240,62  L 240,60  L 241,60  L 241,58  L 242,58  L 242,55  L 243,55  L 243,53  L 244,53  L 244,51  L 245,51  L 245,50  L 246,50  L 246,44  L 245,44  L 245,43  L 244,43  L 244,40  L 255,40  L 255,41  L 259,41  L 259,38  L 258,38  L 258,37  L 261,37  L 261,38  L 263,38  L 263,37  L 265,37  L 265,36  L 264,36  L 264,35  L 249,35  L 249,37  L 250,37  L 250,38  L 243,38  L 243,36  L 242,36  L 242,35  L 234,35  L 234,36  L 233,36  L 233,37  L 232,37  L 232,38  L 225,38  L 225,37  L 226,37  L 226,35  L 211,35  L 211,36  L 210,36  L 210,37  L 212,37  L 212,38  L 214,38  L 214,37  L 218,37  L 218,38  L 216,38  L 216,41  Z  M 233,47  L 232,47  L 232,49  L 231,49  L 231,44  L 232,44  L 232,43  L 243,43  L 243,44  L 244,44  L 244,48  L 243,48  L 243,47  L 242,47  L 242,46  L 241,46  L 241,45  L 240,45  L 240,44  L 235,44  L 235,45  L 234,45  L 234,46  L 233,46  Z  M 235,53  L 235,54  L 236,54  L 236,55  L 239,55  L 239,54  L 240,54  L 240,53  L 241,53  L 241,56  L 240,56  L 240,58  L 239,58  L 239,60  L 238,60  L 238,62  L 237,62  L 237,60  L 236,60  L 236,58  L 235,58  L 235,56  L 234,56  L 234,53  Z  M 219,37  L 223,37  L 223,38  L 219,38  Z  M 233,52  L 234,52  L 234,53  L 233,53  Z  M 252,38  L 252,37  L 256,37  L 256,38  Z  M 233,48  L 234,48  L 234,50  L 233,50  Z  M 240,46  L 240,47  L 238,47  L 238,46  Z  M 241,49  L 241,48  L 242,48  L 242,49  Z  M 241,53  L 241,52  L 242,52  L 242,53  Z  M 225,39  L 224,39  L 224,38  L 225,38  Z  M 235,46  L 237,46  L 237,47  L 235,47  Z  M 250,38  L 251,38  L 251,39  L 250,39  Z  M 234,47  L 235,47  L 235,48  L 234,48  Z  M 241,48  L 240,48  L 240,47  L 241,47  Z  " style="fill:rgb(0, 0, 0); fill-opacity:1.000; stroke:none;" />
 <path d="  M 211,98  L 212,98  L 212,96  L 211,96  Z  " style="fill:rgb(0, 0, 0); fill-opacity:1.000; stroke:none;" />
 <path d="  M 213,84  L 213,83  L 212,83  L 212,84  Z  " style="fill:rgb(0, 0, 0); fill-opacity:1.000; stroke:none;" />
 <path d="  M 215,97  L 215,96  L 213,96  L 213,97  Z  " style="fill:rgb(0, 0, 0); fill-opacity:1.000; stroke:none;" />
 <path d="  M 216,85  L 216,84  L 215,84  L 215,83  L 214,83  L 214,85  Z  " style="fill:rgb(0, 0, 0); fill-opacity:1.000; stroke:none;" />
 <path d="  M 222,58  L 222,55  L 216,55  L 216,56  L 215,56  L 215,61  L 222,61  L 222,62  L 219,62  L 219,64  L 225,64  L 225,58  Z  " style="fill:rgb(0, 0, 0); fill-opacity:1.000; stroke:none;" />
 <path d="  M 216,85  L 216,86  L 218,86  L 218,85  Z  " style="fill:rgb(0, 0, 0); fill-opacity:1.000; stroke:none;" />
 <path d="  M 216,95  L 216,96  L 217,96  L 217,95  Z  " style="fill:rgb(0, 0, 0); fill-opacity:1.000; stroke:none;" />
 <path d="  M 217,94  L 219,94  L 219,93  L 217,93  Z  " style="fill:rgb(0, 0, 0); fill-opacity:1.000; stroke:none;" />
 <path d="  M 218,87  L 218,89  L 219,89  L 219,87  Z  " style="fill:rgb(0, 0, 0); fill-opacity:1.000; stroke:none;" />
 <path d="  M 220,91  L 220,90  L 218,90  L 218,91  Z  " style="fill:rgb(0, 0, 0); fill-opacity:1.000; stroke:none;" />
 <path d="  M 234,114  L 234,115  L 235,115  L 235,116  L 238,116  L 238,115  L 236,115  L 236,114  Z  " style="fill:rgb(0, 0, 0); fill-opacity:1.000; stroke:none;" />
 <path d="  M 251,94  L 251,95  L 250,95  L 250,96  L 248,96  L 248,97  L 247,97  L 247,98  L 246,98  L 246,99  L 244,99  L 244,100  L 243,100  L 243,101  L 242,101  L 242,102  L 240,102  L 240,104  L 242,104  L 242,103  L 245,103  L 245,102  L 247,102  L 247,101  L 250,101  L 250,100  L 252,100  L 252,99  L 254,99  L 254,98  L 257,98  L 257,97  L 259,97  L 259,96  L 260,96  L 260,95  L 261,95  L 261,93  L 262,93  L 262,91  L 261,91  L 261,90  L 256,90  L 256,91  L 255,91  L 255,92  L 254,92  L 254,93  L 252,93  L 252,94  Z  M 260,92  L 260,93  L 259,93  L 259,95  L 257,95  L 257,96  L 255,96  L 255,97  L 252,97  L 252,98  L 250,98  L 250,97  L 251,97  L 251,96  L 252,96  L 252,95  L 254,95  L 254,94  L 255,94  L 255,93  L 256,93  L 256,92  Z  M 248,100  L 247,100  L 247,99  L 248,99  Z  M 250,99  L 248,99  L 248,98  L 250,98  Z  " style="fill:rgb(0, 0, 0); fill-opacity:1.000; stroke:none;" />
 <path d="  M 249,82  L 249,83  L 248,83  L 248,84  L 250,84  L 250,82  Z  " style="fill:rgb(0, 0, 0); fill-opacity:1.000; stroke:none;" />
 <path d="  M 249,88  L 249,85  L 248,85  L 248,88  Z  " style="fill:rgb(0, 0, 0); fill-opacity:1.000; stroke:none;" />
 <path d="  M 250,81  L 251,81  L 251,80  L 252,80  L 252,79  L 250,79  Z  " style="fill:rgb(0, 0, 0); fill-opacity:1.000; stroke:none;" />
 <path d="  M 255,114  L 253,114  L 253,115  L 251,115  L 251,117  L 253,117  L 253,116  L 254,116  L 254,115  L 255,115  Z  " style="fill:rgb(0, 0, 0); fill-opacity:1.000; stroke:none;" />
 <path d="  M 254,76  L 252,76  L 252,78  L 254,78  Z  " style="fill:rgb(0, 0, 0); fill-opacity:1.000; stroke:none;" />
 <path d="  M 255,74  L 255,76  L 256,76  L 256,75  L 257,75  L 257,74  Z  " style="fill:rgb(0, 0, 0); fill-opacity:1.000; stroke:none;" />
 <path d="  M 255,110  L 256,110  L 256,111  L 257,111  L 257,107  L 255,107  Z  " style="fill:rgb(0, 0, 0); fill-opacity:1.000; stroke:none;" />
 <path d="  M 255,112  L 255,114  L 258,114  L 258,113  L 257,113  L 257,112  Z  " style="fill:rgb(0, 0, 0); fill-opacity:1.000; stroke:none;" />
 <path d="  M 258,72  L 258,74  L 260,74  L 260,72  Z  " style="fill:rgb(0, 0, 0); fill-opacity:1.000; stroke:none;" />
 <path d="  M 261,115  L 260,115  L 260,114  L 258,114  L 258,116  L 260,116  L 260,117  L 262,117  L 262,116  L 261,116  Z  " style="fill:rgb(0, 0, 0); fill-opacity:1.000; stroke:none;" />
 <path d="  M 267,83  L 268,83  L 268,81  L 269,81  L 269,79  L 268,79  L 268,70  L 267,70  L 267,62  L 266,62  L 266,60  L 265,60  L 265,61  L 264,61  L 264,69  L 263,69  L 263,77  L 262,77  L 262,82  L 263,82  L 263,83  L 264,83  L 264,84  L 265,84  L 265,85  L 266,85  L 266,84  L 267,84  Z  M 265,82  L 264,82  L 264,74  L 265,74  L 265,68  L 266,68  L 266,76  L 267,76  L 267,81  L 266,81  L 266,83  L 265,83  Z  " style="fill:rgb(0, 0, 0); fill-opacity:1.000; stroke:none;" />
 <path d="  M 264,87  L 264,88  L 263,88  L 263,90  L 264,90  L 264,91  L 267,91  L 267,87  Z  " style="fill:rgb(0, 0, 0); fill-opacity:1.000; stroke:none;" />
 <path d="  M 281,98  L 282,98  L 282,99  L 280,99  L 280,98  L 278,98  L 278,97  L 275,97  L 275,96  L 273,96  L 273,95  L 271,95  L 271,92  L 274,92  L 274,93  L 275,93  L 275,94  L 277,94  L 277,95  L 278,95  L 278,96  L 279,96  L 279,97  L 281,97  Z  M 287,100  L 286,100  L 286,99  L 285,99  L 285,98  L 283,98  L 283,97  L 282,97  L 282,96  L 281,96  L 281,95  L 279,95  L 279,94  L 278,94  L 278,93  L 277,93  L 277,92  L 275,92  L 275,91  L 274,91  L 274,90  L 271,90  L 271,91  L 269,91  L 269,94  L 270,94  L 270,96  L 271,96  L 271,97  L 273,97  L 273,98  L 276,98  L 276,99  L 278,99  L 278,100  L 280,100  L 280,101  L 283,101  L 283,102  L 285,102  L 285,103  L 288,103  L 288,104  L 291,104  L 291,103  L 290,103  L 290,102  L 289,102  L 289,101  L 287,101  Z  M 282,100  L 282,99  L 283,99  L 283,100  Z  " style="fill:rgb(0, 0, 0); fill-opacity:1.000; stroke:none;" />
 <path d="  M 272,115  L 273,115  L 273,114  L 271,114  L 271,115  L 270,115  L 270,116  L 269,116  L 269,117  L 271,117  L 271,116  L 272,116  Z  " style="fill:rgb(0, 0, 0); fill-opacity:1.000; stroke:none;" />
 <path d="  M 273,74  L 273,75  L 274,75  L 274,73  L 272,73  L 272,74  Z  " style="fill:rgb(0, 0, 0); fill-opacity:1.000; stroke:none;" />
 <path d="  M 273,112  L 273,114  L 276,114  L 276,113  L 275,113  L 275,112  Z  " style="fill:rgb(0, 0, 0); fill-opacity:1.000; stroke:none;" />
 <path d="  M 274,107  L 274,111  L 275,111  L 275,107  Z  " style="fill:rgb(0, 0, 0); fill-opacity:1.000; stroke:none;" />
 <path d="  M 275,75  L 275,76  L 276,76  L 276,77  L 277,77  L 277,75  Z  " style="fill:rgb(0, 0, 0); fill-opacity:1.000; stroke:none;" />
 <path d="  M 279,115  L 278,115  L 278,114  L 276,114  L 276,116  L 278,116  L 278,117  L 280,117  L 280,116  L 279,116  Z  " style="fill:rgb(0, 0, 0); fill-opacity:1.000; stroke:none;" />
 <path d="  M 279,78  L 279,77  L 278,77  L 278,79  L 280,79  L 280,78  Z  " style="fill:rgb(0, 0, 0); fill-opacity:1.000; stroke:none;" />
 <path d="  M 281,82  L 281,80  L 280,80  L 280,82  Z  " style="fill:rgb(0, 0, 0); fill-opacity:1.000; stroke:none;" />
 <path d="  M 283,85  L 283,84  L 282,84  L 282,83  L 281,83  L 281,86  L 282,86  L 282,85  Z  " style="fill:rgb(0, 0, 0); fill-opacity:1.000; stroke:none;" />
 <path d="  M 282,88  L 282,89  L 283,89  L 283,87  L 281,87  L 281,88  Z  " style="fill:rgb(0, 0, 0); fill-opacity:1.000; stroke:none;" />
 <path d="  M 288,58  L 288,59  L 290,59  L 290,60  L 291,60  L 291,62  L 292,62  L 292,63  L 293,63  L 293,64  L 290,64  L 290,63  L 288,63  L 288,62  L 287,62  L 287,61  L 286,61  L 286,56  L 287,56  L 287,55  L 288,55  L 288,54  L 294,54  L 294,55  L 295,55  L 295,56  L 293,56  L 293,57  L 291,57  L 291,56  L 290,56  L 290,55  L 289,55  L 289,56  L 288,56  L 288,57  L 287,57  L 287,58  Z  M 289,64  L 289,65  L 294,65  L 294,64  L 295,64  L 295,63  L 296,63  L 296,62  L 297,62  L 297,60  L 298,60  L 298,58  L 297,58  L 297,55  L 296,55  L 296,54  L 295,54  L 295,53  L 293,53  L 293,52  L 289,52  L 289,53  L 287,53  L 287,54  L 286,54  L 286,56  L 285,56  L 285,62  L 286,62  L 286,63  L 287,63  L 287,64  Z  M 296,61  L 295,61  L 295,59  L 293,59  L 293,58  L 294,58  L 294,57  L 295,57  L 295,56  L 296,56  Z  M 289,58  L 289,57  L 290,57  L 290,58  Z  M 294,60  L 294,61  L 292,61  L 292,60  Z  " style="fill:rgb(0, 0, 0); fill-opacity:1.000; stroke:none;" />
 <path d="  M 288,61  L 288,62  L 289,62  L 289,61  Z  " style="fill:rgb(0, 0, 0); fill-opacity:1.000; stroke:none;" />
 <path d="  M 290,60  L 289,60  L 289,61  L 290,61  Z  " style="fill:rgb(0, 0, 0); fill-opacity:1.000; stroke:none;" />
 <path d="  M 293,94  L 292,94  L 292,96  L 293,96  L 293,97  L 294,97  L 294,98  L 295,98  L 295,99  L 297,99  L 297,98  L 296,98  L 296,97  L 295,97  L 295,96  L 294,96  L 294,95  L 293,95  Z  " style="fill:rgb(0, 0, 0); fill-opacity:1.000; stroke:none;" />
 <path d="  M 311,77  L 311,76  L 297,76  L 297,77  Z  " style="fill:rgb(0, 0, 0); fill-opacity:1.000; stroke:none;" />
 <path d="  M 302,80  L 314,80  L 314,78  L 302,78  Z  " style="fill:rgb(0, 0, 0); fill-opacity:1.000; stroke:none;" />
 <path d="  M 305,96  L 306,96  L 306,90  L 305,90  Z  " style="fill:rgb(0, 0, 0); fill-opacity:1.000; stroke:none;" />
 <path d="  M 319,96  L 319,95  L 318,95  L 318,94  L 317,94  L 317,96  L 316,96  L 316,97  L 315,97  L 315,98  L 314,98  L 314,99  L 316,99  L 316,98  L 317,98  L 317,97  L 318,97  L 318,96  Z  " style="fill:rgb(0, 0, 0); fill-opacity:1.000; stroke:none;" />
</svg>
