<?xml version="1.0" ?>
<!-- Uploaded to: SVG Repo, www.svgrepo.com, Generator: SVG Repo Mixer Tools -->
<svg width="800px" height="800px" viewBox="0 0 64 64" id="Layer_1" version="1.1" xml:space="preserve" xmlns="http://www.w3.org/2000/svg" xmlns:xlink="http://www.w3.org/1999/xlink">
<style type="text/css">
	.st0{fill:#7D828C;}
	.st1{fill:#5C6373;}
	.st2{fill:#A4A5A6;}
</style>
<g id="Layer_7">
<polyline class="st0" points="9,48 2,48 2,62 6,62 6,52 12,52  "/>
<polyline class="st0" points="43,48 50,48 50,62 46,62 46,52 40,52  "/>
<polyline class="st1" points="16,55 16,62 36,62 36,55  "/>
<polyline class="st1" points="58,40 58,58 54,58 54,40  "/>
<path class="st1" d="M58,30V8c0-3.3-2.7-6-6-6H30c-3.3,0-6,2.7-6,6v2h4V8c0-1.1,0.9-2,2-2h22c1.1,0,2,0.9,2,2v22"/>
<polyline class="st2" points="21,14 21,10 31,10 31,14  "/>
<polyline class="st0" points="19,20 19,14 33,14 33,20  "/>
<circle class="st2" cx="26" cy="38" r="20"/>
<circle class="st0" cx="56" cy="35" r="6"/>
<circle class="st2" cx="56" cy="35" r="2"/>
<rect class="st1" height="2" width="4" x="2" y="57"/>
<rect class="st1" height="2" width="4" x="46" y="57"/>
<rect class="st0" height="4" width="8" x="54" y="58"/>
<path class="st2" d="M57,29.1V33h-2v-3.9C55.7,29,56.3,29,57,29.1z"/>
<path class="st2" d="M50.1,36H54v-2h-3.9C50,34.7,50,35.3,50.1,36z"/>
<path class="st2" d="M61.9,36H58v-2h3.9C62,34.7,62,35.3,61.9,36z"/>
<path class="st2" d="M57,40.9V37h-2v3.9C55.7,41,56.3,41,57,40.9z"/>
<rect class="st1" height="30" width="2" x="18" y="19"/>
<rect class="st1" height="30" width="2" x="12" y="19"/>
<rect class="st1" height="2" width="6" x="13" y="25"/>
<rect class="st1" height="2" width="6" x="13" y="29"/>
<rect class="st1" height="2" width="6" x="13" y="33"/>
<rect class="st1" height="2" width="6" x="13" y="37"/>
<rect class="st1" height="2" width="6" x="13" y="41"/>
<rect class="st1" height="2" width="6" x="13" y="45"/>
<path class="st1" d="M46,37.4L26.6,18c1.1,0,2.1,0.1,3.2,0.3l15.9,15.9C45.9,35.3,46,36.3,46,37.4z"/>
<path class="st1" d="M45.4,42.8L21.2,18.6c0.8-0.2,1.6-0.3,2.4-0.4l22.3,22.3C45.8,41.2,45.6,42,45.4,42.8z"/>
<path class="st1" d="M56,38c-1.7,0-3-1.3-3-3s1.3-3,3-3s3,1.3,3,3S57.7,38,56,38z M56,34c-0.6,0-1,0.4-1,1s0.4,1,1,1s1-0.4,1-1   S56.6,34,56,34z"/>
</g>
</svg>