<?xml version="1.0" encoding="iso-8859-1"?>
<!-- Generator: Adobe Illustrator 18.1.1, SVG Export Plug-In . SVG Version: 6.00 Build 0)  -->
<svg version="1.1" id="Capa_1" xmlns="http://www.w3.org/2000/svg" xmlns:xlink="http://www.w3.org/1999/xlink" x="0px" y="0px"
	 viewBox="0 0 267.874 267.874" style="enable-background:new 0 0 267.874 267.874;" xml:space="preserve">
<g>
	<path style="fill:#010002;" d="M256.996,49.066H10.878C4.873,49.066,0,53.939,0,59.944V207.93c0,6.005,4.873,10.878,10.878,10.878
		h246.118c6.005,0,10.878-4.873,10.878-10.878V59.944C267.874,53.939,263.006,49.066,256.996,49.066z M106.089,173.452
		c0,6.005-4.868,10.878-10.878,10.878H42.708c-6.005,0-10.878-4.873-10.878-10.878v-49.854c0-6.005,4.873-10.878,10.878-10.878
		h52.503c6.01,0,10.878,4.873,10.878,10.878V173.452z M228.093,192.488h-94.156c-4.509,0-8.159-3.655-8.159-8.159
		s3.65-8.159,8.159-8.159h94.156c4.509,0,8.159,3.655,8.159,8.159C236.251,188.839,232.596,192.488,228.093,192.488z
		 M228.093,156.683h-94.156c-4.509,0-8.159-3.655-8.159-8.159s3.65-8.159,8.159-8.159h94.156c4.509,0,8.159,3.655,8.159,8.159
		C236.251,153.034,232.596,156.683,228.093,156.683z M228.093,120.878h-94.156c-4.509,0-8.159-3.655-8.159-8.159
		s3.65-8.159,8.159-8.159h94.156c4.509,0,8.159,3.655,8.159,8.159C236.251,117.228,232.596,120.878,228.093,120.878z
		 M228.093,89.668H31.829c-4.509,0-8.159-3.655-8.159-8.159s3.65-8.159,8.159-8.159h196.263c4.509,0,8.159,3.655,8.159,8.159
		C236.251,86.013,232.596,89.668,228.093,89.668z"/>
</g>
<g>
</g>
<g>
</g>
<g>
</g>
<g>
</g>
<g>
</g>
<g>
</g>
<g>
</g>
<g>
</g>
<g>
</g>
<g>
</g>
<g>
</g>
<g>
</g>
<g>
</g>
<g>
</g>
<g>
</g>
</svg>
