<?xml version="1.0" encoding="iso-8859-1"?>
<!-- Generator: Adobe Illustrator 16.0.0, SVG Export Plug-In . SVG Version: 6.00 Build 0)  -->
<!DOCTYPE svg PUBLIC "-//W3C//DTD SVG 1.1//EN" "http://www.w3.org/Graphics/SVG/1.1/DTD/svg11.dtd">
<svg version="1.1" id="Capa_1" xmlns="http://www.w3.org/2000/svg" xmlns:xlink="http://www.w3.org/1999/xlink" x="0px" y="0px"
	 width="163.729px" height="163.73px" viewBox="0 0 163.729 163.73" style="enable-background:new 0 0 163.729 163.73;"
	 xml:space="preserve">
<g>
	<path d="M158.798,111.356l-5.505-9.532c2.222-2.594,4.043-5.488,5.505-8.592V111.356z M139.229,127.875l-7.792-13.505
		c-2.285,0.427-4.605,0.728-6.938,0.728c-9.434,0-18.352-3.573-25.237-9.634h-85.53c-4.48,0-8.129-3.641-8.129-8.133V26.68
		c0-4.482,3.648-8.129,8.129-8.129h131.333c4.484,0,8.13,3.647,8.13,8.129v25.578c1.545,1.79,2.998,3.677,4.202,5.763
		c0.515,0.894,0.963,1.814,1.401,2.732V26.68c0-7.554-6.184-13.732-13.733-13.732H13.732C6.182,12.948,0,19.125,0,26.68v87.461
		c0,7.558,6.187,13.734,13.732,13.734h60.069v11.699H31.776l-5.603,5.605v5.602h106.463v-5.602l-5.604-5.605H85.007v-11.699H139.229
		z M153.764,60.116c9.335,16.165,3.777,36.908-12.388,46.244c-16.177,9.335-36.914,3.775-46.251-12.39
		c-9.335-16.161-3.773-36.902,12.391-46.237C123.68,38.404,144.43,43.949,153.764,60.116z M143.894,63.684
		c0,0.417,0.195,0.629,0.622,0.629c0.405,0,0.624-0.208,0.624-0.629v-5.396c0-0.421-0.219-0.626-0.624-0.626
		c-0.427,0-0.622,0.206-0.622,0.626V63.684z M103.738,63.684c0,0.417,0.21,0.629,0.626,0.629s0.621-0.208,0.621-0.629v-5.396
		c0-0.421-0.205-0.626-0.621-0.626s-0.626,0.206-0.626,0.626V63.684z M148.894,62.923c-0.668-1.166-1.499-2.175-2.31-3.207v3.754
		c0,0.64-0.202,1.154-0.618,1.519c-0.41,0.372-0.909,0.561-1.456,0.561c-0.563,0-1.045-0.189-1.461-0.561
		c-0.397-0.364-0.618-0.872-0.618-1.519v-4.908c0-0.695,0.221-1.221,0.618-1.59c0.219-0.191,0.522-0.197,0.771-0.293
		c-8.841-8.394-22.424-10.495-33.503-4.095c-1.983,1.149-3.721,2.555-5.321,4.079c0.285,0.09,0.586,0.107,0.821,0.315
		c0.416,0.369,0.635,0.895,0.635,1.589v4.908c0,0.642-0.219,1.155-0.635,1.521c-0.416,0.369-0.897,0.558-1.453,0.558
		c-0.561,0-1.042-0.189-1.47-0.558c-0.393-0.367-0.612-0.875-0.612-1.521v-3.871c-6.916,8.815-8.24,21.29-2.298,31.571
		c1.051,1.805,2.298,3.437,3.655,4.93v-7.567h1.457v8.909c8.841,8.36,22.403,10.45,33.479,4.064
		c1.957-1.121,3.652-2.489,5.229-3.979v-8.984h1.451v7.433C153.271,87.125,155.188,73.815,148.894,62.923z M149.884,104.28
		l-14.562,8.406l11.209,19.408l14.564-8.41L149.884,104.28z M162.595,126.327l-14.564,8.405c2.329,4.027,7.462,5.396,11.491,3.075
		C163.547,135.477,164.928,130.343,162.595,126.327z M118.479,56.417h-1.456v9.133h1.456V56.417z M119.202,73.035
		c0.416,0.372,0.623,0.898,0.623,1.587v4.914c0,0.646-0.207,1.155-0.623,1.527c-0.416,0.366-0.909,0.552-1.456,0.552
		c-0.556,0-1.05-0.186-1.456-0.552c-0.415-0.372-0.612-0.881-0.612-1.527v-4.914c0-0.689,0.197-1.215,0.612-1.587
		c0.396-0.369,0.9-0.558,1.456-0.558C118.293,72.477,118.774,72.666,119.202,73.035z M118.376,74.349
		c0-0.416-0.209-0.625-0.624-0.625c-0.411,0-0.618,0.208-0.618,0.625v5.4c0,0.413,0.207,0.624,0.618,0.624
		c0.415,0,0.624-0.21,0.624-0.624V74.349z M119.202,89.095c0.416,0.362,0.623,0.897,0.623,1.587v4.914
		c0,0.635-0.207,1.155-0.623,1.521c-0.416,0.367-0.909,0.559-1.456,0.559c-0.556,0-1.05-0.187-1.456-0.559
		c-0.415-0.361-0.612-0.875-0.612-1.521v-4.914c0-0.689,0.197-1.225,0.612-1.587c0.396-0.36,0.9-0.558,1.456-0.558
		C118.293,88.538,118.774,88.735,119.202,89.095z M118.376,90.41c0-0.417-0.209-0.624-0.624-0.624c-0.411,0-0.618,0.207-0.618,0.624
		v5.395c0,0.416,0.207,0.624,0.618,0.624c0.415,0,0.624-0.208,0.624-0.624V90.41z M105.817,73.035
		c0.405,0.372,0.624,0.898,0.624,1.587v4.914c0,0.646-0.219,1.155-0.624,1.527c-0.416,0.366-0.906,0.552-1.453,0.552
		c-0.569,0-1.051-0.186-1.47-0.552c-0.402-0.372-0.612-0.881-0.612-1.527v-4.914c0-0.689,0.21-1.215,0.612-1.587
		c0.419-0.369,0.9-0.558,1.47-0.558C104.911,72.477,105.401,72.666,105.817,73.035z M104.996,74.349
		c0-0.416-0.216-0.625-0.628-0.625c-0.415,0-0.625,0.208-0.625,0.625v5.4c0,0.413,0.21,0.624,0.625,0.624
		c0.412,0,0.628-0.21,0.628-0.624V74.349z M132.586,56.973c0.416,0.369,0.624,0.895,0.624,1.59v4.908
		c0,0.64-0.208,1.154-0.624,1.519c-0.421,0.372-0.902,0.561-1.453,0.561c-0.561,0-1.051-0.189-1.457-0.561
		c-0.416-0.364-0.625-0.872-0.625-1.519v-4.908c0-0.695,0.209-1.221,0.625-1.59c0.406-0.37,0.896-0.556,1.457-0.556
		C131.684,56.417,132.165,56.609,132.586,56.973z M131.768,58.288c0-0.421-0.221-0.626-0.635-0.626c-0.412,0-0.62,0.206-0.62,0.626
		v5.396c0,0.417,0.208,0.629,0.62,0.629c0.414,0,0.635-0.208,0.635-0.629V58.288z M132.586,73.035
		c0.416,0.372,0.624,0.898,0.624,1.587v4.914c0,0.646-0.208,1.155-0.624,1.527c-0.421,0.366-0.902,0.552-1.453,0.552
		c-0.561,0-1.051-0.186-1.457-0.552c-0.416-0.372-0.625-0.881-0.625-1.527v-4.914c0-0.689,0.209-1.215,0.625-1.587
		c0.406-0.369,0.896-0.558,1.457-0.558C131.684,72.477,132.165,72.666,132.586,73.035z M131.768,74.349
		c0-0.416-0.221-0.625-0.635-0.625c-0.412,0-0.62,0.208-0.62,0.625v5.4c0,0.413,0.208,0.624,0.62,0.624
		c0.414,0,0.635-0.21,0.635-0.624V74.349z M130.409,97.666h1.455v-9.128h-1.455V97.666z M145.971,73.035
		c0.405,0.372,0.613,0.898,0.613,1.587v4.914c0,0.646-0.208,1.155-0.613,1.527c-0.415,0.366-0.906,0.552-1.455,0.552
		c-0.569,0-1.051-0.186-1.467-0.552c-0.402-0.372-0.622-0.881-0.622-1.527v-4.914c0-0.689,0.22-1.215,0.622-1.587
		c0.416-0.369,0.897-0.558,1.467-0.558C145.064,72.477,145.556,72.666,145.971,73.035z M145.14,74.349
		c0-0.416-0.209-0.625-0.619-0.625c-0.427,0-0.623,0.208-0.623,0.625v5.4c0,0.413,0.196,0.624,0.623,0.624
		c0.41,0,0.619-0.21,0.619-0.624V74.349z"/>
</g>
<g>
</g>
<g>
</g>
<g>
</g>
<g>
</g>
<g>
</g>
<g>
</g>
<g>
</g>
<g>
</g>
<g>
</g>
<g>
</g>
<g>
</g>
<g>
</g>
<g>
</g>
<g>
</g>
<g>
</g>
</svg>
