<?xml version="1.0" encoding="iso-8859-1"?>
<!-- Generator: Adobe Illustrator 16.0.0, SVG Export Plug-In . SVG Version: 6.00 Build 0)  -->
<!DOCTYPE svg PUBLIC "-//W3C//DTD SVG 1.1//EN" "http://www.w3.org/Graphics/SVG/1.1/DTD/svg11.dtd">
<svg version="1.1" id="Capa_1" xmlns="http://www.w3.org/2000/svg" xmlns:xlink="http://www.w3.org/1999/xlink" x="0px" y="0px"
	 width="415.958px" height="415.958px" viewBox="0 0 415.958 415.958" style="enable-background:new 0 0 415.958 415.958;"
	 xml:space="preserve">
<g>
	<path d="M413.257,345.15l-92.718-148.957l18.395-11.741c2.619-1.672,3.955-4.109,3.665-6.687c-0.29-2.58-2.135-4.657-5.061-5.704
		l-59.785-21.376c-2.588-0.925-5.309-0.656-7.456,0.738c-2.15,1.395-3.5,3.77-3.708,6.513l-4.715,62.428
		c-0.234,3.082,0.909,5.613,3.136,6.946c0.98,0.586,2.066,0.876,3.198,0.876c1.437,0,2.947-0.471,4.406-1.4l16.539-10.559
		l44.843,70.254c0.834,1.305,2.247,2.02,3.689,2.02c0.804,0,1.619-0.223,2.348-0.688c2.036-1.299,2.632-4.004,1.333-6.039
		l-47.194-73.936c-1.984-3.188-3.999-2.63-6.038-1.333l-17.275,11.028l4.424-58.449l55.858,19.97l-18.362,11.721
		c-0.042,0.028-0.075,0.065-0.117,0.093c-0.012,0.007-0.027,0.007-0.04,0.014c-2.92,1.61-3.876,2.922-2.565,4.999l95.783,153.891
		c1.277,2.051,1.714,3.969,1.141,5.002c-0.575,1.033-2.433,1.676-4.851,1.676h-94.423c-2.415,0-4.371,1.957-4.371,4.371
		s1.956,4.371,4.371,4.371h94.423c5.76,0,10.313-2.25,12.493-6.174C416.796,355.097,416.3,350.042,413.257,345.15z"/>
	<path d="M262.436,101.445l-45.792-72.38c-3.033-4.796-7.472-7.451-12.068-7.468c-4.635,0.05-8.974,2.869-11.901,7.732
		l-73.445,121.993l-17.606-12.116c-2.558-1.763-5.326-2.044-7.585-0.771c-2.261,1.271-3.458,3.781-3.282,6.883l3.586,63.391
		c0.156,2.746,1.462,5.145,3.584,6.581c1.336,0.904,2.905,1.366,4.534,1.366c0.96,0,1.941-0.161,2.908-0.486l59.338-19.963
		c2.931-0.986,4.817-3.023,5.178-5.592c0.36-2.567-0.896-5.046-3.441-6.8l-16.166-11.124l47.25-68.656
		c1.369-1.99,0.866-4.71-1.123-6.08c-1.992-1.371-4.71-0.864-6.08,1.123l-49.729,72.256c-1.742,2.444-0.866,4.71,1.123,6.08
		l16.884,11.619l-55.561,18.682l-3.35-59.226c0,0,17.552,12.368,18.589,12.883c0.738,0.367,3.709,2.445,6-1.49l75.884-126.042
		c1.329-2.207,2.973-3.481,4.508-3.499c1.602,0.007,3.207,1.222,4.583,3.397l45.791,72.38c1.292,2.041,3.994,2.647,6.031,1.357
		C263.117,106.186,263.726,103.484,262.436,101.445z"/>
	<path d="M261.405,340.332l-50.084-37.562c-2.474-1.855-5.223-2.254-7.542-1.094c-2.319,1.16-3.649,3.598-3.649,6.689v19.623
		h-83.344c-2.415,0-4.372,1.955-4.372,4.371c0,2.414,1.957,4.371,4.372,4.371h87.715c3.53,0.049,4.371-1.957,4.371-4.371v-20.496
		l46.888,35.178l-46.888,36.338c0,0,0.033-22.367,0.033-22.555c0-2.416-0.874-4.289-4.371-4.371H13.941
		c-2.467,0-4.309-0.65-4.924-1.74c-0.615-1.09-0.222-3.002,1.049-5.117l59.64-99.064c1.245-2.068,0.579-4.754-1.49-6
		c-2.072-1.246-4.754-0.578-5.999,1.49L2.575,345.083c-2.964,4.924-3.391,10.002-1.17,13.928c2.221,3.928,6.788,6.182,12.536,6.182
		H200.13v21.857c0,3.107,1.336,5.545,3.665,6.686c0.854,0.418,1.763,0.625,2.693,0.625c1.608,0,3.28-0.617,4.837-1.822
		l50.186-38.893c2.175-1.684,3.409-4.121,3.389-6.686C264.88,344.398,263.607,341.982,261.405,340.332z"/>
</g>
<g>
</g>
<g>
</g>
<g>
</g>
<g>
</g>
<g>
</g>
<g>
</g>
<g>
</g>
<g>
</g>
<g>
</g>
<g>
</g>
<g>
</g>
<g>
</g>
<g>
</g>
<g>
</g>
<g>
</g>
</svg>
