<?xml version="1.0" encoding="iso-8859-1"?>
<!-- Generator: Adobe Illustrator 16.0.0, SVG Export Plug-In . SVG Version: 6.00 Build 0)  -->
<!DOCTYPE svg PUBLIC "-//W3C//DTD SVG 1.1//EN" "http://www.w3.org/Graphics/SVG/1.1/DTD/svg11.dtd">
<svg version="1.1" id="Capa_1" xmlns="http://www.w3.org/2000/svg" xmlns:xlink="http://www.w3.org/1999/xlink" x="0px" y="0px"
	 width="461.848px" height="461.848px" viewBox="0 0 461.848 461.848" style="enable-background:new 0 0 461.848 461.848;"
	 xml:space="preserve">
<g>
	<g>
		<path d="M327.562,0H48.795c-6.903,0-12.5,5.596-12.5,12.5v436.848c0,6.904,5.597,12.5,12.5,12.5h278.768
			c6.904,0,12.5-5.596,12.5-12.5v-64.575c0.215,0.018,0.424,0.044,0.641,0.051l15.283,0.428v21.673
			c0,19.18,15.605,34.783,34.783,34.783c19.18,0,34.783-15.604,34.783-34.783V243.867c0-1.87-0.42-3.717-1.229-5.403l-16.271-33.95
			v-67.59c0-2.087-0.523-4.141-1.521-5.974l-18.5-34c-3.301-6.065-10.893-8.304-16.955-5.006c-6.062,3.3-8.305,10.89-5.004,16.954
			l16.979,31.207v67.251c0,1.87,0.42,3.716,1.229,5.403l16.271,33.95v160.215c0,5.395-4.389,9.783-9.783,9.783
			s-9.781-4.389-9.781-9.783v-33.828c0-6.768-5.387-12.306-12.15-12.495l-27.434-0.769c-0.119-0.004-0.238-0.006-0.357-0.006
			c-0.33,0-0.656,0.023-0.982,0.05V12.5C340.062,5.596,334.465,0,327.562,0z M315.062,436.848H61.295V25h253.768V436.848
			L315.062,436.848z"/>
		<path d="M104.564,178.635h167.229c6.902,0,12.5-5.596,12.5-12.5V75.713c0-6.904-5.598-12.5-12.5-12.5H104.564
			c-6.903,0-12.5,5.596-12.5,12.5v90.422C92.064,173.039,97.661,178.635,104.564,178.635z M117.064,88.213h142.229v65.422H117.064
			V88.213z"/>
	</g>
</g>
<g>
</g>
<g>
</g>
<g>
</g>
<g>
</g>
<g>
</g>
<g>
</g>
<g>
</g>
<g>
</g>
<g>
</g>
<g>
</g>
<g>
</g>
<g>
</g>
<g>
</g>
<g>
</g>
<g>
</g>
</svg>
