<?xml version="1.0" encoding="iso-8859-1"?>
<!-- Generator: Adobe Illustrator 19.0.0, SVG Export Plug-In . SVG Version: 6.00 Build 0)  -->
<svg version="1.1" id="Layer_1" xmlns="http://www.w3.org/2000/svg" xmlns:xlink="http://www.w3.org/1999/xlink" x="0px" y="0px"
	 viewBox="0 0 512 512" style="enable-background:new 0 0 512 512;" xml:space="preserve">
<g>
	<g>
		<path d="M505.445,256.177l-175.194-36.98l48.29-74.274c2.161-3.331,1.645-7.738-1.234-10.48c-2.871-2.742-7.29-3.032-10.524-0.718
			l-68.29,49.27L255.768,6.318c-0.92-3.831-4.428-6.464-8.371-6.31c-3.944,0.165-7.218,3.097-7.815,6.996l-26.976,175.319
			l-67.355-48.597c-3.226-2.319-7.653-2.024-10.524,0.718c-2.879,2.742-3.395,7.149-1.226,10.48l49.395,75.984L6.638,256.16
			c-3.911,0.782-6.702,4.25-6.637,8.238c0.073,3.992,2.984,7.363,6.919,8.008l170,27.919l-43.419,66.786
			c-2.169,3.331-1.653,7.738,1.226,10.48c2.871,2.742,7.29,3.04,10.524,0.718l72.976-52.653l37.952,179.79
			c0.806,3.827,4.185,6.552,8.081,6.552c0.065,0,0.129,0,0.202-0.004c3.976-0.093,7.315-3.012,7.952-6.939l28.137-174.537
			l66.234,47.79c3.226,2.318,7.645,2.032,10.524-0.718c2.879-2.742,3.395-7.149,1.234-10.48l-47.177-72.565l173.419-22.097
			c4-0.512,7.048-3.831,7.21-7.859C512.155,260.568,509.388,257.011,505.445,256.177z M316.227,279.826
			c-2.823,0.363-5.258,2.145-6.452,4.722c-1.193,2.581-0.984,5.589,0.564,7.972l30.25,46.524l-41.234-29.75
			c-2.323-1.677-5.363-2.036-7.992-0.931c-2.645,1.097-4.532,3.488-4.992,6.315l-23.202,143.928L231.768,309.83
			c-0.581-2.734-2.5-4.988-5.105-5.996c-0.96-0.375-1.968-0.557-2.976-0.557c-1.71,0-3.403,0.532-4.831,1.561l-47.411,34.206
			l26.218-40.319c1.516-2.335,1.75-5.282,0.629-7.835c-1.129-2.552-3.468-4.363-6.218-4.814L54.356,263.459l143.726-28.746
			c2.685-0.536,4.928-2.371,5.992-4.891c1.064-2.524,0.806-5.411-0.685-7.706l-31.944-49.125l42.444,30.621
			c2.331,1.69,5.363,2.036,8.024,0.92c2.645-1.109,4.532-3.52,4.968-6.363L249.55,50.846l35.782,147.98
			c0.645,2.673,2.581,4.851,5.161,5.806c2.565,0.952,5.46,0.564,7.693-1.048l42.411-30.597L309.84,220.29
			c-1.484,2.282-1.742,5.149-0.702,7.665c1.04,2.512,3.258,4.351,5.927,4.915l139.153,29.375L316.227,279.826z"/>
	</g>
</g>
<g>
</g>
<g>
</g>
<g>
</g>
<g>
</g>
<g>
</g>
<g>
</g>
<g>
</g>
<g>
</g>
<g>
</g>
<g>
</g>
<g>
</g>
<g>
</g>
<g>
</g>
<g>
</g>
<g>
</g>
</svg>
