<?xml version="1.0" encoding="iso-8859-1"?>
<!-- Generator: Adobe Illustrator 19.0.0, SVG Export Plug-In . SVG Version: 6.00 Build 0)  -->
<svg version="1.1" id="Capa_1" xmlns="http://www.w3.org/2000/svg" xmlns:xlink="http://www.w3.org/1999/xlink" x="0px" y="0px"
	 viewBox="0 0 512 512" style="enable-background:new 0 0 512 512;" xml:space="preserve">
<g>
	<g>
		<path d="M414.5,248.5H277.21c-2.264-6.382-7.328-11.446-13.71-13.71V67.5c0-4.142-3.357-7.5-7.5-7.5c-4.142,0-7.5,3.358-7.5,7.5
			v167.29c-8.729,3.096-15,11.433-15,21.21c0,12.407,10.093,22.5,22.5,22.5c9.777,0,18.114-6.271,21.21-15H414.5
			c4.143,0,7.5-3.358,7.5-7.5C422,251.858,418.643,248.5,414.5,248.5z M256,263.5c-4.136,0-7.5-3.364-7.5-7.5s3.364-7.5,7.5-7.5
			s7.5,3.364,7.5,7.5S260.136,263.5,256,263.5z"/>
	</g>
</g>
<g>
	<g>
		<path d="M437.02,74.98C388.668,26.629,324.38,0,256,0S123.333,26.629,74.98,74.98C26.629,123.333,0,187.62,0,256
			s26.629,132.667,74.98,181.02C123.333,485.371,187.62,512,256,512s132.668-26.629,181.02-74.98
			C485.371,388.667,512,324.38,512,256S485.371,123.333,437.02,74.98z M256,497C123.112,497,15,388.888,15,256S123.112,15,256,15
			s241,108.112,241,241S388.888,497,256,497z"/>
	</g>
</g>
<g>
	<g>
		<path d="M415.806,96.194C373.12,53.508,316.366,30,256,30c-54.612,0-107.335,19.748-148.458,55.605
			c-3.122,2.722-3.446,7.46-0.724,10.582c2.722,3.122,7.46,3.445,10.582,0.724C155.791,63.436,205.013,45,256,45
			c116.346,0,211,94.654,211,211s-94.654,211-211,211S45,372.346,45,256c0-50.987,18.436-100.209,51.911-138.6
			c2.722-3.122,2.398-7.86-0.724-10.582c-3.122-2.721-7.859-2.398-10.582,0.724C49.748,148.665,30,201.388,30,256
			c0,60.367,23.508,117.121,66.194,159.806C138.88,458.491,195.633,482,256,482c60.366,0,117.12-23.508,159.806-66.194
			C458.492,373.12,482,316.367,482,256S458.492,138.88,415.806,96.194z"/>
	</g>
</g>
<g>
	<g>
		<circle cx="161.75" cy="92.75" r="7.5"/>
	</g>
</g>
<g>
	<g>
		<circle cx="92.75" cy="161.75" r="7.5"/>
	</g>
</g>
<g>
	<g>
		<circle cx="67.5" cy="256" r="7.5"/>
	</g>
</g>
<g>
	<g>
		<circle cx="92.75" cy="350.25" r="7.5"/>
	</g>
</g>
<g>
	<g>
		<circle cx="161.75" cy="419.25" r="7.5"/>
	</g>
</g>
<g>
	<g>
		<circle cx="256" cy="444.5" r="7.5"/>
	</g>
</g>
<g>
	<g>
		<circle cx="350.25" cy="419.25" r="7.5"/>
	</g>
</g>
<g>
	<g>
		<circle cx="419.25" cy="350.25" r="7.5"/>
	</g>
</g>
<g>
	<g>
		<circle cx="444.5" cy="256" r="7.5"/>
	</g>
</g>
<g>
	<g>
		<circle cx="419.25" cy="161.75" r="7.5"/>
	</g>
</g>
<g>
	<g>
		<circle cx="350.25" cy="92.75" r="7.5"/>
	</g>
</g>
<g>
</g>
<g>
</g>
<g>
</g>
<g>
</g>
<g>
</g>
<g>
</g>
<g>
</g>
<g>
</g>
<g>
</g>
<g>
</g>
<g>
</g>
<g>
</g>
<g>
</g>
<g>
</g>
<g>
</g>
</svg>
