<svg viewBox="0 -61 512 512" xmlns="http://www.w3.org/2000/svg"><path d="m502 0h-492c-5.523438 0-10 4.476562-10 10v370c0 5.523438 4.476562 10 10 10h492c5.523438 0 10-4.476562 10-10v-370c0-5.523438-4.476562-10-10-10zm-10 370h-472v-350h472zm0 0"/><path d="m50 350h412c5.523438 0 10-4.476562 10-10v-290c0-5.523438-4.476562-10-10-10h-412c-5.523438 0-10 4.476562-10 10v290c0 5.523438 4.476562 10 10 10zm50-20v-20h20v20zm40 0v-20h53.820312l-10 20zm-80-270h392v270h-245.820312s12.726562-25.453125 12.765624-25.527344c3.210938-6.421875-1.792968-14.472656-8.945312-14.472656h-120c-5.523438 0-10 4.476562-10 10v30h-20zm0 0"/><path d="m342 301.5c0 5.511719 4.488281 10 10 10h30c5.511719 0 10-4.488281 10-10s-4.488281-10-10-10h-30c-5.511719 0-10 4.488281-10 10zm0 0"/><path d="m422 271.5c5.511719 0 10-4.488281 10-10v-30c0-5.511719-4.488281-10-10-10s-10 4.488281-10 10v30c0 5.511719 4.488281 10 10 10zm0 0"/><path d="m422 311.5c5.511719 0 10-4.488281 10-10s-4.488281-10-10-10-10 4.488281-10 10 4.488281 10 10 10zm0 0"/><path d="m90 102.5c5.511719 0 10-4.488281 10-10s-4.488281-10-10-10-10 4.488281-10 10 4.488281 10 10 10zm0 0"/><path d="m130 102.5h30c5.511719 0 10-4.488281 10-10s-4.488281-10-10-10h-30c-5.519531 0-10 4.488281-10 10s4.480469 10 10 10zm0 0"/><path d="m90 172.5c5.511719 0 10-4.488281 10-10v-30c0-5.511719-4.488281-10-10-10s-10 4.488281-10 10v30c0 5.511719 4.488281 10 10 10zm0 0"/><path d="m134.121094 144.320312c-1.203125.832032-2.078125 1.976563-2.078125 3.394532v18.476562c0 3.667969 4.761719 5.042969 7.679687 5.042969 2.871094 0 7.921875-1.308594 7.921875-5.042969v-9.71875h25.078125v7.921875s-31.1875 55.921875-31.320312 56.15625c-1.644532 2.953125-.214844 6.386719 2.28125 8.28125 2.769531 2.101563 9.183594 3.976563 11.28125 0l30.359375-58.320312c1.996093-4 3-7.039063 3-9.121094 0 0 0-13.628906 0-13.679687 0-2.964844-4.359375-4.917969-6.839844-4.917969 0 0-42.40625 0-42.601563 0-1.425781 0-3.324218.535156-4.761718 1.527343zm0 0"/><path d="m202.121094 208.074219h12.839844v13.277343c0 3.402344 3.542968 4.960938 6.480468 4.960938 2.953125 0 6.359375-1.511719 6.359375-4.960938v-13.277343h12.71875c3.195313 0 5.042969-3.195313 5.042969-6.0625 0-2.753907-1.957031-6.179688-5.042969-6.179688h-12.71875s0-13.105469 0-13.152343c0-3.234376-3.527343-5.085938-6.359375-5.085938-2.710937 0-6.480468 1.921875-6.480468 5.085938v13.152343s-12.777344 0-12.839844 0c-3.226563 0-4.800782 3.378907-4.800782 6.179688 0 2.8125 1.550782 6.0625 4.800782 6.0625zm0 0"/><path d="m290.078125 231.234375c7.769531 0 15.90625-2.125 21.828125-7.382813 5.367188-4.761718 6.972656-12.382812 6.972656-19.257812v-2.28125c0-8.878906-4.070312-14.917969-12.207031-18.121094 2.984375-1.351562 5.308594-3.804687 6.964844-7.351562 1.652343-3.542969 2.480469-7.707032 2.480469-12.488282 0-14.371093-8.476563-21.558593-25.4375-21.558593-4.800782 0-9 .683593-12.601563 2.046875-5.574219 2.113281-10.203125 6.378906-12.359375 11.988281-.878906 2.289063-1.320312 4.597656-1.320312 6.925781 0 1.808594.113281 3.992188 1.53125 5.316406 1.660156 1.550782 4.410156 1.367188 6.511718 1.367188 4.957032 0 7.4375-1.988281 7.4375-5.96875 0-5.328125 3.558594-7.996094 10.679688-7.996094 7.039062 0 10.5625 3.503906 10.5625 10.503906 0 4.695313-.957032 7.816407-2.859375 9.371094-1.90625 1.550782-4.605469 2.324219-8.097657 2.324219-3.097656 0-4.644531 2.042969-4.644531 6.121094s1.519531 6.121093 4.558594 6.121093c8.800781 0 13.203125 3.800782 13.203125 11.398438v2.28125c0 3.375-.667969 7.476562-3.203125 10.039062-2.421875 2.445313-6.382813 2.921876-9.636719 2.921876-5.476562 0-12.480468-2.210938-12.480468-8.761719 0-4.777344-4.109376-5.519531-8.039063-5.519531-4.292969 0-7.441406 1.4375-7.441406 6.121093 0 6.503907 3.722656 12.816407 8.859375 16.679688 5.324218 4.007812 12.222656 5.160156 18.738281 5.160156zm0 0"/><path d="m345.757812 219.59375h30.960938c3.164062 0 5.039062-3.230469 5.039062-6.0625 0-2.761719-1.949218-6.179688-5.039062-6.179688 0 0-30.835938 0-30.960938 0-3.203124 0-4.800781 3.398438-4.800781 6.179688 0 2.898438 1.546875 6.0625 4.800781 6.0625zm0 0"/><path d="m345.757812 195.234375h30.960938c3.140625 0 5.039062-3.257813 5.039062-6.0625 0-2.691406-2.046874-6.179687-5.039062-6.179687 0 0-30.832031 0-30.960938 0-3.273437 0-4.800781 3.328124-4.800781 6.179687.003907 2.910156 1.515625 6.0625 4.800781 6.0625zm0 0"/></svg>