<?xml version="1.0" encoding="iso-8859-1"?>
<!-- Generator: Adobe Illustrator 16.0.0, SVG Export Plug-In . SVG Version: 6.00 Build 0)  -->
<!DOCTYPE svg PUBLIC "-//W3C//DTD SVG 1.1//EN" "http://www.w3.org/Graphics/SVG/1.1/DTD/svg11.dtd">
<svg version="1.1" id="Capa_1" xmlns="http://www.w3.org/2000/svg" xmlns:xlink="http://www.w3.org/1999/xlink" x="0px" y="0px"
	 width="612px" height="612px" viewBox="0 0 612 612" style="enable-background:new 0 0 612 612;" xml:space="preserve">
<g>
	<path d="M575.514,129.861v-0.658h-3.645H414.968H285.935V93.708c0-10.947-4.062-20.154-11.945-28.193
		c-7.713-7.883-17.246-11.945-28.193-11.945H40.138c-11.28,0-20.812,4.062-28.525,11.945C4.062,73.221,0,82.76,0,93.708v35.496
		v36.487v352.602c0,10.948,3.899,20.649,11.613,28.526c7.543,7.713,17.245,11.612,28.525,11.612h531.731
		c11.272,0,20.975-3.899,28.525-11.612C608.107,538.935,612,529.24,612,518.292V374.335V358.08V253.262v-84.26v-3.312
		C612,146.732,595.087,131.192,575.514,129.861z M36.819,93.708c0-2.321,0.998-3.319,3.319-3.319h205.658
		c1.331,0,3.651,1.988,3.651,3.319v35.496H36.819V93.708z M575.514,169.002v84.253v104.817v16.255v143.965
		c0,1.331-1.988,3.319-3.645,3.319H40.138c-2.321,0-3.319-0.998-3.319-3.319V165.69h538.694V169.002z"/>
</g>
<g>
</g>
<g>
</g>
<g>
</g>
<g>
</g>
<g>
</g>
<g>
</g>
<g>
</g>
<g>
</g>
<g>
</g>
<g>
</g>
<g>
</g>
<g>
</g>
<g>
</g>
<g>
</g>
<g>
</g>
</svg>
