<?xml version="1.0" encoding="iso-8859-1"?>
<!-- Generator: Adobe Illustrator 19.0.0, SVG Export Plug-In . SVG Version: 6.00 Build 0)  -->
<svg version="1.1" id="Capa_1" xmlns="http://www.w3.org/2000/svg" xmlns:xlink="http://www.w3.org/1999/xlink" x="0px" y="0px"
	 viewBox="0 0 480 480" style="enable-background:new 0 0 480 480;" xml:space="preserve">
<g>
	<g>
		<path d="M240,0C107.452,0,0,107.452,0,240s107.452,240,240,240c132.486-0.15,239.85-107.514,240-240C480,107.452,372.548,0,240,0z
			 M240,464C116.288,464,16,363.712,16,240S116.288,16,240,16c123.653,0.141,223.859,100.347,224,224
			C464,363.712,363.712,464,240,464z"/>
	</g>
</g>
<g>
	<g>
		<path d="M347.24,160.204c-3.178-3.07-8.243-2.982-11.312,0.196L205.824,290.512L143.6,228.288c-3.1-2.994-8.015-2.994-11.115,0
			c-3.178,3.069-3.266,8.134-0.197,11.312l67.88,67.88c1.5,1.5,3.534,2.344,5.656,2.344c2.122,0,4.156-0.844,5.656-2.344
			l135.76-135.768c0.067-0.064,0.132-0.13,0.196-0.196C350.506,168.338,350.418,163.273,347.24,160.204z"/>
	</g>
</g>
<g>
</g>
<g>
</g>
<g>
</g>
<g>
</g>
<g>
</g>
<g>
</g>
<g>
</g>
<g>
</g>
<g>
</g>
<g>
</g>
<g>
</g>
<g>
</g>
<g>
</g>
<g>
</g>
<g>
</g>
</svg>
