<?xml version="1.0" encoding="iso-8859-1"?>
<!-- Generator: Adobe Illustrator 19.0.0, SVG Export Plug-In . SVG Version: 6.00 Build 0)  -->
<svg version="1.1" id="Capa_1" xmlns="http://www.w3.org/2000/svg" xmlns:xlink="http://www.w3.org/1999/xlink" x="0px" y="0px"
	 viewBox="0 0 480 480" style="enable-background:new 0 0 480 480;" xml:space="preserve">
<g>
	<g>
		<g>
			<path d="M472,464H8c-4.418,0-8,3.582-8,8s3.582,8,8,8h464c4.418,0,8-3.582,8-8S476.418,464,472,464z"/>
			<path d="M40,448h64c4.418,0,8-3.582,8-8V264c0-4.418-3.582-8-8-8H40c-4.418,0-8,3.582-8,8v176C32,444.418,35.582,448,40,448z
				 M48,272h48v160H48V272z"/>
			<path d="M152,176c-4.418,0-8,3.582-8,8v256c0,4.418,3.582,8,8,8h64c4.418,0,8-3.582,8-8V184c0-4.418-3.582-8-8-8H152z M208,432
				h-48V192h48V432z"/>
			<path d="M264,96c-4.418,0-8,3.582-8,8v336c0,4.418,3.582,8,8,8h64c4.418,0,8-3.582,8-8V104c0-4.418-3.582-8-8-8H264z M320,432
				h-48V112h48V432z"/>
			<path d="M368,216v224c0,4.418,3.582,8,8,8h64c4.418,0,8-3.582,8-8V216c0-4.418-3.582-8-8-8h-64C371.582,208,368,211.582,368,216z
				 M384,224h48v208h-48V224z"/>
			<path d="M58.223,203.696c4.04,2.819,8.851,4.322,13.777,4.304c13.211,0.044,23.956-10.63,24-23.84
				c0.008-2.287-0.313-4.564-0.952-6.76l75.2-53.776c10.644,7.705,25.518,5.323,33.224-5.32c4.361-6.023,5.654-13.74,3.496-20.856
				l75.28-53.824C286.27,46.467,291.074,47.996,296,48c3.564-0.014,7.078-0.834,10.28-2.4l80.12,80.12
				c-1.566,3.202-2.386,6.716-2.4,10.28c0,13.255,10.745,24,24,24s24-10.745,24-24s-10.745-24-24-24
				c-3.564,0.014-7.078,0.834-10.28,2.4L317.6,34.28c1.566-3.202,2.386-6.716,2.4-10.28c0-13.255-10.745-24-24-24s-24,10.745-24,24
				c0.032,2.221,0.377,4.427,1.024,6.552l-75.28,53.824c-10.644-7.705-25.518-5.323-33.224,5.32
				c-4.361,6.023-5.654,13.739-3.496,20.856L85.6,164.464c-10.834-7.56-25.745-4.906-33.305,5.928
				C44.736,181.225,47.389,196.136,58.223,203.696z M402.28,130.4h0.12l0.064-0.096c3.189-3.058,8.254-2.951,11.311,0.238
				c1.409,1.47,2.205,3.422,2.225,5.458c-0.004,4.418-3.589,7.997-8.007,7.993c-4.418-0.004-7.997-3.589-7.993-8.007
				C400.002,133.898,400.82,131.893,402.28,130.4z M290.302,18.303c1.517-1.496,3.568-2.325,5.698-2.303
				c4.418-0.004,8.003,3.575,8.007,7.993c0.002,2.096-0.819,4.11-2.287,5.607h-0.12l-0.064,0.096
				c-3.146,3.102-8.211,3.067-11.313-0.079C287.12,26.471,287.156,21.405,290.302,18.303z M184,96c4.418,0,8,3.582,8,8s-3.582,8-8,8
				s-8-3.582-8-8S179.582,96,184,96z M72,176c2.616,0.012,5.064,1.291,6.568,3.432c0.953,1.331,1.455,2.931,1.432,4.568
				c0,4.418-3.582,8-8,8s-8-3.582-8-8S67.582,176,72,176z"/>
		</g>
	</g>
</g>
<g>
</g>
<g>
</g>
<g>
</g>
<g>
</g>
<g>
</g>
<g>
</g>
<g>
</g>
<g>
</g>
<g>
</g>
<g>
</g>
<g>
</g>
<g>
</g>
<g>
</g>
<g>
</g>
<g>
</g>
</svg>
