<?xml version="1.0" encoding="iso-8859-1"?>
<!-- Generator: Adobe Illustrator 19.0.0, SVG Export Plug-In . SVG Version: 6.00 Build 0)  -->
<svg version="1.1" id="Layer_1" xmlns="http://www.w3.org/2000/svg" xmlns:xlink="http://www.w3.org/1999/xlink" x="0px" y="0px"
	 viewBox="0 0 512 512" style="enable-background:new 0 0 512 512;" xml:space="preserve">
<g>
	<g>
		<path d="M324.719,39.678V24.563h-43.965V0h-49.51v24.563h-43.965v15.115H67.427V512h377.146V39.678H324.719z M324.719,83.141
			h74.195v385.396h-285.83V83.141h74.195v13.455h137.44V83.141z M246.475,15.231h19.049v9.332h-19.049V15.231z M202.511,39.794
			h28.734h49.51h28.733v41.571H202.511V39.794z M82.658,496.769V54.909H187.28V67.91H97.853v415.857h316.292V67.91h-89.426V54.909
			h104.622v441.86H82.658z"/>
	</g>
</g>
<g>
	<g>
		<path d="M145.12,136.207v48.715h48.715v-48.715H145.12z M178.604,169.691h-18.254v-18.254h18.254V169.691z"/>
	</g>
</g>
<g>
	<g>
		<path d="M145.12,220.227v48.715h48.715v-48.715H145.12z M178.604,253.712h-18.254v-18.254h18.254V253.712z"/>
	</g>
</g>
<g>
	<g>
		<path d="M145.12,304.247v48.715h48.715v-48.715H145.12z M178.604,337.732h-18.254v-18.254h18.254V337.732z"/>
	</g>
</g>
<g>
	<g>
		<path d="M145.12,388.267v48.715h48.715v-48.715H145.12z M178.604,421.752h-18.254v-18.254h18.254V421.752z"/>
	</g>
</g>
<g>
	<g>
		<rect x="227.638" y="137.219" width="131.624" height="15.231"/>
	</g>
</g>
<g>
	<g>
		<rect x="227.638" y="168.675" width="131.624" height="15.231"/>
	</g>
</g>
<g>
	<g>
		<rect x="227.638" y="221.242" width="131.624" height="15.231"/>
	</g>
</g>
<g>
	<g>
		<rect x="227.638" y="252.698" width="131.624" height="15.231"/>
	</g>
</g>
<g>
	<g>
		<rect x="227.638" y="305.265" width="131.624" height="15.231"/>
	</g>
</g>
<g>
	<g>
		<rect x="227.638" y="336.721" width="131.624" height="15.231"/>
	</g>
</g>
<g>
	<g>
		<rect x="227.638" y="389.278" width="131.624" height="15.231"/>
	</g>
</g>
<g>
	<g>
		<rect x="227.638" y="420.734" width="131.624" height="15.231"/>
	</g>
</g>
<g>
</g>
<g>
</g>
<g>
</g>
<g>
</g>
<g>
</g>
<g>
</g>
<g>
</g>
<g>
</g>
<g>
</g>
<g>
</g>
<g>
</g>
<g>
</g>
<g>
</g>
<g>
</g>
<g>
</g>
</svg>
