<svg height="512pt" viewBox="0 -1 512 512" width="512pt" xmlns="http://www.w3.org/2000/svg"><path d="m267.917969 290.480469h-189.3125c-10.121094 0-18.355469 8.238281-18.355469 18.363281v11.515625c0 10.078125 8.21875 18.316406 18.347656 18.363281l75.128906.085938h.007813c4.167969 0 7.550781-3.378906 7.558594-7.550782.003906-4.171874-3.375-7.558593-7.550781-7.566406l-75.097657-.082031c-1.808593-.007813-3.277343-1.464844-3.277343-3.25v-11.515625c0-1.757812 1.484374-3.246094 3.238281-3.246094h189.3125c1.757812 0 3.238281 1.488282 3.238281 3.246094v11.515625c0 1.761719-1.480469 3.25-3.238281 3.25h-78.390625c-4.171875 0-7.554688 3.382813-7.554688 7.554687 0 4.175782 3.382813 7.558594 7.554688 7.558594h78.390625c10.121093 0 18.355469-8.238281 18.355469-18.363281v-11.515625c0-10.125-8.234376-18.363281-18.355469-18.363281zm0 0"/><path d="m494.4375 460.367188h-9.417969v-105.464844c0-4.171875-3.382812-7.554688-7.558593-7.554688-4.171876 0-7.554688 3.382813-7.554688 7.554688v105.464844h-29.890625v-59.800782c0-9.6875-7.863281-17.570312-17.53125-17.570312h-47.5c-9.683594 0-17.558594 7.882812-17.558594 17.570312v59.800782h-29.863281v-228.257813h142.34375v84.675781c0 4.175782 3.382812 7.558594 7.554688 7.558594 4.175781 0 7.558593-3.382812 7.558593-7.558594v-85.339844c0-7.96875-6.464843-14.449218-14.414062-14.449218h-23.5625v-57.617188c0-4.175781-3.382813-7.558594-7.558594-7.558594-4.171875 0-7.554687 3.382813-7.554687 7.558594v57.617188h-27.394532v-34.332032c0-4.175781-3.386718-7.558593-7.558594-7.558593-4.175781 0-7.558593 3.382812-7.558593 7.558593v34.332032h-61.855469v-14.109375c0-11.191407-9.097656-20.292969-20.285156-20.292969h-24.289063l-5.894531-38.433594h1.140625c6.449219 0 11.695313-5.25 11.695313-11.699218v-14.632813c0-6.449219-5.246094-11.699219-11.695313-11.699219h-2.675781v-18.847656c0-.394531.355468-.753906.746094-.753906h11.367187c8.617187 0 16.527344-4.3125 21.308594-11.3125h54.640625c20.5 0 37.175781-16.867188 37.175781-37.59375 0-20.746094-16.675781-37.621094-37.175781-37.621094h-125.292969c-.839844 0-1.667969.0390625-2.492187.09375-.808594-.0625-1.652344-.09375-2.609376-.09375h-133.59375c-17.660156 0-32.246093 13.554688-34.132812 30.914062h-9.566406c-13.308594 0-24.136719 10.933594-24.136719 24.40625 0 13.441407 10.828125 24.375 24.136719 24.375h16.605468c.394532 0 .746094.359376.746094.75v25.683594h-12.789062c-6.449219 0-11.695313 5.25-11.695313 11.699219v14.636719c0 6.449218 5.246094 11.695312 11.695313 11.695312h1.167968l-5.921874 38.433594h-14.6875c-11.199219 0-20.308594 9.101562-20.308594 20.292969v257.480469h-3.214844c-9.667969 0-17.53125 7.882812-17.53125 17.570312v14.496094c0 9.683594 7.863281 17.566406 17.53125 17.566406h476.90625c9.683594 0 17.5625-7.882812 17.5625-17.570312v-14.492188c0-9.6875-7.878906-17.570312-17.5625-17.570312zm-121.898438-59.800782c0-1.332031 1.121094-2.453125 2.445313-2.453125h47.5c1.308594 0 2.417969 1.121094 2.417969 2.453125v59.800782h-52.363282zm-104.839843-217.972656h-63.097657l5.917969-38.433594h51.28125zm-118.273438 0-5.902343-38.433594h1.144531c6.449219 0 11.695312-5.25 11.695312-11.699218v-14.632813c0-6.449219-5.246093-11.699219-11.695312-11.699219h-10.664063v-25.683594c0-.394531.351563-.75.742188-.75h9.496094c7.898437 0 15.164062-3.894531 19.644531-10.242187h13.097656c3.664063 9.960937 13.164063 17.074219 24.277344 17.074219h7.992187c.390625 0 .746094.359375.746094.753906v18.847656h-15.933594c-6.449218 0-11.695312 5.25-11.695312 11.699219v14.632813c0 6.453124 5.246094 11.699218 11.695312 11.699218h1.164063l-5.917969 38.433594zm125.386719-61.351562v7.804687h-77.332031v-7.804687zm110.867188-83.621094c0 12.394531-9.894532 22.476562-22.058594 22.476562h-59.089844c-3.035156 0-5.777344 1.816406-6.960938 4.617188-1.71875 4.070312-5.605468 6.699218-9.898437 6.699218h-11.367187c-8.742188 0-15.859376 7.121094-15.859376 15.867188v18.847656h-35.332031v-18.847656c0-8.75-7.113281-15.867188-15.859375-15.867188h-7.992187c-5.941407 0-10.777344-4.957031-10.777344-11.046874 0-6.09375 4.835937-11.050782 10.777344-11.050782h7.738281c2.195312 0 4.28125-.953125 5.714844-2.613281 1.4375-1.660156 2.082031-3.859375 1.761718-6.03125-.132812-.929687-.203124-1.953125-.203124-3.050781 0-12.410156 9.894531-22.507813 22.058593-22.507813h125.289063c12.164062 0 22.058594 10.097657 22.058594 22.507813zm-313.140626 26.957031h-16.605468c-4.972656 0-9.019532-4.152344-9.019532-9.289063 0-5.105468 4.046876-9.261718 9.019532-9.261718h17.171875c2.1875 0 4.265625-.945313 5.703125-2.59375 1.433594-1.652344 2.085937-3.839844 1.785156-6.003906-.121094-.871094-.183594-1.78125-.183594-2.703126 0-10.8125 8.625-19.613281 19.222656-19.613281h108.929688c-4.011719 5.421875-6.617188 11.972657-7.253906 19.089844h-.046875c-12.226563 0-22.492188 8.609375-25.191407 20.136719h-16.582031c-3.035156 0-5.773437 1.8125-6.957031 4.605468-1.453125 3.421876-4.707031 5.632813-8.292969 5.632813h-9.492187c-8.746094 0-15.859375 7.117187-15.859375 15.867187v25.683594h-30.484375v-25.683594c0-8.746093-7.117188-15.867187-15.863282-15.867187zm-8.625 56.664063h77.332032v7.804687h-77.332032zm13.039063 22.917968h51.28125l5.898437 38.433594h-63.097656zm-41.09375 58.726563c0-2.808594 2.378906-5.179688 5.195313-5.179688h21.167968.011719.023437 80.648438.019531.015625 52.84375.015625.019531 80.652344.019532.015624 30.773438c2.847656 0 5.167969 2.324219 5.167969 5.179688v257.480469h-276.589844zm461.027344 289.542969c0 1.332031-1.121094 2.457031-2.449219 2.457031h-476.90625c-1.308594 0-2.417969-1.125-2.417969-2.457031v-14.492188c0-1.351562 1.085938-2.453125 2.417969-2.453125h476.90625c1.351562 0 2.449219 1.101563 2.449219 2.453125zm0 0"/><path d="m267.917969 225.703125h-189.3125c-10.121094 0-18.355469 8.238281-18.355469 18.363281v11.515625c0 10.109375 8.234375 18.332031 18.355469 18.332031h189.3125c10.121093 0 18.355469-8.222656 18.355469-18.332031v-11.515625c0-10.125-8.234376-18.363281-18.355469-18.363281zm3.238281 29.878906c0 1.746094-1.480469 3.21875-3.238281 3.21875h-189.3125c-1.753907 0-3.238281-1.476562-3.238281-3.21875v-11.515625c0-1.789062 1.453124-3.25 3.238281-3.25h189.3125c1.785156 0 3.238281 1.460938 3.238281 3.25zm0 0"/><path d="m449.285156 274.070312c0-9.683593-7.878906-17.566406-17.5625-17.566406h-65.976562c-9.683594 0-17.558594 7.882813-17.558594 17.566406v7.066407c0 9.667969 7.875 17.539062 17.558594 17.539062h65.976562c9.683594 0 17.5625-7.871093 17.5625-17.539062zm-15.117187 7.066407c0 1.3125-1.121094 2.421875-2.445313 2.421875h-65.976562c-1.324219 0-2.445313-1.109375-2.445313-2.421875v-7.066407c0-1.328124 1.121094-2.453124 2.445313-2.453124h65.976562c1.324219 0 2.445313 1.125 2.445313 2.453124zm0 0"/><path d="m431.722656 316.546875h-65.976562c-9.683594 0-17.558594 7.867187-17.558594 17.539063v7.0625c0 9.6875 7.875 17.570312 17.558594 17.570312h65.976562c9.683594 0 17.5625-7.882812 17.5625-17.570312v-7.0625c0-9.671876-7.878906-17.539063-17.5625-17.539063zm2.445313 24.601563c0 1.332031-1.121094 2.453124-2.445313 2.453124h-65.976562c-1.324219 0-2.445313-1.121093-2.445313-2.453124v-7.0625c0-1.3125 1.121094-2.425782 2.445313-2.425782h65.976562c1.324219 0 2.445313 1.109375 2.445313 2.425782zm0 0"/><path d="m267.917969 360.535156h-189.3125c-10.121094 0-18.355469 8.238282-18.355469 18.363282v11.488281c0 10.125 8.234375 18.359375 18.355469 18.359375h189.3125c10.121093 0 18.355469-8.234375 18.355469-18.359375v-11.488281c0-10.125-8.234376-18.363282-18.355469-18.363282zm3.238281 29.851563c0 1.789062-1.453125 3.246093-3.238281 3.246093h-189.3125c-1.785157 0-3.238281-1.457031-3.238281-3.246093v-11.488281c0-1.792969 1.453124-3.25 3.238281-3.25h189.3125c1.785156 0 3.238281 1.457031 3.238281 3.25zm0 0"/></svg>