<?xml version="1.0" encoding="iso-8859-1"?>
<!-- Generator: Adobe Illustrator 19.0.0, SVG Export Plug-In . SVG Version: 6.00 Build 0)  -->
<svg version="1.1" id="Capa_1" xmlns="http://www.w3.org/2000/svg" xmlns:xlink="http://www.w3.org/1999/xlink" x="0px" y="0px"
	 viewBox="0 0 512.001 512.001" style="enable-background:new 0 0 512.001 512.001;" xml:space="preserve">
<g>
	<g>
		<path d="M196.001,451.876c-5.52,0-10,4.48-10,10c0,5.52,4.48,10,10,10s10-4.48,10-10
			C206.001,456.356,201.521,451.876,196.001,451.876z"/>
	</g>
</g>
<g>
	<g>
		<path d="M506.77,250.086c-3.226-1.749-7.147-1.592-10.221,0.407l-107.548,69.95v-61.687c0-3.667-2.008-7.041-5.231-8.79
			c-3.225-1.748-7.146-1.592-10.221,0.407l-107.548,69.95v-61.567c0-3.666-2.007-7.039-5.229-8.789
			c-3.222-1.749-7.144-1.596-10.218,0.403l-102.436,66.544c-0.578-7.172-15.009-186.108-15.149-187.843
			c-0.419-5.194-4.757-9.195-9.968-9.195h-83c-5.211,0-9.549,4.001-9.968,9.195l-30,372c-0.225,2.783,0.725,5.533,2.618,7.585
			s4.558,3.219,7.35,3.219c6.479,0,461.148,0,492,0c5.522,0,10-4.477,10-10v-243C512.001,255.209,509.993,251.835,506.77,250.086z
			 M49.227,139.876h64.549l1.855,23H47.371L49.227,139.876z M45.759,182.876h71.484l1.854,23H43.905L45.759,182.876z
			 M42.292,225.876h78.419c0.691,8.563,17.251,213.922,18.225,226H24.066L42.292,225.876z M20.841,491.876l1.613-20h118.095
			l1.613,20H20.841z M492.001,491.876H162.227l-12.282-152.3l96.056-62.399v61.579c0,3.667,2.008,7.041,5.231,8.79
			c3.226,1.749,7.147,1.593,10.221-0.407l107.548-69.95v61.687c0,3.667,2.008,7.041,5.231,8.79
			c3.223,1.747,7.146,1.593,10.221-0.407l107.548-69.95V491.876z"/>
	</g>
</g>
<g>
	<g>
		<path d="M256.001,368.876h-60c-5.522,0-10,4.477-10,10v40c0,5.523,4.478,10,10,10h60c5.522,0,10-4.477,10-10v-40
			C266.001,373.353,261.523,368.876,256.001,368.876z M246.001,408.876h-40v-20h40V408.876z"/>
	</g>
</g>
<g>
	<g>
		<path d="M359.001,368.876h-63c-5.522,0-10,4.477-10,10v40c0,5.523,4.478,10,10,10h63c5.522,0,10-4.477,10-10v-40
			C369.001,373.353,364.523,368.876,359.001,368.876z M349.001,408.876h-43v-20h43V408.876z"/>
	</g>
</g>
<g>
	<g>
		<path d="M462.001,368.876h-63c-5.522,0-10,4.477-10,10v40c0,5.523,4.478,10,10,10h63c5.522,0,10-4.477,10-10v-40
			C472.001,373.353,467.523,368.876,462.001,368.876z M452.001,408.876h-43v-20h43V408.876z"/>
	</g>
</g>
<g>
	<g>
		<path d="M236.003,0.126c-0.039,0-0.08,0-0.12,0c-5.522,0.066-9.946,4.596-9.881,10.118c0.029,2.452-0.937,4.795-2.719,6.598
			c-1.904,1.928-4.559,3.033-7.282,3.033h-122c-27.57,0-50,22.43-50,50c0,5.524,4.478,10.001,10,10.001s10-4.477,10-10
			c0-16.542,13.458-30,30-30h122c8.032,0,15.872-3.271,21.509-8.975c5.568-5.635,8.583-13.055,8.49-20.894
			C245.936,4.525,241.472,0.126,236.003,0.126z"/>
	</g>
</g>
<g>
	<g>
		<path d="M256.001,40.006c-5.522,0-10,4.477-10,10v0.23c0,5.249-4.486,9.52-10.011,9.52l-111.989,0.12c-16.542,0-30,13.458-30,30
			c0,5.523,4.478,10,10,10c5.522,0,10-4.477,10-10c0-5.514,4.486-10,10.011-10l111.989-0.12c16.542,0,30-13.243,30-29.52v-0.23
			C266.001,44.483,261.523,40.006,256.001,40.006z"/>
	</g>
</g>
<g>
	<g>
		<path d="M462.001,451.876h-226c-5.522,0-10,4.477-10,10s4.478,10,10,10h226c5.522,0,10-4.477,10-10
			S467.524,451.876,462.001,451.876z"/>
	</g>
</g>
<g>
	<g>
		<path d="M93.001,268.876h-23c-5.522,0-10,4.477-10,10s4.478,10,10,10h23c5.522,0,10-4.477,10-10S98.523,268.876,93.001,268.876z"
			/>
	</g>
</g>
<g>
	<g>
		<path d="M93.001,308.876h-23c-5.522,0-10,4.477-10,10s4.478,10,10,10h23c5.522,0,10-4.477,10-10S98.523,308.876,93.001,308.876z"
			/>
	</g>
</g>
<g>
	<g>
		<path d="M93.001,348.876h-23c-5.522,0-10,4.477-10,10s4.478,10,10,10h23c5.522,0,10-4.477,10-10S98.523,348.876,93.001,348.876z"
			/>
	</g>
</g>
<g>
	<g>
		<path d="M93.001,388.876h-23c-5.522,0-10,4.477-10,10s4.478,10,10,10h23c5.522,0,10-4.477,10-10S98.524,388.876,93.001,388.876z"
			/>
	</g>
</g>
<g>
</g>
<g>
</g>
<g>
</g>
<g>
</g>
<g>
</g>
<g>
</g>
<g>
</g>
<g>
</g>
<g>
</g>
<g>
</g>
<g>
</g>
<g>
</g>
<g>
</g>
<g>
</g>
<g>
</g>
</svg>
