<?xml version="1.0" encoding="iso-8859-1"?>
<!-- Generator: Adobe Illustrator 19.0.0, SVG Export Plug-In . SVG Version: 6.00 Build 0)  -->
<svg version="1.1" id="Capa_1" xmlns="http://www.w3.org/2000/svg" xmlns:xlink="http://www.w3.org/1999/xlink" x="0px" y="0px"
	 viewBox="0 0 512 512" style="enable-background:new 0 0 512 512;" xml:space="preserve">
<g>
	<g>
		<path d="M376,432c-5.52,0-10,4.48-10,10c0,5.52,4.48,10,10,10c5.52,0,10-4.48,10-10C386,436.48,381.52,432,376,432z"/>
	</g>
</g>
<g>
	<g>
		<path d="M136,432c-5.52,0-10,4.48-10,10c0,5.52,4.48,10,10,10s10-4.48,10-10C146,436.48,141.52,432,136,432z"/>
	</g>
</g>
<g>
	<g>
		<path d="M70,412c-16.542,0-30,13.458-30,30s13.458,30,30,30s30-13.458,30-30S86.542,412,70,412z M70,452c-5.514,0-10-4.486-10-10
			c0-5.514,4.486-10,10-10s10,4.486,10,10C80,447.514,75.514,452,70,452z"/>
	</g>
</g>
<g>
	<g>
		<path d="M442,412c-16.542,0-30,13.458-30,30s13.458,30,30,30s30-13.458,30-30S458.542,412,442,412z M442,452
			c-5.514,0-10-4.486-10-10c0-5.514,4.486-10,10-10c5.514,0,10,4.486,10,10C452,447.514,447.514,452,442,452z"/>
	</g>
</g>
<g>
	<g>
		<path d="M256,116c-22.056,0-40,17.944-40,40c0,22.056,17.944,40,40,40c22.056,0,40-17.944,40-40C296,133.944,278.056,116,256,116z
			 M256,176c-11.028,0-20-8.972-20-20s8.972-20,20-20s20,8.972,20,20S267.028,176,256,176z"/>
	</g>
</g>
<g>
	<g>
		<path d="M490.287,217.726c-5.765-5.776-12.991-9.562-20.847-11.031l-9.013-27.046C467.463,174.153,472,165.599,472,156
			c0-16.542-13.458-30-30-30c-13.036,0-24.152,8.361-28.28,20H366v-10c0-5.522-4.478-10-10-10h-26.175
			c-2.771-6.911-6.407-13.277-10.873-19.037l13.028-22.562c1.326-2.297,1.686-5.027,0.999-7.589s-2.362-4.746-4.659-6.072
			l-29.432-16.993l6.977-42.113c0.015-0.09,0.018-0.18,0.031-0.27c0.025-0.182,0.048-0.364,0.063-0.549
			c0.015-0.179,0.022-0.357,0.027-0.536C305.989,10.187,306,10.095,306,10c0-0.056-0.008-0.111-0.008-0.167
			c-0.003-0.2-0.015-0.398-0.03-0.595c-0.01-0.137-0.02-0.273-0.036-0.409c-0.022-0.19-0.053-0.377-0.086-0.565
			c-0.025-0.143-0.049-0.287-0.081-0.428c-0.038-0.168-0.083-0.334-0.128-0.499c-0.043-0.155-0.085-0.31-0.135-0.461
			c-0.049-0.147-0.104-0.291-0.159-0.435c-0.062-0.161-0.123-0.323-0.192-0.48c-0.059-0.133-0.125-0.262-0.189-0.392
			c-0.079-0.159-0.157-0.317-0.244-0.471c-0.072-0.127-0.15-0.25-0.227-0.374c-0.091-0.146-0.182-0.292-0.28-0.433
			c-0.09-0.128-0.186-0.251-0.281-0.375c-0.097-0.127-0.193-0.254-0.297-0.375c-0.11-0.13-0.228-0.254-0.344-0.379
			c-0.1-0.106-0.198-0.213-0.302-0.315c-0.13-0.127-0.267-0.247-0.404-0.367c-0.103-0.09-0.204-0.181-0.311-0.267
			c-0.144-0.116-0.294-0.224-0.445-0.333c-0.112-0.08-0.222-0.161-0.336-0.237c-0.149-0.098-0.304-0.188-0.459-0.279
			c-0.128-0.075-0.256-0.15-0.388-0.219c-0.145-0.076-0.294-0.145-0.443-0.213c-0.154-0.071-0.307-0.142-0.465-0.205
			c-0.135-0.054-0.272-0.102-0.41-0.15c-0.18-0.063-0.36-0.125-0.544-0.178c-0.129-0.037-0.26-0.069-0.391-0.101
			c-0.196-0.048-0.392-0.093-0.592-0.129c-0.053-0.01-0.104-0.026-0.158-0.035c-0.091-0.015-0.181-0.019-0.271-0.031
			c-0.18-0.025-0.361-0.048-0.544-0.062c-0.184-0.016-0.366-0.023-0.549-0.028C296.179,0.011,296.091,0,296,0h-80
			c-0.086,0-0.169,0.011-0.255,0.013c-0.189,0.005-0.379,0.012-0.569,0.029c-0.181,0.015-0.359,0.038-0.537,0.062
			c-0.092,0.013-0.182,0.016-0.274,0.031c-0.054,0.009-0.105,0.025-0.158,0.035c-0.2,0.036-0.396,0.081-0.592,0.129
			c-0.131,0.032-0.262,0.063-0.391,0.101c-0.184,0.053-0.365,0.114-0.544,0.178c-0.138,0.048-0.276,0.096-0.41,0.15
			c-0.158,0.063-0.311,0.134-0.464,0.205c-0.149,0.069-0.298,0.137-0.443,0.213c-0.132,0.069-0.26,0.145-0.389,0.22
			c-0.155,0.09-0.309,0.18-0.458,0.278c-0.115,0.076-0.225,0.157-0.337,0.237c-0.151,0.108-0.301,0.216-0.444,0.332
			c-0.106,0.086-0.208,0.177-0.311,0.267c-0.137,0.12-0.274,0.24-0.404,0.367c-0.104,0.102-0.202,0.208-0.302,0.315
			c-0.117,0.125-0.234,0.248-0.344,0.379c-0.103,0.122-0.199,0.249-0.297,0.375c-0.095,0.124-0.191,0.247-0.281,0.375
			c-0.098,0.141-0.189,0.287-0.28,0.433c-0.077,0.124-0.156,0.247-0.227,0.374c-0.087,0.154-0.165,0.312-0.244,0.471
			c-0.064,0.13-0.13,0.259-0.189,0.392c-0.07,0.157-0.131,0.318-0.193,0.48c-0.055,0.144-0.111,0.288-0.159,0.435
			c-0.05,0.152-0.092,0.307-0.135,0.462c-0.046,0.165-0.091,0.33-0.128,0.498c-0.031,0.142-0.056,0.285-0.081,0.429
			c-0.033,0.187-0.064,0.374-0.086,0.564c-0.016,0.135-0.025,0.272-0.036,0.409c-0.015,0.198-0.027,0.395-0.03,0.595
			C206.008,9.889,206,9.944,206,10c0,0.095,0.011,0.187,0.014,0.281c0.005,0.178,0.012,0.356,0.027,0.536
			c0.015,0.185,0.038,0.367,0.063,0.549c0.012,0.09,0.016,0.179,0.031,0.27l6.977,42.113L183.68,70.74
			c-2.297,1.326-3.973,3.511-4.659,6.072c-0.686,2.561-0.327,5.292,0.999,7.589l13.028,22.562
			c-4.466,5.76-8.102,12.126-10.873,19.037H156c-5.522,0-10,4.478-10,10v10H98.28c-4.128-11.639-15.243-20-28.28-20
			c-16.542,0-30,13.458-30,30c0,9.599,4.537,18.153,11.574,23.648l-9.013,27.046c-7.857,1.469-15.081,5.253-20.839,11.022
			C14.163,225.269,10,235.313,10,246s4.163,20.731,11.722,28.284c3.907,3.901,10.237,3.899,14.143-0.006
			c3.903-3.907,3.9-10.238-0.006-14.143C32.081,256.361,30,251.341,30,246c0-5.342,2.081-10.361,5.867-14.146
			c3.761-3.768,8.768-5.844,14.1-5.853c0.011,0,0.022,0.001,0.034,0.001c0.011,0,0.022-0.001,0.033-0.001
			c5.332,0.009,10.339,2.085,14.108,5.863C67.919,235.639,70,240.658,70,246c0,5.341-2.081,10.361-5.858,14.136
			c-3.906,3.904-3.909,10.235-0.006,14.143c1.953,1.954,4.514,2.932,7.074,2.932c2.558,0,5.116-0.976,7.068-2.926
			C85.837,266.731,90,256.687,90,246s-4.163-20.731-11.713-28.274c-4.34-4.348-9.508-7.565-15.148-9.521l7.404-22.218
			c12.801-0.229,23.667-8.51,27.737-19.986H146v10c0,5.522,4.478,10,10,10h26.175c2.771,6.911,6.407,13.277,10.873,19.037
			L180.02,227.6c-1.326,2.297-1.686,5.027-0.999,7.589s2.362,4.746,4.659,6.072l34.641,20c4.785,2.762,10.898,1.122,13.66-3.659
			l12.977-22.473c7.623,1.17,14.463,1.17,22.086,0l12.977,22.473c1.853,3.208,5.214,5.001,8.67,5.001
			c1.696,0,3.416-0.433,4.99-1.342l34.641-20c2.297-1.326,3.973-3.511,4.659-6.072c0.686-2.561,0.327-5.292-0.999-7.589
			l-13.028-22.562c4.466-5.76,8.102-12.126,10.873-19.037H356c5.522,0,10-4.478,10-10v-10h47.72
			c4.07,11.477,14.936,19.757,27.737,19.986l7.404,22.218c-5.639,1.955-10.805,5.169-15.14,9.512
			C426.163,225.269,422,235.313,422,246s4.163,20.731,11.722,28.284c3.908,3.901,10.238,3.899,14.143-0.006
			c3.903-3.907,3.9-10.238-0.006-14.143C444.081,256.361,442,251.341,442,246c0-5.342,2.081-10.361,5.867-14.146
			c3.76-3.767,8.767-5.844,14.099-5.853c0.011,0,0.022,0.001,0.033,0.001s0.022-0.001,0.034-0.001
			c5.332,0.009,10.339,2.085,14.109,5.863C479.919,235.639,482,240.658,482,246c0,5.341-2.081,10.361-5.858,14.136
			c-3.906,3.904-3.909,10.235-0.006,14.143c1.953,1.954,4.514,2.932,7.074,2.932c2.558,0,5.116-0.976,7.068-2.926
			C497.837,266.731,502,256.687,502,246S497.837,225.269,490.287,217.726z M70,166c-5.514,0-10-4.486-10-10c0-5.514,4.486-10,10-10
			s10,4.486,10,10C80,161.514,75.514,166,70,166z M284.208,20l-6.306,38.063l-10.859,18.809c-7.623-1.17-14.461-1.17-22.084,0
			L234.1,58.069L227.793,20H284.208z M346,165.999h-23.26c-4.412,0-8.303,2.892-9.575,7.116c-2.773,9.206-7.375,17.261-13.678,23.94
			c-3.033,3.214-3.597,8.037-1.388,11.864l11.56,20.019l-17.32,10l-11.549-20c-1.814-3.142-5.146-5-8.658-5
			c-0.77,0-1.548,0.089-2.32,0.273C264.766,215.415,260.248,216,256,216s-8.766-0.585-13.812-1.787
			c-4.298-1.028-8.767,0.897-10.979,4.727l-11.549,20l-17.32-10l11.56-20.019c2.209-3.827,1.646-8.65-1.388-11.864
			c-6.303-6.68-10.904-14.734-13.678-23.94c-1.272-4.225-5.163-7.116-9.575-7.116H166V146h23.26c4.412,0,8.303-2.892,9.575-7.116
			c2.773-9.206,7.375-17.261,13.678-23.94c3.033-3.214,3.597-8.037,1.388-11.864l-11.56-20.019l17.322-10.001l11.547,20
			c2.212,3.831,6.68,5.757,10.979,4.728C247.234,96.585,251.752,96,256,96s8.766,0.585,13.812,1.787
			c4.305,1.026,8.767-0.896,10.979-4.728l11.547-20L309.66,83.06l-11.56,20.019c-2.209,3.827-1.646,8.65,1.388,11.864
			c6.303,6.68,10.904,14.734,13.678,23.94c1.272,4.225,5.163,7.116,9.575,7.116H346V165.999z M442,166c-5.514,0-10-4.486-10-10
			c0-5.514,4.486-10,10-10c5.514,0,10,4.486,10,10C452,161.514,447.514,166,442,166z"/>
	</g>
</g>
<g>
	<g>
		<path d="M452,372.726V316c0-5.522-4.478-10-10-10h-86c-5.522,0-10,4.478-10,10v56h-40v-56c0-5.522-4.478-10-10-10h-80
			c-5.522,0-10,4.478-10,10v56h-40v-56c0-5.522-4.478-10-10-10H70c-5.522,0-10,4.478-10,10v56.713
			c-14.899,2.119-28.66,8.955-39.504,19.789C7.279,405.73,0,423.309,0,442c0,38.598,31.402,70,70,70h372
			c18.691,0,36.27-7.279,49.504-20.502C504.721,478.27,512,460.691,512,442C512,406.798,485.876,377.594,452,372.726z M366,326h66
			v46h-66V326z M226,326h60v46h-60V326z M80,326h66v46H80V326z M477.361,477.355C467.91,486.799,455.353,492,442,492H70
			c-27.57,0-50-22.43-50-50c0-13.353,5.201-25.91,14.639-35.355C44.09,397.201,56.647,392,70,392h372c27.57,0,50,22.43,50,50
			C492,455.353,486.799,467.91,477.361,477.355z"/>
	</g>
</g>
<g>
	<g>
		<path d="M336,432H176c-5.522,0-10,4.478-10,10c0,5.522,4.478,10,10,10h160c5.522,0,10-4.478,10-10
			C346,436.478,341.522,432,336,432z"/>
	</g>
</g>
<g>
</g>
<g>
</g>
<g>
</g>
<g>
</g>
<g>
</g>
<g>
</g>
<g>
</g>
<g>
</g>
<g>
</g>
<g>
</g>
<g>
</g>
<g>
</g>
<g>
</g>
<g>
</g>
<g>
</g>
</svg>
