<svg height="480pt" viewBox="0 0 480 480" width="480pt" xmlns="http://www.w3.org/2000/svg"><path d="m456 432v-304c0-3.144531-1.84375-5.996094-4.707031-7.289062-2.867188-1.292969-6.222657-.789063-8.582031 1.289062l-60.152344 53.070312-6.558594-167.382812c-.167969-4.296875-3.699219-7.69140625-8-7.6875h-64c-4.300781-.00390625-7.832031 3.390625-8 7.6875l-4.992188 127.382812-45.886718 38.25-5.121094-125.648437c-.175781-4.289063-3.707031-7.675781-8-7.671875h-72c-4.292969-.003906-7.824219 3.382812-8 7.671875l-3.550781 86.902344-121.738281 107.425781c-1.722657 1.519531-2.710938 3.703125-2.710938 6v184c-13.253906 0-24 10.746094-24 24s10.746094 24 24 24h432c13.253906 0 24-10.746094 24-24s-10.746094-24-24-24zm-140.609375-311.199219c-2.546875-1.164062-5.519531-.910156-7.832031.671875l1-25.472656h54.890625l3.640625 92.726562-47.089844 41.546876v-102.273438c-.015625-3.089844-1.8125-5.890625-4.609375-7.199219zm47.007813-51.058593.417968 10.257812h-53.601562l.578125-14.625.023437-1.375h52.367188zm-2.09375-53.742188 1.296874 32h-51.121093l1.253906-32zm-184.304688 214.910156v-102.910156c.007812-2.652344-1.308594-5.136719-3.507812-6.617188-2.203126-1.484374-4.996094-1.769531-7.453126-.765624l1.359376-32.617188h59.203124l4 98.222656zm48.320312-174.910156.648438 16h-57.9375l.648438-16zm-184.320312 195.609375 120-105.882813v102.273438c0 .773438.113281 1.539062.335938 2.28125.371093.867188.816406 1.703125 1.328124 2.496094.078126.109375.40625.488281.503907.589844.671875.773437 1.488281 1.410156 2.398437 1.871093.976563.316407 1.976563.542969 2.992188.671875h.800781c.832031-.101562 1.652344-.269531 2.457031-.503906.808594-.300781 1.566406-.730469 2.238282-1.269531l130.753906-108.90625c.066406-.03125.128906-.070313.191406-.109375v102.878906c.011719.816406.140625 1.625.390625 2.398438.394531.871093.859375 1.707031 1.394531 2.496093.085938.121094.429688.503907.519532.601563.742187.664062 1.546874 1.257812 2.398437 1.777344.941406.289062 1.90625.496093 2.882813.621093h.871093c.859375-.113281 1.707031-.296875 2.535157-.550781.792968-.3125 1.527343-.753906 2.175781-1.304688l.097656-.054687 122.734375-108.257813v286.273438h-120v-112c0-4.417969-3.582031-8-8-8h-144c-4.417969 0-8 3.582031-8 8v112h-120zm264 180.390625h-128v-104h128zm152 32h-432c-4.417969 0-8-3.582031-8-8s3.582031-8 8-8h432c4.417969 0 8 3.582031 8 8s-3.582031 8-8 8zm0 0"/><path d="m168 296h144c4.417969 0 8-3.582031 8-8s-3.582031-8-8-8h-144c-4.417969 0-8 3.582031-8 8s3.582031 8 8 8zm0 0"/><path d="m136 320h-72c-4.417969 0-8 3.582031-8 8v80c0 4.417969 3.582031 8 8 8h72c4.417969 0 8-3.582031 8-8v-80c0-4.417969-3.582031-8-8-8zm-8 80h-56v-64h56zm0 0"/><path d="m344 416h72c4.417969 0 8-3.582031 8-8v-80c0-4.417969-3.582031-8-8-8h-72c-4.417969 0-8 3.582031-8 8v80c0 4.417969 3.582031 8 8 8zm8-80h56v64h-56zm0 0"/><path d="m224 400c4.417969 0 8-3.582031 8-8v-24c0-4.417969-3.582031-8-8-8s-8 3.582031-8 8v24c0 4.417969 3.582031 8 8 8zm0 0"/><path d="m256 400c4.417969 0 8-3.582031 8-8v-24c0-4.417969-3.582031-8-8-8s-8 3.582031-8 8v24c0 4.417969 3.582031 8 8 8zm0 0"/></svg>