<svg height="512pt" viewBox="-69 0 512 512" width="512pt" xmlns="http://www.w3.org/2000/svg"><path d="m110.335938 456.128906h-54.359376c-8.515624 0-15.441406-6.925781-15.441406-15.441406v-237.121094c0-4.125 3.34375-7.46875 7.46875-7.46875 4.128906 0 7.472656 3.34375 7.472656 7.46875v237.121094c0 .277344.222657.5.5.5h54.359376c4.128906 0 7.472656 3.34375 7.472656 7.46875 0 4.128906-3.34375 7.472656-7.472656 7.472656zm0 0"/><path d="m352.246094 56.503906h-64.316406v-8.179687c0-7.417969-6.03125-13.449219-13.445313-13.449219h-44.355469c-4.160156-20.289062-21.953125-34.875-42.820312-34.875-20.863282 0-38.65625 14.585938-42.816406 34.875h-44.355469c-7.417969 0-13.449219 6.03125-13.449219 13.449219v8.183593h-64.316406c-12.335938 0-22.371094 10.035157-22.371094 22.371094v410.746094c0 12.339844 10.035156 22.375 22.371094 22.375h329.878906c12.335938 0 22.371094-10.039062 22.371094-22.375v-410.746094c0-12.335937-10.035156-22.375-22.375-22.375zm-250.613282-6.6875h44.097657c6.558593 0 12.121093-4.644531 13.230469-11.042968 2.386718-13.808594 14.3125-23.832032 28.351562-23.832032s25.960938 10.023438 28.347656 23.832032c1.109375 6.398437 6.671875 11.042968 13.230469 11.042968h44.097656v60.324219h-171.355469zm258.046876 439.808594c0 4.097656-3.335938 7.433594-7.433594 7.433594h-329.875c-4.097656 0-7.429688-3.335938-7.429688-7.433594v-410.746094c0-4.097656 3.332032-7.429687 7.429688-7.429687h64.316406v14.839843h-30.710938c-8.515624 0-15.441406 6.925782-15.441406 15.441407v67.136719c0 4.128906 3.34375 7.472656 7.46875 7.472656 4.128906 0 7.472656-3.34375 7.472656-7.472656v-67.136719c0-.273438.226563-.5.5-.5h30.710938v10.402343c0 7.417969 6.035156 13.449219 13.449219 13.449219h174.347656c7.414063 0 13.445313-6.03125 13.445313-13.449219v-10.402343h30.714843c.273438 0 .496094.226562.496094.5v338.957031c0 .277344-.222656.5-.496094.5h-174.171875c-4.125 0-7.46875 3.34375-7.46875 7.472656 0 4.125 3.34375 7.46875 7.46875 7.46875h174.171875c8.515625 0 15.441407-6.925781 15.441407-15.441406v-338.957031c0-8.515625-6.925782-15.441407-15.441407-15.441407h-30.714843v-14.839843h64.316406c4.097656 0 7.433594 3.332031 7.433594 7.429687zm0 0"/><path d="m96.390625 162.640625h18.886719c4.125 0 7.46875-3.34375 7.46875-7.472656 0-4.125-3.34375-7.46875-7.46875-7.46875h-18.886719c-4.128906 0-7.472656 3.34375-7.472656 7.46875 0 4.128906 3.34375 7.472656 7.472656 7.472656zm0 0"/><path d="m137.304688 162.640625h38.410156c4.125 0 7.46875-3.34375 7.46875-7.472656 0-4.125-3.34375-7.46875-7.46875-7.46875h-38.410156c-4.125 0-7.472657 3.34375-7.472657 7.46875 0 4.128906 3.347657 7.472656 7.472657 7.472656zm0 0"/><path d="m96.390625 191.578125h82.753906c4.125 0 7.472657-3.34375 7.472657-7.46875s-3.34375-7.472656-7.472657-7.472656h-82.753906c-4.128906 0-7.472656 3.347656-7.472656 7.472656s3.34375 7.46875 7.472656 7.46875zm0 0"/><path d="m205.046875 191.578125h27.890625c4.128906 0 7.472656-3.34375 7.472656-7.46875s-3.34375-7.472656-7.472656-7.472656h-27.890625c-4.128906 0-7.472656 3.347656-7.472656 7.472656s3.34375 7.46875 7.472656 7.46875zm0 0"/><path d="m110.339844 217.773438c-13.042969 0-23.652344 10.609374-23.652344 23.648437s10.609375 23.648437 23.652344 23.648437c13.039062 0 23.648437-10.609374 23.648437-23.648437s-10.609375-23.648437-23.648437-23.648437zm0 32.355468c-4.804688 0-8.707032-3.90625-8.707032-8.707031s3.902344-8.707031 8.707032-8.707031c4.796875 0 8.703125 3.90625 8.703125 8.707031s-3.90625 8.707031-8.703125 8.707031zm0 0"/><path d="m145.6875 241.421875c0 4.128906 3.34375 7.472656 7.472656 7.472656h118.039063c4.125 0 7.46875-3.347656 7.46875-7.472656s-3.34375-7.46875-7.46875-7.46875h-118.039063c-4.128906-.003906-7.472656 3.34375-7.472656 7.46875zm0 0"/><path d="m153.160156 312.957031h91.015625c4.125 0 7.46875-3.347656 7.46875-7.472656s-3.34375-7.46875-7.46875-7.46875h-91.015625c-4.128906 0-7.472656 3.34375-7.472656 7.46875s3.34375 7.472656 7.472656 7.472656zm0 0"/><path d="m153.160156 280.925781h69.480469c4.125 0 7.46875-3.347656 7.46875-7.472656s-3.34375-7.46875-7.46875-7.46875h-69.480469c-4.128906 0-7.472656 3.34375-7.472656 7.46875s3.34375 7.472656 7.472656 7.472656zm0 0"/><path d="m110.339844 326.023438c-13.042969 0-23.652344 10.609374-23.652344 23.648437 0 13.042969 10.609375 23.648437 23.652344 23.648437 13.039062 0 23.648437-10.609374 23.648437-23.648437s-10.609375-23.648437-23.648437-23.648437zm0 32.355468c-4.804688 0-8.707032-3.90625-8.707032-8.707031s3.902344-8.707031 8.707032-8.707031c4.796875 0 8.703125 3.90625 8.703125 8.707031s-3.90625 8.707031-8.703125 8.707031zm0 0"/><path d="m271.199219 342.203125h-118.039063c-4.128906 0-7.472656 3.34375-7.472656 7.46875s3.34375 7.472656 7.472656 7.472656h118.039063c4.125 0 7.472656-3.347656 7.472656-7.472656s-3.347656-7.46875-7.472656-7.46875zm0 0"/><path d="m244.175781 406.265625h-91.015625c-4.128906 0-7.472656 3.34375-7.472656 7.46875s3.34375 7.472656 7.472656 7.472656h91.015625c4.125 0 7.46875-3.347656 7.46875-7.472656s-3.34375-7.46875-7.46875-7.46875zm0 0"/><path d="m153.160156 389.175781h69.480469c4.125 0 7.46875-3.34375 7.46875-7.472656 0-4.125-3.34375-7.46875-7.46875-7.46875h-69.480469c-4.128906 0-7.472656 3.34375-7.472656 7.46875 0 4.128906 3.34375 7.472656 7.472656 7.472656zm0 0"/></svg>