<?xml version="1.0" encoding="iso-8859-1"?>
<!-- Generator: Adobe Illustrator 19.0.0, SVG Export Plug-In . SVG Version: 6.00 Build 0)  -->
<svg version="1.1" id="Layer_1" xmlns="http://www.w3.org/2000/svg" xmlns:xlink="http://www.w3.org/1999/xlink" x="0px" y="0px"
	 viewBox="0 0 512 512" style="enable-background:new 0 0 512 512;" xml:space="preserve">
<g>
	<g>
		<g>
			<path d="M374.763,73.897V52.784h-31.67V0H168.907v52.784h-31.67v21.113h-63.34V512h50.145v-15.835h-34.31V89.732h47.505v21.113
				h237.526V89.732h47.505v406.433H145.153V512h292.951V73.897H374.763z M358.928,95.01H153.072V68.619h113.485V52.784h-81.814
				V15.835h142.516v52.784h31.67V95.01z"/>
			<path d="M160.99,147.794v-15.835h-44.866v343.093h217.052l62.7-62.701V131.959h-208.49v15.835h192.655v253.361h-58.062v58.062
				H131.959V147.794H160.99z M337.814,416.99h31.03l-31.03,31.03V416.99z"/>
			<rect x="282.392" y="52.784" width="26.392" height="15.835"/>
			<path d="M221.691,184.742h-58.062v58.062h58.062V184.742z M205.856,226.969h-26.392v-26.392h26.392V226.969z"/>
			<path d="M163.629,332.536h58.062v-58.062h-58.062V332.536z M179.464,290.309h26.392v26.392h-26.392V290.309z"/>
			<path d="M163.629,422.268h58.062v-58.062h-58.062V422.268z M179.464,380.041h26.392v26.392h-26.392V380.041z"/>
			<rect x="245.443" y="190.021" width="95.01" height="15.835"/>
			<rect x="245.443" y="221.691" width="52.784" height="15.835"/>
			<rect x="319.34" y="221.691" width="21.113" height="15.835"/>
			<rect x="245.443" y="279.753" width="95.01" height="15.835"/>
			<rect x="245.443" y="311.423" width="52.784" height="15.835"/>
			<rect x="319.34" y="311.423" width="21.113" height="15.835"/>
			<rect x="245.443" y="369.485" width="95.01" height="15.835"/>
			<rect x="245.443" y="401.155" width="52.784" height="15.835"/>
		</g>
	</g>
</g>
<g>
</g>
<g>
</g>
<g>
</g>
<g>
</g>
<g>
</g>
<g>
</g>
<g>
</g>
<g>
</g>
<g>
</g>
<g>
</g>
<g>
</g>
<g>
</g>
<g>
</g>
<g>
</g>
<g>
</g>
</svg>
