<svg height="512pt" viewBox="0 -111 512 512" width="512pt" xmlns="http://www.w3.org/2000/svg"><path d="m435.199219 187.734375c-14.136719 0-25.597657 11.460937-25.597657 25.597656 0 14.140625 11.460938 25.601563 25.597657 25.601563 14.140625 0 25.601562-11.460938 25.601562-25.601563-.015625-14.128906-11.46875-25.582031-25.601562-25.597656zm0 34.132813c-4.710938 0-8.53125-3.820313-8.53125-8.535157 0-4.710937 3.820312-8.53125 8.53125-8.53125 4.714843 0 8.535156 3.820313 8.535156 8.53125-.003906 4.710938-3.824219 8.53125-8.535156 8.535157zm0 0"/><path d="m93.867188 187.734375c-14.140626 0-25.601563 11.460937-25.601563 25.597656 0 14.140625 11.460937 25.601563 25.601563 25.601563 14.136718 0 25.597656-11.460938 25.597656-25.601563-.015625-14.128906-11.464844-25.582031-25.597656-25.597656zm0 34.132813c-4.714844 0-8.535157-3.820313-8.535157-8.535157 0-4.710937 3.820313-8.53125 8.535157-8.53125 4.710937 0 8.53125 3.820313 8.53125 8.53125-.003907 4.710938-3.820313 8.53125-8.53125 8.535157zm0 0"/><path d="m499.296875 122.832031c-30.335937-17.574219-92.6875-20.03125-110.535156-20.375l-33.398438-53.390625c1.90625-1.582031 3.015625-3.921875 3.035157-6.398437 0-4.714844-3.820313-8.535157-8.53125-8.535157h-6.101563c-22.710937-20.601562-71.09375-34.132812-126.679687-34.132812-55.753907 0-104.394532 13.457031-126.921876 34.132812h-4.832031c-4.710937 0-8.53125 3.820313-8.53125 8.535157.019531 2.078125.808594 4.078125 2.210938 5.609375l-42.835938 57.089844c-3.75 3.875-27.640625 29.648437-27.640625 56.765624v25.601563c-4.714844 0-8.535156 3.820313-8.535156 8.53125 0 4.714844 3.820312 8.535156 8.535156 8.535156-.003906 3.230469 1.824219 6.1875 4.714844 7.632813l31.648438 15.824218c5.925781 19.503907 22.867187 33.625 43.117187 35.945313 20.25 2.316406 39.945313-7.609375 50.125-25.269531h252.785156c9.117188 15.839844 26 25.601562 44.273438 25.601562 18.273437 0 35.15625-9.761718 44.273437-25.601562h6.925782c14.132812-.015625 25.585937-11.46875 25.601562-25.601563v-68.351562c-.003906-9.113281-4.839844-17.542969-12.703125-22.148438zm-282.207031-105.765625c32.546875-.886718 64.933594 4.921875 95.144531 17.066406h-190.21875c30.195313-12.113281 62.550781-17.921874 95.074219-17.066406zm115.710937 128h8.53125v17.066406h-8.53125c-4.714843 0-8.535156 3.820313-8.535156 8.535157 0 4.710937 3.820313 8.53125 8.535156 8.53125h8.53125v8.535156c-.003906 4.710937-3.820312 8.527344-8.53125 8.53125h-102.402343c-4.710938-.003906-8.527344-3.820313-8.53125-8.53125v-59.734375c.003906-4.710938 3.820312-8.527344 8.53125-8.535156h110.933593v8.535156h-8.53125c-4.714843 0-8.535156 3.820312-8.535156 8.535156 0 4.710938 3.820313 8.53125 8.535156 8.53125zm-93.867187-42.667968v-48.355469c-.03125-1 .21875-1.984375.726562-2.84375h59.796875c-.042969.042969-.015625.140625.109375.351562.167969.332031.355469.652344.5625.957031l33.679688 49.890626zm-51.199219-48.355469v45.515625c.03125.996094-.222656 1.984375-.730469 2.839844h-85.011718c-.796876-1.480469-.941407-3.230469-.398438-4.824219l33.257812-44.753907c.25-.339843.765626-1.113281 1.054688-1.621093h51.097656c.507813.859375.761719 1.84375.730469 2.84375zm-93.867187 193.421875c-18.851563 0-34.132813-15.28125-34.132813-34.132813 0-18.851562 15.28125-34.132812 34.132813-34.132812 18.851562 0 34.132812 15.28125 34.132812 34.132812-.019531 18.84375-15.289062 34.113281-34.132812 34.132813zm341.332031 0c-18.851563 0-34.132813-15.28125-34.132813-34.132813 0-18.851562 15.28125-34.132812 34.132813-34.132812 18.851562 0 34.132812 15.28125 34.132812 34.132812-.019531 18.84375-15.289062 34.113281-34.132812 34.132813zm59.734375-102.398438h-8.535156c-4.710938 0-8.53125 3.820313-8.53125 8.535156 0 4.710938 3.820312 8.53125 8.53125 8.53125h8.535156v51.199219c-.003906 4.710938-3.824219 8.53125-8.535156 8.535157h-.765626c3.523438-20.117188-5.246093-40.40625-22.3125-51.621094-17.070312-11.21875-39.171874-11.21875-56.238281 0-17.070312 11.214844-25.839843 31.503906-22.3125 51.621094h-240.472656c3.117187-18.429688-4.0625-37.089844-18.726563-48.675782-14.660156-11.589844-34.476562-14.261718-51.683593-6.972656-17.210938 7.285156-29.078125 23.375-30.960938 41.96875l-17.324219-8.664062v-37.390626c0-21.699218 22.878907-44.941406 23.105469-45.175781.28125-.28125.546875-.582031.785157-.898437l44.886718-59.820313c.179688-.242187.34375-.492187.5-.75.253906-.433593.554688-.839843.890625-1.214843.765625-.847657 1.351563-1.84375 1.726563-2.921876l.117187-.152343h17.175781l-27.460937 36.949219c-.296875.402343-.558594.828124-.78125 1.277343-3.425781 6.976563-3.085937 15.214844.902344 21.890625 2.847656 4.96875 8.105469 8.066406 13.832031 8.148438h86.453125c4.910156-.351563 9.480469-2.652344 12.683594-6.390625 3.207031-3.742188 4.785156-8.605469 4.382812-13.515625v-45.515625c-.023437-.953125-.101562-1.902344-.238281-2.84375h17.542969c-.136719.941406-.214844 1.890625-.238281 2.84375v49.929687c-10.199219 3.59375-17.035157 13.214844-17.066407 24.027344v59.734375c.015625 14.132813 11.46875 25.582031 25.597657 25.597656h102.402343c14.132813-.015625 25.582031-11.464843 25.597657-25.597656v-8.535156h8.535156c4.710937 0 8.53125-3.820313 8.53125-8.53125 0-4.714844-3.820313-8.535157-8.53125-8.535157h-8.535156v-17.066406h8.535156c4.710937 0 8.53125-3.820312 8.53125-8.53125 0-4.714844-3.820313-8.535156-8.53125-8.535156h-8.535156v-17.066406c0-.0625-.03125-.113282-.035157-.171875-.023437-.988281-.21875-1.964844-.582031-2.882813-.09375-.246094-.222656-.457031-.339844-.6875-.144531-.355468-.3125-.699218-.503906-1.03125l-37.101562-54.960937h16.777343c.882813 1.132812 1.664063 2.339843 2.328125 3.609375l.039063.074218c.046875.113282.136719.199219.191406.3125.089844.160157.117187.347657.21875.503907.054687.101562.113281.191406.171875.285156l37.207031 59.476563c1.558594 2.492187 4.289063 4.003906 7.230469 4.003906.753906 0 75.835938.226562 106.730469 18.125 2.628906 1.527344 4.234375 4.351562 4.203125 7.390625zm0 0"/><path d="m256 136.535156h-8.535156c-4.710938 0-8.53125 3.820313-8.53125 8.53125 0 4.714844 3.820312 8.535156 8.53125 8.535156h8.535156c4.710938 0 8.535156-3.820312 8.535156-8.535156 0-4.710937-3.824218-8.53125-8.535156-8.53125zm0 0"/><path d="m315.734375 273.066406h-307.199219c-4.714844 0-8.535156 3.820313-8.535156 8.535156 0 4.710938 3.820312 8.53125 8.535156 8.53125h307.199219c4.710937 0 8.53125-3.820312 8.53125-8.53125 0-4.714843-3.820313-8.535156-8.53125-8.535156zm0 0"/><path d="m384 273.066406h-34.132812c-4.714844 0-8.535157 3.820313-8.535157 8.535156 0 4.710938 3.820313 8.53125 8.535157 8.53125h34.132812c4.710938 0 8.535156-3.820312 8.535156-8.53125 0-4.714843-3.824218-8.535156-8.535156-8.535156zm0 0"/><path d="m503.464844 273.066406h-85.332032c-4.710937 0-8.53125 3.820313-8.53125 8.535156 0 4.710938 3.820313 8.53125 8.53125 8.53125h85.332032c4.714844 0 8.535156-3.820312 8.535156-8.53125 0-4.714843-3.820312-8.535156-8.535156-8.535156zm0 0"/></svg>