<?xml version="1.0" encoding="iso-8859-1"?>
<!-- Generator: Adobe Illustrator 19.0.0, SVG Export Plug-In . SVG Version: 6.00 Build 0)  -->
<svg version="1.1" id="Capa_1" xmlns="http://www.w3.org/2000/svg" xmlns:xlink="http://www.w3.org/1999/xlink" x="0px" y="0px"
	 viewBox="0 0 496 496" style="enable-background:new 0 0 496 496;" xml:space="preserve">
<g>
	<g>
		<g>
			<path d="M88,192h160c13.232,0,24-10.768,24-24v-64c0-13.232-10.768-24-24-24H88c-13.232,0-24,10.768-24,24v64
				C64,181.232,74.768,192,88,192z M80,104c0-4.416,3.592-8,8-8h160c4.408,0,8,3.584,8,8v64c0,4.416-3.592,8-8,8H88
				c-4.408,0-8-3.584-8-8V104z"/>
			<path d="M484.664,93.272L432,18.048l-52.664,75.224c-7.416,10.6-11.336,23.04-11.336,35.984C368,163.848,396.144,192,430.744,192
				h2.512c34.6,0,62.744-28.152,62.744-62.744C496,116.312,492.08,103.872,484.664,93.272z M433.256,176h-2.512
				C404.968,176,384,155.032,384,129.256c0-9.64,2.92-18.912,8.448-26.816L432,45.952l39.552,56.496
				c5.528,7.896,8.448,17.168,8.448,26.808C480,155.032,459.032,176,433.256,176z"/>
			<path d="M416,254.112V456c0,13.232-10.768,24-24,24s-24-10.768-24-24V328c0-22.056-17.944-40-40-40h-24V64h16
				c8.824,0,16-7.176,16-16V16c0-8.824-7.176-16-16-16H16C7.176,0,0,7.176,0,16v32c0,8.824,7.176,16,16,16h16v432h272V304h24
				c13.232,0,24,10.768,24,24v128c0,22.056,17.944,40,40,40c22.056,0,40-17.944,40-40V312h16c8.824,0,16-7.176,16-16v-32
				c0-8.824-7.176-16-16-16h-11.056l8-16H472v-16h-36.944L416,254.112z M288,480H48V64h240V480z M32,48H16V16h304l0.008,32H304H32z
				 M448,264v32h-16v-32H448z"/>
			<rect x="80" y="208" width="16" height="16"/>
			<rect x="112" y="208" width="16" height="16"/>
			<rect x="144" y="208" width="16" height="16"/>
			<rect x="176" y="208" width="16" height="16"/>
			<rect x="208" y="208" width="16" height="16"/>
			<rect x="240" y="208" width="16" height="16"/>
			<rect x="96" y="144" width="16" height="16"/>
			<rect x="128" y="144" width="112" height="16"/>
		</g>
	</g>
</g>
<g>
</g>
<g>
</g>
<g>
</g>
<g>
</g>
<g>
</g>
<g>
</g>
<g>
</g>
<g>
</g>
<g>
</g>
<g>
</g>
<g>
</g>
<g>
</g>
<g>
</g>
<g>
</g>
<g>
</g>
</svg>
