<svg height="512pt" viewBox="-36 0 512 512" width="512pt" xmlns="http://www.w3.org/2000/svg"><path d="m440.597656 373.078125-30-88c-1.035156-3.035156-3.890625-5.078125-7.097656-5.078125h-366c-3.207031 0-6.0625 2.042969-7.097656 5.078125l-30 88c-.78125 2.292969-.4101565 4.820313 1 6.785156 1.40625 1.96875 3.679687 3.136719 6.097656 3.136719h23v113.917969c0 8.316406 6.765625 15.082031 15.082031 15.082031h349.835938c8.3125 0 15.082031-6.765625 15.082031-15.082031v-113.917969h23c2.417969 0 4.691406-1.167969 6.097656-3.136719 1.410156-1.964843 1.78125-4.492187 1-6.785156zm-395.097656 123.839844v-113.917969h124.5c4.140625 0 7.5-3.359375 7.5-7.5s-3.359375-7.5-7.5-7.5h-152.019531l24.886719-73h219.152343l-24.886719 73h-37.132812c-4.140625 0-7.5 3.359375-7.5 7.5s3.359375 7.5 7.5 7.5h42.5c3.210938 0 6.0625-2.042969 7.097656-5.078125l15.378906-45.113281v164.191406h-219.394531c-.042969 0-.082031-.035156-.082031-.082031zm274.5.082031v-37.863281l13.722656 8.699219c2.476563 1.566406 5.628906 1.554687 8.085938-.035157l13.191406-8.523437v37.722656zm75.5-.082031c0 .042969-.035156.082031-.082031.082031h-25.417969v-42.21875c0-4.601562-2.507812-8.824219-6.550781-11.023438-4.039063-2.203124-8.949219-2.015624-12.8125.480469l-12.9375 8.355469-13.425781-8.511719c-3.867188-2.449219-8.757813-2.601562-12.773438-.394531-4.007812 2.207031-6.5 6.417969-6.5 10.996094v42.316406h-25.023438v-164.324219l15.425782 45.246094c1.035156 3.035156 3.890625 5.078125 7.097656 5.078125h93zm-87.632812-128.917969-24.886719-73h115.152343l24.886719 73zm0 0"/><path d="m219.5 212c14.507812 0 28.414062-3.320312 41.328125-9.871094 3.695313-1.875 5.171875-6.390625 3.296875-10.082031-1.875-3.695313-6.390625-5.167969-10.082031-3.296875-10.792969 5.476562-22.414063 8.25-34.542969 8.25-42.179688 0-76.5-34.316406-76.5-76.5s34.320312-76.5 76.5-76.5c42.183594 0 76.5 34.316406 76.5 76.5 0 19.222656-7.171875 37.605469-20.195312 51.757812-2.804688 3.050782-2.605469 7.792969.441406 10.597657 3.046875 2.804687 7.789062 2.609375 10.597656-.441407 15.578125-16.929687 24.15625-38.917968 24.15625-61.914062 0-50.453125-41.046875-91.5-91.5-91.5s-91.5 41.046875-91.5 91.5 41.046875 91.5 91.5 91.5zm0 0"/><path d="m191.351562 237.683594 17.53125 23.207031c2.539063 3.359375 6.40625 5.285156 10.617188 5.285156s8.078125-1.925781 10.617188-5.285156l17.535156-23.207031c25.441406-6.101563 48.503906-20.570313 65.175781-40.960938 17.523437-21.425781 27.171875-48.496094 27.171875-76.222656 0-32.003906-12.410156-62.140625-34.949219-84.859375-22.523437-22.707031-52.53125-35.363281-84.5-35.63671875-.351562-.00390625-.695312-.00390625-1.046875-.00390625-65.859375 0-119.820312 53.277344-120.496094 119.238281-.578124 56.097657 38.09375 105.457031 92.34375 118.445313zm28.15625-222.683594c.304688 0 .609376 0 .917969.003906 27.984375.238282 54.257813 11.320313 73.976563 31.199219 19.730468 19.890625 30.597656 46.277344 30.597656 74.296875 0 24.277344-8.445312 47.972656-23.78125 66.726562-15.132812 18.5-36.253906 31.433594-59.472656 36.417969-1.761719.375-3.328125 1.375-4.414063 2.8125l-17.832031 23.601563-17.832031-23.605469c-1.085938-1.433594-2.652344-2.433594-4.410157-2.808594-48.75-10.460937-83.765624-54.304687-83.25-104.253906.589844-57.75 47.828126-104.390625 105.5-104.390625zm0 0"/><path d="m274.929688 89.324219-10.253907-10.253907c-2.5-2.503906-5.828125-3.882812-9.367187-3.882812-3.539063 0-6.867188 1.378906-9.367188 3.882812l-43.882812 43.878907-13.921875-7.921875c-6.347657-3.613282-14.453125-1.390625-18.066407 4.960937l-7.175781 12.605469c-3.613281 6.347656-1.386719 14.453125 4.960938 18.066406l27.503906 15.65625c3.085937 1.753906 6.589844 2.683594 10.136719 2.683594 5.476562 0 10.628906-2.132812 14.5-6.003906l54.9375-54.9375c5.160156-5.164063 5.160156-13.570313-.003906-18.734375zm-65.539063 63.066406c-1.039063 1.039063-2.421875 1.609375-3.894531 1.609375-.949219 0-1.890625-.25-2.714844-.722656l-25.984375-14.789063 5.441406-9.558593 17.367188 9.886718c2.9375 1.667969 6.625 1.171875 9.015625-1.214844l46.6875-46.6875 7.777344 7.777344zm0 0"/><path d="m226.503906 399h-142.007812c-7.992188 0-14.496094 6.503906-14.496094 14.496094v48.007812c0 7.992188 6.503906 14.496094 14.496094 14.496094h142.007812c7.992188 0 14.496094-6.503906 14.496094-14.496094v-48.007812c0-7.992188-6.503906-14.496094-14.496094-14.496094zm-.503906 62h-141v-47h141zm0 0"/><path d="m101.5 445h15c4.140625 0 7.5-3.359375 7.5-7.5s-3.359375-7.5-7.5-7.5h-15c-4.140625 0-7.5 3.359375-7.5 7.5s3.359375 7.5 7.5 7.5zm0 0"/><path d="m136.5 445h74c4.140625 0 7.5-3.359375 7.5-7.5s-3.359375-7.5-7.5-7.5h-74c-4.140625 0-7.5 3.359375-7.5 7.5s3.359375 7.5 7.5 7.5zm0 0"/></svg>