<?xml version="1.0" encoding="iso-8859-1"?>
<!-- Generator: Adobe Illustrator 19.0.0, SVG Export Plug-In . SVG Version: 6.00 Build 0)  -->
<svg version="1.1" id="Capa_1" xmlns="http://www.w3.org/2000/svg" xmlns:xlink="http://www.w3.org/1999/xlink" x="0px" y="0px"
	 viewBox="0 0 512.001 512.001" style="enable-background:new 0 0 512.001 512.001;" xml:space="preserve">
<g>
	<g>
		<path d="M213.385,149.343H170.56c-2.802-0.003-5.488-1.12-7.467-3.104c-2.035-2.018-3.172-4.77-3.155-7.636
			c0.034-5.891,4.838-10.639,10.729-10.604h10.667h21.312h10.688c5.891,0,10.667,4.776,10.667,10.667h21.333
			c0-17.673-14.327-32-32-32h-10.688V96h-21.313v10.667h-10.667c-17.673,0-32,14.327-32,32c0,0.018,0,0.036,0,0.053
			c-0.012,17.632,14.272,31.935,31.904,31.947h42.837c5.891,0.021,10.65,4.813,10.629,10.704s-4.813,10.65-10.704,10.629h-42.667
			c-5.891,0-10.667-4.776-10.667-10.667h-21.333c0,17.673,14.327,32,32,32h10.667V224h21.312v-10.667h10.688
			c17.216-0.3,31.109-14.169,31.437-31.385C245.106,164.278,231.055,149.681,213.385,149.343z"/>
	</g>
</g>
<g>
	<g>
		<path d="M448,96h-64V64c-0.035-35.332-28.668-63.965-64-64H64C28.669,0.035,0.035,28.668,0,64v192
			c0.035,29.415,20.084,55.032,48.629,62.133l-26.432,61.664c-1.238,2.882-1.144,6.164,0.256,8.971l10.667,21.333
			c1.807,3.617,5.504,5.901,9.547,5.899c2.046,0,4.05-0.589,5.771-1.696L195.136,320H320c35.332-0.035,63.965-28.668,64-64V117.333
			h64c23.564,0,42.667,19.103,42.667,42.667v192c0,23.564-19.102,42.667-42.667,42.667c-1.455-0.001-2.896,0.296-4.232,0.872
			c-5.409,2.333-7.904,8.609-5.571,14.019l30.048,70.123l-3.136,6.283l-139.339-89.6c-1.721-1.107-3.724-1.696-5.771-1.696H192
			c-16.973,0.008-32.336-10.044-39.125-25.6l-19.541,8.533c10.181,23.327,33.215,38.404,58.667,38.4h124.864l146.699,94.304
			c1.721,1.107,3.724,1.696,5.771,1.696c4.043,0.002,7.74-2.282,9.547-5.899l10.667-21.333c1.4-2.807,1.494-6.088,0.256-8.971
			l-26.432-61.664C491.917,407.032,511.966,381.415,512,352V160C511.966,124.668,483.333,96.035,448,96z M320,298.667H192
			c-2.052-0.01-4.063,0.571-5.792,1.675l-139.339,89.6l-3.136-6.283l30.069-70.123c0.569-1.328,0.863-2.757,0.863-4.201
			c0.001-5.891-4.774-10.667-10.666-10.668c-23.564,0-42.667-19.103-42.667-42.667V64c0-23.564,19.103-42.667,42.667-42.667h256
			c23.564,0,42.667,19.103,42.667,42.667v192h0.001C362.667,279.564,343.565,298.667,320,298.667z"/>
	</g>
</g>
<g>
	<g>
		<path d="M271.808,202.667c-3.565-0.009-6.899,1.764-8.885,4.725c-6.217,9.296-14.2,17.28-23.497,23.497
			c-39.175,26.199-92.171,15.679-118.37-23.497c-1.982-2.955-5.306-4.727-8.864-4.725H64V224h42.667
			c20.129,26.878,51.754,42.69,85.333,42.667c33.58,0.023,65.204-15.789,85.333-42.667H320v-21.333H271.808z"/>
	</g>
</g>
<g>
	<g>
		<path d="M277.333,96C271.27,87.914,264.086,80.731,256,74.667C208.872,39.32,142.013,48.872,106.667,96H64v21.333h48.213
			c3.558,0.002,6.882-1.771,8.864-4.725c6.217-9.296,14.2-17.28,23.497-23.497c39.175-26.199,92.171-15.679,118.37,23.497
			c1.982,2.955,5.306,4.727,8.864,4.725H320V96H277.333z"/>
	</g>
</g>
<g>
	<g>
		<rect x="405.331" y="170.67" width="64" height="21.333"/>
	</g>
</g>
<g>
	<g>
		<rect x="405.331" y="256" width="64" height="21.333"/>
	</g>
</g>
<g>
	<g>
		<rect x="405.331" y="341.33" width="64" height="21.333"/>
	</g>
</g>
<g>
	<g>
		<rect x="405.331" y="213.33" width="21.333" height="21.333"/>
	</g>
</g>
<g>
	<g>
		<rect x="448" y="213.33" width="21.333" height="21.333"/>
	</g>
</g>
<g>
	<g>
		<rect x="405.331" y="298.67" width="21.333" height="21.333"/>
	</g>
</g>
<g>
	<g>
		<rect x="448" y="298.67" width="21.333" height="21.333"/>
	</g>
</g>
<g>
	<g>
		<rect x="266.671" y="341.33" width="117.33" height="21.333"/>
	</g>
</g>
<g>
	<g>
		<rect x="192" y="341.33" width="53.33" height="21.333"/>
	</g>
</g>
<g>
</g>
<g>
</g>
<g>
</g>
<g>
</g>
<g>
</g>
<g>
</g>
<g>
</g>
<g>
</g>
<g>
</g>
<g>
</g>
<g>
</g>
<g>
</g>
<g>
</g>
<g>
</g>
<g>
</g>
</svg>
