<?xml version="1.0" encoding="iso-8859-1"?>
<!-- Generator: Adobe Illustrator 19.0.0, SVG Export Plug-In . SVG Version: 6.00 Build 0)  -->
<svg version="1.1" id="Capa_1" xmlns="http://www.w3.org/2000/svg" xmlns:xlink="http://www.w3.org/1999/xlink" x="0px" y="0px"
	 viewBox="0 0 512 512" style="enable-background:new 0 0 512 512;" xml:space="preserve">
<g>
	<g>
		<path d="M212.142,152.426c-7.977-7.977-18.582-12.371-29.864-12.371c-11.281,0-21.886,4.394-29.864,12.371
			c-16.466,16.467-16.466,43.26,0,59.727c7.977,7.977,18.583,12.371,29.864,12.371c11.282,0,21.887-4.394,29.864-12.371
			C228.608,195.687,228.608,168.893,212.142,152.426z M190.621,190.634c-2.229,2.229-5.191,3.456-8.343,3.456
			c-3.151,0-6.114-1.228-8.343-3.456c-4.601-4.601-4.601-12.086,0-16.687c2.229-2.229,5.192-3.456,8.344-3.456
			s6.114,1.228,8.343,3.456C195.223,178.548,195.223,186.033,190.621,190.634z"/>
	</g>
</g>
<g>
	<g>
		<path d="M495.484,415.748l-85.717-85.717c-18.259-18.259-46.019-21.339-67.501-9.272l-20.786-20.786
			c27.876-32.864,43.077-74.102,43.077-117.682c0-48.688-18.96-94.462-53.388-128.89C276.741,18.973,230.967,0.013,182.278,0.013
			c-48.689,0-94.462,18.961-128.89,53.388C18.96,87.828,0,133.602,0,182.29c0,48.688,18.96,94.462,53.388,128.891
			c35.535,35.535,82.212,53.303,128.89,53.303c41.917,0,83.83-14.34,117.677-42.996l20.776,20.776
			c-4.709,8.346-7.229,17.797-7.229,27.642c0,15.063,5.866,29.223,16.517,39.874l85.717,85.717
			c10.993,10.994,25.434,16.49,39.874,16.49s28.881-5.496,39.874-16.49C506.134,484.847,512,470.686,512,455.623
			C512,440.559,506.135,426.398,495.484,415.748z M289.647,289.661c-29.606,29.606-68.481,44.406-107.37,44.403
			c-38.879-0.004-77.771-14.804-107.37-44.403c-28.679-28.68-44.474-66.812-44.474-107.371c0-40.558,15.794-78.689,44.474-107.37
			c28.68-28.68,66.811-44.474,107.37-44.474c40.559,0,78.69,15.793,107.37,44.474c28.679,28.68,44.474,66.811,44.474,107.37
			C334.121,222.849,318.327,260.981,289.647,289.661z M473.964,473.976c-10.121,10.12-26.589,10.12-36.709,0l-85.717-85.717
			c-10.12-10.121-10.12-26.588,0-36.709c5.061-5.06,11.707-7.589,18.354-7.589c6.646,0,13.295,2.53,18.354,7.589l85.717,85.718
			c4.903,4.903,7.603,11.421,7.603,18.355C481.566,462.556,478.866,469.073,473.964,473.976z"/>
	</g>
</g>
<g>
	<g>
		<path d="M294.434,201.59l-14.417-8.324c0.808-7.284,0.808-14.666,0-21.95l14.417-8.324c3.495-2.018,6.045-5.342,7.09-9.24
			c1.045-3.898,0.498-8.052-1.521-11.547l-24.148-41.825c-2.018-3.495-5.341-6.045-9.24-7.09c-3.9-1.043-8.053-0.498-11.547,1.521
			l-14.398,8.313c-5.929-4.396-12.285-8.074-19.029-11.01V75.511c0-8.404-6.813-15.217-15.217-15.217h-48.294
			c-8.404,0-15.217,6.813-15.217,15.217v16.602c-6.742,2.936-13.1,6.614-19.029,11.01l-14.397-8.313
			c-3.495-2.018-7.649-2.563-11.547-1.521c-3.899,1.045-7.222,3.595-9.24,7.09l-24.148,41.825
			c-2.018,3.495-2.565,7.649-1.521,11.548c1.044,3.899,3.594,7.221,7.09,9.239l14.417,8.324c-0.808,7.284-0.808,14.666,0,21.95
			l-14.417,8.324c-3.495,2.018-6.045,5.341-7.09,9.239c-1.045,3.898-0.498,8.053,1.521,11.548l24.148,41.825
			c2.018,3.495,5.341,6.045,9.24,7.09c3.898,1.042,8.053,0.497,11.547-1.521l14.397-8.313c5.929,4.396,12.285,8.074,19.029,11.01
			v16.602c0,8.404,6.813,15.217,15.217,15.217h48.294c8.404,0,15.217-6.813,15.217-15.217v-16.602
			c6.742-2.936,13.1-6.614,19.029-11.01l14.398,8.313c3.495,2.018,7.648,2.564,11.547,1.521c3.899-1.045,7.222-3.595,9.24-7.09
			l24.148-41.825c2.018-3.496,2.566-7.649,1.521-11.547C300.48,206.931,297.93,203.608,294.434,201.59z M248.436,166.857
			c2.342,10.096,2.342,20.77,0,30.867c-1.514,6.523,1.415,13.269,7.215,16.617l10.387,5.997l-8.93,15.468l-10.404-6.007
			c-5.806-3.354-13.122-2.509-18.015,2.076c-7.698,7.215-16.671,12.406-26.67,15.431c-6.42,1.942-10.811,7.858-10.811,14.565v11.982
			h-17.86V261.87c0-6.707-4.392-12.623-10.811-14.565c-9.999-3.024-18.972-8.216-26.67-15.431
			c-4.893-4.584-12.21-5.429-18.015-2.076l-10.404,6.007l-8.93-15.468l10.387-5.997c5.8-3.348,8.729-10.094,7.215-16.618
			c-2.342-10.096-2.342-20.768,0-30.865c1.514-6.524-1.415-13.27-7.215-16.618l-10.387-5.997l8.93-15.468l10.404,6.007
			c5.807,3.355,13.123,2.51,18.015-2.076c7.698-7.215,16.671-12.406,26.67-15.431c6.42-1.942,10.811-7.858,10.811-14.565V90.728
			h17.86v11.982c0,6.707,4.392,12.623,10.811,14.565c9.999,3.024,18.972,8.216,26.67,15.431c4.892,4.585,12.209,5.426,18.015,2.076
			l10.404-6.007l8.93,15.468l-10.387,5.997C249.851,153.588,246.922,160.334,248.436,166.857z"/>
	</g>
</g>
<g>
</g>
<g>
</g>
<g>
</g>
<g>
</g>
<g>
</g>
<g>
</g>
<g>
</g>
<g>
</g>
<g>
</g>
<g>
</g>
<g>
</g>
<g>
</g>
<g>
</g>
<g>
</g>
<g>
</g>
</svg>
