<svg xmlns="http://www.w3.org/2000/svg" height="489pt" version="1.1" viewBox="0 0 489 489.77025" width="489pt">
<g id="surface1">
<path d="M 306.011719 126.636719 C 272.664062 126.636719 245.628906 153.671875 245.628906 187.019531 C 245.628906 220.367188 272.664062 247.398438 306.011719 247.398438 C 339.359375 247.398438 366.390625 220.367188 366.390625 187.019531 C 366.359375 153.679688 339.34375 126.671875 306.011719 126.636719 Z M 306.011719 231.371094 C 281.515625 231.371094 261.660156 211.511719 261.660156 187.019531 C 261.660156 162.527344 281.515625 142.671875 306.011719 142.671875 C 330.503906 142.671875 350.359375 162.527344 350.359375 187.019531 C 350.328125 211.503906 330.488281 231.335938 306.011719 231.371094 Z M 306.011719 231.371094 " style=" stroke:none;fill-rule:nonzero;fill:rgb(0%,0%,0%);fill-opacity:1;" />
<path d="M 367.671875 97.785156 L 347.046875 108.472656 C 342.441406 106.050781 337.632812 104.050781 332.675781 102.484375 L 325.515625 80.3125 L 286.507812 80.3125 L 279.347656 102.378906 C 274.390625 103.945312 269.578125 105.949219 264.972656 108.363281 L 244.347656 97.675781 L 216.777344 125.195312 L 227.464844 145.820312 C 225.046875 150.425781 223.042969 155.238281 221.476562 160.195312 L 199.515625 167.515625 L 199.515625 206.46875 L 221.53125 213.574219 C 223.097656 218.535156 225.101562 223.34375 227.515625 227.949219 L 216.828125 248.574219 L 244.402344 276.148438 L 265.027344 265.460938 C 269.632812 267.878906 274.441406 269.878906 279.398438 271.445312 L 286.507812 293.457031 L 325.511719 293.457031 L 332.621094 271.445312 C 337.578125 269.878906 342.386719 267.878906 346.992188 265.460938 L 367.617188 276.148438 L 395.191406 248.574219 L 384.503906 227.949219 C 386.917969 223.34375 388.921875 218.535156 390.488281 213.574219 L 412.503906 206.46875 L 412.503906 167.515625 L 390.488281 160.355469 C 388.921875 155.398438 386.917969 150.585938 384.503906 145.980469 L 395.191406 125.355469 Z M 396.6875 179.164062 L 396.6875 194.660156 L 377.503906 201.074219 L 376.382812 205.347656 C 374.6875 211.839844 372.097656 218.058594 368.6875 223.835938 L 366.445312 227.628906 L 375.847656 245.582031 L 364.574219 256.644531 L 346.566406 247.453125 L 342.773438 249.695312 C 336.996094 253.113281 330.777344 255.699219 324.285156 257.390625 L 320.011719 258.515625 L 313.8125 277.699219 L 298.15625 277.699219 L 291.957031 258.515625 L 287.683594 257.390625 C 281.117188 255.71875 274.820312 253.128906 268.980469 249.695312 L 265.1875 247.453125 L 247.609375 256.644531 L 236.386719 245.582031 L 245.578125 227.574219 L 243.332031 223.78125 C 239.925781 218.027344 237.332031 211.816406 235.636719 205.347656 L 234.515625 201.070312 L 215.546875 194.660156 L 215.546875 179.164062 L 234.730469 172.964844 L 235.851562 168.691406 C 237.539062 162.199219 240.132812 155.980469 243.546875 150.203125 L 245.789062 146.410156 L 236.601562 128.457031 L 247.609375 117.394531 L 265.613281 126.585938 L 269.410156 124.339844 C 275.117188 120.949219 281.265625 118.355469 287.683594 116.648438 L 291.957031 115.523438 L 298.15625 96.339844 L 313.8125 96.339844 L 320.011719 115.523438 L 324.285156 116.648438 C 330.777344 118.335938 337.003906 120.925781 342.773438 124.339844 L 346.566406 126.585938 L 364.574219 117.394531 L 375.847656 128.457031 L 366.445312 146.570312 L 368.6875 150.363281 C 372.097656 156.140625 374.6875 162.359375 376.382812 168.851562 L 377.503906 173.128906 Z M 396.6875 179.164062 " style=" stroke:none;fill-rule:nonzero;fill:rgb(0%,0%,0%);fill-opacity:1;" />
<path d="M 306.011719 151.914062 C 286.652344 151.914062 270.957031 167.605469 270.957031 186.964844 C 270.957031 206.324219 286.652344 222.019531 306.011719 222.019531 C 325.371094 222.019531 341.0625 206.324219 341.0625 186.964844 C 341.03125 167.617188 325.355469 151.945312 306.011719 151.914062 Z M 306.011719 206.042969 C 295.507812 206.042969 286.988281 197.523438 286.988281 187.019531 C 286.988281 176.515625 295.503906 167.996094 306.011719 167.996094 C 316.515625 167.996094 325.035156 176.511719 325.035156 187.019531 C 325 197.515625 316.5 206.015625 306.011719 206.042969 Z M 306.011719 206.042969 " style=" stroke:none;fill-rule:nonzero;fill:rgb(0%,0%,0%);fill-opacity:1;" />
<path d="M 306.011719 0.265625 C 204.347656 0.265625 121.929688 82.683594 121.9375 184.351562 C 121.9375 204.925781 125.382812 225.351562 132.136719 244.78125 L 112.792969 273.046875 C 110.710938 276.285156 111.226562 280.550781 114.023438 283.199219 L 122.25 291.429688 L 16.292969 397.226562 C -4.925781 418.464844 -4.917969 452.875 16.320312 474.09375 C 37.554688 495.3125 71.964844 495.300781 93.183594 474.066406 L 198.875 368.320312 L 207.160156 376.335938 C 209.882812 379.078125 214.175781 379.476562 217.363281 377.296875 L 245.417969 358.007812 C 341.445312 391.476562 446.425781 340.765625 479.898438 244.738281 C 513.367188 148.710938 462.652344 43.730469 366.621094 10.261719 C 347.132812 3.46875 326.648438 0 306.011719 0 Z M 81.960938 462.738281 C 66.957031 477.742188 42.625 477.742188 27.621094 462.738281 C 12.617188 447.734375 12.617188 423.398438 27.621094 408.394531 L 133.367188 302.808594 L 154.738281 324.183594 L 63.902344 415.023438 C 60.664062 418.042969 60.484375 423.113281 63.5 426.351562 C 66.519531 429.589844 71.589844 429.769531 74.828125 426.75 C 74.96875 426.625 75.101562 426.488281 75.230469 426.351562 L 166.066406 335.511719 L 187.441406 356.886719 Z M 213.785156 360.304688 L 130.050781 276.574219 L 139.617188 262.574219 C 157.816406 301.363281 188.925781 332.621094 227.621094 351.007812 Z M 424.847656 302.96875 C 378.3125 349.46875 308.949219 364.578125 247.289062 341.65625 C 160.308594 309.191406 116.117188 212.355469 148.589844 125.375 C 181.058594 38.398438 277.882812 -5.785156 364.863281 26.679688 C 451.84375 59.144531 496.03125 155.980469 463.5625 242.960938 C 455.140625 265.511719 441.976562 286 424.949219 303.023438 Z M 424.847656 302.96875 " style=" stroke:none;fill-rule:nonzero;fill:rgb(0%,0%,0%);fill-opacity:1;" />
<path d="M 306.011719 46.59375 C 229.929688 46.601562 168.257812 108.277344 168.261719 184.359375 C 168.269531 260.4375 229.945312 322.105469 306.027344 322.101562 C 382.105469 322.09375 443.773438 260.417969 443.769531 184.335938 C 443.769531 147.804688 429.25 112.765625 403.414062 86.9375 C 377.640625 61.015625 342.566406 46.492188 306.011719 46.59375 Z M 391.878906 270.429688 C 344.351562 317.96875 267.28125 317.980469 219.738281 270.449219 C 172.191406 222.917969 172.183594 145.851562 219.714844 98.308594 C 267.246094 50.761719 344.3125 50.753906 391.859375 98.285156 C 414.683594 121.109375 427.515625 152.066406 427.519531 184.347656 C 427.609375 216.648438 414.777344 247.644531 391.878906 270.429688 Z M 391.878906 270.429688 " style=" stroke:none;fill-rule:nonzero;fill:rgb(0%,0%,0%);fill-opacity:1;" />
</g>
</svg>