<?xml version="1.0" encoding="iso-8859-1"?>
<!-- Generator: Adobe Illustrator 19.0.0, SVG Export Plug-In . SVG Version: 6.00 Build 0)  -->
<svg version="1.1" id="Capa_1" xmlns="http://www.w3.org/2000/svg" xmlns:xlink="http://www.w3.org/1999/xlink" x="0px" y="0px"
	 viewBox="0 0 512.001 512.001" style="enable-background:new 0 0 512.001 512.001;" xml:space="preserve">
<g>
	<g>
		<g>
			<path d="M266.375,197.165c4.632,0.803,9.041-2.292,9.858-6.921c0.818-4.629-2.264-9.047-6.891-9.879
				c-27.005-4.692-54.471,5.305-72.142,26.258c-2.133,2.538-2.603,6.081-1.206,9.087c1.397,3.006,4.408,4.932,7.723,4.938
				c2.521,0.005,4.914-1.109,6.533-3.042C223.999,201.306,245.364,193.524,266.375,197.165z"/>
			<path d="M190.242,235.732c-4.644-0.815-9.069,2.29-9.883,6.933c-0.552,3.159-0.911,6.348-1.075,9.55
				c-0.229,4.706,3.394,8.71,8.1,8.95c0.142,0.009,0.283,0.009,0.433,0.009c4.545-0.004,8.29-3.57,8.517-8.109
				c0.126-2.498,0.407-4.986,0.842-7.45C197.99,240.971,194.886,236.546,190.242,235.732z"/>
			<path d="M346.25,321.182c32.253-44.277,27.477-105.442-11.257-144.176c-38.734-38.734-99.899-43.51-144.176-11.257
				c-44.276,32.253-58.488,91.935-33.498,140.681L10.009,453.74c-13.289,13.311-13.311,34.862-0.05,48.2
				c6.369,6.481,15.089,10.109,24.175,10.058c9.063,0.055,17.763-3.554,24.125-10.008l147.31-147.309
				C254.314,379.67,313.997,365.459,346.25,321.182z M46.142,489.974c-6.739,6.436-17.354,6.414-24.067-0.05
				c-6.65-6.664-6.65-17.453,0-24.117l75.034-75.034l24.117,24.117L46.142,489.974z M133.292,402.823l-24.116-24.117l18.142-18.142
				l24.117,24.117L133.292,402.823z M163.501,372.615l-24.117-24.117l27.166-27.166c6.757,9.226,14.891,17.36,24.116,24.117
				L163.501,372.615z M162.134,255.998c0.059-51.817,42.05-93.808,93.867-93.867c51.841,0,93.867,42.026,93.867,93.867
				S307.842,349.865,256,349.865S162.134,307.839,162.134,255.998z"/>
			<path d="M510.584,228.965c-0.343-3.137-2.387-5.829-5.317-7l-51.917-20.767c-4.462-16.022-10.883-31.433-19.117-45.884
				l22.117-51.517c1.251-2.914,0.782-6.28-1.217-8.742c-5.4-6.667-11.475-13.417-18.116-20.142
				c-6.658-6.575-13.408-12.65-20.075-18.05c-2.458-2.006-5.829-2.475-8.742-1.217l-51.517,22.117
				c-14.451-8.234-29.862-14.654-45.884-19.117L290.034,6.731c-1.172-2.929-3.863-4.974-7-5.316
				c-17.973-1.883-36.094-1.883-54.067,0c-3.136,0.343-5.828,2.387-7,5.316l-20.767,51.917
				c-16.022,4.462-31.433,10.883-45.884,19.117L103.8,55.648c-2.912-1.259-6.284-0.789-8.742,1.217
				c-6.667,5.4-13.417,11.475-20.142,18.117c-6.575,6.658-12.65,13.408-18.05,20.075c-1.999,2.461-2.467,5.828-1.217,8.742
				l22.117,51.517c-8.234,14.451-14.655,29.862-19.117,45.884L6.734,221.965c-2.929,1.172-4.974,3.864-5.316,7
				C0.456,237.944-0.017,246.968,0,255.998c-0.001,2.264,0.897,4.435,2.498,6.035s3.772,2.499,6.035,2.498H102.4
				c2.264,0.001,4.435-0.897,6.035-2.498s2.499-3.772,2.498-6.035c0-58.674,35.344-111.571,89.552-134.024
				s116.603-10.042,158.092,31.446s53.9,103.885,31.447,158.092c-22.454,54.208-75.35,89.552-134.024,89.552
				c-2.264-0.001-4.435,0.897-6.035,2.498c-1.601,1.601-2.499,3.772-2.498,6.035v93.867c-0.001,2.264,0.897,4.435,2.498,6.035
				c1.601,1.601,3.772,2.499,6.035,2.498c9.03,0.017,18.055-0.456,27.034-1.417c3.136-0.343,5.828-2.387,7-5.316l20.767-51.917
				c16.022-4.462,31.433-10.883,45.884-19.117l51.517,22.117c2.914,1.25,6.28,0.782,8.742-1.217
				c6.667-5.4,13.417-11.475,20.142-18.116c6.575-6.658,12.65-13.408,18.05-20.075c1.999-2.461,2.467-5.828,1.217-8.742
				l-22.117-51.517c8.234-14.451,14.654-29.862,19.117-45.884l51.917-20.767c2.929-1.172,4.974-3.864,5.316-7
				C512.473,265.059,512.473,246.938,510.584,228.965z M494.109,276.115l-51.066,20.425c-2.533,1.011-4.428,3.174-5.1,5.817
				c-4.437,17.362-11.364,33.99-20.567,49.367c-1.4,2.35-1.592,5.227-0.517,7.742l21.75,50.667c-4.2,4.95-8.767,9.933-13.592,14.817
				c-4.942,4.875-9.925,9.458-14.883,13.658l-50.667-21.75c-2.513-1.083-5.394-0.891-7.742,0.517
				c-15.377,9.202-32.005,16.13-49.367,20.567c-2.643,0.672-4.805,2.567-5.817,5.1l-20.425,51.067
				c-3.775,0.317-7.65,0.55-11.583,0.683v-76.883c87.208-4.596,155.108-77.438,153.575-164.754S346.162,95.422,258.846,93.889
				S98.688,160.257,94.092,247.465H17.209c0.133-3.933,0.367-7.808,0.683-11.583l51.067-20.425c2.533-1.011,4.428-3.174,5.1-5.817
				c4.437-17.362,11.364-33.99,20.567-49.367c1.4-2.35,1.592-5.227,0.517-7.742l-21.75-50.667c4.2-4.95,8.767-9.933,13.592-14.817
				c4.942-4.875,9.925-9.458,14.883-13.658l50.667,21.75c2.514,1.079,5.393,0.887,7.742-0.517
				c15.377-9.202,32.005-16.13,49.367-20.567c2.643-0.672,4.805-2.567,5.817-5.1l20.425-51.067c13.389-1.1,26.845-1.1,40.233,0
				l20.425,51.067c1.011,2.533,3.174,4.428,5.817,5.1c17.362,4.437,33.99,11.364,49.367,20.567c2.349,1.403,5.228,1.596,7.742,0.517
				l50.667-21.75c4.95,4.2,9.933,8.767,14.817,13.592c4.875,4.942,9.458,9.925,13.658,14.883l-21.75,50.667
				c-1.075,2.515-0.883,5.392,0.517,7.742c9.202,15.377,16.13,32.005,20.567,49.367c0.672,2.643,2.567,4.805,5.1,5.817
				l51.067,20.425c0.55,6.475,0.825,13.217,0.825,20.117C494.934,262.898,494.659,269.64,494.109,276.115z"/>
		</g>
	</g>
</g>
<g>
</g>
<g>
</g>
<g>
</g>
<g>
</g>
<g>
</g>
<g>
</g>
<g>
</g>
<g>
</g>
<g>
</g>
<g>
</g>
<g>
</g>
<g>
</g>
<g>
</g>
<g>
</g>
<g>
</g>
</svg>
