<?xml version="1.0" encoding="iso-8859-1"?>
<!-- Generator: Adobe Illustrator 19.0.0, SVG Export Plug-In . SVG Version: 6.00 Build 0)  -->
<svg version="1.1" id="Capa_1" xmlns="http://www.w3.org/2000/svg" xmlns:xlink="http://www.w3.org/1999/xlink" x="0px" y="0px"
	 viewBox="0 0 512 512" style="enable-background:new 0 0 512 512;" xml:space="preserve">
<g>
	<g>
		<g>
			
				<rect x="344.353" y="188.019" transform="matrix(-0.7071 -0.7071 0.7071 -0.7071 462.3642 582.5551)" width="14.96" height="15"/>
			<rect x="326.662" y="170.356" transform="matrix(0.7071 -0.7071 0.7071 0.7071 -27.8894 288.3813)" width="15" height="15"/>
			<rect x="308.989" y="152.683" transform="matrix(0.7071 -0.7071 0.7071 0.7071 -20.5694 270.7073)" width="15" height="15"/>
			<path d="M154.667,322.632l34.696,34.696l107.211-107.212l-34.696-34.695L154.667,322.632z M189.363,336.115l-13.483-13.483
				l85.998-85.998l13.483,13.482L189.363,336.115z"/>
			<rect x="447.895" y="156.692" transform="matrix(-0.7071 -0.7071 0.7071 -0.7071 661.3073 602.3065)" width="15" height="15"/>
			<rect x="465.572" y="139.012" transform="matrix(-0.7071 -0.7071 0.7071 -0.7071 703.9854 584.6243)" width="15" height="15"/>
			
				<rect x="414.935" y="168.025" transform="matrix(-0.7071 -0.7071 0.7071 -0.7071 581.737 635.2543)" width="15" height="58.239"/>
			<rect x="139.895" y="381.168" transform="matrix(-0.7071 -0.7071 0.7071 -0.7071 -23.2107 767.7214)" width="15" height="15"/>
			<rect x="157.572" y="363.488" transform="matrix(-0.7071 -0.7071 0.7071 -0.7071 19.4673 750.0394)" width="15" height="15"/>
			
				<rect x="106.934" y="392.501" transform="matrix(-0.7071 -0.7071 0.7071 -0.7071 -102.7798 800.6688)" width="15" height="58.239"/>
			<rect x="327.01" y="38.005" transform="matrix(0.7071 0.7071 -0.7071 0.7071 154.2644 -213.2186)" width="15" height="83.199"/>
			<path d="M38.196,437.84c-9.916,9.916-9.916,26.049,0,35.965c4.958,4.957,11.47,7.436,17.982,7.436
				c6.512,0,13.024-2.479,17.981-7.436c4.803-4.804,7.449-11.189,7.449-17.982c0-6.793-2.646-13.179-7.449-17.982
				C64.245,427.926,48.111,427.926,38.196,437.84z M63.553,463.197c-4.066,4.067-10.684,4.067-14.751,0
				c-4.067-4.066-4.067-10.684,0-14.75c4.066-4.066,10.685-4.066,14.751,0c1.97,1.97,3.055,4.589,3.055,7.375
				S65.523,461.228,63.553,463.197z"/>
			<path d="M481.224,77.515l-81.076,81.077l-36.861-9.878l-9.877-36.861l81.076-81.076L403.709,0h-54.448L248.998,100.263v54.448
				l18.067,18.068L0,439.845v31.769L40.386,512h31.769L339.22,244.935l18.068,18.067h54.448L512,162.739v-54.448L481.224,77.515z
				 M497,156.526l-91.476,91.476h-42.022l-24.281-24.28L65.942,497H46.599L15,465.4v-19.343l262.672-262.672l32.96,32.959
				l10.606-10.607l-38.263-38.262l-18.977-18.978v-42.022L355.474,15h42.022l15.776,15.776l-76.594,76.594l14.359,53.592
				l53.592,14.36l76.594-76.595L497,114.504V156.526z"/>
			<rect x="246.87" y="38.682" width="15" height="15"/>
			<rect x="271.87" y="38.682" width="15" height="15"/>
			<rect x="223.87" y="38.682" width="15" height="15"/>
			<rect x="467" y="246.42" width="15" height="15"/>
			<rect x="467" y="223.42" width="15" height="15"/>
			<rect x="467" y="271.42" width="15" height="15"/>
			<path d="M100.164,230.902l14.811,2.373c4.774-29.796,18.615-56.862,40.026-78.273l-10.606-10.607
				C120.736,168.055,105.441,197.968,100.164,230.902z"/>
			<path d="M410.008,290.715l-14.633-3.301c-1.04,4.61-2.328,9.228-3.828,13.721l14.229,4.75
				C407.434,300.917,408.857,295.813,410.008,290.715z"/>
			<path d="M382.187,322.938l13.244,7.041c2.457-4.621,4.708-9.415,6.689-14.251l-13.881-5.688
				C386.446,314.417,384.41,318.756,382.187,322.938z"/>
			<path d="M275.277,397.527l2.025,14.863c46.827-6.38,87.978-33.102,112.899-73.313l-12.75-7.902
				C354.896,367.569,317.655,391.754,275.277,397.527z"/>
			
				<rect x="380.126" y="402.869" transform="matrix(-0.7071 0.7071 -0.7071 -0.7071 990.6789 410.3849)" width="60.439" height="15"/>
			<rect x="32" y="274.18" width="46" height="15"/>
			<rect x="276" y="453.5" width="15" height="33"/>
			<path d="M255.997,363.995c-7.336,0-14.671-0.74-21.801-2.201l-3.01,14.695c8.118,1.663,16.465,2.506,24.811,2.506
				c29.217,0,57.536-10.424,79.741-29.353c21.951-18.712,36.69-44.596,41.503-72.883l-14.787-2.516
				C353.606,326.249,308.835,363.995,255.997,363.995z"/>
			<path d="M489.656,210.261H497v91.479h-74.901l-1.636,5.28c-3.101,10.006-7.174,19.822-12.108,29.178l-2.58,4.892l52.98,52.98
				l-64.685,64.687l-52.981-52.981l-4.892,2.58c-9.35,4.933-19.167,9.007-29.179,12.109l-5.279,1.637V497h-91.478l0.003-59.381
				c14.889,3.737,30.228,5.631,45.733,5.631c1.79,0,3.598-0.025,5.376-0.076l-0.428-14.994c-1.636,0.047-3.301,0.07-4.949,0.07
				c-17.403,0-34.553-2.656-51.014-7.755c-6.698-2.075-13.377-4.61-19.85-7.538l-6.181,13.668
				c5.336,2.413,10.803,4.582,16.312,6.474L195.26,512h121.479v-78.933c7.319-2.515,14.518-5.502,21.503-8.926l55.828,55.827
				l85.897-85.899l-55.827-55.827c3.425-6.988,6.413-14.187,8.926-21.503H512V195.261h-22.344V210.261z"/>
			
				<rect x="388.554" y="95.478" transform="matrix(-0.7071 -0.7071 0.7071 -0.7071 624.2332 464.5217)" width="39.537" height="15"/>
			<path d="M237.755,149.539l-2.515-14.787c-28.289,4.81-54.175,19.549-72.888,41.501c-18.93,22.205-29.354,50.525-29.354,79.743
				c0,8.352,0.844,16.703,2.509,24.823l14.694-3.014c-1.462-7.13-2.203-14.468-2.203-21.81
				C147.998,203.154,185.747,158.383,237.755,149.539z"/>
			<path d="M85.375,333.049l13.667-6.182c-2.923-6.463-5.458-13.139-7.534-19.839l-1.636-5.279L15,301.74v-91.479h74.9l1.636-5.28
				c3.1-10.006,7.174-19.822,12.108-29.178l2.58-4.892l-52.98-52.981l64.686-64.686l41.999,41.999
				c-16.55,9.899-31.416,22.237-44.279,36.79l11.239,9.934c13.902-15.728,30.407-28.555,48.915-38.321
				c9.348-4.932,19.165-9.006,29.178-12.109l5.28-1.637V15h91.479v7.344h15V0h-121.48v78.933
				c-7.319,2.515-14.519,5.503-21.503,8.926L117.93,32.031L32.031,117.93l55.827,55.828c-3.425,6.988-6.413,14.187-8.925,21.503H0
				v121.478l78.905,0.009C80.797,322.257,82.965,327.72,85.375,333.049z"/>
			<rect x="411.173" y="72.785" transform="matrix(0.7071 0.7071 -0.7071 0.7071 183.219 -281.7594)" width="41.1" height="15"/>
		</g>
	</g>
</g>
<g>
</g>
<g>
</g>
<g>
</g>
<g>
</g>
<g>
</g>
<g>
</g>
<g>
</g>
<g>
</g>
<g>
</g>
<g>
</g>
<g>
</g>
<g>
</g>
<g>
</g>
<g>
</g>
<g>
</g>
</svg>
