<svg height="480pt" viewBox="0 0 480.00143 480" width="480pt" xmlns="http://www.w3.org/2000/svg"><path d="m480 240c0-132.546875-107.449219-240-240-240-132.546875 0-240 107.453125-240 240-.121094 50.25 15.722656 99.242188 45.25 139.90625-8.558594 10.078125-13.253906 22.871094-13.25 36.09375v48c0 8.835938 7.164062 16 16 16h384c8.835938 0 16-7.164062 16-16v-48c.007812-13.222656-4.691406-26.015625-13.246094-36.09375 29.527344-40.664062 45.371094-89.65625 45.246094-139.90625zm-88 120h-48c-9.34375.015625-18.535156 2.375-26.726562 6.863281-1.539063-4.871093-3.761719-9.5-6.601563-13.75-10.335937-15.695312-27.878906-25.136719-46.671875-25.113281h-48c-18.765625-.027344-36.292969 9.386719-46.632812 25.046875-2.851563 4.273437-5.085938 8.921875-6.636719 13.816406-8.195313-4.488281-17.386719-6.847656-26.730469-6.863281h-48c-10.921875-.003906-21.601562 3.203125-30.710938 9.226562-25.324218-35.480468-39.578124-77.660156-40.96875-121.226562h87.679688c-22.078125.027344-39.972656 17.921875-40 40v8c0 4.417969 3.582031 8 8 8v16c0 22.09375 17.910156 40 40 40 22.09375 0 40-17.90625 40-40v-16c4.417969 0 8-3.582031 8-8v-8c-.027344-22.078125-17.917969-39.972656-40-40h72.800781c-.535156 2.632812-.804687 5.3125-.800781 8v8c0 4.417969 3.582031 8 8 8v16c0 22.09375 17.910156 40 40 40 22.09375 0 40-17.90625 40-40v-16c4.417969 0 8-3.582031 8-8v-8c.003906-2.6875-.265625-5.367188-.800781-8h72.800781c-22.078125.027344-39.972656 17.921875-40 40v8c0 4.417969 3.582031 8 8 8v16c0 22.09375 17.910156 40 40 40 22.09375 0 40-17.90625 40-40v-16c4.417969 0 8-3.582031 8-8v-8c-.027344-22.078125-17.917969-39.972656-40-40h87.679688c-1.390626 43.566406-15.644532 85.746094-40.96875 121.226562-9.109376-6.023437-19.789063-9.230468-30.710938-9.226562zm-24 43.6875-11.863281-27.6875h23.726562zm-192 60.3125v-80c-.03125-7.859375 2.292969-15.546875 6.671875-22.070312 6.390625-9.691407 16.683594-16.113282 28.191406-17.601563l10.570313 24.65625 10.566406 24.65625v70.359375zm64-92.3125-11.863281-27.6875h23.726562zm-128 32-11.863281-27.6875h23.726562zm232-99.6875c2.121094 0 4.15625-.84375 5.65625-2.34375l3.921875-3.917969 10.847656 5.421875c1.109375.554688 2.332031.839844 3.574219.839844h24v16c0 13.253906-10.746094 24-24 24s-24-10.746094-24-24zm25.890625-16-14.3125-7.199219c-3.082031-1.539062-6.800781-.929687-9.234375 1.503907l-5.65625 5.695312h-4.6875c0-13.253906 10.746094-24 24-24h16c13.253906 0 24 10.746094 24 24zm-121.890625-56c13.253906 0 24 10.746094 24 24h-30.109375l-14.3125-7.199219c-3.082031-1.539062-6.800781-.929687-9.234375 1.503907l-5.65625 5.695312h-4.6875c0-13.253906 10.746094-24 24-24zm-32 40c2.121094 0 4.15625-.84375 5.65625-2.34375l3.921875-3.917969 10.847656 5.421875c1.109375.554688 2.332031.839844 3.574219.839844h24v16c0 13.253906-10.746094 24-24 24s-24-10.746094-24-24zm32-56v-96.34375c29.546875-.988281 58.660156-7.417969 85.871094-18.96875 16.886718 41.738281 25.714844 86.292969 26.019531 131.3125h-80.097656c-7.492188-10.035156-19.269531-15.960938-31.792969-16zm0-112.34375v-87.105469c31.082031 3.84375 58.945312 29.851563 79.113281 69.601563-25.089843 10.585937-51.898437 16.515625-79.113281 17.503906zm-16-87.105469v87.105469c-27.210938-.976562-54.019531-6.898438-79.109375-17.472656 20.167969-39.78125 48.03125-65.789063 79.109375-69.632813zm0 103.105469v96.34375c-12.523438.039062-24.300781 5.964844-31.792969 16h-80.09375c.304688-45.019531 9.132813-89.574219 26.015625-131.3125 27.214844 11.550781 56.324219 17.980469 85.871094 18.96875zm-144 184.34375c2.121094 0 4.15625-.84375 5.65625-2.34375l3.921875-3.917969 10.847656 5.421875c1.109375.554688 2.332031.839844 3.574219.839844h24v16c0 13.253906-10.746094 24-24 24s-24-10.746094-24-24zm25.890625-16-14.3125-7.199219c-3.082031-1.539062-6.800781-.929687-9.234375 1.503907l-5.65625 5.695312h-4.6875c0-13.253906 10.746094-24 24-24h16c13.253906 0 24 10.746094 24 24zm349.910156-56h-87.910156c-.359375-47.324219-9.867187-94.132812-28-137.847656 13.40625-6.734375 26.148437-14.722656 38.054687-23.855469 47.398438 40.660156 75.628907 99.292969 77.855469 161.703125zm-90.710937-172.046875c-10.089844 7.46875-20.796875 14.070313-32 19.726563-10.21875-21.085938-24.425782-39.992188-41.832032-55.679688 26.621094 7.316406 51.65625 19.507812 73.832032 35.953125zm-234.191406 19.726563c-11.207032-5.65625-21.914063-12.257813-32-19.726563 22.179687-16.449219 47.21875-28.640625 73.847656-35.953125-17.414063 15.683594-31.625 34.59375-41.847656 55.679688zm-44.859376-9.382813c11.90625 9.132813 24.648438 17.121094 38.058594 23.855469-18.132812 43.714844-27.632812 90.523437-27.984375 137.847656h-87.914062c2.222656-62.40625 30.449219-121.039062 77.839843-161.703125zm-46.039062 345.703125c.066406-20.074219 15.027344-36.980469 34.945312-39.488281l21.054688 49.128906v38.359375h-56zm72 48v-38.398438l21.074219-49.167968c6.886719.890625 13.414062 3.585937 18.925781 7.808594v31.757812h-16v16h16v32zm128-70.398438 10.570312-24.65625 10.566407-24.65625c11.535156 1.496094 21.84375 7.945313 28.230469 17.664063 4.367187 6.519531 6.675781 14.199219 6.632812 22.046875v80h-56zm72-9.402343c5.519531-4.207031 12.046875-6.886719 18.929688-7.765625l21.070312 49.207031v38.359375h-40zm112 79.800781h-56v-38.398438l21.058594-49.128906c19.933594 2.507813 34.898437 19.4375 34.941406 39.527344zm0 0"/><path d="m272 384h16v16h-16zm0 0"/><path d="m400 416h16v16h-16zm0 0"/></svg>