<svg height="512pt" viewBox="0 0 512.00008 512" width="512pt" xmlns="http://www.w3.org/2000/svg"><path d="m30.886719 98.476562c-31.003907 31.003907-39.632813 78.210938-21.476563 117.472657 57.898438 125.179687 155.929688 227.882812 287.277344 287.238281 38.355469 17.335938 84.789062 8.40625 115.523438-22.328125l53.863281-53.863281-127.285157-127.285156-66.117187 66.117187c-52.378906-31.269531-97.414063-75.976563-128.488281-127.558594l67.464844-65.699219-127.425782-127.425781zm392.761719 328.519532-18.738282 18.734375-84.855468-84.855469 18.738281-18.738281zm-155.785157-29.316406 9.894531 5.496093 21.082032-21.085937 84.355468 84.355468c-21.472656 16.351563-50.117187 20.269532-74.152343 9.40625-152.941407-69.117187-232.550781-186.332031-272.402344-272.496093-11.359375-24.558594-7.894531-53.554688 8.210937-75.253907l83.605469 83.605469-21.820312 21.25 5.605469 10.039063c35.621093 63.785156 90.890624 118.722656 155.621093 154.683594zm-117.914062-206.902344-84.464844-84.46875 18.738281-18.738282 84.714844 84.714844zm0 0"/><path d="m454.417969 57.089844c-76.125-76.128906-201.25-76.113282-277.359375 0l21.210937 21.214844c64.265625-64.265626 170.421875-64.515626 234.9375 0 64.886719 64.886718 65.332031 170.015624 1 234.351562l21.210938 21.214844c75.871093-75.871094 75.339843-200.441406-1-276.78125zm0 0"/><path d="m273.488281 210.980469 6.335938-3.167969c21.664062-10.832031 35.125-32.609375 35.125-56.832031 0-24.816407-20.1875-45.003907-45-45.003907-24.816407 0-45.003907 20.1875-45.003907 45.003907v15h30.003907v-15c0-8.273438 6.726562-15.003907 15-15.003907 8.269531 0 15 6.730469 15 15.003907 0 12.785156-7.105469 24.28125-18.542969 30l-6.332031 3.167969c-21.667969 10.832031-35.128907 32.609374-35.128907 56.832031v15.003906h90.003907v-30.003906h-56.496094c3.171875-6.367188 8.371094-11.667969 15.035156-15zm0 0"/><path d="m434.953125 255.984375v-150.007813h-30v60.003907h-30v-60.003907h-30.003906v90.003907h60.003906v60.003906zm0 0"/></svg>