<svg height="480pt" viewBox="0 -8 480.00007 480" width="480pt" xmlns="http://www.w3.org/2000/svg"><path d="m64 424.929688v31.046874c0 4.417969 3.582031 8 8 8s8-3.582031 8-8v-32c0-1.976562 0-5.648437-62.28125-157.25-1.140625-2.832031-1.722656-5.863281-1.71875-8.917968v-201.832032c0-4.417968 3.582031-8 8-8h16c4.417969 0 8 3.582032 8 8v105.472657c-9.554688 3.378906-15.957031 12.394531-16 22.527343-.003906.539063.046875 1.074219.160156 1.601563l16 80c.167969.839844.472656 1.652344.894532 2.398437l32 56c1.382812 2.554688 4.039062 4.160157 6.941406 4.195313s5.597656-1.503906 7.039062-4.023437c1.445313-2.519532 1.410156-5.621094-.089844-8.109376l-31.351562-54.902343-15.59375-77.816407c.34375-4.160156 3.824219-7.359374 8-7.34375h15.648438c3.828124 2.894532 6.886718 6.683594 8.902343 11.039063l23.785157 79.296875c.445312 1.484375 1.3125 2.808594 2.496093 3.808594 42.007813 35.511718 101.167969 94.351562 101.167969 113.855468v72c0 4.417969 3.582031 8 8 8s8-3.582031 8-8v-72c0-32.960937-83.671875-106.398437-105.015625-124.570312l-23.320313-77.726562c-.132812-.4375-.304687-.867188-.503906-1.28125-2.359375-4.789063-11.160156-20.421876-23.160156-20.421876h-8v-104c0-13.253906-10.746094-24-24-24h-16c-13.253906 0-24 10.746094-24 24v201.832032c-.0078125 5.128906.972656 10.210937 2.886719 14.96875 23.121093 56.230468 57.914062 141.855468 61.113281 152.152344zm0 0"/><path d="m256 383.976562v72c0 4.417969 3.582031 8 8 8s8-3.582031 8-8v-72c0-19.503906 59.199219-78.34375 101.167969-113.894531 1.183593-1.003906 2.050781-2.324219 2.496093-3.808593l23.785157-79.296876c2.019531-4.242187 4.9375-7.996093 8.550781-11h16c4.175781-.015624 7.65625 3.183594 8 7.34375l-15.566406 77.816407-31.378906 54.839843c-1.5 2.484376-1.535157 5.589844-.089844 8.109376 1.441406 2.519531 4.136718 4.058593 7.039062 4.023437 2.902344-.039063 5.558594-1.644531 6.941406-4.195313l32-56c.421876-.75.726563-1.558593.894532-2.402343l16-80c.105468-.503907.160156-1.019531.160156-1.535157-.042969-10.132812-6.445312-19.148437-16-22.527343v-105.472657c0-4.417968 3.582031-8 8-8h16c4.417969 0 8 3.582032 8 8v201.832032c.007812 3.03125-.566406 6.03125-1.6875 8.847656-62.3125 151.671875-62.3125 155.34375-62.3125 157.320312v32c0 4.417969 3.582031 8 8 8s8-3.582031 8-8v-31.046874c3.199219-10.296876 37.992188-95.921876 61.144531-152.265626 1.890625-4.722656 2.859375-9.765624 2.855469-14.855468v-201.832032c0-13.253906-10.746094-24-24-24h-16c-13.253906 0-24 10.746094-24 24v104h-8c-12 0-20.761719 15.632813-23.199219 20.421876-.203125.414062-.371093.84375-.503906 1.28125l-23.320313 77.726562c-21.304687 18.171875-104.976562 91.609375-104.976562 124.570312zm0 0"/><path d="m240 207.976562c35.574219 0 120-108.800781 120-144-.011719-29.179687-19.757812-54.65625-48.011719-61.945312-28.253906-7.292969-57.863281 5.453125-71.988281 30.984375-14.125-25.53125-43.734375-38.277344-71.988281-30.984375-28.253907 7.289062-48 32.765625-48.011719 61.945312 0 35.199219 84.425781 144 120 144zm-56-192c26.5.027344 47.972656 21.5 48 48v6.527344c0 4.417969 3.582031 8 8 8s8-3.582031 8-8v-6.527344c0-26.511718 21.492188-48 48-48s48 21.488282 48 48c0 29.902344-79.695312 128-104 128s-104-98.097656-104-128c.027344-26.5 21.5-47.972656 48-48zm0 0"/></svg>