<svg height="480pt" viewBox="0 0 480 480" width="480pt" xmlns="http://www.w3.org/2000/svg"><path d="m368 240c.015625-62.121094-44.574219-115.289062-105.75-126.085938-61.175781-10.800781-121.273438 23.886719-142.527344 82.261719-21.25 58.371094 2.476563 123.578125 56.277344 154.640625v18.65625c-8.664062 3.023438-14.828125 10.75-15.851562 19.867188-1.027344 9.121094 3.273437 18.023437 11.050781 22.890625-3.625 6.238281-4.207031 13.785156-1.585938 20.503906 2.625 6.71875 8.167969 11.871094 15.058594 14 3.277344 19.179687 19.875 33.214844 39.328125 33.265625h32c19.449219-.054688 36.042969-14.089844 39.320312-33.265625 6.890626-2.125 12.4375-7.28125 15.0625-14s2.042969-14.265625-1.582031-20.503906c7.777344-4.867188 12.078125-13.769531 11.050781-22.890625-1.023437-9.117188-7.1875-16.84375-15.851562-19.867188v-18.65625c39.628906-22.824218 64.035156-65.085937 64-110.816406zm-240 0c-.019531-54.898438 39.753906-101.714844 93.933594-110.570312 54.175781-8.855469 106.785156 22.859374 124.25 74.90625 17.460937 52.042968-5.371094 109.074218-53.925782 134.6875-2.621093 1.386718-4.257812 4.109374-4.257812 7.074218v21.902344h-96v-21.902344c0-2.964844-1.636719-5.6875-4.257812-7.074218-36.761719-19.347657-59.769532-57.480469-59.742188-99.023438zm56 144h112c4.417969 0 8 3.582031 8 8s-3.582031 8-8 8h-112c-4.417969 0-8-3.582031-8-8s3.582031-8 8-8zm72 80h-32c-10.132812-.042969-19.148438-6.445312-22.527344-16h77.054688c-3.378906 9.554688-12.394532 15.957031-22.527344 16zm32-32h-96c-4.417969 0-8-3.582031-8-8s3.582031-8 8-8h96c4.417969 0 8 3.582031 8 8s-3.582031 8-8 8zm0 0"/><path d="m248 264h-16c-4.417969 0-8-3.582031-8-8h-16c0 13.253906 10.746094 24 24 24v8h16v-8c13.253906 0 24-10.746094 24-24s-10.746094-24-24-24h-16c-4.417969 0-8-3.582031-8-8s3.582031-8 8-8h16c4.417969 0 8 3.582031 8 8h16c0-13.253906-10.746094-24-24-24v-8h-16v8c-13.253906 0-24 10.746094-24 24s10.746094 24 24 24h16c4.417969 0 8 3.582031 8 8s-3.582031 8-8 8zm0 0"/><path d="m288 232h16v16h-16zm0 0"/><path d="m176 232h16v16h-16zm0 0"/><path d="m472.992188 192.0625-40.128907-5.015625c-4.386719-16.070313-10.777343-31.523437-19.023437-46l24.800781-31.894531c2.480469-3.1875 2.199219-7.722656-.65625-10.578125l-56.558594-56.566407c-2.855469-2.851562-7.386719-3.132812-10.570312-.65625l-31.894531 24.800782c-14.476563-8.25-29.933594-14.644532-46.007813-19.03125l-5.015625-40.128906c-.507812-3.996094-3.910156-6.992188-7.9375-6.992188h-80c-4.035156 0-7.4375 3.003906-7.9375 7.007812l-5.015625 40.128907c-16.074219 4.386719-31.53125 10.78125-46.007813 19.03125l-31.894531-24.800781c-3.183593-2.476563-7.714843-2.195313-10.570312.65625l-56.566407 56.550781c-2.855468 2.855469-3.136718 7.390625-.65625 10.578125l24.800782 31.894531c-8.246094 14.476563-14.636719 29.929687-19.023438 46l-40.128906 5.015625c-4 .503906-7 3.90625-7 7.9375v80c0 4.035156 3.003906 7.4375 7.007812 7.9375l40.128907 5.015625c4.386719 16.070313 10.777343 31.523437 19.023437 46l-24.800781 31.894531c-2.480469 3.1875-2.199219 7.722656.65625 10.578125l56.570313 56.566407c2.851562 2.851562 7.382812 3.132812 10.566406.65625l36.191406-28.152344-9.832031-12.625-30.609375 23.816406-46.582032-46.582031 23.808594-30.609375c2.039063-2.621094 2.246094-6.234375.519532-9.070313-9.730469-16.015625-16.933594-33.429687-21.359376-51.632812-.789062-3.226563-3.488281-5.632813-6.785156-6.039063l-38.503906-4.816406v-65.875l38.503906-4.796875c3.296875-.410156 5.996094-2.816406 6.785156-6.042969 4.425782-18.203125 11.628907-35.617187 21.359376-51.628906 1.726562-2.839844 1.519531-6.453125-.519532-9.074219l-23.808594-30.625 46.574219-46.582031 30.609375 23.816406c2.621094 2.039063 6.234375 2.246094 9.070313.519532 16.015625-9.730469 33.429687-16.933594 51.632812-21.359376 3.226563-.789062 5.632813-3.488281 6.039063-6.785156l4.816406-38.503906h65.875l4.796875 38.503906c.410156 3.296875 2.816406 5.996094 6.042969 6.785156 18.203125 4.425782 35.617187 11.628907 51.628906 21.359376 2.839844 1.726562 6.453125 1.519531 9.074219-.519532l30.609375-23.816406 46.574218 46.582031-23.808593 30.609375c-2.039063 2.621094-2.246094 6.234375-.519531 9.070313 9.726562 16.015625 16.933593 33.429687 21.359374 51.632812.789063 3.226563 3.488282 5.632813 6.785157 6.039063l38.503906 4.800781v65.875l-38.503906 4.796875c-3.296875.410156-5.996094 2.816406-6.785157 6.042969-4.425781 18.203125-11.632812 35.617187-21.359374 51.628906-1.726563 2.839844-1.519532 6.449219.519531 9.074219l23.808593 30.605468-46.574218 46.585938-30.609375-23.816406-9.832031 12.625 36.191406 28.152344c3.183594 2.476562 7.714844 2.195312 10.566406-.65625l56.570312-56.570313c2.855469-2.851563 3.136719-7.390625.65625-10.574219l-24.800781-31.894531c8.246094-14.476563 14.636719-29.929687 19.023438-46l40.128906-5.019531c3.992187-.492188 6.996094-3.878906 7.015625-7.902344v-80c0-4.035156-3.003906-7.4375-7.007812-7.9375zm0 0"/><path d="m232 80h16v16h-16zm0 0"/><path d="m153.070312 105.441406 13.847657-8 8 13.851563-13.847657 7.996093zm0 0"/><path d="m97.433594 166.933594 8-13.855469 13.855468 8-8 13.855469zm0 0"/><path d="m80 232h16v16h-16zm0 0"/><path d="m97.441406 313.070312 13.855469-8 8 13.855469-13.855469 8zm0 0"/><path d="m360.703125 318.933594 8-13.855469 13.855469 8-8 13.855469zm0 0"/><path d="m384 232h16v16h-16zm0 0"/><path d="m360.707031 161.070312 13.855469-8 8 13.855469-13.855469 8zm0 0"/><path d="m305.078125 111.296875 7.996094-13.847656 13.847656 7.996093-7.996094 13.851563zm0 0"/></svg>